<?xml version="1.0" encoding="UTF-8"?>
<svg id="Layer_2" xmlns="http://www.w3.org/2000/svg" viewBox="0 0 901.44 1333.95">
  <defs>
    <style>
      .cls-1 {
        fill: #fee5d1;
      }
    </style>
  </defs>
  <g id="Layer_1-2" data-name="Layer_1">
    <path class="cls-1" d="M649.52,543.72c19.94-1.38,39.88-2.59,59.82-3.96,26.91-1.85,50.7-10.82,69.28-31.12,4.01-4.38,8.36-5.59,14.13-5.2,28.57,1.93,57.17,3.52,85.76,5.2,7.64.45,15.29.76,22.94,1.14v-20c-2.89-1.53-5.86-2.91-8.64-4.61-17.82-10.83-36.93-18.46-57.34-22.54-10.37-2.07-20.97-3.04-31.98-4.58-5.75-15.71-14.79-29.47-29.8-37.39-14.05-7.41-29.1-12.95-43.61-19.27,29.49-11.53,41.27-19.42,60.84-44.45,11.25-14.39,20.82-30.1,31.05-45.28,1.83-2.71,3.18-5.73,5.9-10.72-28.96,7.2-56.12,13.13-85.49,17.28,23.99-22.36,43.92-45.55,60.93-71.21,20.24-30.52,41.81-70.94,42.81-80.56-41.38,19.59-80.07,42.68-113.13,74.57-20.69,19.96-34.94,43.49-42.74,71.03-1.99,7.04-4.3,14.1-5.26,21.31-2.04,15.43-7.95,28.42-20.02,38.69-4.77,4.05-8.34,9.52-12.45,14.34-.82-2.36-.6-3.98,0-5.43,5.56-13.18,10.7-26.57,16.92-39.43,7.3-15.1,12.71-30.72,16.04-47.12,5.77-28.43,13.1-56.4,23.82-83.42,2.82-7.1,5.87-14.38,6.88-21.85,1.52-11.18,6.77-19.92,13.99-27.98,1.77-1.98,3.29-4.2,4.97-6.27,32.17-39.65,52.24-84.83,61.68-134.87.69-3.67,1.15-7.37,2.03-13.04-39.18,23.84-74.55,48.27-98.09,86.7-3.66-7.22-6.84-13.51-10.67-21.05-13.51,18.67-18.42,39.26-27.45,57.99-.72-1.4-.8-2.61-.84-3.82-.05-1.67.02-3.34-.12-5-.67-8.24-1.61-8.8-9.95-6.3-.8.24-1.76-.07-3.01-.14-8.08-42.12-24.8-80.36-49.82-115.36.8,35.88-6.23,70.64-10.78,106.92-8.61-7.51-16.31-14.66-24.49-21.23-8.56-6.88-17.4-13.46-26.46-19.68-8.52-5.85-16.85-12.19-27.88-16.1,11.13,54.21,30.58,103.17,66.42,144.84-2.27,3.47-4.18,6.39-6.35,9.72-34.71-26.23-71.22-44.23-115.83-37.58,33.48,25.7,66.75,51.4,98.57,79.06-8.8,26.71-11.94,53.41-10.35,80.55,1.03,17.61,3.12,35.16,4.88,52.72,1.89,18.86,2.06,37.55-4.61,57.35-4.32-6.18-9.03-10.18-9.28-17.21-.8-22.64-2.16-45.26-2.78-67.9-.52-18.74-4.58-36.34-14.87-52.14-3.37-5.17-3.92-9.92-2.44-15.95,2.15-8.78,4.41-17.73,3.92-28.4-7.99,4.99-14.9,9.31-20.75,12.96-13.57-12.37-26.24-24.13-39.21-35.56-3.05-2.69-4.37-5.33-4.39-9.36-.03-7.66-.2-15.36-1.12-22.95-1.16-9.59-1.64-19.45-6.85-29.28-5.96,13.34-9.91,26.51-19.69,36.76-1.38-2.83-2.47-5.07-3.73-7.66-1.78,2.48-3.09,4.3-4.41,6.13-8.46-2.9-16.46-5.64-24.46-8.39,2.45,9.21,6.01,16.96,10.03,24.46,2.19,4.07,2.36,7.3-1.08,10.72-3.06,3.05-5.65,6.56-8.56,9.77-9.8,10.81-19.65,21.58-29.59,32.5-29.22-47.22-64.21-87.99-83.14-96.61-.99,13.33,4.27,25.64,5.05,38.63-5.64-6.43-10.23-13.29-15.24-19.82-5.1-6.64-9.14-14.3-17.92-20.43-3.47,43.4-11.11,84.79-7.39,127.22-4.03-2.71-7.9-5.3-12.65-8.49,0,4.08-.31,6.45.07,8.7.66,3.93,1.54,7.85,2.66,11.68,13.04,44.76,31.89,86.81,58.49,125.25,1.62,2.34,2.99,4.85,5.01,8.15h-20.01c-5.17-9.17-10.52-18.02-15.19-27.2-3-5.9-5.51-12.16-7.38-18.52-4.98-16.89-14.67-30.36-27.96-41.69-22.1-18.86-45.42-36.01-70.04-51.4-2.68-1.67-5.57-3.01-10.39-5.58,11.85,33.52,28.99,61.49,48.69,88.35-22.43-6.97-45.01-10.57-68-11.27-23.13-.7-46.08.71-68.91,8.03,1.06,1.1,1.25,1.46,1.53,1.56,56.23,20.67,112.46,41.33,168.69,61.99,1.87.69,3.73,1.44,5.56,2.22.59.25,1.13.68,1.61,1.11.2.18.25.58.28.89.03.3-.06.6-.07.64-9.39,4.39-18.65,8.71-28.13,13.14-34.18-31.47-75.84-43.88-123.09-48.36,18.31,33,38.55,61.76,66.92,84.77-29.07-.48-56.54,4.93-82.73,16.28-25.92,11.23-49.43,26.15-69.17,46.68,2.36.49,4.29.21,6.2-.16,22.2-4.39,44.35-9.06,66.61-13.15,38.63-7.09,77.52-12.81,115.55-22.94,3.52-.94,7.88-.29,11.47.82,19.05,5.92,38.06,12.02,56.93,18.51,6.52,2.24,13.47,4.7,18.7,8.94,10.57,8.57,20.55,18.01,29.9,27.91,6.03,6.38,10.5,14.22,16.05,21.92-16.2,3.15-40.33,0-56.03-6.44-9.23-3.79-18.4-8.13-28.02-10.45-53.58-12.92-103.68-3.1-150.81,24.4-.66.39-.94,1.45-1.48,2.34,79.51,7.99,158.91,7.47,240,6.93-2.74,4.07-4.48,6.39-5.95,8.87-8.32,14.01-17.17,27.75-24.69,42.19-8.16,15.67-11.11,32.7-9.18,50.41.83,7.61,1,15.34,2.45,22.83,4.33,22.19,9.07,44.3,13.85,66.41.7,3.25,2.44,6.28,4.42,11.2,12.51-21.32,22.21-41.29,29.43-62.47,5.07-14.87,8.61-30.06,9.93-45.74,2.26-26.72-2.66-52.4-11.14-77.57-1-2.97-1.99-5.95-2.99-8.92,3.99,1.94,6.33,4.69,8.63,7.48,39.36,47.92,76.76,97.34,112.66,147.89,41.91,59.01,80.77,119.9,112.4,185.17,1.39,2.87,2.61,5.83,4.77,10.67-42.58-23.23-86.65-31.18-132.51-31.29,19.22,15.17,39.07,29.04,58.01,44.06,19.02,15.08,37.13,31.29,55.95,47.27-3.19,1.84-5.31,3.07-7.72,4.46,1.43,3.46,2.63,6.37,4.15,10.05-4.48-1.12-7.99-2-11.51-2.88-.21.61-.42,1.23-.63,1.84,3.36,1.79,6.73,3.58,10.09,5.37-10.35-1.2-16.11.46-21.57,7.73,4.06.64,7.6.99,11.03,1.78,3.28.76,6.45,1.99,9.3,2.9-4.7,2.91-8.71,5.39-12.73,7.88.76,3.09,1.3,5.26,1.82,7.38-3.01.82-6.24.87-8.29,2.45-3.74,2.88-6.79,6.66-10.12,10.07-.63-.53-1.26-1.05-1.88-1.58,2.26-3.13,4.52-6.27,6.8-9.42-3.66-2.43-6.53-5.44-9.95-6.3-4.17-1.05-9.37-6.22-12.73-1.57-3.65,5.03-8.98,6.65-13.25,10.15-1.18.97-2.35,2.28-2.89,3.67-2.24,5.81-4.24,11.71-6.19,17.21-5.76,2.15-11.45,3.53-12.79,10.52,6.52,6.29,17.51,4.46,22.86,12.74-5.88,1.74-11.51,3.37-17.11,5.06-6.58,1.99-6.73,2.47-3.4,8.99-3.02,1.87-6.03,3.72-8.98,5.54,1.26,2.56,2.17,4.4,3.19,6.48-2.69-.53-5.15-1.02-7.6-1.5-2.2,5.2-4.66,10.27-7.05,15.38,1.64-.71,3.82-.89,6.84-.25-1.65,2.48-2.88,4.34-4.22,6.36,1.83,2.65,3.3,4.78,7.62,3.46,4.43-1.36,8.39.12,12.13,4.05,5.2,5.46,12.21,8.58,20.24,8.27-2.33,8.77-2.82,9.01-11.11,5.78-.93,3.74-1.85,7.46-3.02,12.14,2.04,2.59,4.95,6.28,8.16,10.35-6.97,2.28-9.63,1.31-12.23-3.48-1.58-2.9-3.19-5.78-4.94-8.94,2.25-3.25,2.29-3.64.71-12.98-2.27,5.42-5.4,7.9-10.83,7.11-2.41-.35-5.09,1.07-7.64,1.69-3.69-4-7.79-6.57-11.42-.15-1.88,3.32-7.88-3.75-7.16,3.46-3.23-.02-6.77.4-9.58.24-7.05-.41-11.88,3.8-17.95,4.89,2.78,10.25,10.56,8.87,17.62,8.95,6.11.07,12.24.34,18.33-.01,2.5-.14,4.91-1.67,8.25-2.9.33.46,1.37,1.88,3.15,4.33-6.82,1.36-12.57,2.51-18.32,3.66l.28,2.58c11.25,3.36,22.78-.87,33.24-.76.9,5.62,3.51,11.09,2.01,14.98-2.63,6.84,3.23,8.2,5.33,11.86-6.6-.74-10.46-5.98-14.31-10.2-5.4-5.92-7.04-7.17-15.84-4.24.37,2.37.76,4.83,1.3,8.23-10.81,2.04-15.67-9.26-25.04-10.8-1.14,9.6,7.83,11.42,12.31,16.7-4.62,5.55-10.98,1.71-16.08,3.84-1.47,5.52,2.75,6.76,6.36,8.16,5.79,2.24,11.68,4.21,17.43,7.4-14.83.89-29.17,2.66-43.55,7.77,1.35-2.41,2.71-4.83,4.27-7.6-1.09-.82-2.35-1.75-3.5-2.61-.87.66-1.82,1.13-1.76,1.36.98,3.9.51,6.17-4.46,6.52-2.67.19-5.19,2.59-8.54,4.41v-8.58c-5.29-4.84-7.52-.02-11.01,4.18-.61-2.13-.67-3.64-1.42-4.62-.88-1.14-2.28-2.28-3.61-2.51-.76-.13-2.17,1.42-2.68,2.5-1.42,2.97-2.53,6.1-4.41,10.77-2.26-3.76-3.36-5.6-5.35-8.91-.69,1.55-1.44,2.43-1.41,3.29.08,2.55.69,5.09.67,7.63-.02,2.47.67,5.71-4.32,5.84,1.91-11.01-3.73-17.48-14.66-21.79-1.32,2.57-2.69,5.26-4.16,8.12-2.45-1.37-5.3-2.95-9.89-5.52.59,5.42.96,8.79,1.41,12.9-5.99-.27-9.57,2.35-12.24,6.06-.11,4.97-.26,9.97-.38,14.96,2.17,4.74,4.23,9.24,6.17,13.47h41.2c-.2-1.1-.4-2.2-.6-3.3.86-.01,1.71-.03,2.57-.04.15,1.11.31,2.22.46,3.34h17.76c-2.21-3.54-4.21-6.74-6.68-10.68,6.26-.23,8.29,2.42,8.06,10.68h50.88c.23-.25.45-.5.68-.75.32.25.65.5.97.75h475.45v-8.17c-4.06-.99-8.42-.06-12.19-3.41-1.48-1.32-5.42.12-9.49.39-1.2-14.63-10.12-25.88-21.11-35.87,1.17-2.56,2.23-4.88,3.81-8.34-4.76.32-8.18.55-13.34.89,1.46-2.94,2.01-4.94,3.24-6.37,4.27-4.97,4.33-5.58-.43-8.94l-24.65-10.04c-2.08-.58-4.16-1.16-6.25-1.74.05-.47.09-.93.14-1.4,6.33-.65,12.66-1.33,18.99-1.94.97-.09,2.2.47,2.92.06,8.78-5.08,18.99-1.79,28.17-4.96,5.96-2.06,6.18-1.42,10.75-7.92-4.46-2.69-8.89-5.36-13.48-8.13-3.56,1.46-7.54,3.08-11.65,4.76-2.63-1.26-5.5-2.63-10.04-4.8,6.24-1.21,11.25-2.17,16.81-3.25-5.91-1.93-11.12-3.37-16.14-5.31-9.08-3.51-11.94-2.24-14.03,6.97-.42,1.86-.36,3.84-.64,7.24-1.63-1.94-3.33-3.23-3.12-3.83,1.52-4.27,3.1-8.59,5.34-12.5,1.72-3,4.02-6.05,6.81-8,7.63-5.31,8.43-11.82,4.46-19.6-3.39-.66-7.08-1.37-11.71-2.27,5.66-9.69,10.63-18.21,16.03-27.45,2.77,2.39,5.31,4.8,8.07,6.92,3.76,2.88,8.19,4.2,11.68.28,3.47-3.9,7.18-3.61,11.66-3.31,2.53.17,5.21-1.73,7.82-2.69-1-2.66-1.22-6.59-3.13-7.75-8.55-5.21-16.22-11.41-23.62-18.09-1.77-1.59-4.86-1.72-7.38-2.53,4.58-3.6,9.34-7.33,14.94-11.73-9.48-5.82-15.59,6.06-23.96,2.22,3.89-4.89,7.4-9.31,11.62-14.62-5.82-1.17-10.22-2.05-15.15-3.04-.85-3.02-1.71-6.09-2.72-9.65-2.18.37-4.2.32-5.86,1.07-2.95,1.33-5.69,4.06-8.18-.64-.3-.56-1.84-.82-2.7-.66-5.98,1.07-11.93,2.29-17.88,3.46-2.07,6.2-9.02,2.79-9.36,1.92-1.97-5.06-7.08-4.95-11.49-7.55,4.53-1.75,8.05-3.12,13.46-5.21-9.81-2.75-18.06-5.06-27.38-7.68,1.17-3.33,2.61-7.42,4.25-12.08-2.39-.14-5.03-.3-8.26-.5.56-3.44,1.07-6.56,1.6-9.8-1.27-.54-2.47-1.05-3.97-1.69-1.19,1.9-2.32,3.69-3.82,6.07-4.75-8.19-11.52-4.51-17.68-4.1l.08.04c-7.21-.82-14.42-1.65-23.18-2.65-.31.26-2.21,1.87-3.92,3.32-5.23-2.58-1.02-4.8.55-7.82-3.04.56-4.9.91-6.75,1.25-.18-3.42-.37-6.9-.6-11.24.85-.35,2.92-1.2,5.77-2.37-2.06-1.49-3.74-2.71-6.54-4.74,3.17-4.41,6.15-9.05,9.6-13.3,13.93-17.13,26.15-35.33,35.12-55.58,14.52-32.8,19.92-67.49,21.2-103.02.04-1.18-.58-2.39-1.2-4.77-59.67,46.03-105.3,99.79-116.43,176.91.53-19.59.69-39.19,1.66-58.76,1.97-39.92,4.51-79.81,6.48-119.73.43-8.61-.16-17.32-.96-25.92-.46-4.93.97-7.83,4.91-10.85,5.77-4.42,11.26-9.43,15.99-14.94,8.75-10.2,18.62-18.99,29.47-26.84,17.32-12.52,33.62-26.21,47.63-42.48,23.64-27.47,36.65-60,45.17-94.63,2.45-9.96,4.21-20.09,6.53-31.31-2.23.55-3.46.58-4.4,1.12-30.42,17.63-58.85,37.83-82.33,64.32-25.73,29.03-41.66,63.1-51.58,100.33-3.31,12.44-7.55,24.62-11.36,36.93-.71-.08-1.42-.15-2.13-.23-1.19-4.58-2.26-9.19-3.58-13.73-5.45-18.67-13.48-36.2-24.39-52.28-3.77-5.56-5.19-11.09-4.76-17.72,1.53-23.27,3.39-46.54,3.84-69.84.65-33.64.17-67.3.17-100.95,0-3.63,0-7.26,0-11.76,5.84-.61,11.03-1.31,16.24-1.67ZM641.85,267.94c1.65-20.12,2.3-40.31,3.45-61.68,4.46,1.7,7.47,2.85,11.41,4.35-3.18,39.73-6.39,79.19-18.91,117.14-.81-.1-1.62-.21-2.43-.31,2.2-19.83,4.85-39.62,6.48-59.5ZM640.21,367.24c1.65-9.14,3.89-18.25,6.74-27.09,8.75-27.09,12.76-55.06,16.34-83.14.16-1.24.37-2.47.56-3.7.67.02,1.34.04,2.02.06.32,22.11.91,44.23.76,66.34-.03,5.12-1.74,10.67-4.12,15.27-10.8,20.8-18.51,42.7-24.48,65.29-.4,1.51-.8,3.01-1.21,4.51-.67-.12-1.33-.23-2-.35,1.75-12.41,3.15-24.88,5.38-37.2ZM633.71,438.83c11.49-3.61,22.11-3.91,32.46,2.96,8.24,5.46,17.91,6.97,27.58,7.69,20.56,1.53,41.14,2.67,61.69,4.3,10.88.87,21.7,2.43,34.69,3.93-24.68,6.27-47.09,11.97-70.73,17.97,4.61-4.6,8.46-8.44,12.31-12.29l-.97-2.42c-2.34-.11-4.98-.97-6.97-.19-8.95,3.5-18.08,6.79-26.48,11.39-23.54,12.87-43.82,30.01-63.58,51.19v-84.54ZM469.2,1183.54c-1.61-3.44-2.24-4.8-3.17-6.79,2.43-.64,4.38-1.16,8.45-2.24-2.07,3.53-3.13,5.35-5.28,9.02ZM443.74,1224.11c-2.84-2.95-4.52-4.69-6.2-6.44.17-.65.33-1.31.49-1.96,2.51.2,5.02.4,7.54.6-.47,2.02-.96,4.09-1.83,7.81ZM313.81,1312.74c.79-.06,1.58-.12,2.38-.18l2.51,13.67c-4.81-3.78-7.04-8.12-4.88-13.49ZM327.95,1309.26c-.82-2.51-1.65-5.03-2.47-7.54.48-.17.95-.35,1.43-.52,1.04,2.36,2.08,4.73,3.12,7.09-.69.32-1.39.65-2.08.97ZM359.2,1308.25c-.45-.15-.91-.29-1.36-.44.69-2.13,1.37-4.26,2.06-6.39.48.31.95.61,1.43.92-.71,1.97-1.42,3.94-2.12,5.91ZM381.66,1317.87c-.78-5.88,2.85-12.51-8.35-14.31,4.22-2.03,5.44-2.63,6.67-3.22,1.04,2.24,2.76,4.43,2.96,6.75.29,3.39,4.64,7.22-1.28,10.78ZM494.6,1146.22v7.97c-2.75-2.54-4.32-3.99-6.46-5.98,2.31-.71,4.07-1.26,6.46-2ZM497.93,1240.35c-2.77,6.03-6.4,8.44-13.04,9.69,1.91-7.85,6.71-8.53,13.04-9.69ZM467.9,1254.43h8.45c-3.43,4.25-5.44,3.87-8.45,0ZM457.94,1311.92c-7.13-1.11-10.43.5-10.64,8.91-4.08-2.72-6.94-4.62-10.72-7.13-.22,2-.36,3.33-.52,4.85-7.25.65-14.99,1.79-22.61-1.89-1.48-.72-4.78,1.13-6.56,2.6-1.59,1.32-2.25,3.76-3.4,5.83-6.2-5.41-9.7-11.36-8.23-19.91,11.52-4.08,22.92-10.19,35.91-8.72,7.09.8,13.95,3.52,20.95,5.21,6.61,1.59,13.27,2.97,19.9,4.45.15.46.29.92.44,1.38-4.86,1.62-10.02,5.14-14.52,4.44ZM474.03,1314.48c5.7-7.99,14.6-4.15,20.64-7.27-6.46,3.07-11.2,10.85-20.64,7.27ZM477.53,1301.32c2.5-2.02,5.08-4.1,8.31-6.71,2.62,1.66,3.16,3.92.57,6.26-2.96,2.68-6.16,4.15-8.89.45ZM502.08,1277.5c-2.62,1.98-5.82,1.41-6.96-.8-3.51-6.83-8.8-5.5-14.12-3.78-5.72,1.85-9.33.28-11.08-5.3,6.53,2.71,12.77.05,19-1.35,7.5-1.68,13.97.02,21.35,5.25-3.19,2.33-5.71,4.13-8.18,5.99ZM828.1,1234.35c3.61,1.17,6.76,3.19,4.88,6.86-2.45,4.79-7.02,2.54-12.56,2.44,3.27-3.96,5.45-6.59,7.68-9.29ZM807.55,1119.53c-1.74-2.67-3.05-4.68-5.35-8.21,7.26.66,8.23,2.89,5.35,8.21ZM802.85,1263.7c-6.77,7.39-8.55,7.95-14.57,4.45,4-4.51,8.96-4.77,14.57-4.45ZM798.38,1291c2.05.56,3.48,3.37,5.2,5.16-2.11,1.74-3.97,4.35-6.38,5.06-6.31,1.85-7.87.36-13.81-12.06,6.04.66,10.68.66,15,1.84ZM773.86,1230.95c1.07.96,1.91,1.72,2.75,2.48-.81.78-1.69,2.24-2.42,2.17-.88-.09-1.78-1.39-2.32-2.36-.14-.24,1.04-1.23,2-2.29ZM768.15,1241.17c7.34,2.56,8.12,3.64,9.1,13.39-9.58-3.3-10.38-4.55-9.1-13.39ZM780.57,1289.08h-13.21q6.43-4.14,13.21,0ZM765.25,1078.21c-.56,2.53-1.11,5.06-1.94,8.81-1.69-2.19-3.9-4.11-3.57-4.81.93-1.95,2.93-3.39,5.51-4ZM758.78,1069.88c.9.65,1.61,1.16,2.32,1.67-.77.82-1.46,1.76-2.37,2.37-.17.12-1.76-1.11-1.72-1.64.06-.76,1.02-1.46,1.77-2.4ZM759.73,1262.1c-10.54,2.81-16.29-9.58-26.07-7.68,7.5-7.81,20.62-3.9,26.07,7.68ZM734.24,1077.17c8.51,4.09,8.82,5.08,4.46,12.64-5.41-2.53-6.25-6.59-4.46-12.64ZM727.18,1233.52c-1.95,2.2-3.52,3.96-5.09,5.73l8.61-2.22.4,1.62c-3.64,2.53-7.37,4.94-10.87,7.65-2.62,2.03-5.15,1.79-7.05-.36-1.01-1.14-1.25-3.52-.93-5.16.66-3.37,2.99-4.01,5.96-2.49,1.65-3.59,4.5-4.96,8.98-4.76ZM719.64,1146.56c-3.69,4.04-6.37,3.72-8.43-1.08,2.5.32,5,.64,8.43,1.08ZM552.12,436.29c2.9-4.4,5.02-9.4,6.95-14.34,9.93-25.43,21.55-50.04,34.05-74.31,9.94-19.3,15.47-40.15,18.86-63.14,1.63,2.58,2.71,3.8,3.27,5.23,10.11,25.96,17.44,52.1,12.15,80.68-2.83,15.27-2.41,31.12-3.78,46.69-1.5,17.07.33,34.1.05,51.16-.29,17.64-.03,35.28-.03,52.92,0,17.31-.03,34.62-.04,51.93,0,3.64,0,7.28,0,13.41-1.9-3.23-2.77-4.33-3.25-5.59-17.03-45.05-39.99-86.99-67-126.72-4.29-6.32-5.55-11.33-1.22-17.9ZM408.92,328.72c8.53-13.05,17.27-25.98,26.79-40.27,5.16,9.41,9.76,17.78,14.98,27.3-26.75,27.12-39.97,60.98-47.08,98.14,0-3.02.08-6.03-.01-9.05-.51-16.94-.63-33.91-1.77-50.8-.64-9.56,2.09-17.68,7.08-25.32ZM359.87,451.89c1.25-8.22,2.25-16.55,4.5-24.52,2.7-9.52,6.01-18.98,10.11-27.98,5.33-11.7,11.71-22.92,19.56-34.15.38,7.79.96,15.58,1.1,23.38.13,7.65-.71,15.35-.17,22.96.54,7.66-3.79,14.35-2.54,22.46,1.11,7.21-1.55,15.09-3,22.59-1.51,7.83-3.72,15.53-5.33,23.34-1.53,7.41-2.69,14.89-4.21,23.41-6.87-15.32-13.35-29.47-19.49-43.76-.97-2.25-.9-5.22-.52-7.73ZM316.78,282.11c6.67,11.45,13.23,22.54,19.54,33.77.87,1.55,1.21,3.98.68,5.67-6.1,19.61-1.91,38.85,1.59,58.19,2.6,14.38,4.72,28.85,6.93,43.3.37,2.43.05,4.96-1.7,7.96-4.29-6.91-7.74-14.55-13.04-20.56-10.83-12.29-12.64-26.39-11.38-41.77.98-11.93,1.45-23.91,1.97-35.87.66-15.39-.94-30.55-5.05-45.43-.34-1.24-.39-2.57-.51-3.86-.02-.2.28-.42.97-1.4ZM331.72,487.78c2.14-.6,5.29.18,7.23,1.46,8.61,5.67,17.02,11.66,25.35,17.74,2.08,1.52,4.27,3.52,5.29,5.79,7.43,16.58,14.57,33.29,21.13,50.56-28.23-20.83-55.72-42.35-82.59-67.6,9.2-3.18,16.3-5.92,23.6-7.96ZM450.09,769.22c-2.32-3.09-4.67-6.15-6.95-9.27-32.55-44.26-65.6-88.13-101.42-129.85-2.99-3.49-5.71-7.46-7.55-11.65-8.92-20.29-22.32-37.1-39.8-50.44-18.82-14.36-31.19-34.34-48.4-52.3,17.88-5.71,33.65-10.75,49.27-15.74,31.9,26.23,63.68,52.37,95.46,78.51-22.21-4.41-44.36-8.41-69.04-6.77,34.56,24.11,67.64,47.18,100.78,70.3-2.07,22.69-.94,44.43,4.52,65.98,5.39,21.29,15.26,40.72,24.83,60.32-.57.3-1.14.59-1.71.89ZM439.55,558.76c-3.04,13.66-5.61,25.23-8.41,37.83-9.64-7.62-19.09-13.78-24.21-24.44-2.74-5.7-5.34-11.52-8.69-16.86-12.12-19.33-13.1-40.19-8.63-61.68,3.85-18.53,8.39-36.93,12.89-56.54,5.1,2.42,10.27,4.48,15.05,7.21,34.97,20,69.97,39.96,104.74,60.3,20.96,12.26,41.53,25.17,63.23,38.38-.52-2.4-.51-4.25-1.3-5.67-9.49-17.18-18.17-34.91-28.86-51.32-28-42.96-68.06-65.28-119.51-66.71-1.59-.04-3.18-.21-6.88-.45,5.98-7.22,12.31-11.85,17.65-17.39,5.78-6,11.69-11.88,17.16-18.15,5.21-5.98,9.93-12.39,14.98-18.76,1.01.69,2.07,1.06,2.54,1.8,32.73,51,66.1,101.6,97.76,153.26,12.45,20.31,21.56,42.76,31.26,64.65,10.67,24.09,15.5,49.3,12.77,75.94-1.97,19.2-2.31,38.56-3.41,57.85-.09,1.54-.35,3.08-.73,6.37-21.32-25.12-43.82-46.5-69.67-64.12-1.24,1.29-2.11,2.2-3.07,3.19-.78-.63-1.66-1.12-2.26-1.85-5.48-6.7-10.7-13.63-16.41-20.14-12.48-14.22-26.83-24.26-47.71-18.65-11.01-22.4-23.83-43.17-40.29-64.06ZM612.91,840.48c-1.53,23.94-2.72,47.91-4.11,71.86-.15,2.56-.81,5.1-2.1,7.82-28.97-82.18-63.38-162.04-95.6-242.94,1.35,1.66,2.76,3.28,4.04,5,12.35,16.55,24.71,33.09,36.96,49.71,1.95,2.65,3.88,5.51,4.98,8.57,11.51,32.1,29.8,60.2,51.16,86.43,3.37,4.14,5.03,8.15,4.69,13.55ZM482.07,812.57c-5.12-7.23-6.45-14.02-4.34-22.29,5.2-20.28,10.1-40.64,15.32-61.78,1.8,1,3.93,1.71,5.43,3.1,8.54,7.91,16.2,17,25.57,23.73,11.08,7.95,14.67,19.62,19.04,31.05,20.11,52.49,40.04,105.05,59.77,157.68,1.81,4.83,2.68,10.36,2.51,15.52-.62,17.9-1.89,35.78-3.02,55.55-7.6-6.41-12.12-12.7-15.52-20.09-29.46-63.95-64.05-125-104.76-182.47ZM594.81,1239.31c.68,3.59,1.26,6.64,1.94,10.22-4.6,2.1-8.8,7.46-16.93,2.1,5.51-4.53,10.08-8.29,14.99-12.32ZM586.62,1280.44c-1.18-.92.13-5.04.29-7.69.83-.12,1.65-.25,2.48-.37,1.05,9.59,8.91,13.42,16.67,19.55-9.34-1.26-13.99-7.24-19.44-11.48ZM617.45,1277.64c-.27-.62-.54-1.24-.81-1.86,1.79-.74,3.59-1.48,5.38-2.22l.7,1.61c-1.76.82-3.51,1.64-5.27,2.46ZM599.68,1260.51c9.78-5.26,19.28-1.19,24.58,10.69-10.52.96-17.44-4.6-24.58-10.69ZM629.33,1297.03c3.92-6.2,7.06-4.12,11.36-1.75-3.63,3.5-6.9,1.93-11.36,1.75ZM633.65,1249.17c6.27,3.2,7.71,7.93,8.62,13.32-9.22-.96-9.89-1.92-8.62-13.32ZM658.68,1308.69c-4.43,1.83-8.35.66-11.03-3.52-1.37-2.13-2.43-4.46-3.87-7.15,6.37-2.93,11.67-.73,16.42,3.06,3.24,2.59,2.38,6-1.51,7.61ZM690.32,1243.79c-2.17-4.99-1.18-8.97,3.31-13.59q3.74,10.4-3.31,13.59ZM701.95,1060.81c1.31-4.44,2.64-8.86,4.23-14.19,1.53,2.56,2.62,4.37,3.7,6.19-6.2,2.74-1.57,8.18-2.96,12.72-3.44.17-6.52.5-4.98-4.72ZM696.46,1050.02c-.47,3.07-1.58,6.2-1.27,9.19.56,5.42-1.06,7.64-7.42,5.08,4.43,7.59,11.88,4,17.43,7.15-2.85,4.55-7,5.08-10.45,3.57-6.42-2.8-12.44-1.9-18.66.62-.26-.7-.52-1.4-.78-2.1,2.42-1.45,4.83-2.9,7.11-4.27-1.29-10.56,10.21-12.14,14.04-19.25ZM684.56,1251.71c-2.21.15-4.42.29-6.63.44-.08-.76-.15-1.51-.23-2.27,2.15-.39,4.3-.78,6.46-1.17l.4,3ZM682.9,1265.57c-2.14.46-4.29.93-7.7,1.66,2.14-4.8,4.83-3.62,7.7-1.66ZM668.55,1087.97c-3.86,2.5-6.87,4.45-9.81,6.36-.2-2.25-.4-4.61-.64-7.32,3.14.29,6.15.57,10.45.96ZM665,1273.69c-5.78,3.81-9.76,7.46-15.2,2.46q5.5-4.12,15.2-2.46ZM653.74,859.99c-.25,4.32,3.8,10.72-4.15,11.49,1.38-3.83,2.76-7.66,4.15-11.49ZM630.85,852.66c6.09,6.29,12.2,12.57,18.31,18.85h0c1.88,5.75,1.59,11.52,1.21,17.55-1.39,22.23-2.37,44.49-3.02,66.75-1.02,35.28-1.64,70.57-2.45,105.86-.06,2.82,3.38,6.37-2.21,8.56-.64-2.57-1.22-4.91-1.98-7.98h-12.69c1.12-7.4,5.28-8.34,12.26-5.59-3.25-5.56-6.45-5.51-9.58-5.92-1.12-.15-2.75-1.09-3.06-2.04-1.94-5.79-4.94-1.46-7.45-.98-7.63-11.22-9.35-23.33-8.23-36.86,3.08-37.13,5.05-74.35,7.4-111.53.96-15.28,1.73-30.56,2.65-45.84.14-2.26.62-4.49,1.23-8.82,3.32,3.49,5.44,5.77,7.61,8ZM630.24,308.47c-1.3-3.55-2.26-5.86-3-8.23-3.84-12.34-8.46-24.52-11.15-37.11-1.88-8.83-1.1-18.23-1.51-27.38.92-.04,1.84-.08,2.77-.12,9.55,22.78,20,45.38,12.89,72.84Z"/>
  </g>
</svg>