<?xml version="1.0" encoding="UTF-8"?>
<svg id="Layer_2" data-name="Layer 2" xmlns="http://www.w3.org/2000/svg" viewBox="0 0 204.31 150.68">
  <defs>
    <style>
      .cls-1 {
        fill: #f6f6f6;
      }
    </style>
  </defs>
  <g id="Layer_1-2" data-name="Layer 1">
    <path class="cls-1" d="M143.06,35.68c7.16-8.07,12.21-17.73,19-26.07.66-.05.23.12.19.44-.54,3.96-7.03,17.13-9.63,20.43-1.94,2.47-4.31,4.67-6.33,7.08-.42.5-1.09,1.23-1.25,1.86,3-2.98,5.97-6.05,8.82-9.19,3.78-4.17,7.38-9.04,11.54-12.8.56-.51,4.45-3.88,4.97-3.35l-.23,1.13c-3.3,4.36-6.07,9.41-9.35,13.74-1.98,2.61-4.45,4.85-6.55,7.35-.42.5-1.09,1.23-1.25,1.86,7.35-6.97,14.15-14.6,22.35-20.61.18.2-1.88,3.45-2.18,3.91-2.35,3.61-5.11,6.98-7.75,10.38.42.3,1.08-.35,1.42-.57,3.68-2.36,7.39-5.48,10.25-8.75.87,4.14-2.5,6.27-4.08,9.2s-.19,2.85.73,4.95c1.44,3.28-.43,6.82-2.6,9.31,1.37,1.1,1.73,2.66,1.37,4.36-.12.58-.91,1.74-.84,2.06.04.2,1.36,1.54,1.65,2.32.74,2,.66,4.19-.73,5.87-.93,1.12-3.16,1.87-3.16,3.52,0,1.35,1.87,3.2,2.14,4.78.12.68.13,1.72.04,2.4s-.71,1.58-.67,1.97c.04.46.99,1.36,1.29,1.93.79,1.53,1.04,3.09.9,4.82-.05.56-.51,1.4-.45,1.7.13.64,1.74,2,1.89,3.83.16,2-1.22,2.48-1.4,3.21-.14.58.49,2.28.36,3.31-.24,1.86-1.71,2.7-2.03,3.71s-.06,2.11-.63,3.34c-.35.74-1.29,1.4-1.41,1.82-.41,1.37.31,2.54-.66,4.31-.79,1.44-1.94,1.32-2.09,1.51-.24.29.19,2.58-1.22,3.37-.41.23-1.27.35-1.43.56-.29.41.05,1.37-.73,2.01-2.27,1.85-8.63-1.13-11.24-1.44-.27-.03-.8-.17-.56.32.14.29,4,2.72,4.54,2.91,1.08.38,2.16.3,3.17.56,5.08,1.29,9.56,5.25,14.47,7.38,8.89,3.86,16.23,3.26,25.34,4.71,1.23.19,3.33.4,3.6,1.89.11.59-.34,1.17-.19,1.64.1.32,1.02.73,1.35,1.15,1.36,1.7-.24,2.71-1.37,3.86,2.87,2.2-.29,3.03-.87,4.35-.23.52-.03,1.07-.19,1.55-.41,1.27-2.59,3.36-3.81,3.89-1.32.57-2.84.21-3.51.45-1.01.37-1.96,1.89-3.79,2.43-2.41.7-3.88-.17-5.57.13-.86.15-1.66,1.27-3.02,1.46-2.14.3-4.2-.77-5.41-.65-1.02.1-2.37,1.44-4.26,1.44-1.66,0-3.94-1.26-4.97-1.24-.51,0-1.29.59-2,.7-5.15.74-9.27-3.93-11.73-7.85-1.05-1.68-3.29-7.29-4.43-7.99-1.56-.95-3.7-.38-5.44-.52-8.43-.71-18.4-4.22-26.18-7.59-6.19-2.68-6.5-4.29-11.07-8.3-3.44-3.02-14.19-10.46-18.61-10.19-1.01.06-2.02.7-3.11.5.74-2.91,2.93-4.19,5.47-5.33,2.05-.92,3.03-1.46,4.96-2.49,7.41-3.95,14.15.56,21.28.61,3,.02,3.4-1.8,2.58-4.34-1.59-4.91-7.95-3.47-9.99-8.14-1.5-3.43,1.49-4.37,3.03-6.75.71-1.09,1.82-4.74,2.64-5.06.18-.07.57-.15.6.11,1.12,2.37.08,4.68-1.01,6.8,2.91-1.16,4.92-3.59,7.08-5.71l-.67,2.56-2.94,3.89c.34.31,4.79-1.98,5.09-2.48.42-.68-.42-2.55-.56-3.42-1.5-9.41-.71-13.54,3.12-22.08.56-1.26,1.26-3.13,1.97-4.23.16-.24-.03-.44.55-.32l.75,4.72c2.26-5.78,3.76-11.49,7.9-16.31l18.43-31.12c.49-.04.19.75.13,1-1.62,6.98-6.17,14.48-8.95,21.1l-2.86,4.47Z"/>
    <path class="cls-1" d="M90.71,16.63c-7.39,9.26-22.44,14.1-33.63,16.38-1.16,1.11,8.39,6.07,9.88,6.1-.32,12.86-21.06,16.22-29.82,9.27l5.94-11.38c-9.38,2.92-20.39,7.3-30.44,4.93-3.63-.86-12.01-6.39-12.57-10.43-.71-5.1,4.37,2.43,4.72,2.52,7.94,1.99,22.55-14.97,32.36-13.47l.94-8.56c4.32-.86,4.4,4.35,8.04,5.46,4.98,1.52,12.61-4.31,17.95-5.97,6.53-2.04,27.03-3.21,30.04-6.96,1.09-1.36.92-3.43,2.47-4.53,1.48,4.71-3.01,13.04-5.88,16.63Z"/>
  </g>
</svg>