<?xml version="1.0" encoding="UTF-8"?>
<svg id="Layer_2" xmlns="http://www.w3.org/2000/svg" viewBox="0 0 632.61 1176.01">
  <defs>
    <style>
      .cls-1 {
        fill: #fee5d1;
      }
    </style>
  </defs>
  <g id="Layer_1-2" data-name="Layer_1">
    <g>
      <path class="cls-1" d="M147.43,449.92c4.13,4.23,9.46,7.82,12.17,12.82,7.63,14.08,14.19,28.74,21.17,43.18,1.32-.38,2.64-.75,3.96-1.13-6.07-31.68-8.68-64.56-19.19-94.7-10.47-30.02-28.85-57.28-42.11-86.57,47.53,69.57,63.98,115.4,66.92,180.93,8.61-9.76,20.42-46.33,18.47-68.97-2.05-23.78-8.02-47.21-10.87-71.53,5.36,18.9,13.31,37.52,15.36,56.76,2.06,19.4-1.75,39.42-2.93,58.4,7.29-11.24,16.21-22.28,22.06-34.76,6.24-13.32,9.59-28.01,15.29-45.44-.89,54.59-40.02,92.57-45.23,143.07,9.2-10.19,18.41-20.38,30.92-34.23-6.75,18.28-11.89,32.22-18.08,48.99,8.18-1.29,12.52-1.97,17.95-2.83-.59,2.43-.48,4.13-1.28,4.97-13.72,14.4-14.43,30.03-10.29,49.41,15.48,72.54,27.72,145.78,43.22,218.32,13.07,61.16,28.98,121.71,47.48,182.12,1.66-209.91,21.47-417.58,49.07-624.61,1.45-.06,2.91-.13,4.36-.19,3.44,8.16,6.89,16.32,10.33,24.47-3.18-2.13-6.35-4.26-9.93-6.65-3.23,18.34,10.05,36.46,29.74,40.7-7.13-12.09-13.77-23.37-20.42-34.64,8.04,8.33,16.07,16.67,24.11,25,1.22-.63,2.44-1.26,3.67-1.88-4.68-11.61-9.89-23.05-13.88-34.89-4.03-11.98-6.83-24.36-9.96-35.8-16.8,13.36-27.72,11.32-37.94-11.24-10.71-23.62-26.11-41.66-49.8-52.74-3.07-1.44-4.19-7.05-7.58-13.2,19.89,13.3,37.04,24.77,54.2,36.24,1.1-1.43,2.2-2.85,3.3-4.28-6.78-21.93-20.3-39.17-38.46-53.21l-.44.46c18.63-6.56,19.25,12.49,28.09,19.99,6.2-28.33-2.15-42.81-52.17-90.68,1.12-1.11,2.24-2.23,3.35-3.34,15.32,15.37,30.63,30.75,48.51,48.69-10.11-23.41-18.88-44.55-28.35-65.37-9.75-21.46-20.19-42.61-30.33-63.89,1.52-.7,3.04-1.39,4.55-2.09,22.78,49.92,45.56,99.85,69.62,152.58,1.22-5.67,4.49-11.68,3.24-16.52-7.24-28.15-15.46-56.06-23.57-83.98-1.45-5-3.99-9.68-4.47-15.07,20.11,35.47,30.04,74.72,36.49,115.27,3.37-.83,6.73-1.65,10.1-2.48-2.99-21.8-5.98-43.6-8.97-65.4l-.36.37c6.13,20.84,12.27,41.67,19.75,67.11,11.52-29.5,6.19-56.69,3.93-83.61,1.32-.24,2.65-.47,3.97-.71,4.66,26.67,9.33,53.34,14.24,81.43,26.37-37.75,34.75-81.51,48.97-122.97-.46,47.41-23.28,87.36-40.95,129.99,6.8-9.5,13.61-19,20.41-28.5.5.18,1,.36,1.49.54-.81,2.35-1.35,4.84-2.47,7.03-9.26,18.09-17.61,36.77-28.4,53.91-5.38,8.55-15.29,14.24-22.96,21.06,7.11,0,16.42,1.94,24.44-.45,12.33-3.68,15.71,1.19,17.01,11.82,3.68,30.02,7.62,60.01,11.82,92.88,6.27-46.5,2.94-92.8,28.13-137-2.41,26.37-4.83,48.38-6.32,70.45-1.47,21.81-2.01,43.69-2.83,62.68,18.72-25.78,27.42-59.39,32.68-94.36,2.17.57,4.34,1.14,6.51,1.71-3.93,20.44-7.87,40.88-12.46,64.72,8.96-10.62,16.42-19.46,23.89-28.31,1.44,1.07,2.88,2.13,4.33,3.2-2.45,4.89-4.46,10.08-7.44,14.62-14.84,22.64-30.13,45-44.82,67.74-3.71,5.75-4.77,13.32-8.83,18.7-7.42,9.82-28.08,12.69-39.02,4.75-13.42-9.74-25.58-21.21-39.18-32.68-20.94,184.94-32.88,370.91-21.03,563.02,28.03-45.61,40.87-92.23,59.16-137.12-7.74,35.56-13.88,71.57-23.68,106.55-8.99,32.12-22.75,62.88-32.59,94.8-2.97,9.62-.82,21.25.66,31.72,2.66,18.76,6.2,37.43,10.15,55.97,2.09,9.78,3.76,19.56-8.16,22.61-12.24,3.14-18.2-5.85-19.98-16.25-4.5-26.15-8.88-52.38-11.66-78.75-1.52-14.39-6.34-24.95-17.45-34.77-51.79-45.81-86.79-103.27-111.99-167.23,17.41,23.36,33.83,47.55,52.49,69.86,18.86,22.54,39.95,43.22,61.02,63.76-31.45-78.03-40.87-160.53-56.19-241.62-9.15-48.44-17.51-97.06-27.72-145.28-6.89-32.52-8.06-32.27-43.17-35.58,3.25-1.65,6.5-3.3,12.46-6.32-8.43-2.8-13.23-4.39-20.06-6.66,4.69-2.64,8.1-4.56,15.7-8.83-15.66-1.25-27.04-2.16-38.42-3.06-.03-1.38-.06-2.75-.09-4.13,13.88-1.83,27.77-3.67,41.65-5.5.28-1.35.56-2.7.84-4.05-44.23-12.08-90.64-13.28-135.29-24.35,38.71,2.82,77.42,5.65,118.72,8.66-50.05-45.52-111.7-78.28-141.82-141.57,21.74,31.18,46.47,59.49,79.38,79.99-16.4-18-32.79-36.01-49.19-54.01.53-.48,1.05-.95,1.58-1.43,37.29,33.65,74.59,67.3,111.88,100.96,1.12-.68,2.24-1.36,3.36-2.04-8.27-17-16.54-34.01-24.82-51.01-.93-4.83-1.86-9.65-2.8-14.48ZM417.07,414.68l2.76-1.17c-3.43-31.41-6.85-62.81-10.49-96.16-8.45,5.51-15.91,10.37-21.85,14.24,10.25,28.78,19.91,55.94,29.58,83.09Z"/>
      <path class="cls-1" d="M438.18,502.42h13.45c1.27,120.99-12.41,241.35,2.07,366.16,47.89-61.69,74.03-129.76,103.42-196.24-22.49,85.52-40.33,172.48-97.12,244.94-12.29,15.68-17.56,38.21-21.96,58.47-12.18,56.08-22.12,112.65-33.17,168.98-1.55,7.91-3.14,16.25-6.99,23.11-2.37,4.22-9.72,8.93-13.65,8.06-3.77-.83-8.84-8.86-8.41-13.23,1.42-14.45,4.59-28.79,7.94-42.97,14.79-62.67,30.29-125.18,44.47-187.99,2.53-11.23-.37-23.6-.03-35.42,2.41-84.07,4.72-168.15,7.65-252.2,1.51-43.38,4.29-86.71,6.18-130.08.15-3.37-2.2-6.85-3.85-11.59Z"/>
      <path class="cls-1" d="M520.6,570.6c-5.92-26.76-11.98-53.52-17.63-80.36-.96-4.56-.14-9.49,1.76-14.35,2.55,12.97,5.09,25.94,7.64,38.92.94-.01,1.88-.03,2.81-.04.59-10.06,1.19-20.12,1.78-30.18.71.03,1.41.06,2.12.09v57.86l1.98.18c9.81-36.76,19.61-73.53,29.42-110.29.86.14,1.71.28,2.57.43-2.39,12.16-4.32,24.44-7.28,36.46-3.02,12.27-7.05,24.3-8.8,37.05,4.9-7.63,9.79-15.25,14.69-22.88.74.37,1.48.73,2.22,1.1-4.96,10.41-9.93,20.82-14.89,31.24l2.48,1.38c6.73-10.23,13.47-20.46,20.2-30.69.79.48,1.59.96,2.38,1.44-7.57,13.02-15.14,26.05-21.05,36.22,15.98-11,34.29-22.05,50.68-35.43,11.11-9.07,19.54-21.43,31.55-35.01-13.23,38.17-50.16,55.5-62.45,89.09,21.74-9.54,45.06-19.78,68.37-30.01.48.84.96,1.68,1.44,2.52-12.48,6.97-24.96,13.95-38.93,21.75,5.67-.73,10.02-1.3,14.36-1.86.21.63.43,1.27.64,1.9-23.04,11.94-46.09,23.88-69.13,35.83.22,1.06.45,2.13.67,3.19,5.86.58,11.73,1.16,17.59,1.74.29,1.28.59,2.56.88,3.84-8.03,2.23-16.07,4.47-25.1,6.98,3.25,1.47,6.18,2.8,13.78,6.25-10.73,5.17-18.68,7.98-25.39,12.59-4.24,2.91-8.38,8.08-9.59,12.96-15.43,62.55-30.32,125.23-45.35,187.88-2.38,9.91-4.81,19.82-10.62,29.05,4.76-25.56,8.66-51.31,14.46-76.63,11.36-49.55,24.49-98.71,35.13-148.41,1.89-8.83-4.7-19.47-7.56-29.97h12.82c-6.39-14.18-12-26.63-17.61-39.07.77-.67,1.54-1.33,2.31-2,8.52,10.13,17.03,20.26,24.61,29.27Z"/>
      <path class="cls-1" d="M469.76,242.71c15.44-11.45,30.88-22.89,46.32-34.34.58.68,1.16,1.36,1.74,2.04-22.24,19.05-44.48,38.11-69.55,59.58,43.41-7,82.1-13.24,120.8-19.47.24,1.38.48,2.76.72,4.13-19,3.03-38.09,5.56-56.97,9.24-20.06,3.91-40.91,6.47-59.57,14.13-17.64,7.24-32.88,20.32-53.07,33.34,12-32.91,24.53-60.77,49.48-81.45-.48,2.85-.97,5.69-1.45,8.54-13.5,10.36-19.56,23.82-17.17,41.89,12.98-12.22,25.37-23.9,37.77-35.57.34-.68.66-1.36.96-2.06Z"/>
      <path class="cls-1" d="M375.26,454.85c12.26,7.78,22.33,16.54,34.03,21.1,22.84,8.89,38.89-6.82,54.99-19.27,9.26-7.16,17.45-15.72,26.12-23.65,1.13.85,2.26,1.69,3.39,2.54-12.54,18.29-23.61,37.9-38.21,54.37-8.08,9.11-21.62,14.09-34.73,3.19-4.72-3.92-11.73-4.97-17.45-7.82-12.89-6.43-26.58-12.29-28.14-30.43Z"/>
      <path class="cls-1" d="M469.76,242.71c-.3.7-.62,1.38-.96,2.06-10.67-4.83-2.08-9.43.57-13.35,4.67-6.91,10.17-13.26,15.32-19.84-2.04-1.74-4.09-3.48-6.13-5.22-4.08,5.58-8.16,11.16-12.24,16.74,5.83-8.51,11.95-16.85,17.2-25.71.82-1.38-2.36-5.12-3.69-7.77,9.69-7.84,19.37-15.67,29.06-23.51,0,0,.71.74.71.74-6.15,10.75-12.29,21.51-18.44,32.26,1.39,1.02,2.78,2.03,4.17,3.05,12.56-9.56,25.11-19.13,35.2-26.81-18.96,21.01-39.86,44.18-60.76,67.34Z"/>
      <path class="cls-1" d="M147.43,449.92c.93,4.83,1.86,9.65,2.8,14.48-21.65-24.9-44.95-48.61-64.38-75.14-12.98-17.72-20.46-39.47-28.14-60.1,16.33,25.74,31.58,52.27,49.37,76.96,11.53,15.99,26.78,29.29,40.36,43.8Z"/>
      <path class="cls-1" d="M358.9,189.96l-27.22-108.56c.92-.31,1.83-.63,2.75-.94,7.83,26.8,15.66,53.6,23.77,81.37,5.14-6.32,9.68-11.9,14.21-17.48,1.44.8,2.88,1.6,4.31,2.4-3.08,6.32-6.48,12.5-9.15,18.99-3.32,8.05-6.03,16.35-9.02,24.56-.02.02.34-.34.34-.34Z"/>
      <path class="cls-1" d="M405.91,109.93c3.68,16.34,7.36,32.67,11.23,49.88,1.87-2.86,3.89-5.95,5.91-9.05.59.14,1.18.27,1.77.41-5.45,23.47-10.9,46.93-16.35,70.4-1.45-.14-2.89-.28-4.34-.42,12.1-37.22,11.09-74.06-3.81-110.48,1.86-.25,3.73-.5,5.59-.75Z"/>
      <path class="cls-1" d="M241.07,256.95c-30.39-11.08-60.79-22.17-91.18-33.25.48-1.34.97-2.67,1.45-4,30.37,11.14,60.74,22.27,91.11,33.41-.46,1.28-.92,2.56-1.38,3.84Z"/>
      <path class="cls-1" d="M303.24,261.8c-26.7-20.11-56.83-32.22-89.33-38.86,32.86,3.11,63.38,12.3,88.66,34.92.77.69.23,2.85.27,4.36-.03.03.4-.42.4-.42Z"/>
      <path class="cls-1" d="M448.26,84.83q8.16-32.39-2.7-48.36c4.23-2.7,8.42-5.37,16.01-10.2-3.39,22.56-6.18,41.11-8.97,59.65-1.45-.36-2.9-.73-4.34-1.09Z"/>
      <path class="cls-1" d="M225.83,66.95c-3.08,4.63-5.72,8.59-8.97,13.48-3-6.33-4.51-12.7-8.4-16.8-3.57-3.77-9.71-5.11-14.78-7.55,9.03-6.78,11.07-6.12,32.15,10.87Z"/>
      <path class="cls-1" d="M508.81,71.81c-4.72-5.43-8.31-9.54-13.02-14.95,6.49-4.7,12.76-9.23,19.03-13.76,1.33,1.12,2.66,2.24,4,3.36-3.17,8.03-6.33,16.05-10.01,25.36Z"/>
      <path class="cls-1" d="M55.42,488.37c-18.47-11.22-36.95-22.45-55.42-33.67.72-1.2,1.45-2.4,2.17-3.6,18.46,11.24,36.93,22.49,55.39,33.73-.71,1.18-1.42,2.36-2.14,3.54Z"/>
      <path class="cls-1" d="M155.74,127.64c7.84,9.61,24.14-1.91,24.45,17.93-10.77-5.83-20.63-8.57-26.67,6.77-.98-1.1-1.96-2.21-2.93-3.31,1.36-5.66,2.73-11.33,5.15-21.39Z"/>
      <path class="cls-1" d="M248.48,0c4.28,8.05,8.56,16.11,13.93,26.21-20.11-.79-17.68-13.41-20.1-22.81,2.06-1.14,4.12-2.27,6.18-3.4Z"/>
      <path class="cls-1" d="M347.76,397.1c-5.39-12.82-10.78-25.64-16.16-38.45l5.54-2.37c5.51,12.76,11.02,25.53,16.53,38.29l-5.91,2.53Z"/>
      <path class="cls-1" d="M581.73,158.43q16.1-9.02,24.42.25c-8.27,9.15-16.2,11.8-24.42-.25Z"/>
      <path class="cls-1" d="M378.69,55.82c2.59,22.05,5.17,44.1,7.76,66.15-1.05.11-2.09.22-3.14.33-2.62-22.05-5.23-44.1-7.85-66.15,1.08-.11,2.16-.22,3.24-.34Z"/>
      <path class="cls-1" d="M508.88,166.11c13.84-13.17,27.68-26.34,41.52-39.51.69.73,1.37,1.45,2.06,2.18-14.29,12.69-28.58,25.38-42.87,38.07,0,0-.71-.74-.71-.74Z"/>
    </g>
  </g>
</svg>