<?xml version="1.0" encoding="UTF-8"?>
<svg xmlns="http://www.w3.org/2000/svg" version="1.1" viewBox="0 0 1445.1 918.2">
  <defs>
    <style>
      .cls-1 {
        fill: #ec8511;
      }
    </style>
  </defs>
  <!-- Generator: Adobe Illustrator 28.7.3, SVG Export Plug-In . SVG Version: 1.2.0 Build 164)  -->
  <g>
    <g id="Layer_2">
      <g id="Layer_1-2">
        <path class="cls-1" d="M1445.1,918.2v-238.6c-2.8.9-5.7,1.7-8.5,2.6-.2-2.7,0-5.7-.8-8.4-1.9-6.8-4-7.6-10.1-4.2-4.9-11.8-9.6-8.9-16-1.9-.3-3.7-.6-6.1-.8-8.5-.7-9.6.2-19.8-10.1-25.8-1-.5-1.6-2.4-1.6-3.7,0-12-5.6-20.1-16.5-24.9-2.9-1.3-5.9-2.4-8.5-4.1-3.5-2.3-7.1-4.6-9.9-7.7-4.3-4.8-9.6-6-15.6-6.6-2.8-.3-5.5-1.6-8.2-2.7-6.8-2.8-13.5-5.8-20.4-8.8,8.9-9.9,20.8-17.1,35-20.9-16-.7-29.5,4.7-40.8,16,9.2-18.5,22.3-33.2,41.6-42-7.4-.6-14,1.7-20,5.3-5.9,3.6-11.8,7.7-16.5,12.7-4.8,5.1-8.1,11.6-11.9,17.3.9-11.5,15-37.4,34.2-62.6-6.9,1.6-14.7,6.5-23.3,17.2-6.1,7.6-10.6,16.5-15.3,24.1,1.2-26.1,13.9-50.9,17.5-77.7-12.2,22.8-19.4,47.4-25.3,73.4-4-18.2-6.2-36-15.2-51.8-.5,0-1,.2-1.5.3,2,19.4,3.9,38.9,5.8,57-7.3-12.8-15.3-26.6-23.2-40.5-.5.2-.9.5-1.4.7,4.1,18,12.3,34.4,19.7,51.9-10-9.6-19.6-18.7-29.1-27.9-.4.4-.8.8-1.2,1.2,6,11.9,15.4,21.4,24.6,31.5-5-1.9-9.3-3.6-13.6-5.3-.4.6-.8,1.2-1.3,1.9,1.9,1,3.8,1.9,5.7,2.9l-1,2c-4.2,0-8.5,0-12.7,0-.8,0-1.8-.7-2.2-1.4-5.8-10.5-15.3-15.7-26.7-18.9.8-11.4,1.8-22.6,2.5-33.9,1.8-29.9,12-57.9,20.9-86.1,4.6-14.6,16.4-23.9,29.8-30.7,10.2-5.1,20.9-9.2,31.2-14,3.2-1.5,6-3.9,9-6-.2-.7-.3-1.4-.5-2-1.6.2-3.4,0-4.8.6-8.6,3.8-17.1,7.8-25.7,11.6-1.2.5-2.5.7-4.6,1.2,13.4-19.8,31.8-31.6,52.4-40.5.9,2.2,2.1,5,3.5,8.5,2.2-2.1,4.1-3.9,5.7-5.4,1.4,3.6,2.9,7.4,4.4,11.2.7,0,1.3,0,2,0,1.6-4.5,3.2-9,5.2-14.9,2,3.3,3.8,6.3,5.6,9.2.9-.5,1.8-1,2.6-1.5.4-3.4.8-6.9,1.1-10.2,2,1.4,4.1,2.9,6.9,4.8,2.7-9-2-14.5-7.7-19.8,3.1.9,5.7,2,8.3,2.3,5.1.7,6.6-.9,5.3-5.9-.7-2.7-2.2-5.1-3.4-7.6,3.7-1.9,4.3-4.3,1.6-8.4-3.6-5.6-9.4-9-18.8-10.6,1.4-1.3,2.8-2.2,3.8-3.4,1.4-1.7,2.6-3.6,3.8-5.4-1.8-1.2-3.6-2.3-5.4-3.5,4.6-6.4,3.1-10.2-5-12.2-1.9-.5-3.6-1.4-5.4-2.2,1.1-2,1.9-3.7,3.3-6.3-3.7-.2-6.7-.5-9.8-.7-1.2-6.9-2.5-7.1-14.9-2.8.8-2.1,1.4-3.9,2-5.7.6-1.9,1.2-3.8,2-6.4-3,.3-5.5.5-8.4.8-.2-1.2-.4-2.8-.7-4.4-6.6-2.7-10.9,1.9-15.7,4.9-8.4-6.4-8.9-6.1-12.6,7.7-5.7-5.7-9.1-.3-12.8,2.6-1.8-3.3-3.4-6.4-5.1-9.6-5.8,2.9-6.4,7.1-5.4,12.2-4.3-2-8.8-2.3-10.8-7.5-.6-1.6-4.6-2-6.7-2.9-.8-2.1-1.5-4.2-2.3-6.2-2.5,1-5.3,1.6-7.5,3.1-2,1.3-3.5,3.5-5.2,5.3-6.6-5.6-11.3-4.4-14.1,3.8-11.7-4.2-16-2.5-15.2,6.2-3.7.7-9.7-2.3-8.6,5.5-8.9,1.6-9.1,1.9-5.9,9-3.8,2.3-10.3.1-11.7,6.3-.3,1.5,1,3.4,1.8,5.6-4,3.9-9.1,8.4-6.8,15.9.3.9,2.7,1.1,3.4,1.4v10.7c2.5-.2,5-.3,7.9-.5,1.4,3.3,3.2,7.4,4.9,11.4l1.9.2c2.3-3.4,4.7-6.8,7-10.1,4.5,7.4.4,11.4-6.7,14.4.6.5,1.3,1,1.9,1.5,2.6-1.2,5.3-2.5,8.2-3.9.6,1.1,1.3,2.3,2.4,4.4,4.6-4.2,9.1-8.3,14-12.8,2.9,4.5,6.2,8.7,8.6,13.3,6,11.6,12.7,22.9,14.7,36.1.5,3.2-.2,6.6-.2,9.9.4,18-5,34.6-11.6,51-2,5-3.8,10.2-5.6,15.4-.4-.1-.8,0-.9-.2-5.9-10-12.1-19.8-17.7-30-6.8-12.4-10.9-25.5-10.5-39.9,0-2.8-1.2-5.7-1.9-8.6-4.2,2.1-1.9,5.9-1.9,8.7,0,7.1.7,14.1,1.2,22.2-1.6-1.7-2.6-3.1-3.9-4.2-1.3-1.2-2.9-2.1-4.3-3.1.3,1.9.1,4,.9,5.6,1.4,2.8,3.7,5.1,5.2,7.9,6.7,12.1,13.7,24.1,19.6,36.6,5.4,11.5,5.4,23.7,2.3,36-3.9,15-7.3,30.2-11.2,45.2-.8,3.3-2.5,6.3-3.6,9.2-7.3-.2-9.2-5.2-9.9-9.9-2.9-20.7-18.9-28.9-39.9-30.9-1,0-1.9-.2-2.7-.3-4.8-21.6-7.6-43.1-7.6-64.9,0-16.6-3.8-32.6-8.6-48.3-9.2-29.7-8-59.4,1.5-88.1,7.7-23.3,19.7-45.4,39.6-61.1,8.1-6.4,18.4-10.4,28.1-14.6,4-1.7,9.2-.2,13.6-1,10.1-1.7,17.8-7.9,25.3-14.1-.3-.7-.5-1.3-.8-2-1.7.6-3.5,1-5.1,1.8-6.6,3.3-13.2,6.8-19.8,10-1.3.6-3.1.4-5.3-.5,2.4-2.4,4.9-4.7,7.1-7.3.9-1.1,1.1-2.7,1.6-4.1-1.6.4-3.8.2-4.5,1.1-9.4,11.7-23.8,14.2-36.2,20.4-.4-.9-.7-1.3-.6-1.5,6.2-13.4,12.3-26.9,26.1-34.6,1.8-1,4.1-2.3,5.9-2.1,13,1.4,23-4.7,32.7-13,0,6.1-1.6,12.2,4.2,17.2,1.3-2.6,2.4-4.9,3.3-6.8,1.3,3.4,2.7,7.2,4.2,11.1.6,0,1.2-.1,1.8-.2,1.3-3,2.6-6.1,3.9-9.2,1.9,5.1,3.7,9.9,5.5,14.8.4,0,.8,0,1.2,0,1.9-4.4,3.7-8.8,5.3-12.6,2.3,4.1,4.9,8.7,7.8,13.8,7.2-6.4,5.7-13.6,5.8-20.9,3,1.9,5.6,3.4,8.2,5.1.6-.2,1.1-.5,1.7-.7-.9-4.6-1.9-9.2-2.8-13.8.6.4,1.6,1.2,3.1,2.4,2.6-8-3.1-12.8-6.2-19.1,2.1.9,3.8,1.8,5.5,2.2,1.5.3,3.7.7,4.6,0,.9-.9,1.3-3.4.7-4.6-1.8-3.6-4.2-6.9-6.3-10.3,1.7-.6,4.2-1.6,7-2.6-3.8-5.6-8.8-7.6-15.2-8.1,1.8-2.3,3.4-4.1,5-6.1-4.8-5.1-10.3-7.6-16.4-7.7.4-2.9,2-7.1.8-8.2-3.8-3.4-8.8-3.4-12.9-1.3-1-2.5-1.5-6.6-2.9-7-5.1-1.3-9.2,1.5-12.6,6.1-2-5.3-3.8-10.4-10-13-.9,4.2-1.8,8-2.8,12.2-1.7-1.5-3-2.6-5.2-4.5-1,2.8-1.9,5.1-2.8,7.6-1.7-1.9-3.5-3.9-6.1-6.7-1.8,3.1-3.4,5.7-5.3,8.9-2.9-4.1-3.3-10.9-11-10.2.3-.7.7-1.5,1.1-2.2,4.3.6,8.6,1.1,13,1.7.3-.5.6-1.1.8-1.6-1.9-2.8-3.8-5.5-5.5-7.9,3.6.9,7.6,1.9,11.6,2.9l1.2-1.4c-1.3-2.3-2.6-4.6-3.8-6.7,2.2-.7,4.6-1.2,6.8-2.2,1.3-.6,2.4-1.9,3.5-2.9-1.1-1.3-2-3.3-3.4-3.8-3.2-1.3-6.7-1.8-10.2-2.7,1.7-1.3,3.2-2.5,6.2-4.8-4.9-1.5-8.5-2.6-12.3-3.8,2.7-1.7,5.6-3.1,7.9-5.1,1.3-1.2,1.7-3.4,2.6-5.1-1.7-.7-3.4-1.7-5.2-1.9-2.8-.3-5.6,0-9,0,1-2.5,2-4.6,2.5-6.8.4-1.8,1-4.7.2-5.4-1.3-1.1-4.1-1.6-5.9-1-4.7,1.5-9.2,3.6-13.9,5.5,1.9-3.2,3.9-6.8,5.9-10.3-5.3-3.1-8.2-2.2-17.8,5.3-.2-3.8-.2-7-.5-10.1-.2-1.5-1.1-2.8-1.6-4.2-1.2.7-2.7,1.1-3.7,2-1.5,1.3-2.6,2.9-4.2,4.7-.5-2.7-.8-5.2-1.4-7.7-.3-1.4-1.1-2.6-1.7-3.9-1.4.7-2.8,1.4-4.1,2.3-.9.7-1.5,1.7-2.2,2.6-4.7-3.3-8.5-3.2-11.4.3-.8-1.3-1.2-2.8-2.2-3.7-1.5-1.6-3.4-4.1-5-4-1.8.1-3.8,2.5-4.9,4.3-1,1.6-1.2,3.7-1.4,5.7-.2,1.8,0,3.6,0,5.5-3.3-1.8-6.5-4.9-9-4.5-2.3.4-3.9,4.8-6.4,8.3-1.6-3.5-2.9-7.2-5-10.4-.8-1.2-3.4-1.8-5.2-1.8-1.7,0-3.5,1.1-5.6,1.8,0-3.5.7-6.4-.3-8.5-.6-1.3-3.8-1.4-5.9-2l-.6,1.2c-1.8-3.1-3.6-6.1-6-10.4-2.6,4.2-4.5,7.3-6.7,10.8-1.7-1.5-3.3-2.8-5.9-4.9-1.5,2.6-3,5.1-4.4,7.6-4.6-2.1-8.1-.5-10.5,4.7-3.8-1.5-7.7-3-11.6-4.5-.5.5-.9,1.1-1.4,1.6,1.2,3.3,2.4,6.6,3.7,10.3-2.1-.9-3.9-1.7-5.9-2.4-4.1-1.4-6.6.5-5.1,4.5,1.2,3.2,4,5.9,5.9,8.4-2.8,1.2-6.8,2.9-11.8,5,1.6,2.3,2.4,3.6,3.2,4.8,0,0-1.1,1-2.3,2-2.1-1.4-4.5-3.1-7-4.6-4.6-2.9-5.4-2.5-6.4,2.7-.2.8-.4,1.5-.6,2.2-.6.5-1.2,1-1.9,1.4-1.1-1.8-2-3.9-3.4-5.4-1.1-1.2-3-1.7-4.5-2.6-.9,1.7-1.9,3.3-2.6,5.1-.3.9,0,2,0,4-2.3-1.8-4-3.6-6.1-4.7-1.7-1-3.8-1.3-5.8-1.8-.6,2-1.2,3.9-1.7,5.8-.2.6,0,1.3.1,1.9-11.7,2-12.3,3-6.5,10.5-3.3,1.9-7,3.4-9.9,5.8-4.9,3.9-4.2,6.8,1.5,9.3,1,.4,2,.9,3.3,1.4-2.3,2.5-4.6,4.7-6.5,7.2-5.4,7-4.4,9.3,4.4,10.7.3,2.8.7,5.7,1.2,9.6,3-1.9,5.2-2.9,7-4.5,1.8-1.6,3.2-3.8,4.8-5.8.4.3.8.5,1.2.8v10c2.5-1,4.1-1.7,6-2.5v4.3c-6.7,0-13.7-2-19.4,3-.9.8-.8,2.7-1.2,4.5-.7.1-2.2.4-3.9.7,0-14.8-6.2-4.4-9.3-3-3.1-3.1-5.5-6.3-8.7-8.2-1-.5-4.2,3.1-6.7,5-1.9-1.1-4.4-2.9-7.2-4.2-4.2-1.9-5.6,1-6.3,4.5-10.5-5.4-15-3-14.9,6.9-3.8,0-7.6-.5-11.2.2-2.1.4-4.7,2.4-5.4,4.4-.5,1.3,1.8,3.7,3,5.8-2,1.5-5.2,3-7.2,5.4-3.3,4.2.9,5.5,4.2,7.4-2.2.9-4.6,1.3-5.8,2.7-2.2,2.5-3.7,5.6-5.4,8.4,2.4.9,4.9,1.9,7.6,3-.9.7-2.8,1.5-3.4,2.9-1.4,3-2.2,6.3-3.2,9.4,2.6.6,5.1,1.3,7.7,1.6,1,.1,2.2-.5,4.6-1.1-1.8,3.4-3,6.1-4.5,8.6-2.7,4.4-4,9-2,14.2,1.9-.9,3.6-1.7,6.2-2.9,0,3.9-.4,7.2.2,10.4.4,2.1,2.2,3.9,3.3,5.8,1.7-1.1,3.7-1.9,5.1-3.4,2.1-2.2,3.8-4.9,6.5-8.5-.7,6.6-3,12,1.5,16.4.4.4,2.1-.5,3.2-.8,0,0,0,.3.2.6,1.2,1.7,2.5,3.4,3.8,5.1,1-1.8,2.2-3.5,3.1-5.3.6-1.3.9-2.8,1.1-3.6,2.3,3.9,4.7,8.1,7,12.2.7-.1,1.4-.2,2.1-.4,1.1-4,2.2-8,3.3-12,1.8.7,3.9,6,5.7,1,7,2.2,13.7,5,20.8,6.6,12,2.8,19.3,6.6,28,15.9-8,1.2-15.4,1.7-20.6-6-1.8,4.1-1.1,6.9,3,8.7,3.4,1.5,7.4,2.8,11,2.5,8-.6,14.5,1.9,20.6,6.8,11.2,9.1,22.8,17.8,34.1,26.8,6.8,5.4,11.1,12.8,13.7,21,4.1,12.8,11,24,18.2,35.2,13.6,21.3,20.9,44.7,24.5,69.6,2.8,19.1,1.9,38.2,2.5,57.3.2,5.4,0,10.9,0,15.2-8.6-2.5-17.4-4.9-26.1-7.8-1.5-.5-3.7-2.6-3.6-3.9.9-14.1-6.9-24.6-14.1-35.3-2.5-3.7-5.6-7.1-7.9-10.9-5.5-9-13.9-13.3-23.7-15.9-3.9-1-7.7-2.9-11-5.2-9.2-6.7-19.4-10.8-30.6-11.8-13.2-1.2-26.4-2-39.7-2.9-10.2-.6-19.5,2.8-28.7,6.8-11,4.8-21.7,9.5-34.5,9.9-12,.4-23.8,5-35.7,7.9-5.8,1.4-11.6,2.7-17.2,4.6-2.4.8-4.7,2.5-6.5,4.4-5.6,5.8-10.8,12-16.4,17.9-5.8,6.1-8.6,13.2-9.1,21.5-.2,3.8-.5,7.6-1,11.4-1.3,9.5,3.2,15.9,10.9,20.6,2,1.2,3.9,2.4,7.3,4.5-4,1.1-7,2.7-9.8,2.5-18.3-1.1-35.3,2.7-52.3,9.6-14.4,5.8-21.6,16.1-25,30.3-1.8,7.2-3.5,14.5-6.1,21.4-3.6,9.5-5.2,19.1-5.2,29.2,0,5.6,2.1,10,5.8,13.8.7.7,1.4,1.4,2.1,2.1,3.2,3.4,7.7,6.2,9.3,10.2,1.4,3.5-.5,8.3-1,12.8-3.4.3-6.5.8-9.6.7-13.2-.5-26.1,1.3-38.8,4.9-11.6,3.3-23.5,5.4-35.3,8.2-7.5,1.8-14,5.4-16.7,12.8-6.2,17-12.2,34.2-17.3,51.6-2.1,7,0,14,7.4,17.8.8.4,1.3,1.3,2,2-16.6,2-32.8,4.4-49,5.6-14.3,1.1-25.1,6.7-32.8,19.2-4.6,7.6-10.7,14.2-16.1,21.4-1.1,1.4-1.8,3.1-3.5,6.2-1.2-8.2-2.7-15.3-3.3-22.5-1.5-17-2.9-34.1-3.8-51.2-.7-14,2-27.4,6.8-40.8,5.2-14.6,16.9-22.1,28.5-29.8,2.9-1.9,7.8-.9,11.6-1.2-.4,2.9-.9,6-1.4,9.3,7.1,0,8.3-6.2,12.5-8.9.9,2.4,1.7,4.8,2.9,7,.7,1.3,2.2,2.2,3.4,3.2.8-1.5,1.7-2.9,2.3-4.4.3-.9,0-2,0-3.5,2.8,2.4,5.3,4.5,7.8,6.5.5-.3.9-.6,1.4-.8-.5-3.8-1-7.5-1.5-11,2.9,1,6,2.1,9.1,3.2.4-.5.9-1.1,1.3-1.6-2.2-3.9-4.3-7.9-6.5-11.8.9-.5,2.2-1.2,4.8-2.6-3.8-1.5-6.4-2.5-9.3-3.6-.1-2.8-.3-6.1-.4-9.3l.8-.6c1.4,2.3,2.8,4.6,4.2,7l2-1.6c-.1-1.3-.3-2.6-.5-4.3,1.8.5,3.4,1,5.8,1.7-.7-1.6-1.3-2.8-1.9-4.1,2.5.8,4.8,1.5,7.2,2.2.5-.4.9-.8,1.3-1.3-2.2-3.8-4.4-7.6-6.8-11.9,2.2-1.5,6.2-.8,5.9-5.2-.3-4.5-3.7-5.6-7.1-6.5-2-.5-4.2-.4-6.3-.6,0-.5,0-.8.2-1.1,1.3-2.3,2.7-4.7,4.1-7-2.9-.9-5.7-1.9-8.6-2.7-1.2-.3-2.6,0-3.9,0,1.2-3.7,2.2-7.2,3.3-10.6-3.3-1-6.7-2-10.2-3,.4-1.9,1.5-4.9,1.3-7.9-.1-2.3-1.3-5.3-3.1-6.6-1.1-.8-4.1,1.1-6,1.7-1.7-1-3.8-3.3-5.7-3.2-2.2.2-4.3,2.5-6.6,4.1-.6-.7-1.4-1.8-2.9-3.7-2.2,2.1-4.3,4.1-6.6,6.1,2.5-5.1,2.6-10.5,2.3-16-.1-2.2-.3-4.3-.5-6.5-2.3.4-4.6.8-6.9,1.3-.5.1-.8.5-1.4.9-.4-1.8-.7-3.4-1.1-5.5-1.5.4-2.7.7-2.9.8-2.1-2.9-4-5.4-5.8-7.9-3,2.7-6,5.4-9.1,8.3-5.6-3.9-9.5-2.9-11.7,3-1.4-1.8-2.7-3.9-4.3-5.6-5.4-5.7-6.5-5.4-8.9,1.9-5.8-2.5-9.6-1.7-11.5,2.3-3.6-.6-7-1.2-10.4-1.8v8.8c-1.4,1.4-4.3,3.1-4.5,5-.2,2.5,1.9,5.1,3,7.7-1.4.6-3.2,1.3-4.2,1.8-1.8-2.2-3.5-4.3-5.4-6.2-.1-.1-1.7,1.2-2.7,2-2.2-1.7-4.3-6.1-6.8-1.5-2.5-1.2-4.8-2.3-7.2-3.4-.9,2-1.7,4-2.7,6.1-2.1-1.6-4.7-3.6-7.3-5.7-.6.2-1.2.3-1.8.4-.3,3.3-.6,6.7-1,10.9-1.5,1-7.1-.5-5.4,4.2h-10.3c.2,2.6.4,5.2.5,7-2.4,3.1-5,6-6.8,9.3-.3.5,3.1,2.9,5.3,5,0,1,.2,3,.4,5.1-4.3.6-8.4,1.1-12.6,1.7-.5.8-1,1.5-1.5,2.3,2.1,1.1,4.2,2.3,6.5,3.5-3.1,1.7-5.8,2.8-8,4.5-1.3,1-1.8,2.9-2.6,4.4,1.7.7,3.3,1.5,5.1,2,.9.2,2-.1,2.8-.2-1.5,3.5-3.3,6.8-4.3,10.4-.5,1.6.6,3.7,1,5.5,1.8-.6,3.6-1.1,5.3-1.8.7-.3,1.3-1,2.2-1.7v10.4c1.9-.6,3.1-1,6-2-2.4,5-4.3,8.8-6.7,13.8,3.6-.4,6-.7,9-1.1-.3,1.7-1,3.5-.7,5.2.4,2.5,1.5,5,2.4,7.5,2.1-1.7,4.2-3.3,6.1-5.2.5-.4.4-1.5.6-2.4,2.1,3.4,4.2,6.7,6.7,10.7,2.2-4,3.9-6.9,5.8-10.2,1.4,1.2,2.4,2.2,3.6,3,3.2,1.9,6.4,4.8,9.9,5.4,19.5,3.6,27.8,17.7,33.7,34.5,2.6,7.3,5.4,14.6,8.8,21.5,3.6,7.5,5.6,15.3,5.7,23.5.2,17.9,0,35.9,0,53.2-10.2,1.9-19.1,3.6-28.1,5.1-8.6,1.5-13.7,6.6-16.9,14.4-.8,1.9-3,4-5,4.5-11.1,2.5-17.6,8.9-20,20.1-1.6,7.4-2.2,7.3-12,13,3.1-7.3,5.9-14,8.7-20.8-.2,0-.5-.2-.7-.3-4.4,4.3-8.8,8.5-14.2,13.7,4.4-10.7,8.4-20.2,12.4-29.8-.4-.2-.8-.4-1.2-.6-7.7,6.2-10.9,15.3-14.9,23.9-.5-.1-.9-.2-1.4-.4,2.2-15.1,4.4-30.2,6.5-45.3-10.5,11.1-11.9,25.2-13.6,39.4-3.2-16.7-4.7-33.9-13.8-48.7-.7.2-1.4.3-2,.5,3,17.3,6,34.5,9,51.8-5.7-15.2-11.3-30-27-38,3.6,7,7.5,13.8,10.7,20.9,3.2,7,5.7,14.3,8,21.9-7.3-10.3-15.6-19-28.3-22.3,9.5,11.2,18.9,22.3,28.2,33.4-.4.5-.9,1-1.3,1.4-6.7-5.7-14.1-9.8-23.9-10.9,5.7,5.4,10.8,10.3,16.5,15.7-5.2.9-9.6,2.5-14,2.3-7.3-.2-12.7,2.7-18,7.2-1.5,1.3-3.9,1.7-5.9,2-3.4.5-7,.3-10.4.9-1.4.2-2.6,1.7-4.2,2.8.4-1.5.9-3.4,1.5-5.2,1.6-4.5.9-5.9-4.8-6.7,3.7-3.2,7-6,11.2-9.7-4.2-1.4-7.6-2.6-10.8-3.7,2.6-4.9,5.4-10.1,8.2-15.3-.5-.5-1-.9-1.5-1.4-4.8,2-9.5,4.1-14.2,6.1.7-4.6,1.3-9.4,2-14.2-.5-.3-.9-.7-1.4-1-3.1,2.1-6.3,4.2-9.5,6.4-1.6-3.3-3.3-6.9-5.4-11.4-5.5,6.5-6.9,12.7-5.5,20.1-2.7-2.3-5.1-4.3-7.5-6.3-1.6,3.3-1.2,8,1.4,14.1-.2.2-.5.4-.7.5-7.2,1.5-11.3,1.3-4.1,9.6.8,1,1.4,2.2,2.8,4.3-2.1-.3-3.2-.5-4.3-.7-1.1-.1-2.3-.2-3.9-.3v9.5c-.3-6.3-3.5-7.8-9.3-5.6.8-2.7,1.8-4.9,2.1-7.1.2-1.7-.4-3.5-.6-5.2-1.7.3-3.5.6-5.2.9-.9-2.6-2-6-3.1-9.5-.6,0-1.2,0-1.8-.2-1.7,4.3-3.3,8.6-5,12.9-1.5-1.3-3.2-2.7-5.5-4.6-.9,2.8-1.5,4.7-2.2,6.7-1.9-7.4-3.8-14.5-5.7-21.7-.7,0-1.4,0-2.1.1-.6,1.8-1.3,3.7-2.1,5.9-3.9-4-7.6-7.7-11.2-11.3-.6.2-1.2.3-1.8.5.5,5.6.9,11.1,1.4,16.7-2.2-.4-5-.9-7.8-1.3-.4.5-.8.9-1.2,1.3,2.7,3.9,5.3,7.7,8.2,11.8-.8,1.5-6.7.8-3.6,5.3,1.6,2.3,4.4,3.8,6.9,5.8-3.1,1.2-6.8,1.6-8,3.5-1,1.6,1,5,1.6,7.7h-2.2c1.7,2.9,3.1,5.4,4.8,8.4-3.2-1.1-5.1-5.9-8.5-2.1-1.5-2.9-3-5.9-4.5-8.9-.7,0-1.3,0-2,0-1.3,3.6-2.6,7.2-4,11-1.6-2.4-3.4-5-5.2-7.5-.4.1-.8.2-1.3.3-.5,3.3-1,6.7-1.6,10.1-4.2-2.3-8.2-4.5-12.3-6.7-.5.3-1,.6-1.5,1,1.8,5.4,3.7,10.9,5.4,16.1-4-.3-8.2-.6-12.3-1-.2.4-.5.8-.7,1.2,2.9,3.8,5.9,7.7,9.9,12.9-5.1-2.1-8.9-3.6-13.2-5.3-.3,1.6-.5,2.8-.7,3.8-6.2.3-7.5,6.1-11.2,9.6-1.2-.2-3.5-1.3-4.7-.7-1.3.8-1.7,3.2-2.8,5.4-.9,0-2.4.2-3.8.2-1.3,0-2.6-.1-4.1-.2,1.9-12.3,12.8-19.3,16.8-30.1-12.3,6.8-20,17.3-24.4,30.6-.7-.2-1.3-.5-2-.7.9-9.8.7-19.9,3.3-29.2,1.4-5.1,7.4-9.1,11.4-13.4,6.4-6.9,13-13.6,19.1-20.8,1.9-2.2,2.5-5.5,3.7-8.3-.6-.4-1.1-.8-1.7-1.2-11.3,11.8-22.6,23.6-34.5,36,.9-16.6,1.1-32.7,14.6-44.7,7.2-6.4,14.2-13.1,18.1-22.3,1.1-2.6,1.6-5.4,2.3-8.1l-1.7-.8c-7.9,10.6-15.9,21.1-23.8,31.7-.4-.2-.7-.4-1.1-.7,4-14.8,8.3-29.5,12-44.3,1.3-5.1,1.4-10.5,1.7-15.8.1-1.6-.8-3.3-1.3-4.9-.6-.1-1.3-.2-1.9-.3-1.6,4.7-3.8,9.3-4.6,14.1-1.8,10.6-2.3,21.5-4.2,32-1.6,8.9-4.5,17.6-6.8,26.4-1.1,3.9-2.2,7.8-3.6,11.8-1-19.2-2.4-38.2-7.5-58.1-4.6,5.3-4.5,10.2-3.7,14.8,2.2,13.2,5.3,26.3,7.1,39.5,1.2,8.6.7,17.5.8,26.2,0,4.1,0,8.2-.6,12.5-7.4-18.6-11.3-38.6-23.4-55.5,0,3-.8,6.2.2,8.8,3.1,8.5,6.3,17,10.3,25.1,6.9,14.1,12.9,28.2,11.1,45.8-6.3-18.2-17.1-31.9-28.3-45.4-.6.3-1.3.6-1.9.9,1.1,3.1,1.8,6.5,3.4,9.3,4.2,7.1,9.2,13.8,13.4,21,3.6,6.1,6.5,12.5,9.6,18.4-11.7,4-22.7,8-33.8,11.2-3.9,1.1-8.4.2-12.6.2-.3-.6-.6-1.2-.9-1.8,3.8-3.3,7.6-6.7,11.4-10-.4-.5-.9-1.1-1.3-1.7-6.2,4.3-12.5,8.6-18.7,12.9-.3,0-.6-.2-.9-.3,6.6-10.5,13.3-21.1,19.5-31-7,1.4-16.7,10.8-24.8,24,1.1-5.1,2.1-10.2,3.2-15.3,1.2-5.5,2.4-11,3.7-16.4,1.3-5.3,2.8-10.5,3.9-15.8-7.1,7.1-10.8,15.9-12.7,26.3-2.2-11.8-4.3-22.6-6.3-33.5-.7,0-1.3.2-1.9.3-2,11,3.7,21.4,3.1,32.8-7.3-15.9-9.6-19.4-15.6-24.1,4.9,14.4,9.7,28.4,14.4,42.5-.4.2-.8.5-1.3.7-6.4-11.7-13.5-22.6-27.5-26,9.8,10.1,17.7,21.2,22.8,34.4-6.9-7.4-15.3-11.8-26-13.9,6.6,5.4,12.5,10.2,18.3,15-10.4-1.2-19.1,1.4-28.1,6.1-6.1,3.2-13.7,3.4-20.5,5.3-2.1.6-4.3,1.2-6.3,2.4h1445.1,0ZM374,883.4c-16.3,2.6-31.6,9.2-48,6.4,6.3-14.4,28.6-15.3,48-6.4ZM462.6,907.2c-.4.4-.9.8-1.3,1.2-4-4.3-8-8.7-12-13,.5-.5,1-.9,1.5-1.4l11.9,13.2ZM465,908c-.4-7.7-.7-15.4-1.1-23.2.5,0,1,0,1.6,0,4.1,7.7,1,15.5-.5,23.2h0ZM482.2,891.3c-3.4,5.3-6.7,10.6-10.1,15.9-.4-.2-.8-.4-1.2-.5,1.5-6.6,5.3-11.7,11.3-15.3h0ZM609,576.7c-.2.3-.1.1,0,0h0ZM1228.5,328.2c-3.3-6.2-6.6-12.5-9.8-18.7.3-.1.6-.3.9-.4,1.7.9,3.3,1.8,4.9,2.6l1.3-1.1c-1.4-3.1-2.9-6.2-4.2-9.1,6,2.2,10,15.9,6.8,26.7h0ZM1232.4,308.5c-.3,0-.5,0-.8.1-1.9-3.7-3.9-7.4-5.9-11.1,1.2-.9,2.1-1.7,3.8-3,1,4.9,2,9.4,2.9,13.9h0ZM1256.1,327.7v-28.5c7.3,9.7,7.2,18.7,0,28.5ZM1274.5,296.4c-1.8,4.3,1.7,10.1-5.7,13.9,1.5-5.2,2.8-9.8,4.2-14.3.5.1,1,.3,1.5.4ZM1310.5,346.1c5-4.9,10-9.8,15-14.6-3.1,2.6,1.2,7.8-3.8,10.2-3.6,1.7-7.3,3.5-10.9,5.2l-.2-.8h0ZM1292.6,356.5c2-16.7,11.6-30.2,20.6-43.9.4.1.9.3,1.3.4-1.5,4.7-3,9.3-4.5,14,.4.2.8.4,1.2.6,2.5-2.4,5-4.7,7.6-7,.2.2.4.4.6.6-1.9,2.5-3.8,5-5.7,7.4l1.3,1.5c2.7-1.5,5.3-3,7.9-4.5,0,.2.2.3.2.5-10.2,10.2-20.5,20.5-30.5,30.5h0ZM1295.7,316.9c.5,2.1,1,4.2,1.7,7.5,2.1-2.9,3.7-4.8,4.9-6.8,1.1-1.7,1.8-3.7,2.7-5.5.8.4,1.5.8,2.3,1.2-4.1,7.1-8.2,14.1-12.2,21.2-1.2-6.2-8.1-12.5.6-17.6h0ZM1247.7,396c1-11.5,1.2-23.1,3.1-34.5,1.6-9.4,4.6-18.6,7.7-27.6,3.2-9.4,8.2-17.8,17.4-22.9.2,2.9.4,5.6.6,8.3.6.3,1.1.5,1.7.8,2.2-2.4,4.4-4.9,6.9-7.5,1.2,4.7,2.1,9.6,3.6,14.4,4.6,14.7-.4,27.8-8.4,39.4-5.5,7.9-13.4,14.3-20.3,21.2-3.3,3.3-7.1,6.2-10.7,9.2-.5-.2-1-.5-1.4-.7h0ZM1238.6,296c1.2,4.5,2.3,8.6,3.4,12.6.6-.1,1.1-.2,1.7-.4.2-1,.5-2,.8-3.1,6.9,8.7,7.5,36.9.7,48.4-14.2-18.2-10.7-37.6-6.5-57.5h0ZM1335.2,838c8.5-2.9,15.6-1.2,19.6,4.4-10.4,1.2-14.8.2-19.6-4.4ZM1310.5,896.3l9.6-14.9c.5.4.9.8,1.4,1.1-3.2,4.9-6.4,9.8-9.6,14.7-.5-.3-.9-.6-1.4-.9h0ZM1295.5,843.7c.5.3.9.6,1.4.9-2.8,4.3-5.7,8.7-8.5,13.1-.5-.3-.9-.6-1.4-.9,1.5-5.2,3-10.5,8.5-13.1ZM1283.8,843.2c-.9-6.2-.8-12.2,3.6-18.5,1.8,7.7-.9,13.1-3.6,18.5ZM1284.8,861.5c-5.5-6.2-11-12.3-16.6-18.5.6-.7,1.2-1.5,1.8-2.2,2.7,1.8,5.9,3.1,7.9,5.4,2.1,2.5,2.9,6,4.3,9,.4-.1.8-.3,1.1-.4-1.2-4-2-8.2-3.7-12-2.7-5.9-6-11.5-9-17.3.6-.3,1.3-.7,1.9-1,3.1,5.3,6.8,10.3,9.1,16,2,4.8,2.3,10.3,3.5,15.4,2.9,12.4,5.9,24.8,9,37.8-1.1-1.1-2.6-1.9-2.9-3-1.2-4.1-2.3-8.3-3.1-12.5-1.5-8.3-4-15.5-14-17-2.5-.4-5.6-2.3-4.6-7.3,5.2,3,9.8,5.6,14.5,8.3.3-.2.5-.4.8-.7h0ZM1257.4,780.1c8-4.4,15.1,1,22.9,2-7.5,5.5-16,4.6-22.9-2ZM1223.6,835.8c9.1-1.7,15.1,3.9,21.3,9.1.4-.4.8-.9,1.2-1.3l-16.1-26.2c.5-.3,1-.6,1.5-1,6.5,1.4,7.4,7.8,11,13.2.5-6.3.9-11.6,1.3-17,.6,0,1.2,0,1.8,0,3.1,4.1,1.3,9.1,1.5,13.6.2,4.8-.4,9.7-.7,14.5.4,0,.7,0,1.1,0l5.8-13.4c.6.2,1.3.3,1.9.5-1.2,4.7-1.6,9.7-3.7,14-1.4,3-1.8,5.3-.9,8.3,3.4,11.6,4.7,28,2.8,38.7-.6-3.8-.9-6.3-1.3-8.9-1.4-9.1-2.9-18.3-4.4-27.4-.7-4.2-3.1-6.5-7.6-7.1-6.6-1-12.8-3.1-16.5-9.6h0ZM1199.6,886.5c3.7-4.8,7.4-9.6,11.1-14.4.4.3.9.7,1.3,1-3.7,4.8-7.4,9.6-11.1,14.4-.4-.3-.9-.7-1.3-1h0ZM1190.2,862.1c1.1,6.2,2.1,11.4,3,16.5,2.2-5.9,4.3-11.5,6.4-17,.8.3,1.5.6,2.3.9-2.7,7.1-5.4,14.2-8.2,21.7-4.8-9-5.8-14.6-3.5-22.1h0ZM1166.7,890.7c4.5-4.2,9-8.4,13.4-12.7.5.5,1,1,1.5,1.6-4.3,4.4-8.6,8.8-13,13.2-.7-.7-1.4-1.4-2-2.1h0ZM1153.3,890.7c6.6-20.9,9.6-43.3,26.7-59.6-8.4,20-16.8,40-25.2,60-.5-.1-1-.3-1.5-.4h0ZM1152.9,852.5c-.9,12-1.9,24.2-2.9,36.5,0,.5-.3.9-.5,1.3-6.2-1.5-3.7-28.4,3.4-37.8ZM1133.1,856.2c-4.3-18.5-12.5-35.5-20.6-52.6-3.6-7.5-8.5-12.2-16.6-14.2-3.2-.8-5.4-.6-8.2,1.4-6.3,4.7-12.5,5.5-18.2,1.6,5.8-2.2,11.5-4.3,17.8-6.7-8.4-5.5-18.3-8.7-24.3-18.2,4.9-.1,7.9,1.5,10.1,4.8,3.3,4.9,8.2,7.6,14.2,10.1-2.8-6.5-8-11.6-4.9-19,2.7,3.7,5.8,7.5,6.6,11.7,1.7,9.3,5,12.8,15.2,13.2-1-2.7-1.9-5-2.7-7.4-2.1-6.6-4.8-13.1-5.8-19.9-.9-5.5-2.6-10.3-5.1-15.3-2-3.9-2.2-8.8-3.1-13.2.8-.2,1.5-.4,2.3-.6,2.5,6.4,5,12.8,7.5,19.2.9-3.1.7-6.2.9-9.2.2-3.2.7-6.3,1.1-10.4,5.4,8.4,5.2,14,.3,24.2-1.1,2.3-1.8,5.7-.9,7.8,5.7,14.3,11.8,28.4,18,42.4,4.8,10.7,10,21.2,15.7,33-.6-5.5-1.4-9.5-1.5-13.6-.4-10.8-.5-21.5-.8-32.3-.1-4.2,1.1-9.5-1-12.5-4.3-6.6-7.8-14.2-15.4-18.5-2.5-1.4-3.6-5.1-5.8-8.5,13.7,3.4,15,16.8,23.4,24.3,0-6.9.5-14-1.7-20.3-3.1-9.2-8-17.8-12.3-26.5-1-2.1-2.6-4.3-4.6-5.4-6.4-3.7-10.1-9.5-13.9-15.4-.8-1.2-.8-2.8-1.2-4.2.6-.4,1.3-.8,1.9-1.3,3.4,4.5,6.9,8.9,10.3,13.4.3-.4.6-.8.8-1.2-.6-4.9-1.2-9.7-1.8-14.6.8-.1,1.5-.2,2.3-.4,1.7,7.6,3.3,15.2,5,22.8.2,0,.4-.2.6-.3.6-6.2,1.3-12.5,1.9-18.7.6,0,1.2,0,1.8.1,0,6.1-.2,12.1,0,18.2.2,3.3.7,6.8,1.8,10,2.7,7.3,5.9,14.4,8.9,21.5.3.7.8,1.4,1.4,2.3,2.2-15.3,3-30.4,13.4-42.4-.8,4.7-1.6,9.7-4.2,13.4-5.9,8.1-4.2,17.6-6.2,26.4,6-7.7,12-15.5,18-23.2l1.6.8c-.3,1.5-.2,3.2-.9,4.3-2.5,3.7-5.3,7.1-7.9,10.7-4.6,6.3-12.7,10.6-12.9,19.5-.3,19-.2,37.9-.2,56.9,0,1.4.7,2.8,1,3.7,2.3-7.1,4.2-14.5,7.2-21.4,3.4-8,5.2-15.9,4.6-24.6-.3-4.5.6-9,1-13.5,6,7.9,3.8,16.6,3.4,25.7,2.7-2.4,4.8-4.5,7.2-6.2,6-4.2,7.9-13.6,4.7-20.4-2.5-5.3-3.9-11.1-5.8-16.7.7-.3,1.4-.6,2.1-.9,2.9,5.4,5.7,10.9,8.5,16.2,1.2-3.2,2.7-7.3,4.3-11.2,1.6-3.8,2.8-8.1,9.2-9.2-4.8,11.5-9.2,22.2-13.7,32.9,4.8-3.9,7.2-10.5,16.2-10-2.6,3.2-4.2,5.7-6.4,7.6-5.7,5-11.7,9.7-17.4,14.7-4.9,4.4-10.9,8.4-14.1,14-7.4,13-10.6,27.2-8.7,42.6,1.7,13.9,2,27.9,2.9,42-3.2-3.3-4.2-7.5-4.5-12-.4-7.1-.4-14.4-2-21.3h0ZM1135,728.6c-7.1-9.8-5.2-18.8-2.1-27.8,3.4,8.7,4.2,17.5,2.1,27.8ZM1092.8,763.2c-5-5.2-10-10.4-15-15.6,9.6.6,15.2,6.4,15,15.6ZM1127.8,886.4c-1.8-5.6-3.7-11.2-5.5-16.8.7-.2,1.3-.3,2-.5,1.7,5.6,3.4,11.2,5.2,16.7-.6.2-1.1.3-1.7.5h0ZM1106.4,833.3c5.5,18.9,7.1,39,18.3,56-15.3-15.7-18.9-35.2-18.3-56ZM1102.3,888.5c-2.4-9-4.7-18.1-7.1-27.1.5,0,1-.2,1.4-.3,4.9,8.3,6.3,17.6,7.6,26.9-.6.2-1.3.4-1.9.5ZM1095.6,891.8c-7.5-12.8-15-25.7-23.2-39.7,10.3,8.2,23.4,30.1,23.2,39.7ZM1088.4,893c-7.1-6.2-14.2-12.4-21.2-18.6.4-.4.7-.8,1.1-1.2,8.3,4.8,16,10.3,21.2,18.6l-1.1,1.3h0ZM1060.1,886.1c6.4.6,11.8,2.9,16.1,7.2l-.8,1.4c-5.1-2.9-10.2-5.7-15.3-8.6ZM1022.5,897.6c1.3-9.7,4.7-18.3,14.5-22.7-4.8,7.6-9.6,15.2-14.5,22.7h0ZM1015.8,891.6c5.7-11.7,4-26.8,16.5-35.3.5.2,1,.5,1.5.7-5.5,11.7-11,23.4-16.5,35.1-.5-.2-1-.3-1.5-.5h0ZM1013.1,891.6c-.4-11-.8-21.6-11.2-29.2-3.9-2.9-5.6-8.6-8.4-13.1.5-.3,1-.6,1.4-.8,9.2,4.7,12.3,14.1,17,23,5-9.8,5-21.7,15.6-28.7-1.4,7.5-2.9,14.2-7.7,19.7-4.3,5-6.8,10.3-5.2,17.3.9,4,.4,8.3.3,12.5,0,.9-.7,1.7-1,2.6-.9-1.2-.9-2.2-.9-3.2h0ZM1013.3,864.4c-1.3-12.4-7.4-23.3-4.2-36.3,6.8,14.2,7.5,20.5,4.2,36.3ZM1004.3,890.2c-5.7-8.6-11.3-17.1-17-25.7,10.1,5.5,17.8,12.7,19,24.5-.7.4-1.3.8-2,1.1ZM981.9,884.8c5,3,10,6,15,9-.2.4-.5.8-.7,1.1-6.3-1-10.1-5.9-14.3-10.1h0ZM974.7,697.1c4.1-13.6,11.3-19.2,24.4-19.7,6.8-.2,13.6-.7,20.4-.9,5.8-.2,11.5,0,17.3,0-12.4,4.3-24.5,8.4-37,10.4-9.2,1.5-17.8,3.2-25.2,10.2h0ZM977.6,642.4c-9.4,1.7-18.8,3.4-28.2,5.2-2.9.6-5.6,1.8-8.5,2.3-5.3,1-10.8,1.2-16.1,2.5-8.5,2.1-16.7,5.4-25.2,7-9.6,1.8-19.3,3.5-27.7,8.8-8.5,5.3-16.5,11.4-24.9,17.3,2-4.4,4.3-9.1,6.3-13.9,2.6-6.3,6.5-11.5,12.9-13.8,9.1-3.2,18.5-6.2,28-8,15.9-3,32-5.5,48.1-7.3,14.3-1.6,28.7-1.8,43-2.7,0,.6,0,1.1.1,1.7-2.6.3-5.2.5-7.7,1h0ZM941.6,907.7c2.7-5.4,5.4-10.8,8.1-16.2.5.2.9.5,1.3.7-2.7,5.4-5.5,10.8-8.2,16.2-.4-.2-.8-.4-1.2-.6h0ZM937.7,889.7c.8,0,1.6,0,2.4,0l-1.2,17.2c-.4,0-.8,0-1.2-.1v-17.1h0ZM922,727.9c7.2-9.6,28.7-12.7,37-6.7-12.2,2.2-24.6,4.5-37,6.7ZM885.4,858.1c.4-.3.9-.6,1.3-.9,3.4,4.6,6.8,9.3,10.4,14.1,0-5.1-.3-10.2,0-15.3.3-4.3-1.1-6.7-5.2-8.2-6.2-2.4-11.1-6.4-14.1-12.9,8.8,0,13.9,4.8,17.7,11.7.5-8.5.9-16.2-8.9-20.2-5.3-2.2-9.5-6.5-11.6-13.2,9.1,2.9,14.7,9.1,19.5,16.3.4-1.2.5-2.1.1-2.8-3.6-6.7-7.3-13.2-10.8-19.9-1.1-2.1-1.5-4.5-2.3-7.3,6.2.8,8.1,4.3,9.4,8.5,1.6,5,3.3,10,5,15.1,2.3-6.3,4.5-12.1,6.6-17.9.5.2.9.3,1.4.5,0,8.5-.3,16.9-5.6,24.2-.5.7-.7,1.9-.6,2.8,1.2,12.8,2.4,25.5,3.6,38.3,6.9-11.7,12.2-15.2,18.7-12.4-4.5,3.9-8.9,7.7-13.2,11.6-4.3,3.9-8.6,7.5-8.7,14.5,0,6.6-1.7,13.2-2.6,19.9-.4-8,0-16,.2-23.9,0-1.9-.9-4.3-2.2-5.5-5-4.7-7.2-10.5-8.4-16.9h0ZM900.9,844.1c2.3-7.5,4.6-15,12.3-20.4-.2,9.9-6.3,15.1-12.3,20.4ZM860.4,900c6.5-2.7,12.9-.8,16.6,5.2-6.6,1.3-11.4-2.2-16.6-5.2ZM866.2,878.3c-2.9-2.9-5.8-6.6-9.3-7.4-7.5-1.6-10.6-7.6-15.3-12.1,13.8.8,18.8,14.3,29.9,20.6v-21.9c4.2,5.5,3.7,10.5,3.5,15.7-.2,3.6,0,7.5,1.3,10.8,2.3,6.4,5.4,12.5,8.2,18.8-4.8-5.5-8.5-11.5-12.6-17.2-1.1-1.5-3.3-2.9-5.2-3-3.2-.3-6.6.2-9.9.7-5.3.9-9.6-.7-14.1-4,8-3.8,15.5-3.9,23.5-1h0ZM862.2,870.6c-2.8-6.6-5.7-13.3-8.5-19.9,8.4,3.9,9.7,11.3,10.1,19.2-.5.2-1,.5-1.5.7ZM840,717.6c-12.7,1.7-25,5.9-37.6,8.7-7.5,1.7-13.8,5.3-19.7,10-1.9,1.5-4.2,2.7-6.6,3.2-5.7,1.1-10,3.7-13,8.9-3.1,5.6-6.8,10.9-10.2,16.4,2.3-7.9,5.4-15.4,7.9-23,5.1-15.3,15-25.2,31-28.2,17.5-3.3,35.3-5.6,52.7-9.2,12.3-2.6,24.2-2.6,36.4.2,9.4,2.2,18.9,4.1,28.4,6.1,0,.1,0,.2-.1.3-6.9,0-13.7-.2-20.6,0-8.6.3-17.3.2-25.7,1.8-7.7,1.4-15.1,3.7-23,4.8h0ZM780.2,904.7c6.9-6.1,14.2-11.3,24.9-12.2-8.7,4.8-16.5,9-24.3,13.3l-.6-1.1h0ZM771.6,903.2c7.2-15,18.5-26.1,30.7-38.3-5.2,11.3-26.3,37.8-30.7,38.3ZM760.7,894.5c-.4-13.1-1.2-26.2-2.4-39.2-.8-8.3-2.5-16.5-3.8-24.8.6,0,1.2-.2,1.7-.3,5.2,10.3,8.2,21.2,8.7,32.7.5,11.4.1,22.9.1,33.7,3.7-17.5,9.2-35,20.3-50.4-5.7,18-11.4,36-17.1,54.2-7.6,1-7.3.7-7.5-5.9h0ZM753,895.6c-4.3-11.9-8.8-23.8-13.3-35.6-1.1-3-2.8-5.8-4.2-8.7,16.6,12.5,19.7,31.1,23.6,49.8-4.5.2-5.2-2.7-6.2-5.5ZM748.9,903c-10.2-13.4-19.4-25.5-29.4-38.8,14.7,8.6,23.8,20.4,30.5,34.2.5,1-.6,2.7-1.1,4.5h0ZM709.2,883.5c11.6,3.2,21.7,8.4,29.2,17.4-.3.5-.6.9-1,1.4-9.4-6.2-18.8-12.5-28.2-18.7ZM666.3,906c2.9-3.7,5.8-7.4,8.8-11.1.4.3.7.6,1.1.9-2.8,3.7-5.7,7.5-8.6,11.2-.4-.3-.9-.7-1.3-1h0ZM658.3,909.4c.4-4.6.8-9.1,1.3-13.7.6,0,1.2,0,1.8.1-.5,4.6-.9,9.2-1.4,13.8-.6,0-1.1-.2-1.7-.2h0ZM644.1,804.5c2.5-2.2,5.2-4.4,8.2-5.6,22-8.3,44.8-4.1,67.4-5,0,.7.2,1.5.3,2.2-2.5.5-5,1-7.5,1.3-4.3.6-8.8.4-12.7,1.9-18,6.7-36.8,4.6-55.6,5.1h0ZM593.8,905.8c6.5-3.1,13-6.2,19.4-9.2.3.6.6,1.2.8,1.8-6.5,3-13,6.1-19.5,9.1-.3-.6-.5-1.1-.8-1.7h0ZM585.3,905.3c2.7-14.2,11.6-23.7,22.7-31.7-7.6,10.5-15.1,21.1-22.7,31.7ZM578.3,905.8c3.5-19.2,3.1-39.3,18.3-54.5.2.9.5,1.3.4,1.5-5.4,16.8-10.7,33.5-16.2,50.2-.3,1.1-1.7,1.8-2.5,2.7ZM568.5,900.8c-2.2-4.2-3.8-8.8-5.7-13.2-1.8-4.2-3.7-8.4-5.5-12.6.4-.2.8-.4,1.3-.5,7.2,7.4,10.4,17,14.2,26.4-.7-16.3-1.3-32.7-2-49,.8,0,1.6,0,2.5-.1,3.6,17.7.2,35.8,2.9,53.4-4.8,1.5-6.3-1.8-7.7-4.4h0ZM550.3,893c.5-.5.9-.9,1.4-1.4,5.1,4.7,10.3,9.3,15.4,14-.5.6-1.1,1.2-1.6,1.7-5.1-4.8-10.1-9.5-15.2-14.3h0ZM454.9,618.2c.6-.3,1.1-.7,1.7-1,.7-1.7,1.4-3.5,2.3-5.5,3.5,4,6.8,7.8,10.1,11.6-.2.4-.5.8-.7,1.2-4.5-2.1-8.9-4.2-13.4-6.3h0ZM462.3,600.5l-1,.8c-2.8-2.1-5.5-4.2-8.2-6.3.3-.4.5-.8.8-1.1,1.9.8,3.9,1.7,6,2.6-.1-1.6-.2-2.6-.3-3.6.3,0,.6,0,.9-.2.6,2.6,1.2,5.2,1.8,7.8h0ZM476.6,600.6c-4.4-3.7-9.4-6.8-9.2-13.5,2.2,1,4.1,1.9,7.4,3.4-1.3-4.2-2.2-7.1-3.1-9.9,4.5,6,3.5,13.3,5,20h0ZM488.6,634.3c-9.5-8.8-18.5-17.1-27.5-25.5.3-.6.6-1.2.9-1.8,2.3-.1,4.6-.2,7.9-.4-5.9-2.4-6.5-6.5-5.6-11.7,17.4,17.6,25.2,29.9,24.3,39.5h0ZM487.3,611.9c-4.5-8.8-8.2-17.9-7.7-29.3,10,8.8,8,19.2,7.7,29.3ZM490,594c-.9-5.4-1.6-10-2.3-14.6.5,0,.9-.1,1.3-.2,1.8,4.4,6.5,8.4,1,14.8h0ZM501.3,581.5c3.2,8.6,6.9,17.2,8.6,26.2,2.3,12,2,24.5,4.5,36.5,2.4,11.3,1.7,22.1-1,34.4-1.6-2.9-2.7-4.7-3.5-6.6-6.7-14.8-12.1-30-15-46.1-1.7-9.2-4.2-18.1-1.9-27.5,1.5-6.2,2.8-12.5,4.3-19.2,1,.5,3.5,1.1,4,2.4h0ZM514.1,574.6c2.5,7.5,2.8,15.1-.7,22.9-3.5-7.7-6.9-15.2-10.5-23.1,2.1.3,3.5.5,6,.9-2.3-2.8-4-4.7-6-7.1h7.8c-2.5-5.1-4.8-9.7-7.1-14.5.9-.2,1.9-.5,2.9-.8,2.7,7.4,5.3,14.5,7.7,21.6ZM522.8,564.5c-1.4,4-2.4,6.9-3.4,9.8-.5,0-1,0-1.4,0-1.2-6.4-2.5-12.8-3.7-19.2,4.2,10.9,4.6,11.6,8.6,9.4h0ZM550.8,588.6c-1.8,3.7-3.5,7.4-5.3,11-.6-.3-1.3-.6-1.9-.9,1.7-3.7,3.5-7.4,5.2-11.1.7.3,1.4.6,2.1,1h0ZM557,530.4c.3.2,0,0,0,0h0ZM540.6,624.4c2.4-18.5,8-27.3,20.2-32.2.1,1.7.3,3.4.4,5.5,1.2-.5,2-.9,2.7-1.1.9-.2,1.8-.3,2.9-.4-3.4,14.6-13.8,22.3-26.3,28.2h0ZM522.5,650.6c-.8-3.4-1.5-6.2-2.1-9.1-1.9-8.8-6.1-17.2-4.4-26.7,1.7-9.3,2.6-18.7,4.7-27.9,2-8.8,4.9-17.5,7.5-26.2.4,0,.8.1,1.2.2.4,1.5.8,3.1,1.3,5.2,3.3-1.2,6.2-2.3,9.5-3.5-1.3,7.9-10.7,8.3-13.5,15.5h6.8c-.9,3.4-1.8,6.8-2.8,10.9,2.5-.4,3.9-.7,4.8-.8,1.6,2.1,3,4,5.2,6.8-3.4,17.9-5.9,38-18,55.6h0ZM571.2,812.5c-13,1.3-27.4,2.5-41.7,4.2-6.8.8-13.5,3.3-20.3,3.7-5.6.4-10.4,1.7-14.6,5.1-2,1.6-4,3.1-6,4.7l-1.1-.8c2.5-4,4-9.5,7.6-11.7,7.4-4.4,15.7-8.9,24-9.9,18-2.1,36.1-1,52.2,4.6h0ZM665.2,716.3c22-7.2,44-4.6,65.5-2.6-9,.9-18.7,1.8-28.4,2.8-12,1.2-23.5,3.9-33.7,10.8-1.6,1.1-3.5,2-5.4,2.5-11.9,3.3-23.8,5.4-36.3,5.2-12.3-.2-24.4.4-35.9,6.2-4.4,2.2-9.8,2.8-14.8,3.2-6.9.5-13.8.1-20.9.1,3.8-6.6,10.6-9.2,17.3-12,19.6-8.5,40.8-7.8,61.4-11,10.5-1.6,21.4-1.9,31.3-5.2h0ZM765.1,631.7c-7.3,1.1-16.2,2-24.8,4-13.2,3-26,8-39.3,10-12.5,1.8-25.3,1.3-37.5,5.8-6,2.2-12.3,3.5-18,5.1,1-5.2,4.4-10,10.9-12.6,5.8-2.3,11.5-5.1,17.4-7.1,4.5-1.6,9.2-2.8,13.9-3.3,7.8-.8,15.8.2,23.3-1.5,18.7-4.1,37.2-5.8,54.1-.4h0ZM823.3,504.2c-11.8,1.5-24.2,1.8-35,8.6-.7.4-1.5.6-2.3.8-5.6,1.3-11.2,2.5-16.8,3.8-8.3,1.9-13.8,6.7-15.5,15.6-.8-4.5-1.6-8.5-2-12.6-.1-1.3.3-3.3,1.2-3.9,4.6-3.1,9.2-7,14.3-8.4,10.3-2.8,21.1-4.2,31.6-6.1,7.5-1.4,20.5,0,24.5,2.3h0ZM838.3,527.8c18.4-10.2,38.6-15.4,59.5-17.3,7.3-.7,14.6-.4,22-.5,6.1,0,12.3-.4,18.4.1,10.9.8,21.8,2.2,32.6,3.3,9.2.9,18.6,1.1,27.8,2.7,15.8,2.7,31.4,6.2,47,9.4-9,.3-17.8-.7-26.6-1.5-2.5-.2-5-.3-7.5-.2-11.3.5-22.5,1.5-33.8,1.6-9.8,0-19.5-.8-28.8,3.6-2.7,1.3-6.2,1.4-9.3,1.4-13.1.1-26.3-.3-39.4.2-6,.2-12,2-17.9,3.5-4.9,1.2-9.6,3.8-14.6,4.4-13.1,1.5-24.5,6.7-34.5,15-2.8,2.3-5.3,5.1-7.1,8.2-4.5,8.1-8.6,16.4-12.8,24.6-.8,1.6-1.7,3.3-2.1,5-2.6,11.5-5,23.1-7.6,35.2-.6-1.9-1.4-3.3-1.4-4.7.1-18.3-2.2-37.1,9.1-53.5,1-1.4,1.5-3.3,1.8-5.1,3.1-15.6,11.6-27.9,25.2-35.4h0ZM986.7,411.7c-8.9,0-17.8.4-26.5-.1-7.4-.5-14.9-3.3-22.1-2.8-16.7,1.3-33.2,4.1-49.8,6.2-6.1.8-12.3,2.7-18.2,2-11.7-1.4-22.3.5-32.8,5.9,3.5-6.6,7.7-11.9,16.2-13,10.1-1.2,20.1-3.8,30.2-5.7,7.3-1.4,14.6-3.4,22-3.6,12.5-.5,25-2.8,37.5,2,8.2,3.2,17.3,4.1,26,5.9,5.8,1.2,11.8,2.1,17.6,3.1h0ZM1064.3,471.5c-12.1,0-23.5-.3-34.9.1-6.4.2-12.8,2.6-19.1,2.2-21.2-1.4-42.2-.4-63.1,2.7-11.6,1.7-23.2,3.5-33.3,10.5-4.5,3.1-9.5,4.7-15.4,3.6-5.5-1-11.2-1.1-16.8-1.2-4.3,0-8.6.6-12.9,1-.1-.6-.3-1.2-.4-1.8,6.6-2.1,13.2-4.4,19.9-6.3,8.9-2.5,18.4-3.4,26.7-7.2,17.4-7.9,35.6-9.7,54.2-10.8,7.5-.4,14.9-1.4,22.4-1.6,11.6-.3,23.2-.7,34.7,0,7.2.4,14.3,2.3,21.3,3.9,5.5,1.3,10.9,3.2,16.7,4.9h0ZM971.6,206c-8.2-2.6-17.6-3.6-19.8-14.5,9.2,1.1,12.8,10.2,19.8,14.5ZM974.7,173.5c-.2.2-.4.4-.6.7-2.8-1.4-5.5-2.7-8.4-4.1.5-1.2,1-2.2,1.9-4.3,2.8,3.1,5,5.4,7.2,7.8h0ZM980.7,183.6c9.8,6.5,19.1,13.8,28.9,20.3,13.2,8.7,17.9,22.2,21.6,36.6-6-3.6-11.5-7.8-16.9-12.1-8-6.4-16.4-12.4-22.2-21.3-2.3-3.6-5.8-6.4-9.1-9.2-1-.9-2.9-.9-4.3-1.3l-.3,1.4c3.6,3.9,7.1,7.8,10.7,11.7-11.2-3.5-17.9-12.1-26.4-20.5h9.1c.3-.4.7-.9,1-1.3-4.5-4.8-9-9.6-13.7-14.5.5-.1,1.9-1,2.6-.6,6.4,3.4,12.9,6.8,18.9,10.8h0ZM1009.3,196c-10.3-9.6-25.3-13.4-31.9-26.7,1.2-1.4,2.3-2.7,3.3-3.9,1.2,2.7,2.2,5.6,3.8,8,1.1,1.6,3.1,2.6,4.7,3.9.8-1.6,1.6-3.1,2.2-4.7.4-.9.5-1.9.7-2.6,2.3,2.2,4.5,4.2,7.5,7.1v-10.8c.4-.1.9-.2,1.3-.3l8.3,30h0ZM1014.2,173.4c-.4-3.2-.7-4.9-.9-6.9,1.4,1.1,2.6,2,4,3.1.3-2.5.5-4.4.7-6.3.3,0,.6,0,.9,0,2.1,14,4.2,28,6.5,43.1-16.5-9.6-13.4-26.7-17.7-40.7,1.9,2.2,3.7,4.4,6.5,7.7h0ZM1040.2,109.2c-2.1.2-3.8.4-5.5.6.6-4,1.2-7.8,1.9-12.3,1.3,4.2,2.4,7.8,3.6,11.7ZM1070.4,125.7l-1.3.4c-1.2-5-7.5-7.6-6.5-13.7,1.9,2.2,3.9,3.9,5.2,6.1,1.3,2.2,1.8,4.8,2.6,7.2ZM1091.1,128.2c-3.3-4.8-6.6-9.6-9.4-13.7,4.5-4.2-1.3-7.3-.5-10.7,10.1,5.3,10.5,14.6,9.9,24.4h0ZM1094.8,160.4c-5.3-8-10-14.8-14.4-21.8-4.4-6.9-9.5-13.8-4.3-23.2,3.8,5.7,7.2,11.4,11.2,16.6,6.3,8,8.7,16.9,7.5,28.4h0ZM1096.8,181.2c.6,4.8.8,9.6,2,14.3,1.8,7.2,4.9,14.1,6.2,21.4,1.7,9.8,2.1,19.8,3.2,29.7.9,7.6,2.9,15.2,2.8,22.7-.2,9.9-1.8,19.8-3,29.6-1.1,8.7-2.7,17.4-4.2,27.2-4.6-5.6-8.9-10.1-12.2-15.2-4.8-7.3-9.5-14.9-13.1-22.8-5.8-12.6-13.2-23.6-23.6-32.9-5.4-4.9-10.1-11.2-13.2-17.8-6.1-12.9-10.9-26.3-12.2-40.7-.8-8-1.7-16.2,4.9-23.3,2.2,4.9,4.3,9.7,6.4,14.4l1.3-.3c.7-2.6,1.5-5.2,2.1-7.7,2.3,1,4.3,1.9,7.6,3.4-1-3.8-1.7-6.1-2.3-8.5,3.4,1.2,6.7,2.4,11.4,4.2-1.1-5.1-1.9-8.7-2.6-12.3,1.1-.2,2.5-.4,5.4-.9-1.7-3.8-2.7-7.3-4.8-9.9-2.1-2.6-5.4-4.4-8.2-6.5,2.4-1.7,5.1-3.6,7.9-5.4,0-.6.2-1.3.2-1.9-4.8-2.4-9.6-4.8-13.4-6.6-.2-2.9.5-6.1-.8-7.7-3.2-4.1-7.7-2.7-12-.8-.3-2.9-.1-6.2-4.4-4.7-.8-2.8-1.6-5.4-2.5-8.3-3.1,1.8-5.2,3-7.2,4.2,0-.5,0-1,0-1.5-1.7-.8-3.4-2.1-5.2-2.2-4.7-.4-5.2-1.1-3-5.2.8-1.5,1.8-2.9,2.9-4.7.9,3.3,1.8,6.2,2.9,10.4,3.9-5.3,6.9-9.3,9.3-12.5,4,3.8,8.2,7.8,12.4,11.8-.9,1.4-2.5,3.9-4.1,6.3,5,.9,9,1.6,12.8,2.3.8,1.9,1.2,3.8,2.2,5.2.6.8,2.6,1.6,3.2,1.2,1-.7,2.3-3.1,2-3.4-3.9-4.2.8-5.4,3.3-7.6v11.8l1.2.2c1.1-2.1,2.2-4.2,3.8-7.1,8.1,11.7,15.7,23.2,23.9,34.2,5.5,7.3,9.7,14.9,10.9,24.1h0ZM1119.8,157.4c.7,16.7-2.2,32.1-7.3,47.7-5-7.4-18.1-99.8-14.7-106.8.5,6.5,2.7,11.2,7.8,14.4.2-1,.2-1.7.4-2.3.2-.6.5-1.2,1.4-3.2,4.2,17.7,11.7,32.6,12.4,50.2h0ZM1125.3,98.3c-.9,10.8-.9,21.7-5.4,33.5-3.3-9.9-8.4-17.8-6.1-28.2,1.5,1.9,2.6,3.2,4.2,5.2,2.2-4,4.1-7.4,6-10.8l1.3.3h0ZM1129.5,108.2c.8-5.5,1.7-11,2.5-16.5,4.6,6.3,3.4,11.7-2.5,16.5ZM1128.6,175.4c-6.8-19-.4-58.3,10.6-69.9,1.4,2.7,2.9,5.5,4.3,8.3.5,0,.9-.1,1.4-.2.9-2.5,1.8-4.9,2.7-7.1,1.7,1.7,3.7,3.5,5.6,5.3.6-.2,1.2-.4,1.7-.6-.5-9.5-.9-18.9-1.4-28.4l1.5.2c5.2,34.5-4.1,64.8-26.4,92.4h0ZM1178.5,123c-7.7,7.6-15.4,15.3-23.3,23.1,2.4-13.5,4.6-26,7-38.4,1.2-6.4,2.3-13.1,7.7-18.1-2.1,7.9-4,15.6-6.2,23.8,3.3-1.4,5.6-2.4,8.8-3.8-1,1.7-1.5,2.6-2.3,3.9,1.7-.5,2.7-.8,4.2-1.2-1.8,2.8-3.1,5-5.1,8.2,3.4.4,5.8.8,8.3,1.1.3.4.6.8.9,1.3h0ZM1206.3,171.7c6.2-7.5,12.2-14.7,18.2-21.9.5.3.9.6,1.4,1-.9,2.6-1.8,5.1-3.1,8.9,5-.2,9.2-.4,13.5-.6-6.5,10.1-21.1,16.9-30,12.6h0ZM1190.2,178.6c3.8-9.7,7.7-19.4,11.9-30,2.2,4.5,3.8,7.8,5.8,11.8,2.7-4.1,4.9-7.6,7.2-11.1.3,0,.6,0,.9,0-.1,1.1.1,2.4-.4,3.2-4.4,6-8.8,12-13.6,17.7-3,3.5-6.6,6.5-9.9,9.7-.6-.4-1.2-.9-1.8-1.3h0ZM1121.9,250.8c-3.7-19.4-.8-38.2,3.8-57,2.2-8.9,9.2-14.4,13.5-21.7,9.4-15.6,24-25.9,36.6-38.1.1,2.2.2,4.4.4,7.2,4.7-1.1,8.6-2,12.1-2.9-1.4,4-3.3,7.9-4.1,12-.4,2.1,1.4,4.5,2.2,6.7,1.8-.8,3.5-1.6,5.2-2.3.7,5.1-1.1,10.6-6.7,21.2-7.1,13.4-14.1,27-21.3,40.4-1.7,3.2-3.7,6.3-6.1,9-9.9,11.4-20.3,22.3-26,36.7-.8,2-2.2,3.7-3.6,5.4-.8.9-2.1,1.2-3.2,1.8-.6-1.1-1.6-2.1-1.7-3.2-.6-5.1-.4-10.3-1.4-15.4h0ZM1173.3,565.5c-.1.5-.3.9-.4,1.3-4.5-.9-8.9-2-13.4-2.7-20.9-3.5-41.7-6-62,3-2.1.9-4.5,1.2-6.7,1.4-12.2.8-24.5,1.4-36.8,2-12.4.6-22.1,5.7-27.9,16.9-2.3,4.4-3.9,9.1-5.8,13.7-.9,2.2-1.6,4.3-2.4,6.5-.4-.1-.8-.3-1.2-.4,1.4-7.1,2.5-14.2,4.2-21.2,4-16.7,8.4-20.4,25.5-22.6,11.8-1.5,23.8-2.5,35.4-5,20.5-4.5,41-3.8,61.4-.8,10.3,1.5,20.2,5.3,30.3,8h0ZM1266.5,632.5c-6,0-12-.5-17.9.1-4.8.5-9.7,1.7-14.1,3.6-4.7,2-8.8,4.3-14.2,2.5-1.9-.6-4.4-.2-6.3.5-7.5,2.5-15.1,5-22.2,8.3-6,2.8-11.9,4.3-18.3,2.9-15.4-3.4-28,1.6-38.8,12.2-1.1,1.1-2.2,2.2-3.9,3.8,1.9-18.6,9.8-28.2,24.8-30.7,6.5-1.1,13.2-1.6,19.7-2.7,12.5-2.1,24.9-4,37.6-2.6,5.6.6,11.8,2.4,16.8.7,12.7-4.3,24.7-2.2,36.9,1.5h0ZM1318.3,725.2c-4.8,7.5-10.2,12.5-17.8,14.9,3.7-7.2,7.9-13.8,17.8-14.9ZM1316.2,756c-.3,9.9-6.3,16.8-12.9,23.3,2.5-8.8,7-16.4,12.9-23.3ZM1352.4,773.2c6.4-2.4,12.5-2.7,19,1.5-5.5,1.8-10.2,3.9-15.8,2.2-5.7-1.7-10.5-.2-15.2,3.8-8.8,7.7-15.7,16.4-19.9,27.5-5.5,14.5-9,29.2-9.2,44.1,6.8-5.4,13.7-10.7,20.4-16.2.8-.7,1.3-2.3,1.3-3.5-.7-10.7,6.1-16.6,13.3-22.3.5.3,1,.6,1.5.8-3.9,7-7.9,14.1-11.8,21.1,6.8-4,12.3-10.6,22.7-7.9-5.3,2.7-9.6,4.9-13.8,7.1-3.8,2-7.8,3.5-11.2,6.1-5.1,3.9-9.4,8.9-14.5,12.8-6.1,4.7-10,10.5-11,18.2-.7,4.9-1.4,9.8-2.2,14.8-.6,3.8-1.4,7.6-2.1,11.5-.6,0-1.2,0-1.8-.2-.4-1.7-1.1-3.4-1-5.1.3-5.5.8-10.9,1.5-16.3,1.4-10.2,3.6-20.2,4.2-30.4.6-8.9,0-18-1.1-26.9-.7-5-2.5-10.7-5.7-14.4-10.7-12.2-22.2-23.6-33.6-35.3-.9-1-2.7-1.2-4.1-1.6-4.4-1.2-8.1-3.3-10.3-7.3.2-.5.4-.9.7-1.4,3.5,1.3,7,2.6,11,4.1-3.5-4.7-6.8-9.1-10-13.4.3-.3.7-.5,1-.8,2.9,2.4,5.8,4.7,8.3,6.7-.3-5.2-.7-10.5-1.1-15.9.5,0,.9,0,1.4-.1,3.4,5.5,4.2,11.7,3.7,18-.5,6.7,2.9,11.2,7.6,15.5v-19.5c4,6.5,5.8,11.8,3.6,18-1.3,3.7-.7,6.8,2.7,9.6,4.8,3.9,9.1,8.3,13.6,12.5,3.1,2.9,6,5.8,10.1,9.7-.6-4.1-.7-6.8-1.4-9.3-3.2-11-6.4-21.9-9.7-32.8-1.8-5.9-3.1-11.9-8.9-15.9-4.4-3.1-5.2-11.8-2.3-15.9,3.7,8.2,7.2,16.2,11.1,25,4.3-11.7,2.6-21.1-4.5-29.9-2.1-2.6-1.6-7.2-2.3-10.9.9-.2,1.7-.5,2.6-.8,3.1,7.1,6.1,14.2,8.8,20.4,1.2-7.2,1.3-15.9,8.3-22.2-.4,4.1-.8,8.4-2.8,11.8-3.1,5.4-3.9,11.1-4.4,17.1-.3,3.6-.8,7.3-1.7,10.8-3.1,11.6,1.7,21.6,5.8,31.8,0,0,0,0,0,0,5.9,17.5,6.2,35.7,6,53.4,3.6-10.5,7.6-21.3,11-32.3,3-9.7,6.1-19.6,7.8-29.6,1.6-9.1,1.2-18.6,2.2-27.8.9-7.7,1.3-15-1.6-22.5-1-2.6.6-6.3,1-9.4.5,0,1.1,0,1.6.2.5,2.9.9,5.9,1.4,8.8,1.3-1.7,1.8-3.3,2.3-5,.5-1.5,1.1-3.1,2.1-5.8,2.4,7.3.7,12.4-2,17.6-1.4,2.6-1.6,5.9-2.3,8.9,8.2-7.6,9.1-19.9,20.8-25.7-1.6,12.4-9.3,19.9-16.4,27.9,7.8-4.9,14.7-11.4,24.6-9.7-2.7,4.6-13.7,11.3-20,12.1-8.6,1-9.9,2.7-9.8,11.3,0,6.1-.1,12.3-.7,18.4-.5,5.9-1.7,11.7-2.6,17.7,7.2-5.5,13-11.6,15.4-20.7,1.3-4.8,4.7-9.1,7.7-14.8,1.4,11.1-4.7,17.5-9.2,24.8,4.7-3.4,8.7-7.3,12.6-11.3,2.9-3,5.4-6.4,8.3-9.3,1.6-1.5,3.7-2.4,5.6-3.6-2.5,9.7-10.3,14-16.7,19.9h0ZM1381.1,892.8c-.7.3-1.3.5-2,.8-4.6-8.4-9.3-16.8-13.9-25.2,7.8,6.7,13.8,14.5,15.9,24.4ZM1416,867.2c-5.7,8.5-11.4,17-17.7,26.3-1.9-.8-4.8-1.9-8.1-3.2-.5.4-1.8,1.3-3,2.2-.7-1-1.8-2-2-3.2-1-9.3-4.8-17.5-9.2-25.5-1.2-2.1-2.1-4.3-3.6-7.5,11.7,6.6,13.2,18,17.9,27.8.9-14.5-1.1-28.9-2.6-43.3,6.8,12.1,6.7,25.4,6.8,38.7,5.2-10.3,6.3-22.1,12.3-31.9.8.2,1.6.5,2.4.7-3.9,13.1-7.9,26.1-12.2,40.5,11.6-19.1,14.4-22.3,19-21.7h0ZM1420.2,882.4c-3.7,3.2-7.3,6.4-10.9,9.6-.6-.6-1.1-1.2-1.7-1.9,3.8-3,7.7-6,11.6-9.1.3.4.7.9,1.1,1.3h0Z"/>
      </g>
    </g>
  </g>
</svg>