<?xml version="1.0" encoding="UTF-8"?>
<svg id="Layer_2" xmlns="http://www.w3.org/2000/svg" viewBox="0 0 1445.14 918.16">
  <defs>
    <style>
      .cls-1 {
        fill: #fee5d1;
      }
    </style>
  </defs>
  <g id="Layer_1-2" data-name="Layer_1">
    <path class="cls-1" d="M1445.14,918.16v-238.63c-2.85.86-5.69,1.72-8.5,2.57-.22-2.67-.03-5.66-.78-8.39-1.88-6.82-4.03-7.57-10.13-4.19-4.95-11.82-9.55-8.88-16.02-1.87-.33-3.65-.59-6.1-.77-8.55-.68-9.64.21-19.84-10.11-25.77-.96-.55-1.63-2.41-1.64-3.67-.05-11.95-5.62-20.13-16.47-24.89-2.88-1.26-5.88-2.38-8.49-4.07-3.5-2.27-7.14-4.62-9.88-7.69-4.3-4.81-9.62-5.97-15.56-6.58-2.79-.28-5.53-1.56-8.17-2.67-6.76-2.84-13.46-5.83-20.39-8.85,8.89-9.92,20.82-17.12,35-20.88-16.03-.7-29.53,4.68-40.8,15.96,9.24-18.5,22.27-33.22,41.6-41.95-7.36-.63-14.03,1.7-19.98,5.29-5.91,3.56-11.8,7.66-16.47,12.66-4.79,5.12-8.1,11.63-11.87,17.26.92-11.47,15.01-37.38,34.25-62.64-6.91,1.58-14.7,6.48-23.27,17.19-6.11,7.64-10.62,16.55-15.34,24.07,1.24-26.13,13.92-50.86,17.46-77.69-12.24,22.84-19.36,47.4-25.33,73.41-3.97-18.17-6.21-36.04-15.21-51.75-.49.09-.98.18-1.47.26,1.96,19.43,3.93,38.86,5.76,56.98-7.34-12.81-15.27-26.64-23.2-40.48-.47.23-.95.45-1.42.68,4.06,17.97,12.35,34.43,19.67,51.91-10.03-9.61-19.57-18.74-29.11-27.88-.42.4-.83.8-1.25,1.2,6.01,11.94,15.36,21.43,24.64,31.55-4.98-1.93-9.29-3.6-13.61-5.27-.42.62-.85,1.24-1.27,1.86,1.88.96,3.77,1.92,5.65,2.88l-.97,1.98c-4.24,0-8.48.07-12.72-.07-.77-.03-1.84-.73-2.23-1.43-5.8-10.45-15.33-15.7-26.72-18.93.84-11.38,1.79-22.62,2.48-33.88,1.84-29.94,12.02-57.92,20.89-86.1,4.6-14.61,16.45-23.92,29.8-30.67,10.18-5.14,20.9-9.21,31.24-14.03,3.22-1.5,6.01-3.94,9-5.95-.17-.68-.33-1.36-.5-2.04-1.61.19-3.39,0-4.81.62-8.61,3.78-17.12,7.77-25.7,11.62-1.15.52-2.47.66-4.57,1.2,13.36-19.78,31.75-31.61,52.45-40.51.91,2.2,2.08,5.04,3.51,8.47,2.21-2.1,4.08-3.87,5.69-5.41,1.41,3.6,2.9,7.4,4.39,11.2.67-.01,1.34-.02,2.01-.03,1.59-4.52,3.18-9.04,5.23-14.85,2.01,3.34,3.78,6.3,5.55,9.25.88-.51,1.75-1.03,2.63-1.54.37-3.42.75-6.85,1.11-10.23,2.04,1.42,4.14,2.88,6.88,4.79,2.68-9.04-2-14.53-7.66-19.84,3.09.89,5.66,1.97,8.32,2.33,5.08.68,6.56-.93,5.31-5.89-.67-2.66-2.22-5.1-3.38-7.65,3.74-1.91,4.26-4.27,1.64-8.4-3.59-5.64-9.37-8.96-18.83-10.62,1.42-1.28,2.75-2.22,3.76-3.44,1.41-1.7,2.58-3.6,3.85-5.42-1.82-1.17-3.64-2.33-5.45-3.48,4.57-6.36,3.11-10.19-5.04-12.18-1.87-.46-3.61-1.44-5.43-2.19,1.06-2.03,1.95-3.74,3.29-6.3-3.71-.25-6.73-.46-9.78-.67-1.25-6.85-2.5-7.12-14.89-2.78.75-2.09,1.43-3.88,2.03-5.7.62-1.87,1.17-3.76,2-6.44-2.98.27-5.48.5-8.37.76-.19-1.24-.43-2.77-.68-4.42-6.63-2.7-10.92,1.88-15.67,4.88-8.37-6.43-8.94-6.09-12.64,7.72-5.67-5.68-9.07-.26-12.78,2.56-1.75-3.27-3.44-6.44-5.12-9.58-5.79,2.93-6.44,7.1-5.37,12.18-4.28-2-8.79-2.33-10.78-7.47-.64-1.65-4.58-2.01-6.73-2.85-.77-2.13-1.51-4.19-2.26-6.25-2.53,1-5.28,1.65-7.51,3.1-2.03,1.31-3.49,3.5-5.19,5.29q-9.9-8.43-14.09,3.81c-11.72-4.21-16.03-2.47-15.22,6.24-3.65.7-9.73-2.32-8.59,5.54-8.92,1.6-9.13,1.91-5.95,9.01-3.82,2.32-10.26.15-11.72,6.32-.35,1.47,1.02,3.35,1.8,5.63-4,3.86-9.1,8.37-6.77,15.88.28.91,2.72,1.15,3.43,1.42v10.73c2.52-.17,5.04-.34,7.86-.53,1.43,3.33,3.16,7.36,4.89,11.39l1.88.19c2.33-3.39,4.65-6.77,6.97-10.14,4.47,7.37.37,11.43-6.74,14.37.63.49,1.26.97,1.89,1.46,2.63-1.24,5.27-2.49,8.21-3.88.6,1.1,1.27,2.32,2.39,4.38,4.61-4.23,9.07-8.32,13.98-12.83,2.93,4.47,6.23,8.67,8.63,13.33,5.96,11.59,12.72,22.93,14.67,36.12.48,3.22-.24,6.61-.17,9.91.39,17.98-4.98,34.61-11.6,50.99-2.04,5.05-3.76,10.23-5.63,15.37-.41-.1-.79-.09-.89-.24-5.93-9.98-12.13-19.81-17.68-30-6.75-12.38-10.89-25.55-10.52-39.92.07-2.84-1.22-5.71-1.88-8.57-4.23,2.07-1.91,5.87-1.92,8.73-.01,7.07.73,14.14,1.24,22.17-1.56-1.7-2.6-3.06-3.87-4.17-1.33-1.16-2.87-2.08-4.32-3.11.28,1.88.11,4,.94,5.59,1.44,2.78,3.73,5.1,5.24,7.85,6.66,12.14,13.71,24.11,19.58,36.62,5.37,11.45,5.43,23.7,2.26,36.01-3.88,15.03-7.34,30.17-11.18,45.22-.83,3.27-2.47,6.34-3.6,9.15-7.32-.2-9.25-5.2-9.91-9.94-2.92-20.73-18.91-28.91-39.93-30.9-.97-.09-1.93-.2-2.72-.29-4.75-21.57-7.64-43.07-7.55-64.86.07-16.65-3.78-32.61-8.64-48.26-9.21-29.66-7.98-59.43,1.46-88.15,7.67-23.33,19.74-45.35,39.57-61.08,8.13-6.45,18.38-10.45,28.09-14.55,3.97-1.68,9.15-.2,13.64-.97,10.12-1.73,17.77-7.94,25.34-14.12-.27-.67-.54-1.34-.8-2.01-1.69.6-3.46,1.03-5.06,1.81-6.64,3.29-13.18,6.77-19.85,9.97-1.34.64-3.13.36-5.26-.49,2.38-2.41,4.9-4.7,7.09-7.27.9-1.05,1.09-2.7,1.6-4.08-1.55.36-3.76.18-4.54,1.15-9.39,11.73-23.77,14.16-36.16,20.43-.39-.91-.7-1.28-.61-1.48,6.16-13.45,12.28-26.95,26.11-34.57,1.84-1.01,4.06-2.31,5.95-2.11,13.04,1.4,23.02-4.68,32.72-13.02-.05,6.07-1.6,12.21,4.19,17.23,1.26-2.62,2.37-4.91,3.27-6.78,1.27,3.38,2.71,7.22,4.15,11.07.62-.06,1.23-.13,1.85-.19,1.29-3.04,2.57-6.07,3.89-9.17,1.91,5.11,3.7,9.93,5.5,14.75.41-.03.83-.05,1.24-.08,1.86-4.38,3.71-8.76,5.35-12.62,2.33,4.11,4.94,8.7,7.84,13.8,7.21-6.39,5.73-13.63,5.85-20.86,2.99,1.85,5.57,3.45,8.15,5.05.56-.23,1.12-.46,1.68-.69-.94-4.63-1.87-9.25-2.79-13.78.59.45,1.61,1.23,3.13,2.38,2.57-8-3.1-12.76-6.17-19.08,2.14.87,3.75,1.77,5.48,2.16,1.51.34,3.72.73,4.57-.04.92-.85,1.3-3.36.71-4.55-1.8-3.6-4.18-6.92-6.31-10.3,1.7-.64,4.15-1.55,7.01-2.63-3.83-5.6-8.84-7.56-15.16-8.11,1.85-2.26,3.37-4.11,5.03-6.14-4.77-5.11-10.3-7.56-16.36-7.67.37-2.87,2.02-7.07.83-8.15-3.78-3.44-8.78-3.4-12.86-1.33-.99-2.53-1.48-6.62-2.94-7-5.13-1.33-9.23,1.48-12.58,6.1-2-5.31-3.85-10.39-9.98-13-.95,4.21-1.8,7.96-2.76,12.19-1.69-1.46-3.02-2.6-5.2-4.48-1.04,2.83-1.88,5.12-2.78,7.56-1.68-1.86-3.5-3.86-6.08-6.71-1.85,3.13-3.37,5.68-5.27,8.9-2.93-4.11-3.27-10.89-11.04-10.25.35-.74.7-1.47,1.05-2.21,4.32.55,8.64,1.1,12.96,1.65.28-.53.55-1.06.83-1.6-1.9-2.75-3.79-5.51-5.47-7.95,3.59.91,7.6,1.93,11.61,2.95l1.15-1.45c-1.28-2.28-2.56-4.55-3.76-6.67,2.15-.68,4.57-1.22,6.78-2.22,1.34-.61,2.36-1.92,3.52-2.91-1.13-1.32-2.02-3.28-3.45-3.84-3.21-1.26-6.69-1.82-10.18-2.7,1.66-1.28,3.25-2.51,6.15-4.75-4.92-1.51-8.52-2.62-12.3-3.78,2.73-1.72,5.6-3.1,7.91-5.13,1.33-1.17,1.74-3.38,2.57-5.12-1.74-.66-3.43-1.69-5.22-1.9-2.78-.32-5.61-.08-9.03-.08.96-2.52,1.98-4.58,2.5-6.76.42-1.8,1.02-4.65.15-5.4-1.34-1.14-4.1-1.59-5.86-1.04-4.71,1.45-9.21,3.59-13.86,5.49,1.88-3.25,3.92-6.77,5.95-10.27-5.26-3.08-8.19-2.21-17.84,5.32-.17-3.8-.16-6.97-.52-10.11-.17-1.46-1.06-2.84-1.63-4.25-1.25.66-2.68,1.11-3.71,2.02-1.46,1.29-2.63,2.9-4.21,4.7-.49-2.73-.82-5.25-1.43-7.7-.33-1.35-1.13-2.58-1.71-3.86-1.36.74-2.82,1.35-4.05,2.26-.88.65-1.47,1.7-2.17,2.55q-6.98-4.9-11.4.26c-.75-1.34-1.23-2.75-2.17-3.73-1.52-1.58-3.42-4.09-5-3.97-1.78.13-3.75,2.49-4.95,4.33-1.01,1.56-1.19,3.74-1.44,5.68-.23,1.77-.05,3.59-.05,5.55-3.31-1.8-6.51-4.94-9.04-4.48-2.3.42-3.87,4.78-6.4,8.28-1.61-3.54-2.88-7.25-4.96-10.44-.81-1.24-3.44-1.76-5.24-1.77-1.74-.01-3.48,1.06-5.56,1.77,0-3.49.73-6.41-.27-8.53-.62-1.31-3.84-1.39-5.9-2.03l-.6,1.17c-1.78-3.07-3.55-6.13-6.03-10.42-2.59,4.18-4.52,7.3-6.68,10.79-1.74-1.46-3.35-2.81-5.88-4.94-1.54,2.63-2.97,5.09-4.45,7.61q-6.86-3.09-10.49,4.67c-3.85-1.5-7.74-3.02-11.63-4.54-.47.53-.94,1.06-1.41,1.59,1.19,3.28,2.38,6.56,3.72,10.26-2.06-.85-3.93-1.73-5.87-2.4-4.12-1.43-6.63.5-5.11,4.52,1.22,3.25,4.04,5.9,5.87,8.42-2.8,1.19-6.81,2.9-11.78,5.01,1.55,2.3,2.42,3.59,3.21,4.78,0,0-1.07.96-2.27,2.02-2.07-1.39-4.47-3.09-6.96-4.64-4.62-2.87-5.36-2.53-6.38,2.73-.15.76-.42,1.49-.63,2.24-.62.47-1.24.95-1.86,1.42-1.11-1.83-1.98-3.9-3.42-5.42-1.14-1.2-2.99-1.74-4.52-2.57-.9,1.7-1.93,3.35-2.64,5.13-.34.86-.06,1.96-.06,3.96-2.34-1.85-4.05-3.56-6.08-4.69-1.73-.96-3.83-1.26-5.76-1.85-.59,1.95-1.22,3.88-1.72,5.85-.15.6.08,1.29.14,1.93-11.69,2.03-12.27,3.03-6.55,10.47-3.31,1.89-6.96,3.41-9.91,5.79-4.89,3.95-4.24,6.85,1.53,9.3,1.02.43,2.04.88,3.27,1.42-2.29,2.5-4.59,4.69-6.5,7.18-5.38,7-4.39,9.3,4.4,10.69.35,2.83.71,5.69,1.2,9.62,2.96-1.87,5.22-2.92,6.99-4.51,1.83-1.64,3.18-3.81,4.75-5.75.39.26.79.53,1.18.79v10.02c2.47-1.04,4.07-1.71,5.95-2.5v4.32c-6.7-.1-13.68-2.02-19.4,3.02-.9.79-.77,2.73-1.21,4.5-.73.13-2.19.39-3.89.7.07-14.82-6.21-4.41-9.31-3-3.09-3.08-5.5-6.35-8.72-8.15-.95-.53-4.21,3.07-6.71,5-1.87-1.1-4.42-2.94-7.23-4.19-4.17-1.86-5.62,1.04-6.35,4.49-10.52-5.45-15.04-2.97-14.9,6.9-3.76,0-7.62-.51-11.24.2-2.1.41-4.68,2.45-5.4,4.37-.5,1.33,1.8,3.71,2.96,5.84-2.05,1.5-5.24,2.97-7.18,5.44-3.29,4.21.89,5.52,4.19,7.43-2.17.95-4.58,1.3-5.8,2.69-2.18,2.48-3.66,5.58-5.42,8.43,2.44.95,4.88,1.91,7.6,2.97-.92.73-2.78,1.51-3.41,2.87-1.4,2.99-2.18,6.27-3.21,9.43,2.57.57,5.12,1.28,7.72,1.64,1.04.14,2.19-.5,4.58-1.11-1.77,3.41-2.96,6.08-4.48,8.55-2.73,4.45-4.02,8.99-2.02,14.16,1.92-.89,3.62-1.67,6.17-2.86,0,3.9-.42,7.22.15,10.37.37,2.06,2.18,3.86,3.35,5.78,1.72-1.1,3.73-1.92,5.09-3.36,2.11-2.23,3.77-4.88,6.46-8.48-.69,6.57-3.03,11.97,1.49,16.36.4.39,2.08-.52,3.2-.84,0-.02.04.33.22.59,1.24,1.73,2.5,3.44,3.75,5.15,1.04-1.77,2.19-3.49,3.07-5.33.62-1.3.87-2.78,1.1-3.56,2.26,3.93,4.66,8.08,7.05,12.23.69-.12,1.38-.25,2.06-.37,1.11-3.98,2.22-7.96,3.35-12.02,1.85.69,3.87,6,5.71.97,6.95,2.25,13.73,4.96,20.77,6.61,12.01,2.81,19.33,6.55,28.03,15.87-8.01,1.2-15.37,1.71-20.64-5.97-1.76,4.13-1.06,6.9,2.97,8.7,3.38,1.51,7.37,2.76,10.96,2.49,8-.62,14.46,1.85,20.57,6.79,11.23,9.09,22.8,17.76,34.11,26.76,6.83,5.44,11.06,12.81,13.69,20.98,4.12,12.77,11.03,24.04,18.15,35.23,13.56,21.32,20.87,44.7,24.48,69.65,2.76,19.09,1.93,38.17,2.46,57.27.15,5.44.02,10.88.02,15.21-8.58-2.5-17.41-4.94-26.12-7.75-1.52-.49-3.69-2.6-3.61-3.85.87-14.07-6.88-24.59-14.09-35.34-2.5-3.72-5.56-7.07-7.91-10.87-5.53-8.97-13.93-13.26-23.71-15.92-3.86-1.05-7.72-2.9-10.96-5.24-9.23-6.67-19.37-10.79-30.64-11.81-13.19-1.2-26.42-2.04-39.65-2.87-10.23-.64-19.51,2.76-28.73,6.79-11,4.81-21.68,9.48-34.47,9.86-11.98.35-23.83,5.05-35.72,7.91-5.76,1.39-11.57,2.72-17.18,4.58-2.4.79-4.71,2.55-6.49,4.41-5.59,5.82-10.79,12.01-16.36,17.85-5.78,6.06-8.64,13.21-9.08,21.48-.21,3.82-.47,7.64-.97,11.43-1.27,9.53,3.24,15.9,10.94,20.62,1.96,1.2,3.92,2.4,7.32,4.49-4.05,1.09-6.97,2.67-9.79,2.5-18.27-1.13-35.34,2.72-52.31,9.57-14.42,5.82-21.57,16.13-25.05,30.33-1.77,7.19-3.54,14.45-6.14,21.36-3.56,9.48-5.2,19.11-5.18,29.2.01,5.58,2.08,9.97,5.85,13.79.7.71,1.43,1.4,2.12,2.12,3.23,3.36,7.72,6.22,9.3,10.23,1.37,3.49-.54,8.28-1.03,12.79-3.39.27-6.51.83-9.6.7-13.23-.54-26.06,1.31-38.82,4.89-11.61,3.26-23.52,5.44-35.27,8.19-7.46,1.75-14,5.36-16.69,12.8-6.16,17.05-12.16,34.18-17.29,51.56-2.06,6.97-.04,13.96,7.43,17.85.77.4,1.27,1.3,1.95,2.03-16.56,1.95-32.75,4.37-49.02,5.61-14.34,1.09-25.13,6.68-32.78,19.17-4.64,7.57-10.73,14.24-16.09,21.38-1.07,1.42-1.77,3.11-3.5,6.23-1.23-8.21-2.67-15.33-3.3-22.53-1.51-17.05-2.92-34.13-3.82-51.22-.74-14.01,2.03-27.39,6.84-40.75,5.25-14.59,16.87-22.13,28.55-29.8,2.94-1.93,7.82-.91,11.62-1.22-.43,2.92-.88,5.96-1.39,9.35,7.1.1,8.26-6.18,12.54-8.87.94,2.39,1.65,4.85,2.86,7.02.72,1.29,2.22,2.15,3.37,3.21.8-1.47,1.74-2.89,2.33-4.44.33-.87.06-1.96.06-3.45,2.82,2.36,5.31,4.45,7.81,6.54.47-.28.93-.57,1.4-.85-.5-3.76-1-7.52-1.46-10.96,2.94,1.02,6.03,2.09,9.11,3.15.44-.54.87-1.08,1.31-1.62-2.16-3.94-4.31-7.87-6.46-11.8.92-.5,2.19-1.19,4.77-2.59-3.85-1.5-6.36-2.47-9.3-3.62-.13-2.84-.27-6.08-.42-9.31l.76-.58c1.41,2.32,2.82,4.64,4.23,6.96l2.04-1.57c-.14-1.3-.28-2.6-.46-4.32,1.77.52,3.42,1.01,5.77,1.71-.74-1.62-1.26-2.75-1.88-4.12,2.5.78,4.85,1.52,7.2,2.25.45-.43.89-.85,1.34-1.28-2.18-3.82-4.36-7.64-6.76-11.87,2.18-1.49,6.21-.76,5.92-5.23-.3-4.53-3.74-5.56-7.09-6.49-1.99-.55-4.17-.4-6.29-.57.1-.48.1-.81.25-1.06,1.35-2.34,2.73-4.66,4.1-6.99-2.86-.91-5.69-1.93-8.59-2.68-1.24-.32-2.63-.05-3.92-.05,1.16-3.71,2.24-7.17,3.32-10.64-3.33-.98-6.67-1.95-10.24-3,.37-1.9,1.51-4.94,1.35-7.9-.13-2.35-1.31-5.33-3.06-6.64-1.07-.79-4.11,1.07-5.96,1.65-1.67-1.01-3.79-3.35-5.71-3.19-2.24.18-4.3,2.54-6.64,4.08-.58-.74-1.44-1.83-2.9-3.69-2.25,2.1-4.34,4.06-6.56,6.13,2.51-5.09,2.61-10.52,2.27-16.01-.13-2.16-.31-4.31-.46-6.47-2.3.44-4.61.84-6.9,1.34-.45.1-.83.53-1.44.94-.36-1.77-.7-3.42-1.12-5.46-1.52.4-2.7.71-2.93.77-2.1-2.85-3.96-5.37-5.82-7.89-2.99,2.71-5.98,5.42-9.14,8.29q-8.41-5.82-11.68,2.95c-1.39-1.83-2.67-3.86-4.3-5.57-5.4-5.7-6.54-5.42-8.89,1.91q-8.68-3.7-11.48,2.31c-3.58-.61-6.97-1.19-10.36-1.77v8.77c-1.38,1.43-4.32,3.1-4.46,4.98-.18,2.45,1.85,5.07,2.97,7.7-1.41.59-3.18,1.32-4.23,1.75-1.84-2.22-3.5-4.31-5.35-6.23-.11-.11-1.7,1.21-2.74,1.97-2.17-1.7-4.31-6.1-6.83-1.53-2.46-1.17-4.82-2.28-7.18-3.4-.87,1.98-1.74,3.97-2.67,6.07-2.06-1.61-4.67-3.64-7.28-5.68-.59.15-1.18.29-1.76.44-.29,3.34-.59,6.68-.96,10.91-1.54.97-7.14-.46-5.44,4.22h-10.33c.18,2.62.36,5.24.48,6.96-2.42,3.13-4.97,5.99-6.77,9.26-.26.47,3.1,2.94,5.32,4.97.07.97.21,3,.36,5.12-4.27.56-8.42,1.1-12.57,1.65-.51.77-1.02,1.55-1.52,2.32,2.11,1.14,4.22,2.28,6.48,3.49-3.11,1.71-5.78,2.85-8.02,4.55-1.26.96-1.79,2.88-2.65,4.36,1.69.7,3.34,1.54,5.08,2.04.88.25,1.95-.11,2.79-.18-1.48,3.46-3.28,6.82-4.29,10.4-.46,1.62.64,3.68,1.04,5.54,1.77-.58,3.57-1.09,5.29-1.79.72-.29,1.28-1,2.19-1.74v10.41c1.91-.63,3.12-1.04,6.05-2.01-2.44,5-4.29,8.79-6.72,13.75,3.62-.44,5.97-.73,9.01-1.1-.26,1.65-.99,3.53-.72,5.24.41,2.55,1.54,4.98,2.36,7.47,2.06-1.7,4.19-3.33,6.15-5.15.47-.44.38-1.48.58-2.39,2.14,3.44,4.17,6.7,6.66,10.71,2.24-3.96,3.89-6.9,5.75-10.18,1.37,1.15,2.39,2.24,3.62,2.97,3.25,1.94,6.4,4.75,9.92,5.4,19.5,3.61,27.75,17.74,33.7,34.46,2.59,7.29,5.38,14.56,8.75,21.51,3.62,7.49,5.6,15.29,5.7,23.45.22,17.94.07,35.88.07,53.22-10.25,1.88-19.14,3.61-28.06,5.12-8.57,1.45-13.7,6.58-16.9,14.41-.78,1.9-3.05,4.05-5,4.48-11.07,2.48-17.57,8.9-20.05,20.09-1.64,7.41-2.16,7.29-11.95,12.99,3.06-7.32,5.88-14.04,8.69-20.75-.23-.09-.45-.19-.68-.28-4.39,4.26-8.78,8.52-14.17,13.74,4.44-10.67,8.42-20.22,12.39-29.77-.42-.19-.83-.38-1.25-.57-7.66,6.19-10.89,15.3-14.85,23.93-.46-.12-.92-.25-1.37-.37,2.17-15.1,4.35-30.2,6.52-45.3-10.48,11.11-11.88,25.19-13.57,39.41-3.16-16.69-4.72-33.87-13.77-48.73-.68.15-1.35.3-2.03.46,2.99,17.27,5.97,34.54,8.96,51.81-5.67-15.17-11.32-29.98-27.03-38.02,3.58,6.96,7.45,13.78,10.67,20.9,3.17,7.02,5.69,14.34,7.96,21.88-7.29-10.29-15.56-19-28.26-22.29,9.52,11.25,18.88,22.31,28.25,33.38-.43.48-.86.95-1.3,1.43-6.74-5.68-14.15-9.81-23.93-10.91,5.71,5.43,10.78,10.26,16.48,15.69-5.17.92-9.6,2.47-13.98,2.32-7.26-.25-12.73,2.68-17.96,7.17-1.47,1.27-3.89,1.69-5.94,1.98-3.43.48-6.96.29-10.37.87-1.4.23-2.59,1.7-4.16,2.81.44-1.55.86-3.42,1.5-5.2,1.63-4.52.87-5.89-4.81-6.72,3.74-3.22,7.02-6.05,11.22-9.67-4.2-1.43-7.61-2.6-10.76-3.67,2.6-4.87,5.4-10.09,8.19-15.31-.49-.46-.97-.93-1.46-1.39-4.76,2.03-9.52,4.07-14.2,6.06.66-4.59,1.34-9.38,2.03-14.16-.46-.33-.93-.67-1.39-1-3.15,2.1-6.29,4.2-9.53,6.36-1.59-3.33-3.28-6.88-5.42-11.38-5.48,6.45-6.86,12.67-5.5,20.13-2.72-2.29-5.09-4.29-7.52-6.34q-2.45,4.97,1.41,14.1c-.24.16-.46.41-.73.46-7.2,1.5-11.29,1.35-4.1,9.64.83.96,1.39,2.15,2.76,4.31-2.13-.33-3.23-.55-4.33-.67-1.14-.13-2.3-.18-3.86-.3v9.47c-.29-6.33-3.54-7.82-9.33-5.61.83-2.73,1.76-4.87,2.06-7.09.23-1.69-.36-3.49-.58-5.24-1.73.31-3.45.61-5.23.93-.85-2.59-1.98-6.05-3.11-9.51-.59-.05-1.17-.1-1.76-.15-1.66,4.3-3.33,8.6-4.99,12.91-1.55-1.28-3.24-2.69-5.54-4.59-.89,2.75-1.51,4.67-2.18,6.74-1.94-7.36-3.83-14.51-5.72-21.66-.68.05-1.36.09-2.05.14-.64,1.83-1.29,3.65-2.09,5.93-3.95-3.99-7.59-7.66-11.23-11.33-.58.15-1.17.3-1.75.45.47,5.56.95,11.12,1.42,16.71-2.24-.39-5-.86-7.75-1.33-.42.45-.83.9-1.25,1.34,2.66,3.86,5.33,7.71,8.17,11.83-.83,1.53-6.71.85-3.65,5.32,1.6,2.33,4.42,3.82,6.88,5.85-3.11,1.21-6.79,1.56-8.02,3.47-1,1.56.96,5,1.63,7.74h-2.16c1.66,2.87,3.1,5.38,4.84,8.39-3.17-1.12-5.09-5.88-8.48-2.08-1.47-2.92-2.97-5.9-4.48-8.89-.67-.02-1.34-.04-2.02-.06-1.31,3.62-2.61,7.23-3.96,10.97-1.63-2.38-3.41-4.96-5.18-7.55-.42.12-.84.24-1.26.35-.52,3.34-1.03,6.68-1.56,10.07-4.17-2.28-8.24-4.5-12.31-6.72-.51.32-1.02.64-1.53.96,1.84,5.44,3.69,10.87,5.45,16.06-4.01-.31-8.16-.63-12.31-.95-.24.41-.49.83-.73,1.24,2.95,3.85,5.9,7.7,9.87,12.88-5.13-2.07-8.93-3.6-13.24-5.33-.3,1.62-.51,2.78-.71,3.85-6.18.3-7.46,6.09-11.25,9.56-1.22-.22-3.48-1.35-4.67-.66-1.34.78-1.72,3.21-2.75,5.42-.94.06-2.39.22-3.83.24-1.29.01-2.59-.13-4.06-.22,1.95-12.27,12.75-19.29,16.79-30.14-12.29,6.75-20,17.28-24.37,30.61-.66-.24-1.32-.48-1.98-.72.94-9.77.74-19.86,3.29-29.2,1.4-5.14,7.36-9.07,11.38-13.44,6.37-6.94,13.01-13.64,19.15-20.78,1.89-2.2,2.52-5.48,3.72-8.26-.56-.4-1.12-.8-1.68-1.21-11.3,11.79-22.6,23.58-34.48,35.97.95-16.6,1.09-32.65,14.62-44.66,7.21-6.41,14.25-13.11,18.07-22.29,1.07-2.57,1.55-5.39,2.3-8.1-.56-.26-1.12-.52-1.68-.78-7.94,10.56-15.89,21.12-23.83,31.68-.37-.22-.73-.43-1.1-.65,4.04-14.77,8.29-29.48,12.01-44.33,1.27-5.08,1.37-10.48,1.69-15.76.1-1.61-.82-3.29-1.27-4.94-.63-.11-1.26-.21-1.89-.32-1.57,4.7-3.79,9.29-4.58,14.11-1.75,10.63-2.32,21.46-4.25,32.05-1.62,8.91-4.47,17.59-6.82,26.36-1.05,3.94-2.22,7.84-3.58,11.75-.96-19.16-2.42-38.2-7.48-58.13-4.6,5.34-4.52,10.21-3.74,14.82,2.21,13.21,5.34,26.27,7.13,39.53,1.17,8.62.66,17.47.84,26.22.08,4.12.01,8.25-.64,12.52-7.45-18.6-11.26-38.59-23.44-55.48,0,2.96-.79,6.21.15,8.84,3.05,8.51,6.27,17.02,10.27,25.11,6.95,14.07,12.88,28.24,11.12,45.85-6.28-18.23-17.14-31.91-28.32-45.36-.64.31-1.29.62-1.93.93,1.11,3.11,1.76,6.49,3.41,9.28,4.24,7.12,9.16,13.84,13.36,20.99,3.58,6.08,6.54,12.53,9.58,18.44-11.73,3.97-22.66,8.03-33.83,11.25-3.88,1.12-8.36.18-12.56.18-.29-.62-.58-1.23-.86-1.85,3.79-3.34,7.59-6.68,11.38-10.02-.44-.55-.87-1.1-1.31-1.66-6.25,4.3-12.49,8.61-18.74,12.91-.29-.09-.59-.18-.88-.26,6.64-10.54,13.28-21.07,19.53-31-7.03,1.38-16.65,10.79-24.85,23.99,1.07-5.1,2.12-10.2,3.23-15.29,1.2-5.48,2.37-10.98,3.72-16.43,1.3-5.26,2.82-10.46,3.91-15.85-7.08,7.08-10.81,15.9-12.65,26.33-2.21-11.76-4.26-22.63-6.31-33.49-.65.1-1.29.2-1.94.3-2.04,10.96,3.69,21.4,3.11,32.76-7.34-15.9-9.59-19.38-15.6-24.08,4.88,14.36,9.67,28.42,14.45,42.48-.42.23-.85.45-1.27.68-6.39-11.65-13.46-22.57-27.49-26.02,9.76,10.07,17.71,21.24,22.78,34.41-6.87-7.44-15.29-11.76-26.03-13.89,6.63,5.44,12.46,10.23,18.3,15.02-10.43-1.22-19.15,1.38-28.07,6.13-6.07,3.23-13.71,3.43-20.54,5.34-2.14.6-4.3,1.24-6.35,2.36h1445.14ZM374,883.38c-16.3,2.61-31.58,9.18-47.97,6.44,6.33-14.38,28.65-15.29,47.97-6.44ZM462.58,907.22c-.44.4-.89.8-1.33,1.2-4.02-4.34-8.03-8.69-12.05-13.03.51-.46,1.01-.92,1.52-1.38l11.86,13.21ZM465.04,907.96c-.36-7.72-.72-15.44-1.07-23.16.53-.01,1.05-.03,1.58-.04,4.09,7.68.96,15.46-.51,23.2ZM482.19,891.34c-3.37,5.3-6.74,10.6-10.1,15.9-.39-.18-.78-.36-1.17-.54,1.51-6.58,5.32-11.66,11.28-15.35ZM608.98,576.68c-.19.31-.14.12,0,0h0ZM1228.51,328.21c-3.28-6.24-6.56-12.48-9.83-18.72.32-.14.63-.29.95-.43,1.65.88,3.29,1.76,4.94,2.64l1.35-1.06c-1.44-3.11-2.88-6.22-4.22-9.12,6.03,2.2,10.01,15.9,6.82,26.69ZM1232.4,308.54c-.27.04-.54.08-.81.12-1.95-3.68-3.9-7.37-5.86-11.07,1.18-.93,2.12-1.67,3.75-2.95,1.03,4.94,1.97,9.42,2.91,13.9ZM1256.05,327.67v-28.51c7.35,9.73,7.23,18.73,0,28.51ZM1274.46,296.42c-1.84,4.31,1.71,10.1-5.65,13.85,1.52-5.22,2.84-9.75,4.15-14.28.5.14,1,.29,1.5.43ZM1310.5,346.13c4.99-4.88,9.98-9.75,14.97-14.63-3.05,2.59,1.18,7.81-3.85,10.21-3.64,1.74-7.28,3.46-10.93,5.18l-.19-.77ZM1292.58,356.51c2.03-16.68,11.58-30.16,20.56-43.92.45.14.9.27,1.35.41-1.5,4.67-3.01,9.34-4.51,14.01.4.2.8.4,1.2.6,2.52-2.35,5.04-4.69,7.56-7.04.18.19.36.37.55.56-1.88,2.47-3.77,4.95-5.65,7.42l1.26,1.52c2.65-1.5,5.29-3,7.94-4.5.07.16.15.32.22.48-10.23,10.23-20.46,20.46-30.46,30.46ZM1295.74,316.88c.48,2.11.97,4.23,1.73,7.54,2.11-2.91,3.65-4.78,4.91-6.83,1.07-1.74,1.82-3.68,2.72-5.54.77.42,1.53.83,2.3,1.25-4.08,7.06-8.15,14.11-12.23,21.17-1.18-6.21-8.14-12.52.59-17.59ZM1247.72,396c.97-11.5,1.24-23.1,3.11-34.45,1.55-9.39,4.6-18.6,7.7-27.64,3.23-9.4,8.19-17.82,17.42-22.91.22,2.94.41,5.64.61,8.34.55.27,1.11.54,1.66.8,2.22-2.43,4.43-4.87,6.87-7.55,1.16,4.72,2.1,9.62,3.58,14.37,4.57,14.74-.37,27.77-8.45,39.35-5.53,7.93-13.37,14.29-20.35,21.16-3.35,3.3-7.13,6.17-10.71,9.24-.48-.24-.96-.48-1.44-.72ZM1238.63,296.04c1.21,4.48,2.32,8.56,3.43,12.65.56-.12,1.12-.25,1.68-.37.24-.98.48-1.95.76-3.11,6.89,8.68,7.5,36.92.66,48.38-14.18-18.16-10.65-37.61-6.54-57.55ZM1335.15,838c8.51-2.87,15.55-1.22,19.6,4.37-10.37,1.16-14.78.23-19.6-4.37ZM1310.5,896.34l9.63-14.93c.46.38.92.76,1.38,1.13-3.21,4.89-6.42,9.78-9.63,14.68-.46-.29-.92-.59-1.37-.88ZM1295.51,843.68c.46.3.92.6,1.38.91-2.84,4.35-5.69,8.71-8.53,13.06-.46-.3-.92-.6-1.38-.91,1.52-5.22,3.03-10.45,8.53-13.06ZM1283.78,843.15c-.91-6.19-.76-12.18,3.61-18.51,1.84,7.65-.91,13.06-3.61,18.51ZM1284.84,861.5c-5.52-6.17-11.04-12.35-16.56-18.52.61-.72,1.21-1.45,1.82-2.17,2.7,1.77,5.95,3.06,7.94,5.43,2.07,2.47,2.91,5.96,4.29,9.01.38-.14.75-.28,1.13-.42-1.2-4.03-1.97-8.25-3.69-12.04-2.68-5.91-5.99-11.53-9.03-17.27.63-.35,1.26-.7,1.89-1.05,3.08,5.29,6.75,10.34,9.06,15.96,1.97,4.8,2.29,10.27,3.48,15.41,2.89,12.4,5.87,24.78,8.96,37.77-1.08-1.07-2.56-1.87-2.91-3.01-1.24-4.09-2.28-8.27-3.05-12.48-1.52-8.33-4.04-15.46-14.04-17.02-2.49-.39-5.61-2.33-4.57-7.28,5.15,2.96,9.83,5.64,14.5,8.32.26-.22.53-.43.79-.65ZM1257.41,780.08c7.98-4.44,15.06.97,22.87,2-7.53,5.5-15.96,4.64-22.87-2ZM1223.61,835.83c9.08-1.72,15.12,3.9,21.33,9.08.41-.44.81-.88,1.22-1.32-5.38-8.74-10.76-17.48-16.14-26.22.51-.32,1.01-.64,1.52-.96,6.48,1.36,7.39,7.79,11,13.17.48-6.28.89-11.64,1.3-17,.58.03,1.17.05,1.75.08,3.1,4.14,1.33,9.07,1.47,13.61.15,4.83-.42,9.69-.68,14.53.37.02.74.04,1.1.06l5.77-13.44c.64.15,1.28.3,1.92.45-1.15,4.71-1.63,9.73-3.68,14.01-1.43,2.99-1.81,5.28-.92,8.29,3.44,11.57,4.69,28,2.82,38.69-.55-3.78-.88-6.35-1.29-8.91-1.45-9.14-2.86-18.29-4.42-27.41-.71-4.19-3.14-6.45-7.6-7.13-6.58-1-12.77-3.12-16.46-9.59ZM1199.58,886.47c3.7-4.8,7.41-9.6,11.11-14.39.43.34.87.68,1.3,1.03-3.69,4.8-7.38,9.6-11.07,14.4-.45-.34-.89-.69-1.34-1.03ZM1190.25,862.07c1.11,6.16,2.06,11.4,2.98,16.51,2.23-5.91,4.32-11.45,6.41-16.99.77.3,1.53.6,2.3.9-2.69,7.08-5.37,14.16-8.23,21.7-4.85-9.05-5.77-14.56-3.46-22.12ZM1166.71,890.73c4.48-4.22,8.97-8.44,13.45-12.66.51.53,1.03,1.05,1.54,1.58-4.32,4.38-8.64,8.76-12.96,13.15-.68-.69-1.36-1.38-2.03-2.07ZM1153.3,890.69c6.57-20.87,9.56-43.26,26.71-59.63-8.39,20-16.79,40.01-25.18,60.01-.51-.13-1.02-.26-1.53-.38ZM1152.87,852.51c-.94,12.05-1.88,24.25-2.86,36.45-.04.46-.33.89-.5,1.33-6.2-1.53-3.68-28.4,3.36-37.78ZM1133.08,856.23c-4.31-18.47-12.51-35.51-20.57-52.6-3.55-7.53-8.51-12.23-16.62-14.2-3.23-.79-5.43-.64-8.15,1.36-6.32,4.66-12.53,5.49-18.23,1.64,5.76-2.16,11.52-4.31,17.79-6.66-8.45-5.5-18.29-8.65-24.34-18.16,4.94-.11,7.87,1.47,10.09,4.78,3.31,4.94,8.25,7.62,14.21,10.12-2.83-6.53-7.99-11.58-4.94-19.04,2.67,3.71,5.81,7.51,6.6,11.74,1.72,9.31,4.98,12.84,15.22,13.19-1-2.74-1.93-5.03-2.67-7.39-2.06-6.61-4.76-13.13-5.8-19.9-.86-5.55-2.59-10.34-5.08-15.29-1.98-3.94-2.16-8.77-3.14-13.21.77-.21,1.53-.42,2.3-.64,2.49,6.38,4.98,12.76,7.48,19.15.86-3.1.73-6.18.9-9.25.18-3.16.66-6.3,1.1-10.37,5.44,8.41,5.18,13.98.28,24.18-1.09,2.28-1.81,5.65-.95,7.81,5.72,14.26,11.76,28.39,18.02,42.42,4.77,10.69,10.01,21.16,15.65,33.01-.64-5.45-1.39-9.5-1.54-13.57-.39-10.76-.49-21.54-.78-32.3-.11-4.25,1.05-9.46-.96-12.54-4.34-6.64-7.79-14.25-15.39-18.54-2.48-1.4-3.63-5.13-5.85-8.48,13.68,3.37,15,16.8,23.36,24.32-.07-6.87.46-14.04-1.66-20.31-3.1-9.17-7.99-17.75-12.35-26.47-1.04-2.08-2.62-4.32-4.56-5.44-6.36-3.66-10.14-9.48-13.9-15.36-.75-1.18-.82-2.79-1.21-4.21.63-.42,1.27-.85,1.9-1.28,3.45,4.46,6.9,8.93,10.35,13.39.28-.39.56-.77.84-1.16-.6-4.86-1.2-9.73-1.81-14.59.77-.12,1.54-.25,2.31-.37,1.67,7.61,3.35,15.23,5.02,22.84.19-.09.38-.19.57-.28.63-6.24,1.27-12.49,1.9-18.73.6.05,1.2.09,1.81.14,0,6.06-.2,12.13.08,18.18.16,3.35.68,6.83,1.84,9.95,2.71,7.27,5.9,14.37,8.93,21.52.31.72.83,1.36,1.45,2.35,2.2-15.29,3.01-30.37,13.44-42.43-.77,4.7-1.56,9.72-4.23,13.36-5.94,8.08-4.23,17.58-6.2,26.44,5.99-7.74,11.99-15.48,17.98-23.22l1.55.76c-.29,1.46-.17,3.2-.93,4.34-2.47,3.68-5.33,7.09-7.92,10.7-4.55,6.35-12.73,10.56-12.88,19.51-.32,18.97-.19,37.94-.15,56.92,0,1.39.73,2.78.99,3.7,2.34-7.09,4.24-14.49,7.23-21.42,3.44-7.97,5.23-15.93,4.56-24.64-.34-4.45.61-9,.97-13.51,6.03,7.9,3.81,16.62,3.43,25.67,2.71-2.36,4.81-4.51,7.22-6.21,6.01-4.25,7.88-13.62,4.7-20.4-2.49-5.31-3.93-11.11-5.84-16.7.71-.29,1.43-.59,2.14-.88,2.87,5.44,5.73,10.88,8.51,16.16,1.24-3.24,2.65-7.26,4.3-11.18,1.6-3.81,2.82-8.08,9.22-9.22-4.8,11.55-9.24,22.25-13.68,32.94,4.85-3.9,7.22-10.55,16.2-10.04-2.62,3.16-4.23,5.67-6.38,7.58-5.69,5.03-11.74,9.66-17.41,14.71-4.95,4.41-10.93,8.41-14.08,13.95-7.4,13.03-10.56,27.25-8.73,42.61,1.65,13.87,1.99,27.89,2.93,42.02-3.23-3.34-4.2-7.46-4.48-12.03-.44-7.11-.36-14.4-1.96-21.27ZM1134.99,728.58c-7.06-9.76-5.17-18.79-2.05-27.83,3.38,8.69,4.19,17.46,2.05,27.83ZM1092.76,763.23c-5-5.19-10-10.37-14.99-15.56,9.61.62,15.22,6.39,14.99,15.56ZM1127.76,886.38c-1.83-5.6-3.67-11.2-5.5-16.8.67-.15,1.34-.31,2.01-.46,1.72,5.58,3.44,11.15,5.16,16.73-.55.18-1.11.35-1.66.53ZM1106.43,833.29c5.5,18.87,7.06,38.99,18.33,56.01-15.3-15.73-18.93-35.19-18.33-56.01ZM1102.27,888.51c-2.36-9.05-4.73-18.09-7.09-27.14.48-.1.96-.19,1.43-.29,4.94,8.28,6.3,17.57,7.57,26.89-.64.18-1.28.36-1.91.54ZM1095.61,891.78c-7.52-12.85-15.03-25.7-23.21-39.67,10.31,8.21,23.45,30.11,23.21,39.67ZM1088.39,892.99c-7.08-6.19-14.17-12.39-21.25-18.58.36-.42.73-.84,1.09-1.25,8.28,4.82,15.98,10.29,21.25,18.58l-1.09,1.26ZM1060.06,886.07c6.39.6,11.83,2.9,16.13,7.2l-.78,1.39c-5.12-2.86-10.23-5.73-15.35-8.59ZM1022.51,897.61c1.33-9.71,4.69-18.34,14.46-22.74-4.82,7.58-9.64,15.16-14.46,22.74ZM1015.8,891.56c5.71-11.66,4.02-26.76,16.49-35.27.5.23.99.46,1.49.69-5.51,11.7-11.01,23.39-16.52,35.09-.49-.17-.98-.34-1.46-.5ZM1013.06,891.57c-.38-10.98-.85-21.58-11.16-29.2-3.88-2.87-5.64-8.62-8.36-13.06.48-.28.96-.56,1.43-.83,9.21,4.7,12.31,14.06,16.98,23,4.95-9.79,4.98-21.71,15.57-28.73-1.39,7.46-2.89,14.17-7.66,19.66-4.32,4.97-6.82,10.26-5.15,17.26.94,3.96.37,8.29.33,12.45,0,.87-.67,1.73-1.03,2.6-.93-1.22-.91-2.19-.94-3.15ZM1013.31,864.42c-1.34-12.44-7.43-23.31-4.2-36.34,6.75,14.25,7.46,20.46,4.2,36.34ZM1004.32,890.22c-5.68-8.56-11.35-17.11-17.03-25.67,10.13,5.5,17.81,12.72,19.02,24.55-.66.37-1.33.75-1.99,1.12ZM981.94,884.81c5,3,9.99,6,14.99,8.99-.23.38-.46.76-.68,1.14-6.34-.97-10.06-5.94-14.3-10.13ZM974.67,697.11c4.09-13.62,11.33-19.24,24.41-19.65,6.8-.21,13.6-.7,20.41-.88,5.77-.15,11.55-.03,17.32-.03-12.38,4.32-24.52,8.37-36.98,10.37-9.21,1.48-17.78,3.21-25.15,10.19ZM977.59,642.42c-9.41,1.67-18.82,3.37-28.2,5.19-2.88.56-5.64,1.78-8.53,2.3-5.33.95-10.82,1.18-16.06,2.45-8.48,2.07-16.69,5.36-25.23,7-9.64,1.85-19.31,3.51-27.69,8.75-8.52,5.32-16.55,11.44-24.91,17.28,2-4.4,4.32-9.1,6.3-13.94,2.56-6.28,6.54-11.52,12.88-13.76,9.13-3.22,18.46-6.22,27.95-8.02,15.91-3.01,31.96-5.5,48.06-7.26,14.27-1.56,28.68-1.83,43.03-2.68.04.56.09,1.13.13,1.69-2.58.33-5.17.55-7.72,1ZM941.64,907.7c2.7-5.41,5.4-10.82,8.11-16.23.45.23.9.46,1.35.69-2.74,5.39-5.47,10.79-8.21,16.18-.42-.21-.83-.43-1.25-.64ZM937.74,889.72c.8.02,1.61.04,2.42.07l-1.25,17.15c-.39-.04-.78-.09-1.17-.13v-17.08ZM921.96,727.87c7.21-9.6,28.74-12.7,37.02-6.69-12.23,2.21-24.62,4.45-37.02,6.69ZM885.39,858.06c.44-.31.88-.62,1.32-.92,3.4,4.64,6.79,9.27,10.37,14.14,0-5.14-.31-10.25.09-15.3.34-4.32-1.08-6.68-5.16-8.25-6.17-2.38-11.08-6.42-14.1-12.92,8.76-.05,13.88,4.78,17.7,11.72.54-8.49.87-16.25-8.92-20.22-5.3-2.15-9.49-6.48-11.64-13.2,9.13,2.94,14.7,9.11,19.53,16.34.36-1.22.48-2.13.13-2.79-3.57-6.65-7.32-13.21-10.79-19.91-1.08-2.08-1.45-4.52-2.32-7.34,6.19.83,8.13,4.28,9.44,8.46,1.58,5.03,3.32,10.01,5.02,15.1,2.35-6.34,4.5-12.12,6.64-17.9.47.15.94.3,1.41.45.04,8.49-.34,16.87-5.57,24.21-.51.72-.67,1.88-.59,2.8,1.16,12.78,2.38,25.54,3.59,38.32,6.93-11.65,12.15-15.2,18.73-12.37-4.48,3.92-8.89,7.68-13.19,11.56-4.33,3.91-8.6,7.55-8.66,14.47-.06,6.63-1.68,13.24-2.62,19.86-.44-8.02.08-15.96.19-23.91.02-1.87-.88-4.28-2.21-5.53-4.96-4.68-7.18-10.49-8.4-16.87ZM900.86,844.1c2.33-7.49,4.59-15.03,12.3-20.4-.25,9.94-6.32,15.14-12.3,20.4ZM860.42,900c6.54-2.73,12.89-.76,16.62,5.19-6.62,1.34-11.37-2.22-16.62-5.19ZM866.23,878.35c-2.88-2.91-5.79-6.64-9.34-7.4-7.48-1.6-10.62-7.57-15.29-12.09,13.84.77,18.85,14.27,29.94,20.56v-21.92c4.19,5.49,3.73,10.52,3.46,15.7-.19,3.6.08,7.49,1.29,10.84,2.31,6.42,5.43,12.55,8.22,18.8-4.8-5.48-8.52-11.47-12.64-17.19-1.09-1.52-3.33-2.89-5.16-3.05-3.25-.29-6.62.15-9.86.73-5.27.93-9.62-.67-14.11-4.01,8.01-3.85,15.54-3.88,23.5-.98ZM862.24,870.59c-2.85-6.63-5.7-13.26-8.55-19.88,8.43,3.89,9.73,11.34,10.08,19.21-.51.22-1.02.45-1.53.67ZM840.01,717.58c-12.69,1.69-25.03,5.86-37.58,8.69-7.49,1.69-13.83,5.29-19.73,10.03-1.86,1.49-4.24,2.7-6.56,3.15-5.71,1.11-10.04,3.66-12.96,8.9-3.13,5.61-6.78,10.93-10.2,16.38,2.31-7.91,5.39-15.36,7.92-22.99,5.08-15.3,15.04-25.2,31.02-28.18,17.54-3.27,35.28-5.57,52.73-9.21,12.29-2.56,24.25-2.64,36.39.16,9.43,2.17,18.91,4.09,28.37,6.13-.04.11-.07.22-.11.33-6.86,0-13.74-.2-20.59.05-8.58.32-17.29.21-25.66,1.77-7.69,1.43-15.12,3.74-23.04,4.79ZM780.25,904.73c6.87-6.13,14.23-11.28,24.88-12.19-8.67,4.75-16.5,9.03-24.32,13.31l-.57-1.13ZM771.59,903.16c7.21-14.98,18.48-26.1,30.71-38.33-5.24,11.26-26.33,37.82-30.71,38.33ZM760.73,894.55c-.36-13.1-1.18-26.2-2.37-39.25-.76-8.31-2.52-16.52-3.83-24.78.58-.09,1.16-.18,1.74-.27,5.17,10.27,8.15,21.25,8.68,32.7.53,11.41.12,22.86.12,33.66,3.68-17.47,9.25-34.97,20.3-50.38-5.69,18.02-11.38,36.05-17.13,54.23-7.59.96-7.33.67-7.51-5.91ZM753.05,895.59c-4.34-11.89-8.75-23.76-13.27-35.58-1.14-2.99-2.77-5.8-4.17-8.69,16.62,12.52,19.68,31.12,23.63,49.77-4.53.19-5.17-2.7-6.19-5.5ZM748.89,902.98c-10.17-13.4-19.39-25.54-29.43-38.76,14.69,8.6,23.76,20.43,30.52,34.23.48.98-.62,2.73-1.09,4.52ZM709.24,883.54c11.57,3.21,21.7,8.36,29.17,17.36-.32.46-.63.91-.95,1.37-9.41-6.24-18.81-12.49-28.22-18.73ZM666.26,905.96c2.92-3.69,5.84-7.37,8.77-11.06.37.3.74.59,1.12.89-2.85,3.74-5.71,7.48-8.56,11.21-.44-.35-.88-.7-1.32-1.04ZM658.34,909.41c.43-4.56.85-9.13,1.28-13.69.59.04,1.19.08,1.78.12-.46,4.6-.92,9.2-1.39,13.8-.56-.08-1.12-.15-1.67-.23ZM644.07,804.49c2.52-2.19,5.16-4.41,8.2-5.56,22.02-8.32,44.85-4.09,67.36-4.95.09.74.18,1.49.27,2.23-2.48.45-4.96.98-7.45,1.35-4.26.63-8.81.4-12.74,1.87-17.99,6.69-36.77,4.64-55.63,5.06ZM593.83,905.81c6.47-3.08,12.95-6.16,19.42-9.25.28.6.57,1.21.85,1.81-6.5,3.04-12.99,6.07-19.49,9.11-.26-.56-.53-1.11-.79-1.67ZM585.27,905.31c2.67-14.15,11.6-23.7,22.69-31.66-7.56,10.55-15.12,21.11-22.69,31.66ZM578.33,905.76c3.48-19.18,3.11-39.34,18.35-54.45.25.93.48,1.29.39,1.55-5.37,16.75-10.73,33.49-16.22,50.2-.35,1.06-1.66,1.8-2.52,2.7ZM568.55,900.77c-2.21-4.23-3.84-8.76-5.74-13.15-1.81-4.2-3.66-8.38-5.49-12.58.42-.18.84-.37,1.26-.55,7.2,7.41,10.44,16.99,14.25,26.39-.65-16.34-1.31-32.68-1.96-49.02.82-.04,1.63-.09,2.45-.13,3.64,17.7.21,35.8,2.93,53.43-4.8,1.5-6.34-1.76-7.71-4.39ZM550.35,893.01c.46-.46.93-.92,1.39-1.38,5.13,4.66,10.27,9.31,15.4,13.97-.53.58-1.06,1.16-1.59,1.74-5.07-4.78-10.13-9.55-15.2-14.33ZM454.87,618.15c.57-.33,1.13-.66,1.7-.98.71-1.73,1.42-3.46,2.27-5.51,3.45,3.96,6.79,7.77,10.12,11.59-.23.41-.47.82-.7,1.23-4.46-2.11-8.92-4.22-13.39-6.33ZM462.27,600.55l-1.03.85c-2.75-2.12-5.5-4.23-8.25-6.35.27-.38.55-.76.82-1.14,1.94.84,3.87,1.69,6.04,2.63-.15-1.57-.24-2.6-.34-3.64.31-.05.62-.1.93-.15.61,2.6,1.22,5.19,1.82,7.79ZM476.62,600.6c-4.44-3.68-9.41-6.84-9.24-13.54,2.18,1.01,4.13,1.91,7.35,3.4-1.31-4.23-2.2-7.07-3.08-9.91,4.47,6.02,3.45,13.3,4.96,20.05ZM488.59,634.35c-9.48-8.78-18.5-17.13-27.53-25.49.3-.62.59-1.23.89-1.85,2.31-.12,4.62-.25,7.93-.42-5.88-2.39-6.52-6.55-5.59-11.72,17.39,17.58,25.18,29.92,24.3,39.49ZM487.3,611.86c-4.5-8.84-8.21-17.88-7.67-29.29,9.97,8.83,7.97,19.25,7.67,29.29ZM489.97,593.97c-.85-5.38-1.57-9.98-2.29-14.58.45-.07.9-.14,1.34-.21,1.78,4.42,6.48,8.39.95,14.79ZM501.3,581.48c3.19,8.62,6.89,17.22,8.6,26.17,2.29,12,2.03,24.51,4.54,36.45,2.39,11.35,1.69,22.1-1.01,34.36-1.56-2.9-2.67-4.69-3.52-6.59-6.68-14.81-12.08-29.99-15-46.08-1.66-9.17-4.2-18.1-1.88-27.5,1.53-6.2,2.81-12.46,4.32-19.24.95.55,3.46,1.12,3.95,2.44ZM514.06,574.62c2.52,7.53,2.82,15.09-.7,22.9-3.5-7.71-6.89-15.16-10.49-23.06,2.1.31,3.52.51,5.96.87-2.33-2.75-3.96-4.68-6-7.08h7.79c-2.53-5.13-4.8-9.74-7.12-14.45.86-.24,1.93-.53,2.87-.79,2.66,7.44,5.31,14.48,7.69,21.61ZM522.82,564.51c-1.4,4.01-2.41,6.93-3.43,9.84-.48-.02-.95-.05-1.43-.07-1.24-6.39-2.48-12.78-3.72-19.18,4.17,10.93,4.58,11.58,8.58,9.41ZM550.79,588.64c-1.77,3.68-3.53,7.36-5.3,11.05-.64-.31-1.29-.61-1.93-.92,1.72-3.7,3.45-7.4,5.17-11.09.69.32,1.37.64,2.06.97ZM557.01,530.44c.29.23.02.06,0,0h0ZM540.6,624.4c2.42-18.48,8.02-27.32,20.24-32.2.14,1.7.27,3.42.44,5.52,1.25-.54,1.95-.94,2.71-1.14.89-.23,1.83-.27,2.91-.41-3.37,14.64-13.81,22.26-26.29,28.23ZM522.54,650.57c-.79-3.44-1.48-6.25-2.09-9.09-1.91-8.82-6.12-17.22-4.42-26.69,1.67-9.28,2.62-18.72,4.66-27.91,1.97-8.85,4.93-17.49,7.46-26.22.39.06.78.11,1.16.17.37,1.54.75,3.07,1.26,5.21,3.26-1.19,6.2-2.26,9.5-3.47-1.33,7.86-10.66,8.3-13.52,15.45h6.83c-.89,3.43-1.77,6.84-2.82,10.91,2.46-.43,3.87-.68,4.79-.84,1.58,2.07,3.03,3.95,5.23,6.83-3.38,17.9-5.91,37.99-18.04,55.64ZM571.18,812.51c-13.04,1.27-27.41,2.45-41.73,4.15-6.82.81-13.49,3.27-20.31,3.71-5.6.36-10.36,1.65-14.63,5.14-1.98,1.61-4.02,3.14-6.03,4.71-.37-.26-.74-.52-1.11-.78,2.46-3.99,3.99-9.54,7.56-11.65,7.42-4.39,15.7-8.91,24.03-9.87,17.97-2.06,36.1-.98,52.22,4.6ZM665.2,716.35c22.05-7.25,44.04-4.6,65.46-2.61-9.03.9-18.73,1.84-28.43,2.84-11.99,1.23-23.52,3.88-33.7,10.84-1.61,1.1-3.51,1.95-5.4,2.47-11.86,3.28-23.84,5.41-36.26,5.16-12.28-.24-24.44.38-35.9,6.22-4.37,2.23-9.81,2.79-14.84,3.17-6.87.51-13.8.13-20.92.13,3.81-6.57,10.57-9.15,17.29-12.05,19.63-8.49,40.84-7.82,61.39-10.99,10.47-1.62,21.37-1.9,31.3-5.17ZM765.11,631.67c-7.26,1.14-16.15,2.02-24.78,4.01-13.18,3.04-26,8.05-39.3,9.96-12.52,1.8-25.32,1.34-37.5,5.82-5.99,2.2-12.31,3.54-17.97,5.12,1.05-5.2,4.38-10.05,10.86-12.56,5.84-2.27,11.49-5.07,17.41-7.13,4.48-1.56,9.18-2.85,13.89-3.34,7.76-.81,15.82.18,23.34-1.46,18.68-4.09,37.16-5.85,54.06-.41ZM823.34,504.16c-11.83,1.52-24.2,1.78-35.01,8.6-.66.42-1.51.57-2.29.75-5.61,1.27-11.23,2.48-16.84,3.77-8.27,1.91-13.8,6.67-15.48,15.57-.76-4.53-1.59-8.55-2.03-12.61-.14-1.29.33-3.32,1.24-3.93,4.62-3.09,9.16-7.03,14.33-8.43,10.34-2.8,21.06-4.18,31.64-6.06,7.55-1.35,20.53.03,24.45,2.34ZM838.32,527.85c18.37-10.19,38.61-15.38,59.54-17.28,7.27-.66,14.63-.4,21.95-.47,6.12-.06,12.27-.35,18.36.12,10.89.84,21.75,2.21,32.62,3.27,9.25.9,18.62,1.08,27.76,2.65,15.75,2.71,31.37,6.24,47.04,9.43-8.98.26-17.8-.66-26.64-1.49-2.47-.23-4.97-.34-7.45-.23-11.27.52-22.53,1.53-33.8,1.6-9.79.07-19.51-.84-28.8,3.62-2.7,1.3-6.16,1.36-9.28,1.39-13.14.14-26.3-.31-39.42.21-6.01.24-12,2-17.9,3.46-4.94,1.22-9.64,3.81-14.62,4.4-13.12,1.54-24.5,6.71-34.54,14.99-2.75,2.27-5.33,5.08-7.07,8.17-4.53,8.06-8.58,16.39-12.77,24.64-.82,1.61-1.72,3.27-2.11,5.01-2.57,11.55-5,23.13-7.6,35.24-.59-1.93-1.4-3.34-1.39-4.74.11-18.32-2.25-37.08,9.12-53.52.99-1.43,1.47-3.33,1.82-5.09,3.08-15.6,11.58-27.87,25.17-35.4ZM986.69,411.69c-8.92,0-17.75.4-26.51-.12-7.41-.45-14.86-3.32-22.11-2.75-16.67,1.31-33.22,4.08-49.82,6.24-6.07.79-12.29,2.72-18.18,2-11.7-1.43-22.34.55-32.75,5.92,3.55-6.65,7.72-11.94,16.15-12.99,10.14-1.25,20.12-3.79,30.19-5.67,7.31-1.36,14.61-3.35,21.97-3.63,12.47-.48,24.96-2.8,37.45,2.03,8.19,3.17,17.26,4.1,25.97,5.86,5.85,1.18,11.75,2.08,17.64,3.1ZM1064.29,471.52c-12.07,0-23.5-.28-34.91.11-6.39.22-12.81,2.62-19.1,2.2-21.18-1.43-42.18-.41-63.11,2.72-11.62,1.74-23.18,3.53-33.27,10.46-4.48,3.08-9.54,4.74-15.44,3.63-5.49-1.02-11.2-1.11-16.81-1.16-4.28-.04-8.57.64-12.86.99-.14-.59-.28-1.18-.42-1.77,6.64-2.1,13.23-4.39,19.93-6.26,8.88-2.48,18.41-3.41,26.68-7.17,17.37-7.88,35.61-9.74,54.17-10.82,7.46-.43,14.9-1.42,22.36-1.63,11.57-.33,23.19-.69,34.73-.09,7.16.37,14.28,2.29,21.33,3.91,5.52,1.27,10.9,3.16,16.72,4.88ZM971.57,206.04c-8.22-2.63-17.64-3.64-19.81-14.46,9.19,1.08,12.8,10.16,19.81,14.46ZM974.72,173.51c-.21.22-.42.45-.64.67-2.77-1.36-5.54-2.72-8.41-4.12.53-1.22.98-2.24,1.88-4.32,2.82,3.06,4.99,5.42,7.16,7.77ZM980.69,183.63c9.79,6.52,19.08,13.81,28.9,20.27,13.2,8.69,17.9,22.16,21.56,36.64-6.02-3.63-11.54-7.75-16.9-12.05-8.01-6.41-16.4-12.37-22.15-21.27-2.3-3.56-5.84-6.37-9.07-9.23-1.02-.91-2.87-.88-4.34-1.29l-.34,1.37c3.56,3.91,7.11,7.82,10.67,11.73-11.23-3.53-17.94-12.06-26.37-20.5h9.14c.35-.44.7-.88,1.05-1.32-4.52-4.8-9.04-9.6-13.66-14.5.49-.13,1.88-1,2.6-.61,6.39,3.43,12.89,6.75,18.92,10.76ZM1009.35,195.99c-10.3-9.6-25.3-13.39-31.88-26.71,1.18-1.38,2.28-2.66,3.33-3.89,1.22,2.68,2.15,5.57,3.77,8.02,1.07,1.62,3.1,2.6,4.7,3.87.75-1.55,1.56-3.08,2.23-4.67.39-.92.55-1.94.73-2.64,2.34,2.21,4.47,4.21,7.54,7.11v-10.83c.43-.1.87-.2,1.3-.3l8.27,30.04ZM1014.19,173.39c-.44-3.22-.67-4.93-.94-6.86,1.42,1.1,2.58,2,3.96,3.07.3-2.53.52-4.41.74-6.29.29.03.57.06.86.09,2.12,14.01,4.23,28.02,6.5,43.05-16.48-9.6-13.4-26.71-17.66-40.74,1.87,2.2,3.73,4.39,6.54,7.69ZM1040.2,109.19c-2.13.23-3.83.42-5.52.6.61-4.01,1.19-7.76,1.88-12.31,1.3,4.2,2.42,7.79,3.64,11.71ZM1070.44,125.74l-1.26.42c-1.24-4.98-7.51-7.57-6.52-13.7,1.95,2.24,3.92,3.94,5.15,6.08,1.26,2.18,1.78,4.78,2.63,7.2ZM1091.1,128.17c-3.32-4.81-6.63-9.62-9.45-13.7,4.54-4.25-1.28-7.31-.46-10.7,10.13,5.28,10.53,14.56,9.91,24.4ZM1094.82,160.38c-5.29-7.99-9.97-14.79-14.37-21.76-4.36-6.9-9.53-13.76-4.31-23.17,3.82,5.71,7.16,11.43,11.22,16.59,6.29,8,8.67,16.88,7.47,28.35ZM1096.8,181.23c.58,4.77.82,9.64,1.97,14.28,1.78,7.2,4.9,14.12,6.16,21.38,1.7,9.78,2.1,19.79,3.21,29.68.86,7.59,2.87,15.16,2.75,22.71-.16,9.88-1.76,19.76-3.03,29.61-1.13,8.73-2.67,17.41-4.2,27.21-4.58-5.62-8.88-10.08-12.21-15.19-4.79-7.34-9.48-14.86-13.12-22.81-5.76-12.59-13.2-23.56-23.58-32.91-5.4-4.86-10.07-11.23-13.18-17.81-6.06-12.85-10.86-26.34-12.24-40.67-.77-8-1.65-16.18,4.92-23.28,2.19,4.95,4.29,9.68,6.38,14.41l1.26-.28c.73-2.61,1.46-5.23,2.14-7.67,2.26,1,4.33,1.92,7.61,3.37-1.03-3.76-1.66-6.05-2.32-8.48,3.41,1.25,6.65,2.44,11.44,4.19-1.1-5.1-1.87-8.68-2.64-12.28,1.1-.19,2.5-.43,5.37-.93-1.74-3.79-2.67-7.33-4.75-9.93-2.13-2.65-5.4-4.39-8.19-6.54,2.4-1.66,5.14-3.55,7.88-5.45.07-.65.15-1.3.22-1.94-4.81-2.38-9.63-4.75-13.41-6.62-.23-2.86.49-6.09-.81-7.74-3.18-4.07-7.68-2.69-12.02-.83-.31-2.9-.12-6.24-4.43-4.7-.84-2.78-1.64-5.42-2.5-8.26-3.06,1.77-5.15,2.98-7.23,4.19.03-.5.05-1.01.08-1.51-1.73-.78-3.41-2.08-5.2-2.25-4.69-.44-5.24-1.12-3-5.19.82-1.49,1.8-2.9,2.91-4.68.94,3.33,1.75,6.19,2.94,10.39,3.93-5.27,6.94-9.29,9.32-12.49,4,3.81,8.25,7.84,12.4,11.79-.91,1.41-2.47,3.86-4.06,6.33,5.03.9,8.99,1.61,12.8,2.3.77,1.95,1.18,3.81,2.2,5.23.58.81,2.62,1.6,3.17,1.21,1.03-.72,2.3-3.09,2-3.41-3.88-4.19.78-5.38,3.28-7.61v11.77s1.18.19,1.18.19c1.11-2.08,2.22-4.16,3.78-7.09,8.1,11.68,15.65,23.19,23.86,34.19,5.47,7.34,9.74,14.95,10.86,24.13ZM1119.77,157.4c.66,16.73-2.15,32.07-7.35,47.66-5.01-7.38-18.12-99.75-14.66-106.76.47,6.48,2.65,11.18,7.79,14.4.18-1.02.23-1.66.42-2.26.19-.62.51-1.2,1.39-3.22,4.15,17.74,11.72,32.59,12.41,50.18ZM1125.3,98.3c-.9,10.76-.92,21.65-5.42,33.46-3.35-9.9-8.38-17.85-6.11-28.18,1.52,1.87,2.57,3.17,4.17,5.15,2.23-3.98,4.13-7.36,6.02-10.75l1.33.32ZM1129.46,108.21c.83-5.48,1.66-10.97,2.49-16.45,4.59,6.26,3.42,11.7-2.49,16.45ZM1128.61,175.35c-6.81-18.96-.4-58.26,10.64-69.86,1.43,2.72,2.88,5.49,4.34,8.26.46-.07.91-.14,1.37-.21.92-2.46,1.85-4.92,2.68-7.12,1.74,1.67,3.67,3.5,5.59,5.34.58-.19,1.15-.39,1.73-.58-.46-9.47-.91-18.95-1.37-28.42l1.48.17c5.21,34.53-4.12,64.78-26.45,92.42ZM1178.54,123c-7.71,7.64-15.41,15.27-23.34,23.13,2.44-13.47,4.59-25.97,6.99-38.42,1.24-6.43,2.28-13.05,7.68-18.06-2.05,7.95-4.01,15.57-6.15,23.85,3.27-1.4,5.64-2.41,8.78-3.75-.99,1.68-1.53,2.61-2.32,3.95,1.71-.5,2.67-.78,4.24-1.24-1.76,2.81-3.13,4.99-5.11,8.15,3.37.45,5.84.78,8.3,1.1.31.43.62.85.93,1.28ZM1206.31,171.68c6.21-7.46,12.21-14.67,18.21-21.87.47.33.94.65,1.41.98-.9,2.56-1.8,5.13-3.13,8.88,4.96-.22,9.22-.41,13.47-.59-6.46,10.13-21.1,16.86-29.96,12.6ZM1190.25,178.58c3.85-9.73,7.71-19.45,11.89-30,2.21,4.5,3.84,7.82,5.82,11.84,2.65-4.08,4.93-7.58,7.21-11.08.29-.03.59-.05.88-.08-.12,1.07.13,2.41-.42,3.16-4.43,5.99-8.83,12.03-13.63,17.73-2.97,3.53-6.61,6.49-9.94,9.71-.6-.43-1.2-.85-1.8-1.28ZM1121.86,250.83c-3.66-19.39-.81-38.19,3.84-57.04,2.2-8.94,9.15-14.4,13.54-21.68,9.38-15.55,23.96-25.91,36.63-38.07.13,2.19.25,4.4.41,7.21,4.66-1.1,8.64-2.04,12.13-2.87-1.43,4.02-3.32,7.92-4.05,12.03-.36,2.05,1.41,4.48,2.22,6.73,1.77-.77,3.54-1.55,5.19-2.27.69,5.14-1.07,10.59-6.72,21.22-7.14,13.43-14.09,26.97-21.27,40.37-1.71,3.19-3.74,6.3-6.11,9.02-9.94,11.36-20.34,22.34-26.04,36.71-.78,1.96-2.17,3.74-3.56,5.37-.75.87-2.09,1.24-3.17,1.83-.58-1.06-1.56-2.08-1.68-3.2-.56-5.11-.41-10.34-1.36-15.36ZM1173.29,565.5c-.13.45-.26.9-.39,1.34-4.48-.91-8.94-1.96-13.44-2.72-20.89-3.53-41.73-5.96-62.04,3.03-2.06.91-4.47,1.25-6.74,1.39-12.24.76-24.49,1.43-36.75,2.04-12.37.62-22.06,5.73-27.95,16.87-2.3,4.36-3.94,9.07-5.82,13.65-.88,2.15-1.62,4.35-2.42,6.53-.41-.13-.81-.27-1.22-.4,1.37-7.09,2.49-14.23,4.15-21.25,3.96-16.71,8.36-20.43,25.5-22.64,11.82-1.52,23.78-2.47,35.39-5,20.49-4.46,40.98-3.78,61.38-.85,10.29,1.48,20.24,5.26,30.35,8ZM1266.51,632.52c-5.98,0-12.01-.45-17.94.14-4.8.48-9.72,1.66-14.14,3.56-4.66,2.01-8.84,4.27-14.19,2.5-1.88-.62-4.38-.21-6.35.46-7.48,2.55-15.06,4.95-22.21,8.26-5.97,2.76-11.94,4.26-18.26,2.87-15.38-3.38-27.97,1.58-38.84,12.24-1.1,1.08-2.21,2.15-3.9,3.8,1.88-18.61,9.76-28.18,24.79-30.73,6.53-1.11,13.17-1.59,19.69-2.71,12.47-2.14,24.91-4.01,37.63-2.61,5.6.61,11.82,2.41,16.77.74,12.71-4.29,24.74-2.24,36.94,1.49ZM1318.34,725.25c-4.76,7.48-10.24,12.46-17.83,14.88,3.67-7.24,7.88-13.77,17.83-14.88ZM1316.2,756c-.34,9.94-6.28,16.83-12.89,23.35,2.51-8.75,7.04-16.41,12.89-23.35ZM1352.39,773.15c6.42-2.38,12.52-2.74,18.96,1.45-5.49,1.85-10.18,3.94-15.77,2.25-5.65-1.7-10.53-.22-15.2,3.84-8.81,7.68-15.68,16.42-19.89,27.48-5.51,14.46-8.99,29.18-9.17,44.11,6.82-5.38,13.7-10.73,20.44-16.25.84-.69,1.35-2.33,1.28-3.48-.72-10.74,6.1-16.62,13.32-22.29.49.28.97.56,1.46.85-3.93,7.03-7.86,14.07-11.78,21.1,6.83-3.98,12.29-10.63,22.72-7.87-5.31,2.72-9.56,4.87-13.78,7.07-3.77,1.97-7.85,3.55-11.18,6.1-5.11,3.93-9.43,8.87-14.54,12.8-6.14,4.71-9.96,10.51-11.02,18.16-.68,4.92-1.36,9.85-2.15,14.76-.62,3.83-1.41,7.64-2.13,11.45-.58-.05-1.16-.1-1.75-.16-.37-1.69-1.13-3.4-1.04-5.06.32-5.46.77-10.92,1.49-16.33,1.36-10.15,3.59-20.23,4.24-30.42.57-8.91.05-18.01-1.12-26.88-.66-5.02-2.47-10.72-5.71-14.41-10.7-12.19-22.25-23.64-33.59-35.27-.93-.95-2.65-1.2-4.05-1.59-4.39-1.23-8.11-3.27-10.34-7.29.22-.45.45-.91.67-1.36,3.49,1.31,6.98,2.62,10.99,4.12-3.52-4.71-6.77-9.08-10.03-13.44.33-.28.66-.55.99-.83,2.92,2.36,5.84,4.71,8.27,6.68-.34-5.16-.7-10.54-1.06-15.92.47-.05.94-.09,1.42-.14,3.4,5.52,4.23,11.69,3.74,18.02-.53,6.72,2.91,11.21,7.56,15.5v-19.55c3.96,6.5,5.84,11.83,3.59,18.02-1.35,3.72-.73,6.82,2.69,9.58,4.78,3.87,9.12,8.28,13.61,12.51,3.05,2.87,6.03,5.81,10.09,9.74-.61-4.12-.7-6.81-1.43-9.32-3.15-10.95-6.45-21.86-9.74-32.77-1.79-5.94-3.05-11.86-8.93-15.91-4.44-3.06-5.21-11.79-2.33-15.87,3.65,8.23,7.19,16.23,11.07,25,4.27-11.74,2.62-21.06-4.47-29.91-2.06-2.57-1.58-7.18-2.26-10.86.87-.25,1.74-.51,2.61-.76,3.05,7.1,6.1,14.2,8.77,20.42,1.2-7.17,1.34-15.88,8.33-22.23-.44,4.09-.82,8.39-2.75,11.81-3.05,5.44-3.91,11.14-4.44,17.11-.32,3.63-.8,7.29-1.73,10.8-3.06,11.56,1.73,21.58,5.81,31.77-.02.02-.03.03-.05.05,5.91,17.52,6.25,35.71,6.03,53.44,3.61-10.54,7.59-21.32,10.99-32.28,3.02-9.74,6.08-19.56,7.85-29.58,1.61-9.11,1.18-18.57,2.25-27.8.89-7.67,1.3-15.01-1.59-22.5-1.01-2.63.58-6.26.98-9.43.54.05,1.08.1,1.62.15.47,2.93.94,5.87,1.41,8.8,1.31-1.68,1.8-3.35,2.35-5,.51-1.54,1.09-3.06,2.07-5.82,2.36,7.31.7,12.4-2.02,17.57-1.39,2.64-1.58,5.9-2.32,8.88,8.17-7.56,9.13-19.89,20.75-25.72-1.58,12.42-9.3,19.91-16.45,27.87,7.8-4.92,14.66-11.37,24.59-9.66-2.7,4.64-13.66,11.35-20.01,12.09-8.56,1-9.87,2.74-9.75,11.33.09,6.14-.12,12.3-.68,18.42-.54,5.9-1.7,11.74-2.6,17.7,7.21-5.5,12.96-11.63,15.44-20.68,1.32-4.81,4.65-9.08,7.72-14.81,1.4,11.11-4.69,17.54-9.17,24.84,4.71-3.42,8.73-7.28,12.58-11.31,2.87-3,5.38-6.36,8.33-9.26,1.55-1.52,3.72-2.39,5.61-3.56-2.48,9.7-10.32,14.05-16.73,19.93ZM1381.05,892.76c-.66.27-1.32.55-1.98.82-4.64-8.39-9.29-16.79-13.93-25.18,7.83,6.74,13.84,14.46,15.91,24.36ZM1415.96,867.23c-5.7,8.51-11.39,17-17.65,26.32-1.91-.77-4.83-1.94-8.05-3.22-.52.38-1.76,1.27-3,2.16-.68-1.05-1.84-2.05-1.96-3.16-.97-9.28-4.84-17.46-9.24-25.48-1.15-2.1-2.08-4.33-3.56-7.45,11.71,6.56,13.17,18,17.88,27.76.93-14.52-1.14-28.86-2.59-43.26,6.76,12.1,6.65,25.39,6.75,38.73,5.17-10.29,6.32-22.06,12.27-31.86.8.24,1.59.49,2.39.73-3.95,13.06-7.9,26.13-12.23,40.45,11.59-19.1,14.42-22.28,18.97-21.71ZM1420.22,882.38c-3.65,3.21-7.3,6.43-10.95,9.64-.55-.63-1.11-1.25-1.66-1.88,3.85-3.02,7.7-6.04,11.55-9.06.35.44.7.87,1.06,1.31Z"/>
  </g>
</svg>