<svg
    width='64'
    height='64'
    viewBox="0 0 24 24"
    fill="none"
    xmlns="http://www.w3.org/2000/svg"
>
    <path
        d="M22.8724 10.9525L19.875 8.2882V4.18936L16.4356 0.75H7.125V6.75H3.75C3.45174 6.75035 3.16579 6.86899 2.95489 7.07989C2.74399 7.29079 2.62535 7.57674 2.625 7.875V22.125C2.62535 22.4233 2.74399 22.7092 2.95489 22.9201C3.16579 23.131 3.45174 23.2497 3.75 23.25H23.25V11.7934C23.2499 11.6346 23.2163 11.4775 23.1512 11.3326C23.0861 11.1876 22.9911 11.0581 22.8724 10.9525ZM7.125 21.75H4.125V8.25H7.125V21.75ZM15.375 2.25H15.8144L18.375 4.81064V5.25H15.375V2.25ZM8.625 2.25H13.875V6.75H18.375V10.125H8.625V2.25ZM21.75 21.75H8.625V11.625H19.875V10.2951L21.75 11.9618V21.75Z"
        fill='#ffffff'
    ></path>
    <path
        d="M12.375 16.125H10.875V17.625H12.375V16.125Z"
        fill='#ffffff'
    ></path>
    <path
        d="M15.375 16.125H13.875V17.625H15.375V16.125Z"
        fill='#ffffff'
    ></path>
    <path
        d="M12.375 19.125H10.875V20.625H12.375V19.125Z"
        fill='#ffffff'
    ></path>
    <path
        d="M15.375 19.125H13.875V20.625H15.375V19.125Z"
        fill='#ffffff'
    ></path>
    <path
        d="M18.375 16.125H16.875V17.625H18.375V16.125Z"
        fill='#ffffff'
    ></path>
    <path
        d="M18.375 19.125H16.875V20.625H18.375V19.125Z"
        fill='#ffffff'
    ></path>
    <path
        d="M18.375 13.125H10.875V14.625H18.375V13.125Z"
        fill='#ffffff'
    ></path>
</svg>
