<?xml version="1.0" encoding="UTF-8"?>
<svg xmlns="http://www.w3.org/2000/svg" version="1.1" viewBox="0 0 64 64">
  <defs>
    <style>
      .cls-1 {
        fill: #ec8511;
      }
    </style>
  </defs>
  <!-- Generator: Adobe Illustrator 28.7.3, SVG Export Plug-In . SVG Version: 1.2.0 Build 164)  -->
  <g>
    <g id="Layer_1">
      <path class="cls-1" d="M61,29.2l-8-7.1v-10.9l-9.2-9.2h-24.8v16h-9c-.8,0-1.6.3-2.1.9-.6.6-.9,1.3-.9,2.1v38c0,.8.3,1.6.9,2.1.6.6,1.3.9,2.1.9h52v-30.6c0-.4,0-.8-.3-1.2-.2-.4-.4-.7-.7-1ZM19,58h-8V22h8v36ZM41,6h1.2l6.8,6.8v1.2h-8V6ZM23,6h14v12h12v9h-26V6ZM58,58H23v-27h30v-3.5l5,4.4v26.1Z"/>
      <path class="cls-1" d="M33,43h-4v4h4v-4Z"/>
      <path class="cls-1" d="M41,43h-4v4h4v-4Z"/>
      <path class="cls-1" d="M33,51h-4v4h4v-4Z"/>
      <path class="cls-1" d="M41,51h-4v4h4v-4Z"/>
      <path class="cls-1" d="M49,43h-4v4h4v-4Z"/>
      <path class="cls-1" d="M49,51h-4v4h4v-4Z"/>
      <path class="cls-1" d="M49,35h-20v4h20v-4Z"/>
    </g>
  </g>
</svg>