<?xml version="1.0" encoding="UTF-8"?>
<svg id="Layer_2" xmlns="http://www.w3.org/2000/svg" viewBox="0 0 200.79 244.11">
  <defs>
    <style>
      .cls-1 {
        fill: #fee5d1;
      }
    </style>
  </defs>
  <g id="Layer_1-2" data-name="Layer_1">
    <g>
      <path class="cls-1" d="M200.79,42.06v1.53c-.07.34-.2.68-.21,1.02-.03,1.45-.47,2.65-1.65,3.63-1.4,1.16-2.67,2.48-4.02,3.7-1.86,1.67-3.74,3.31-5.24,4.64-1.45-.21-2.5-.5-3.54-.5-55.32-.02-110.63-.02-165.95,0-.62,0-1.67-.34-1.69.63-.03,1.12,1.09.7,1.7.71,8.2.04,16.4.03,24.6.03,46.9,0,93.8.01,140.69.02.49,0,.98.05,1.66.09-.25.15-.3.21-.35.21-6.56.72-13.15.97-19.75.78-5.24-.15-10.49-.47-15.73-.52-12.39-.12-24.78-.18-37.17-.15-20.99.06-41.98.22-62.96.35-.98,0-1.97.02-2.95.09-9.2.68-18.41.91-27.63.51-.68-.03-1.35-.07-2.09-.11v4.38c.56,0,1.06,0,1.55,0,55.24,0,110.49,0,165.73,0,.65,0,1.32.02,1.95.15.28.06.68.41.7.65.07,1.3.03,2.6.03,3.87-1.58,0-2.99,0-4.4,0-54.7,0-109.39.01-164.09.02-1.67,0-1.75.09-1.37,1.85h168.07c0,.77.05,1.42-.01,2.07-.08.83.13,1.27,1.03,1.55,2.07.65,3.48,2.77,3.51,4.93.02,1.88-1.04,3.21-3.29,4.14-.13.06-.26.13-.4.17-.65.22-.79.63-.81,1.33-.05,1.66-.29,3.32-.46,5.18-1.21-.7-2.73.04-3.55-1.4-.1-.17-.91-.2-1-.05-.66,1.04-1.57.42-2.33.36-.89-.06-1.12.21-1.12,1.08.11,34.15.2,68.29.26,102.44,0,1.07.34,1.64,1.55,1.66.05-.65.14-1.3.14-1.95.03-6.19.11-12.39.05-18.58-.05-5.06-.39-10.12-.41-15.19-.06-21.94-.04-43.88-.05-65.82,0-.38,0-.76,0-1.19.68.07,1.18.13,1.71.18.02.4.04.73.05,1.05.28,26.27.55,52.55.84,78.82.15,13.26.32,26.53.48,39.79.02,1.98.65,2.48,2.57,2.06.21-.05.41-.12.42-.12,0-2.5.07-4.9-.01-7.29-.31-9.28-.87-18.57-.96-27.85-.21-22.19-.19-44.39-.31-66.58-.02-4.33-.21-8.67-.38-13-.08-2.17-.3-4.34-.46-6.57.7-.01,1.26-.1,1.31.85.33,5.93.86,11.85,1.03,17.78.32,11.4.51,22.81.62,34.21.22,22.34.34,44.68.5,67.02,0,.46,0,.93,0,1.34,2.91.91,3.04,1.14,1.99,3.52.27.15.54.39.84.46,1.82.41,2.65,2.11,4.03,3.1.36.26.45.96.55,1.48.09.48.02,1,.02,1.51.83,0,1.66-.02,2.48,0,1.15.04,1.74.68,1.44,1.77-.17.62-.58,1.39-1.1,1.63-.92.43-1.52.86-1.26,1.94-.48.06-.86.1-1.28.15v13.54c-.43,0-.78,0-1.14,0-8.53.15-17.05.29-25.58.44-21.9.38-43.79.75-65.69,1.13-10.93.19-21.86.39-32.79.57-16.98.28-33.96.57-50.93.77-1.31.02-2.8-.38-3.91-1.07-2.89-1.81-5.61-3.9-8.4-5.87-.56-.4-.73-.89-.72-1.58.03-4.3,0-8.6.03-12.9,0-.69-.13-1.21-.66-1.73-.52-.51-.94-1.22-1.18-1.92-.5-1.39.26-2.37,1.73-2.41.45-.01.91,0,1.57,0-.87-2.23.07-3.4,1.94-4.02-.82-1.39-.78-1.97.24-2.24.92-.24,1.12-.79,1.12-1.58.01-1.93.09-3.86.03-5.79-.26-7.32-.77-14.63-.81-21.95-.05-10.78.19-21.57.38-32.35.11-6.12.44-12.24.54-18.36.07-4.7.05-9.4-.17-14.09-.11-2.26-.51-4.64-3.24-5.51.15-1.16.3-2.28.44-3.4.76-5.92,1.5-11.84,2.29-17.75.08-.61.01-1-.46-1.42-2.89-2.57-5.73-5.18-8.63-7.73-.6-.53-.87-1.02-.87-1.84C.08,67.16.06,55.72,0,44.27c0-.88.27-1.26,1.07-1.59,7.79-3.24,15.55-6.53,23.33-9.8,22.28-9.39,44.55-18.79,66.84-28.17.95-.4,1.65-.81,1.83-2.01.22-1.49,1.81-2.61,3.34-2.62,1.6-.02,3.22.11,4.81-.05,2.22-.22,3.82.78,5.11,2.36.68.83,1.46,1.33,2.42,1.72,23.97,9.87,47.93,19.76,71.9,29.64,6.72,2.77,13.44,5.54,20.16,8.31ZM141.31,91.89c-.67,39.91,1.04,79.63,1.61,119.36h2.08c0-.75.02-1.41,0-2.06-.26-6.92-.65-13.83-.77-20.75-.23-13.19-.33-26.38-.45-39.57-.12-13.37-.18-26.75-.31-40.12-.03-3.24-.25-6.48-.34-9.72-.06-2.07-.06-4.15,0-6.22,0-.34.4-.9.69-.95.72-.14,1.49-.05,2.33-.05,0,.54,0,.97,0,1.4.02,5.17-.03,10.35.06,15.52.31,17.12.73,34.24,1.01,51.37.22,13.41.23,26.82.51,40.23.07,3.28.8,6.55,1.25,9.82.03.24.19.46.28.69l.37-.06c-.18-7.54-.32-15.07-.54-22.61-.16-5.57-.69-11.14-.61-16.71.37-25.14.68-50.28-1.01-75.39-.09-1.4-.24-2.8-.38-4.35.6,0,1.11.05,1.61-.01.93-.12,1.34.13,1.42,1.18.21,2.54.67,5.05.86,7.59.55,7.33,1.25,14.66,1.45,22.01.33,11.91.28,23.83.43,35.74.21,17.02.45,34.03.7,51.05.03,2.19.07,2.19,2.11,2.93,1.13.41,1.36,1.02.8,2.07-.08.15-.14.3-.2.44,1.86,1.03,1.94,1.02,3.78-.58-.97-1.67-.92-1.78,1.39-2.84,0-2.21.04-4.43,0-6.65-.34-15.41-.91-30.82-1.01-46.23-.14-20.04.09-40.08.15-60.12,0-1.02.31-2.16-.98-2.74-.1-.04-.17-.25-.17-.39,0-1.35-.78-2.67-.13-4.06.43-.92.02-1.39-.93-1.62-1.91-.46-3.06-1.94-3.08-3.85-.02-1.99,1.17-3.65,3.01-4.21.45-.14.92-.25,1.32-.49,2.26-1.33,4.5-2.68,6.72-4.07.34-.22.53-.69.89-1.2h-31.18c.22,2.82-.59,4.21-3.02,5.22-.27.11-.62.14-.79.34-.28.32-.6.72-.64,1.12-.17,1.69-.25,3.39-.37,5.18-.78-.15-1.41-.3-2.05-.4-.58-.09-1.27.1-1.46-.8-.02-.09-1.17-.16-1.25,0-.27.61-.65.44-1.07.37-.47-.07-.95-.23-1.4-.16-.31.05-.78.4-.81.65-.1.92-.04,1.86-.04,2.86h1.14c.11-.34.2-.64.32-1.02.68.1,1.31.19,2.08.31,0,.53,0,1,0,1.46.03,3.13.03,6.27.08,9.4.41,21.57.82,43.13,1.24,64.7.29,14.83.59,29.65.89,44.48,0,.29.02.58.08.87.17.85.59,1.41,1.56,1.29.99-.12,1.07-.8,1.05-1.59-.09-3.79-.16-7.58-.23-11.37-.52-26.52-.96-53.04-1.61-79.56-.21-8.66-.96-17.3-1.47-25.95-.07-1.18-.2-2.36-.3-3.54,1.9-.1,1.97-.11,2.16,1.54.49,4.26,1.18,8.53,1.3,12.81.43,15.81.68,31.62.95,47.43.32,18.98.58,37.97.88,56.95.01.72.06,1.47.27,2.16.14.47.5,1.01.92,1.24,1.62.88,1.74,1.08.97,2.98h1.76c-1.14-1.87-.97-2.26,1.02-2.73.64-.15,1.29-.35,1.93-.34.94.01,1.05-.45,1.01-1.22-.12-2.77-.2-5.53-.27-8.3-.41-15.04-1.01-30.08-1.17-45.13-.22-21.32-.12-42.63-.15-63.95,0-.38.04-.77.06-1.19.7.04,1.28.08,1.74.1ZM65.61,215.73c-1.14-1.92-1.07-2.08,1.15-2.95.21-.08.42-.38.46-.6.07-.42.03-.87.02-1.31-.29-19.24-.7-38.47-.82-57.71-.13-20.11.01-40.23.07-60.34,0-1.04-.25-1.34-1.31-1.34-10.79.04-21.57.02-32.36.02-.46,0-.93,0-1.41,0-.11-.91-.2-1.68-.3-2.59h32.38c.08-.93.15-1.73.23-2.6-.31-.02-.48-.04-.66-.04-10.16-.02-20.33-.04-30.49-.08-.81,0-1.56-.02-1.74,1.19-.97-.76-2.41.1-3.06-1.33-.07-.16-.89-.22-1-.07-.71.98-1.63.47-2.44.38-.93-.1-1.13.26-1.12,1.09.02,3.06-.01,6.12,0,9.18.05,32.07.12,64.13.16,96.2,0,1.01.33,1.49,1.49,1.4,1.04-17.6-.4-35.14-.17-52.68.23-17.54.05-35.08.05-52.7.7.11,1.2.19,1.73.27.02.34.05.62.05.91.24,30.79.49,61.58.73,92.37.07,9.44.15,18.88.24,28.31.02,2.38.53,2.81,2.67,2.54.54-.07.8-.25.74-.82-.04-.36-.03-.73-.04-1.09-.36-13.4-.86-26.8-1.04-40.21-.27-20.08-.3-40.15-.47-60.23-.04-4.63-.21-9.25-.39-13.87-.1-2.56-.35-5.12-.53-7.68,1.52-.1,1.51-.1,1.61,1.31.11,1.52.32,3.04.39,4.57.4,8.99.97,17.97,1.1,26.97.24,17.74.23,35.49.31,53.24.06,12.06.12,24.12.16,36.18,0,.99.11,1.64,1.33,1.77.99.1,1.56,1.04,1.37,1.89-.09.41-.31.78-.5,1.22,1.57,1.05,3.35,1.1,5.07,1.12,6.59.07,13.19-.02,19.78.1,2.47.05,4.66-.42,6.58-2ZM112.19,125.76c.44,7.28.88,14.45,1.31,21.61h1.45c-.97-9.46-.5-18.86-.44-28.25.05-9.43.21-18.86.33-28.44h-35.97v-1.36h37.17c-.95-2.62-1.05-3.58-.46-6.02.21-.86-.13-1.19-.86-1.43-2.52-.81-3.61-2.73-3.06-5.33.06-.3.11-.59.17-.94h-25.88c.26,2.89-1.24,4.47-3.77,5.3-.66.22-.76.72-.78,1.38-.05,1.66-.21,3.32-.34,5.18-1.26-.68-2.74.04-3.64-1.32-.13-.2-1.1-.18-1.17-.04-.34.78-.88.43-1.38.39-.57-.05-1.14-.07-1.79-.1-.05.54-.12.97-.12,1.4,0,4.41,0,8.82.02,13.23,0,1.79.03,3.57.11,5.35.04.86.27,1.69,1.35,2.17v-19.67c.44.1.74.18,1.17.28,0,2.99-.09,5.94.02,8.88.27,7.2.8,14.4.94,21.61.44,22.11.73,44.23,1.13,66.35.14,7.8.44,15.59.67,23.38.03,1.02.11,2.04.2,3.05.02.18.18.35.28.53.18-.13.39-.24.54-.4.11-.11.14-.29.21-.43.78.08,1.48.16,2.29.25,0-2.15-.09-4.18.01-6.2.6-11.56.02-23.08-1.07-34.59-.26-2.75-.59-5.51.21-8.25.26-.89.66-1.26,1.66-1.25,9,.04,18,.02,27,.02.32,0,.63.04.87.05.24,9.44.49,18.8.72,28.15.22,9.37.09,18.74.6,28.17,3.17-1.13,3.86-2.03,3.92-5.09.04-2.08-.02-4.15-.03-6.23-.09-18.58-.19-37.17-.28-55.75-.01-2.12-.31-2.38-2.43-2.37-10.31,0-20.62.01-30.94.02-.32,0-.64-.03-.91-.04-.31-4.83-.72-9.58-.89-14.33-.11-3.01.19-6.04.18-9.06-.02-5.32-.04-10.64-.25-15.95-.18-4.46-.39-8.94-1.86-13.25-.3-.89-.17-1.93-.24-2.88h29.69c0,1.47-.01,2.85,0,4.23.08,8.74.16,17.49.24,26.23.01,1.35.28,1.67,1.63,1.75.79.05,1.58,0,2.47,0ZM15.46,46.18c57.79,1.27,115.53,1.5,173.27-.09.04-.19.09-.37.13-.56-.47-.21-.94-.43-1.41-.63-19.46-8.2-38.93-16.37-58.38-24.6-9.54-4.04-19.04-8.17-28.57-12.24-.35-.15-.87-.22-1.2-.08-3.21,1.37-6.39,2.79-9.59,4.19-24.43,10.7-48.87,21.41-73.31,32.09-.89.39-1.28.88-.94,1.92ZM196.35,48.44c0-.06,0-.12,0-.18-.38-.1-.76-.22-1.14-.29-6.45-1.24-12.97-1.23-19.48-1.03-11.98.36-23.95,1.04-35.93,1.16-26.19.27-52.38.77-78.58.05-6.44-.18-12.88-.5-19.33-.72-8.52-.28-17.03-.61-25.55-.72-2.58-.03-5.17.57-7.75.89l.02.35c.31.07.62.19.93.21,7.23.46,14.45,1.18,21.68,1.3,12.78.22,25.57.04,38.36.11,5.13.03,10.27.31,15.4.43,7.83.19,15.65.49,23.48.48,8.05-.01,16.1-.38,24.15-.51,12.06-.19,24.11-.22,36.17-.47,8.85-.18,17.69-.62,26.53-.94.35-.01.69-.07,1.04-.11ZM15.75,228.79c0,.77,0,1.2,0,1.63,0,3.6.02,7.21-.02,10.81-.02,1.94-.04,1.98,1.85,2.4.21.05.43.08.65.08,2.69-.01,5.38,0,8.07-.06.72-.02,1.83-.02,2.07-.44.53-.9-.27-1.67-.95-2.3-.04-.04-.04-.13-.1-.33,1.1-.72,2.23-1.46,3.4-2.22.64-.95,1.35-2,2.13-3.15.14.93.16,1.79.44,2.55.14.38.74.73,1.18.79.21.03.57-.63.76-1.03.13-.27.06-.63.09-1.03,1.26.18,1.4-.57,1.35-1.51-.05-1.02.01-2.04-.08-3.05-.12-1.31-.7-2.37-1.97-2.92-1.36-.59-2.29-.02-2.42,1.45-.02.3-.05.6-.1,1.14-1.19-2.06-2.68-2.85-4.79-2.16-.15.05-.35-.04-.52-.07-.84-.14-1.68-.38-2.52-.39-1.16,0-2.32.26-3.47.23-1.61-.04-3.22-.25-5.06-.41ZM61.69,75.74c-.44,0-.8,0-1.16,0-6.81.07-13.62.14-20.42.23-.69,0-1.38.11-2.06.16-1.17.09-1.75.74-2.1,1.86-.24.77-.83,1.48-1.41,2.06-.44.44-1.13.63-1.71.93-.69.37-1.21.88-1.02,1.73.2.89.95.86,1.66.87,5.75,0,11.51.1,17.26,0,4.44-.07,8.87-.4,13.31-.54,1.13-.04,1.52-.56,1.55-1.56q-3.77-1.44-3.9-5.76ZM152.53,236.82c.4-.29.79-.43.88-.68.16-.44.2-.95.14-1.42-.04-.36-.43-.7-.45-1.05-.06-1.27-.01-2.55-.04-3.82-.05-2.05-.6-2.62-2.62-2.58-1.38.02-2.78.06-4.13.29-1.54.26-3.35.17-3.92,2-.78-.53-1.48-1.13-2.28-1.5-1.14-.52-2.07.12-2.06,1.37.01,1.42,0,2.86.24,4.25.45,2.63,1.08,5.22,1.61,7.75h4.64c-.96-.85-1.3-1.63-.57-2.68.2-.28.13-1-.1-1.3-.91-1.19-.56-2.54-.81-3.91.74.04,1.33.08,1.96.12-.42.91-.77,1.68-1.22,2.67,1.44-.28,2.08.18,1.98,1.5-.02.27.2.63.42.85.91.9,1.87,1.76,2.79,2.63.29-1.42,1.54-1.55,2.89-1.53.4,0,.82.07,1.2-.03.41-.12,1.01-.34,1.1-.64.1-.31-.26-.83-.52-1.17-.29-.38-.7-.68-1.12-1.08ZM123.42,101.67c.43,30.04.87,59.96,1.3,89.88.57.1,1,.17,1.57.26-.49-30.11-.99-60.17-1.48-90.28-.41.04-.76.08-1.39.14ZM70.04,132.24c-.13.02-.26.04-.39.06l.78,58.41c.1,0,.2.01.3.02.14-.85.38-1.69.39-2.54.07-4.51.1-9.02.12-13.54.03-6.62,0-13.25.06-19.87.05-5.86.22-11.72.23-17.58,0-1.76-.27-3.54-1.49-4.96ZM49.13,222.12c0,.08,0,.16,0,.24,4.15-.19,8.3-.34,12.44-.6.49-.03,1.27-.54,1.33-.93.12-.74-.64-.94-1.29-.99-1.02-.07-2.04-.13-3.06-.13-6.59,0-13.18.02-19.77.06-.83,0-1.91.02-1.92,1.13,0,1.19,1.14,1.18,1.98,1.19,3.42.04,6.85.02,10.27.02ZM51.85,234.01c-.23-.76-.36-1.43-.63-2.04-.2-.46-.52-.87-.85-1.25-.5-.59-.96-1.26-1.6-1.65-.52-.32-1.25-.33-1.9-.41-1.66-.21-2.21.3-2.45,1.95-.16,1.12.08,2.45-1.27,3.15.03.12.06.24.08.36h5.4c.07.14.15.27.22.41-.3.81-.6,1.62-.94,2.53.52-.04,1.03-.08,1.54-.12,0-.59-.09-1.09.03-1.52.08-.27.49-.64.75-.64,1.18.02,1.88.94,1.71,2.1-.08.56-.15,1.13-.23,1.71h4.03c-.3-.76-.76-1.36-.73-1.95.12-2.34-.57-2.5-2.64-2.56-.18,0-.36-.05-.52-.07ZM74.19,161.07c0,.9,0,1.77,0,2.63.07,10.13.14,20.25.21,30.38,0,1.39.19,1.54,1.82,1.36-.12-3.73-.26-7.47-.36-11.22-.2-7.24-.4-14.49-.55-21.73-.02-.93-.36-1.3-1.13-1.42ZM57.54,230.4c.84-.46,1.48-.95,1.02-2.01-.44,0-.95-.12-1.35.02-1,.36-1.93.52-3.02.23-.96-.26-1.61.38-1.56,1.31.05,1.05.2,2.09.32,3.22,1.81,0,3.55.03,5.29-.03.31-.01.77-.37.87-.66.09-.28-.13-.75-.35-1.02-.31-.38-.74-.66-1.22-1.06ZM136.64,238.79c-.16-1.13-.48-2.13-.39-3.1.14-1.42-.2-2.46-1.4-3.26-.58-.38-.74-.87-.09-1.5.67-.64.43-1.32-.45-1.68-1.67-.68-2.61-.22-3.04,1.64-.51-.22-1-.42-1.49-.63-.01,1.85.29,2.21,1.92,2.48.24.04.55.34.62.59.25.86.84,1.3,1.63,1.62,1.64.66,1.66.74,1.5,2.49-.04.45,0,.91,0,1.41.37-.02.65-.03,1.2-.06ZM158.19,229c-.09.04-.18.08-.27.12,0-1.22-.53-1.73-1.84-1.81-1.03-.06-1.6.52-1.66,1.7-.03.54-.04,1.09-.03,1.64.05,1.45.44,1.89,1.65,1.9q1.57.02,1.69-1.68c0-.1.08-.19.12-.29.06.07.11.15.17.22.39-.29.78-.58,1.18-.87-.34-.31-.67-.63-1.01-.94ZM120.36,156.89c.15,8.35.33,16.57-.02,24.81h.83c-.05-3.56-.12-7.04-.15-10.53,0-1.16.12-2.32.1-3.48-.03-2.69-.14-5.37-.16-8.06,0-.89.16-1.78.25-2.74h-.85ZM121.08,101.42v-11.83c-1.03-.33-1.16.15-1.16.9.02,3.65,0,7.29,0,10.99.35-.02.81-.04,1.15-.05ZM119.89,126.78v7.96h1.25c-.05-.48-.13-.9-.13-1.32-.01-1.97-.03-3.93,0-5.9.01-.76-.25-1-1.12-.74ZM38.51,234.19c.12.04.24.08.35.12.61-.69,1.3-1.33,1.8-2.08.5-.76.2-1.35-.71-1.44-.76-.08-.81-.45-.69-1.02.05-.23.1-.47.16-.76h-1.22c.1,1.78.21,3.49.31,5.2ZM74.04,139.01v6.49c.45-.03.79-.05,1.09-.07v-6.33c-.43-.04-.74-.06-1.09-.09ZM120.97,145.79c-.79-.26-1.08-.01-1.05.73.03.86.03,1.73-.01,2.6-.04.81.35.91,1.06.7v-4.02ZM120.43,137.96c-.05,1.63-1.25,3.32.18,5.16,1.04-1.94-.02-3.53-.18-5.16ZM73.47,154.05c.59.48.92.79,1.29,1.03.31.2.67.32,1.02.48-.27-1.24-.48-2.23-.76-3.51-.63.81-1.15,1.49-1.55,2ZM120.22,116.68c-.26,1.57-1.09,3.14.09,4.85,1.13-1.76.21-3.3-.09-4.85ZM75.2,123.34c-.45-1.44-.88-2.79-1.41-4.48-.29.57-.56.85-.52,1.08.17,1.12.43,2.23.67,3.4h1.27ZM73.99,113.07c-.71.84-1.22,1.66-.69,2.62.14.26.52.39.79.57.19-.31.57-.66.52-.94-.11-.77-.41-1.51-.63-2.25ZM119.99,107.44c.09.01.18.02.28.03.38-1.07.76-2.15,1.16-3.27h-1.59c.05,1.14.1,2.19.15,3.24ZM73.93,136.03c.17.01.34.03.51.04.22-.7.48-1.4.61-2.12.03-.17-.38-.54-.64-.61-.18-.05-.66.26-.66.42,0,.76.11,1.51.18,2.27ZM24.24,202.34c.63-1.26.65-2.27.36-3.29-.07-.24-.33-.43-.5-.64-.12.26-.37.54-.34.79.1.95.28,1.9.48,3.14ZM74.85,203.27c1.14-1.13,1.16-3.53,0-3.99v3.99ZM28.62,217.67c-.13.07-.27.14-.4.2.3.66.59,1.32.89,1.98.44-.31.88-.63,1.43-1.03-.83-.5-1.37-.83-1.92-1.15ZM74.16,129.28c.16.01.32.03.47.04.18-.58.58-1.2.47-1.71-.08-.35-.87-.54-1.34-.81l-.21.2.61,2.28ZM179.54,197.14c-.73,1.25-.12,2.45.15,3.66.53-1.24.51-2.47-.15-3.66ZM75.02,151.67c0-.84.07-1.33-.03-1.77-.04-.19-.43-.3-.66-.45-.08.53-.23,1.06-.2,1.58.01.18.45.34.89.64ZM125.34,198.08c1.34-1,1.29-1.63,0-2.39v2.39ZM121.22,154.38c-.29-.43-.48-.71-.67-.99-.19.19-.54.39-.53.58.02.32.25.62.4.93.21-.14.43-.28.8-.52ZM74.12,158.16c.19.71-.4,1.64.98,1.65-.17-.68.47-1.59-.98-1.65ZM25.61,206.24c-.41-.63-.74-1.13-1.24-1.9-.06.87-.09,1.39-.14,2.05.49-.06.86-.1,1.38-.16ZM179.59,205.08c.59-.16.96-.26,1.42-.38-.44-.59-.75-1-1.16-1.56-.09.69-.16,1.17-.26,1.94ZM126.55,202.16c-.55.09-.92.15-1.44.24.32.54.58.97.83,1.41.09-.02.18-.03.26-.05.1-.49.21-.98.34-1.59ZM74.62,205.31c.13.54.21.86.3,1.25.51-.19.9-.34,1.57-.59-.76-.27-1.18-.42-1.87-.66Z"/>
      <path class="cls-1" d="M165.67,76.33c-9.51.85-18.77.46-28.03.05,3.22-.54,24.96-.57,28.03-.05Z"/>
      <path class="cls-1" d="M35.96,93.63c1.22,0,2.3,0,3.39,0,6.16,0,12.31-.03,18.47-.03,1.97,0,2.59.54,2.35,2.49-1.07,8.62-.41,17.24-.22,25.86.09,3.96-.21,7.93-.17,11.9.02,2.02.39,4.03.6,6.05.12,1.12.34,2.23.34,3.35.08,19.71.12,39.42.19,59.13.01,3.57.1,7.14.16,10.71,0,.39,0,.79,0,1.27h-24.85c.14-2.91.34-5.74.41-8.57.25-10.27.6-20.53.66-30.8.06-10.86-.14-21.71-.31-32.57-.03-1.88-.5-3.74-.7-5.62-.08-.71-.17-1.51.08-2.14,1.41-3.49,1.36-7.04.63-10.63-.89-4.43-.81-8.9-.79-13.38.02-5.46-.15-10.91-.24-16.37,0-.18,0-.35,0-.67Z"/>
      <path class="cls-1" d="M34.67,45.13c7.46-3.26,14.64-6.32,21.75-9.54,14.04-6.36,28.03-12.81,42.05-19.18.48-.22,1.22-.23,1.71-.03,17.25,7.27,34.48,14.57,51.71,21.87,5.12,2.17,10.22,4.38,15.33,6.57.12.05.23.11.3.35-.6,0-1.2,0-1.8,0-19.12.22-38.24.42-57.37.67-4.62.06-9.25.39-13.87.32-6.88-.09-13.76-.52-20.64-.63-12.53-.2-25.06-.27-37.59-.4-.43,0-.87,0-1.59,0Z"/>
      <path class="cls-1" d="M184.7,44.93c-3.92,0-7.84.03-11.77-.03-.57,0-1.15-.41-1.71-.65-20.58-8.81-41.16-17.63-61.74-26.45-2.27-.97-4.55-1.92-6.8-2.95-1.21-.55-2.36-.6-3.57-.06-5.95,2.63-11.91,5.24-17.85,7.88-16.13,7.18-32.26,14.37-48.38,21.59-1.1.49-2.17.71-3.36.7-3.31-.04-6.62-.01-9.99-.17.29-.15.58-.31.88-.44,25.86-11.31,51.73-22.62,77.58-33.97,1.23-.54,2.22-.57,3.45-.05,22.19,9.19,44.39,18.35,66.6,27.5,5.44,2.24,10.91,4.41,16.37,6.62.12.05.24.12.36.18-.02.1-.04.2-.06.3Z"/>
    </g>
  </g>
</svg>