<?xml version="1.0" encoding="UTF-8"?>
<svg id="Layer_1" xmlns="http://www.w3.org/2000/svg" version="1.1" viewBox="0 0 64 64">
  <!-- Generator: Adobe Illustrator 29.2.0, SVG Export Plug-In . SVG Version: 2.1.0 Build 108)  -->
  <defs>
    <style>
      .st0 {
        fill: none;
        stroke: #ef7a31;
        stroke-linecap: round;
        stroke-linejoin: round;
        stroke-width: 5.3px;
      }
    </style>
  </defs>
  <path class="st0" d="M28.1,16.6l-9-10.4c-1-1.2-2.9-1.2-4.2,0l-7.4,7.4c-2.2,2.2-2.8,5.5-1.6,8.1,7.7,15.9,20.3,28.5,36.2,36.2,2.6,1.3,5.9.6,8.1-1.6l7.5-7.5c1.2-1.2,1.2-3.1,0-4.2l-10.5-9c-1.1-.9-2.8-.8-3.9.3l-3.6,3.6c-.4.4-1,.5-1.5.2-6-3.4-10.9-8.3-14.3-14.3-.3-.5-.2-1.1.2-1.5l3.6-3.6c1.1-1.1,1.2-2.8.3-3.9Z"/>
</svg>