<?xml version="1.0" encoding="UTF-8"?>
<svg xmlns="http://www.w3.org/2000/svg" version="1.1" viewBox="0 0 64 64">
  <defs>
    <style>
      .cls-1 {
        fill: #fff;
      }
    </style>
  </defs>
  <!-- Generator: Adobe Illustrator 28.7.3, SVG Export Plug-In . SVG Version: 1.2.0 Build 164)  -->
  <g>
    <g id="Layer_1">
      <path class="cls-1" d="M12.2,46.2c-2.7-2.9-4.2-6.2-4.2-11.5,0-9.3,6.6-17.7,16.1-21.8l2.4,3.7c-8.9,4.8-10.6,11.1-11.3,15,1.4-.7,3.3-1,5.1-.8,4.8.4,8.6,4.4,8.6,9.3s-4.2,9.3-9.3,9.3-5.6-1.3-7.3-3.1ZM38.9,46.2c-2.7-2.9-4.2-6.2-4.2-11.5,0-9.3,6.6-17.7,16.1-21.8l2.4,3.7c-8.9,4.8-10.6,11.1-11.3,15,1.4-.7,3.3-1,5.1-.8,4.8.4,8.6,4.4,8.6,9.3s-4.2,9.3-9.3,9.3-5.6-1.3-7.3-3.1Z"/>
    </g>
  </g>
</svg>