<?xml version="1.0" encoding="UTF-8"?>
<svg id="Layer_2" xmlns="http://www.w3.org/2000/svg" viewBox="0 0 49.89 49.89">
  <defs>
    <style>
      .cls-1 {
        fill: #fff;
      }
    </style>
  </defs>
  <g id="Layer_1-2" data-name="Layer_1">
    <g>
      <path class="cls-1" d="M21.33,42.67c4.73,0,9.33-1.59,13.06-4.5l11.72,11.72,3.77-3.77-11.72-11.72c2.92-3.73,4.5-8.33,4.5-13.06C42.67,9.57,33.1,0,21.33,0S0,9.57,0,21.33s9.57,21.33,21.33,21.33ZM21.33,5.33c8.82,0,16,7.18,16,16s-7.18,16-16,16S5.33,30.16,5.33,21.33,12.51,5.33,21.33,5.33Z"/>
      <path class="cls-1" d="M25.1,17.56c1.01,1.01,1.57,2.35,1.57,3.77h5.33c0-2.83-1.12-5.55-3.13-7.54-4.04-4.03-11.04-4.03-15.07,0l3.77,3.78c2.03-2.02,5.52-2.02,7.54,0Z"/>
    </g>
  </g>
</svg>