<?xml version="1.0" encoding="UTF-8"?>
<svg id="Layer_2" xmlns="http://www.w3.org/2000/svg" viewBox="0 0 140.43 177.85">
  <defs>
    <style>
      .cls-1 {
        fill: #fff3e7;
      }
    </style>
  </defs>
  <g id="Layer_1-2" data-name="Layer_1">
    <path class="cls-1" d="M139.83,65.43c-.91-1.18-2.13-1.33-3.22-.52-1.09.8-2.26,1.2-3.52,1.48-1.09.24-1.62-.09-1.15-1.27.52-1.31,1.22-2.58,1.56-3.93.58-2.36-.16-4.61-1.09-6.76-.31-.73-.92-1.33-1.42-1.97-1.01-1.31-.88-2.47.34-3.57.86-.77,2.18-2.01,1.47-2.82-1.32-1.49-2.17-2.89-2.41-4.89-.09-.73-1.51-.77-2.35-.35-.73.37-.47,1.01-.15,1.58.59,1.03.22,1.65-.86,1.98-1.13.34-2.12.15-2.44-1.07-.24-.93-.66-1.77-.94-2.66-.53-1.68-1.28-2.92-3.31-3.01-1.01-.05-1.49-.96-1.45-1.91.05-1.06.98-.89,1.7-1,.8-.12,1.64-.17,2.37-.48,1.83-.78,2.25-2.05,1.46-3.8-.25-.55-.31-1.17-.51-1.74-.25-.7-.77-1.1-1.54-1.12-.8-.03-1.24.36-1.45,1.13-.21.78-.61,1.52-.76,2.31-.37,1.94-1.64,2.98-3.41,3.32-1.27.24-2.09.72-2.56,1.95-.28.74-.78,1.55-1.81,1.26-1.01-.28-1.04-1.22-.95-2.01.2-1.67-.55-3.04-1.28-4.41-.89-1.68-1.74-1.77-3.15-.47-.69.64-1.21,1.52-2.22,1.7-.59.11-1.28.26-1.63-.42-.31-.6.17-1.03.56-1.39,1.51-1.35,3.45-2.08,4.94-3.5,1.42-1.35,1.49-2-.21-3.05-1.32-.82-2.04-2.34-3.61-2.89-.8-.28-.51-.97-.03-1.48.47-.49.99-.94,1.41-1.47.51-.65.96-1.4.3-2.21-.7-.85-1.56-.62-2.4-.2-1.08.54-1.69,1.53-2.36,2.47-.7.98-1.36,1.93-2.76.87-1.29-.97-1.12-2.04-.43-3.2,1.34-2.25,1.34-2.25-1.29-2.63-.65-.09-1.46-.24-1.04-1.02.63-1.17-.2-1.54-.78-2.17-1.01-1.09-1.92-2.28-2.95-3.35-2.07-2.13-5.17-1.37-6.13,1.46-.8,2.36-2.16,3.01-4.2,1.7-1.68-1.08-3.41-1.78-5.31-2.37-2.19-.68-3.62-2.71-5.42-4.09-.63-.48-1.06-1.41-2.01-1.03-.96.39-.85,1.31-.62,2.11.31,1.07-.28,1.42-1.12,1.78-3.16,1.34-3.62,2.51-2.34,5.59.49,1.17-.28,2.23-.51,3.29-.42,1.94.81,2.76,1.98,3.61.76.55,1.58.18,2.1-.59.22-.33.24-.78.43-1.13.73-1.3,1.92-3.26,2.93-2.94,1.45.45.89,2.68,1.15,4.16.03.18-.13.38-.16.58-.42,2.2-.46,4.54-4.04,3.5-1.24-.36-2.96.73-4.35,1.47-.67.36-1.45.54-2.1-.05-.63-.58-.48-1.37-.28-2.1.18-.65.5-1.28.58-1.94.17-1.3-.26-2.2-1.72-2.51-1.95-.42-2.33-1.11-1.21-2.78,1.14-1.69.97-2.87-.52-4.19-1.81-1.6-.67-3.4.07-5.01.62-1.35,1.84-2.62.14-3.92-1.55-1.19-4.59-.83-5.6.65-.92,1.34-1.6,1.11-2.49,0-1.95-2.42-4.16-2.64-6.39-.6-1.13,1.04-2.31.91-3.6.54-.52-.15-1.03-.34-1.56-.39-.57-.05-1.06.24-1.36.74-.35.58-.02.96.38,1.41,1.18,1.34.41,3.82-1.36,4.14-1.6.28-1.76.86-.99,2.16.44.74.6,1.64.91,2.46.16.44.25,1.08.57,1.25,1.97,1.05,2.76,1.92.03,3.07-.8.33.02.85.33,1.24,1.25,1.59,1.05,2.17-.92,2.68-.26.07-.52.15-.77.26-.48.22-.98.67-1.46.12-.48-.56-.23-1.21.14-1.69,1.81-2.33.87-4.18-.8-6.11-.9-1.04-1.81-1.58-3.13-1.4-.71.1-1.39.1-1.81-.58-.49-.8.18-1.26.65-1.71,1.05-1.01,1.58-2.3.71-3.45-.94-1.23-2.5-1.55-4.06-1.1-.53.15-1.04.46-1.08,1.08-.04.7.5.92,1.06.99,1.81.21.82,1.71,1.16,2.58.31.78-.18,1.46-.94,1.8-.84.38-1.54.1-2.24-.46-1.31-1.04-4.46-1.02-5.85-.03-.41.29-.74.64-.66,1.17.11.71.71.83,1.24.75,1.95-.29,2.31.54,1.93,2.3-.22,1.03-.02,2.16,0,3.24.03,1.21-.43,1.64-1.73,1.53-1.99-.17-4.02-1.59-6.03.12-.43.37-.58-.34-.72-.69-.23-.56-.66-1.05-1.22-.76-1.43.73-1.03,2.5-1.89,3.63-.51.68.23,1.19.83,1.57,1.63,1.02,1.78,3.1,3.08,4.38.37.37.06.94-.36,1.22-.44.3-.95.69-1.44.7-3.5.04-4.83,2.5-5.54,5.25-.56,2.18-1.9,2.89-3.82,3.28C.56,39.21.02,39.96,0,42.52c0,1.14.43,1.95,1.52,2.39,1.51.62,3.07,1.07,4.68,1.29,1.16.16,2.22-.06,2.68-1.3.58-1.55,2.47-.95,3.4-2.05-.38,1.16-.53,2.47-1.18,3.44-.86,1.27-1.98,2.26-3.92,1.81-2.71-.62-5.43,1.98-5.14,4.66.08.71-.13,1.3-.4,1.95-.85,2.03-.19,3.22,1.95,3.33,1.84.09,2.85.81,3.14,2.71.34,2.23,1.13,4.27,0,6.66-.97,2.07,1.91,6.15,4.23,6.38,1.61.16,1.98.86,2.08,2.33.26,3.79,4.46,6.75,8.12,5.8.73-.19,1.34-.18,1.88.35.59.59,1.24,1.02,2.11,1.1.74.07,1.03.38.72,1.24-.43,1.19,0,2.18,1.31,2.48,1.27.29,2.22.02,2.48-1.57.2-1.29,1.17-1.81,2.43-1.45,1.49.42,1.97-.3,2.1-1.62.19-1.9.25-3.76-.46-5.6-.48-1.23-.63-2.49.1-3.73.56-.96.13-1.63-.64-2.27-.56-.47-1.28-1.14-1.04-1.84.3-.86,1.36-.82,2.14-.77,2.66.19,5.26.66,7.27,2.62.96.94,2.03,1.62,3.32,1.84,2.82.49,4.77,2.29,6.91,3.99,1.53,1.21,3.48,2.42,5.72,1.63,1.85-.65,3.07.1,3.88,1.63.9,1.71,2.42,2.95,3.39,4.52,2.54,4.11,5.63,7.93,5.08,13.45-.53,5.37-.3,10.81.19,16.24.28,3.07-.33,6.2-.43,9.31-.24,6.91.56,13.8.54,20.71,0,1.66.56,3.37-.39,4.96-.04.26-.08.51-.12.77.26,3.41-.23,6.79-.46,10.18.05.49.1.97.15,1.46.82.79.65,1.67.24,2.57.08,1.05.16,2.1.25,3.15.62,1.62.64,3.24.01,4.86-.07.76-.15,1.52-.22,2.28.17,1.15-.16,2.29-.8,3.24.1.05.19.12.28.18h8.85c.02-.08.05-.16.07-.24-.37-.12-.66-.35-.79-.82-.11-.09-.15-.2-.12-.34-1.5-.71-1.06-2.18-1.22-3.35-2.18-16.33-1.04-32.75-1.26-49.13-.11-7.93.08-15.87-.03-23.8-.06-4.52,1.86-7.92,5.23-10.68,1.35-1.1,2.84-1.38,4.57-.87,3.96,1.18,7.91.32,11.54-1.02,1.92-.71,2.3-3.34,2.14-5.49-.11-1.41-.5-2.79-.01-4.21.25-.73-.28-1.25-.65-1.83-1.04-1.6-.8-3.17.66-4.3,1.28-.99,2.56-2.03,3.96-2.84,2.55-1.47,4.47-1.12,6.16,1.24,1.32,1.84,3.47,1.16,5.12,1.99.98.49,2.01.68,2.45,1.85.13.34.53.84.8.84,2.14-.05,3.76,1.87,5.98,1.53,1.42-.21,2.7.33,3.76,1.23,1.01.87,1.81.64,2.25-.43.95-2.3,2.66-3.44,4.92-4.45,2.2-.99,3.88-3.03,6.07-4.28,1.13-.64,1.12-1.94.28-3.04ZM83.92,16.8c.41-1.15,1.4-1.39,2.51-1.05,2.28.7,4.34.12,6.29-1.07.57-.35,1.18-.9,1.83-.33.6.53.4,1.29,0,1.86-.67.98-.79,1.84-.27,3.01.55,1.24-.17,2.19-1.31,2.64-.84.04-1.23-.4-1.59-.93-.26-.39-.68-1.04-1.05-.79-2.08,1.41-3.29-.87-4.99-1.09-1.08-.14-1.86-1.01-1.43-2.24ZM73.93,26.58c.44-.81,1.17-.48,1.78-.2,1.05.48,2.1.93,3.25,1.12.75.12,1.91-.04,1.78,1.13-.13,1.16-1.34.87-2.15,1.08-1.35-.21-2.59-.76-3.8-1.36-.67-.33-1.35-.87-.87-1.77ZM41.59,9.38c0-1.29.74-2.21,2.5-3.28.95-.57,1.51-.6,1.88.71.47,1.69,1.87,2.05,3.25.94.51-.41.84-1.05,1.32-1.52.71-.71,1.57-.87,2.36-.21.76.64.67,1.4-.07,2.08-.45.42-.9.93-.75,1.58.37,1.58-.3,1.8-1.73,1.69-1.72-.14-2.56,1.01-1.84,2.26.39.67.99,1.34-.05,1.81-.96.44-1.73.04-1.98-1.04-.43-1.87-1.66-2.85-3.46-3.25-.98-.22-1.52-.83-1.43-1.79ZM28.84,16.15c1.35,0,1.89.79,2.09,2.02.25,1.57.15,3.27,1.83,4.29.62.38.75,1.18.11,1.76-.59.54-1.12.15-1.6-.28-1.57-1.38-3.02-2.92-5.15-3.49-.59-.16-.85-.64-.79-1.26.11-1.03,2.42-3.03,3.51-3.04ZM34.62,62.21c-.81,2.26-2.53,3.55-5.22,3.56-1.04.09-2.26-.24-3.17-1.31-.64-.74-.86-1.59-.16-2.39,1.74-2,5.27-2.62,7.68-1.39.61.31,1.22.57.88,1.52ZM53.19,63.33c-.22.8-.64,1.34-1.79,1.26-.11-.03-.52-.02-.75-.22-1.52-1.37-3.38-1.53-5.29-1.69-.64-.05-1.39-.32-1.85-.74-2.14-2-4.65-3.2-7.48-3.86-1.48-.35-1.89-1.29-1.63-2.91.29-1.83,1.61-3.12,2.02-4.83.64-2.63.04-3.6-2.67-4.02-.7-.11-1.31-.31-1.86-.72-.66-.51-1.84-.98-.97-1.99.85-.99,1.35-3.08,3.38-1.97,1.04.57,2.1.92,3.23,1.13.84.16,1.63.46,1.9,1.33.62,2.01,2.13,3.28,3.71,4.44,1.55,1.14,2.54,2.64,3.16,4.38,1.21,3.43,2.8,6.53,6.2,8.3.87.46.94,1.25.69,2.11ZM57.08,49.48c-.84,1.69-1.59,1.99-3.11.8-.95-.75-1.87-1.2-3.14-1.02-2.53.35-2.93-.26-2-2.57.95-2.36,1.33-4.8-.57-6.85-1.02-1.1-2.04-2.33-3.71-2.67-1.09-.23-1.67-1.18-1.75-2.26-.09-1.23.86-1.54,1.83-1.77.98-.24,1.57-.77,1.24-2.21-.08-.3-.2-.94.56-1.22.84-.3,1.43.14,1.87.82.22.34.46.7.55,1.08.75,3.11,3.3,5.35,4.01,8.5.22.98,1.23,1.59,2.37,1.6,1,0,1.75.47,1.95,1.44.42,2.11.95,4.21-.11,6.33ZM58.12,37.05c-1.16.72-3.34.08-4.06-1.19-.31-.55-.62-1.04-1.16-1.38-1-.63-.89-1.31-.25-2.2,1.51-2.1,1.41-3.55-.29-5.41-.64-.7-1.33-1.34-2.02-2-.48-.46-.73-.97-.46-1.64.25-.61.66-1.13,1.36-.98,1.03.22,1.48-.34,1.89-1.11.5-.94,1.36-1.4,2.37-1.2.98.19,1.1,1.1,1.1,1.94,0,1.01.17,2.13-1.23,2.43-1.59.34-1.25,1.16-.44,1.98.86.87,1.05,1.85.81,2.99-.18.65-.55,1.52.28,1.79,1.49.47,1.73,1.71,2.3,2.85.58,1.15,1.29,2.21-.2,3.14ZM59.21,49.39c-.2-1.37.32-2.82,1.16-4.17.8-1.3,1.8-1.38,2.64-.08.6.93,1.24,1.18,2.19.77.94-.4,1.58-1.07,1.5-2.17-.08-1.03-.3-2.09-.95-2.86-1.54-1.82-1.05-2.98.65-4.45,2.35-2.04,5.77-2.15,7.71.32.91,1.17,1.91,1.97,3.31,2.49,2.27.84,3.55,3.12,3.12,5.11-.64,2.94.18,3.9,3.15,3.72q2.31-.14,1.34,2.04c-.13.3-.28.66-.25.97.19,1.93-.66,3.54-1.49,5.17-.98,1.9-2.29,2.45-4.11,1.36-1.37-.81-2.43-.9-3.61.28-1.14,1.14-2.42,1.21-3.85.25-1.82-1.22-3.82-1.8-6.09-1.77-4.53.05-6.72-2.36-6.42-6.99ZM69.66,86.06c-.39.03-.58-.2-.76-.53-1.56-2.88-3.84-5.18-6.19-7.41-.71-.68-1.3-1.39-1.18-2.28.03-.94.12-1.7.95-2.04.81-.33,5.03,1.02,5.57,1.75,2.14,2.89,1.9,6.35,2.26,9.66.05.42-.12.81-.65.85ZM74.11,76.76c-.03.96-1.04,1.73-1.82.59-1.18-1.72-2.14-3.61-2.52-6,.25-1.31,1.26-2.22,2.7-2.62.68-.19,1.29-.33,1.64-1.01.28-.54.59-1.22,1.34-.96.84.29.72,1.14.54,1.75-.78,2.71-1.79,5.35-1.89,8.24ZM108.53,62.21c-.17.81-.81,1.12-1.53,1.02-1.92-.27-3.17.74-4.4,2.01-1.18,1.21-2.53,2.26-4.04,3.05-1.17.61-2.07,1.37-2.77,2.55-1.01,1.69-2.72,2.67-4.65,2.94-1.19.16-2,.55-2.65,1.56-.88,1.37-1.92,1.71-3.34.48-2.07-1.78-2.86-1.64-4.77.42-.32.35-.61.74-.98,1.03-1.22.99-1.68,2.1-.7,3.51,1.66,2.38,1.13,4.39-.93,6.25-.65.59-1.16,1.54-2.13,1.26-1.09-.31-.58-1.52-.89-2.28.05-.35.13-.68.15-1.02.2-3.06,1.23-5.93,1.86-8.89.65-3.07,1.36-6.06,2.76-8.87,1.14-2.27,1.82-2.48,3.89-1.04.85.59,1.55.41,2.11-.34.52-.69.55-1.49-.28-1.92-1.65-.85-1.1-1.89-.4-3,.69-1.1,1.54-2.07,2.51-2.92,1.74-1.5,5.24-2.06,6.56-.92.97.84,1.7.77,2.88.35,3.22-1.14,6.15-1.31,7.3,2.5.09.31.34.59.51.87.47.76,1.01,1.06,1.8.35.52-.46,1.11-.87,1.8-.29.4.34.41.85.31,1.32ZM111.36,46.47c-.78-.1-1.18-.59-1.17-1.37,0-.73,2.43-2.62,3.52-2.55.28.06.64.28.59.88-.07.78-2.31,3.12-2.94,3.04Z"/>
  </g>
</svg>