<?xml version="1.0" encoding="UTF-8"?>
<svg id="Layer_2" xmlns="http://www.w3.org/2000/svg" viewBox="0 0 1018.46 1231.29">
  <defs>
    <style>
      .cls-1 {
        fill: #fff3ea;
      }
    </style>
  </defs>
  <g id="Layer_1-2" data-name="Layer_1">
    <g>
      <path class="cls-1" d="M673.36,0c-5.38,3.36-11.14,6.24-16.01,10.22-4.05,3.31-7.58,7.58-10.34,12.05-2.7,4.38-.25,8.14,4.47,8.87,5.66.88,11.55,1.22,17.24.69,11.5-1.07,22.92-3.02,34.42-4.26,2.31-.25,4.78,1.08,7.18,1.67-1.02,2.61-1.87,5.31-3.1,7.83-1.77,3.63-5,6.97-5.47,10.7-.7,5.52-3.09,8.89-7.83,11-3.09,1.37-6.18,2.95-9.44,3.7-21.3,4.93-42.64,9.69-63.98,14.45-5.33,1.19-10.72,2.16-16.08,3.23.1.92.21,1.83.31,2.75,16,0,32.01-.29,48.01.08,18.38.42,36.8,1.3,54.25,7.99,4.23,1.62,10.78,3.15,9.26,9.01-.85,3.3-6.14,6.91-9.99,7.73-14.8,3.14-29.76,5.71-44.77,7.55-15.67,1.92-31.5,2.6-47.23,4.08-23.08,2.17-46.21,4.08-69.19,7.06-14.56,1.89-28.95,5.25-43.27,8.6-3.24.76-5.85,4.23-8.75,6.45,2.54,2.55,4.93,5.29,7.69,7.59,1.48,1.23,3.52,1.91,5.42,2.47,15.07,4.46,30.09,9.11,45.27,13.19,31.91,8.57,64.01,16.45,95.81,25.42,9.26,2.61,18.17,7.25,26.46,12.26,7.75,4.68,6.95,12.53-.95,17.06-3.08,1.77-6.46,3.55-9.89,4.1-18.88,3.03-37.74,6.67-56.76,8.23-23.13,1.89-46.44,1.52-69.62,2.92-11.5.7-23.17,2.09-34.26,5.07-19.91,5.34-39.69,9.78-60.5,10.77-17.53.83-34.51,6.15-49.95,15.18-2.46,1.44-4.61,3.4-6.32,4.69,7.54.92,15.45.47,22.29,2.96,28.03,10.24,57.08,16.01,86.19,21.95,13.53,2.76,26.88,7.25,39.69,12.48,12.61,5.14,19.12,15.79,20.35,29.5.42,4.69-.46,7.85-5.79,9.43-4.49,1.33-8.74,3.89-12.68,6.54-8.4,5.65-9.79,15.28-2.14,21.74,5.27,4.45,12.2,7.44,18.86,9.61,11.14,3.63,22.79,5.68,33.98,9.15,9.25,2.87,10.24,8.09,2.33,13.8-7.22,5.22-15.18,9.68-23.36,13.24-22.84,9.93-46.25,18.6-68.84,29.02-10.35,4.77-20.16,11.57-28.73,19.13-11.16,9.84-11.17,20.52-2.24,32.39,1.44,1.91,3.04,3.74,4.77,5.38,18.96,17.92,41.56,30.09,66.05,37.79,38.35,12.06,77.09,22.95,115.94,33.29,59.09,15.72,119.07,27.34,179.49,36.65,14.64,2.26,28.12,6.93,40.35,16.54-54.91-16.96-111.26-23.75-166.84-34.33,23.89,8.59,48.6,13.57,73.52,17.89,32.81,5.68,65.25,13.17,96.34,25.31,32.11,12.55,54.38,34.48,62.21,69.08,2.44,10.8,1.63,20.76-8.94,27.42-1.69,1.06-3.29,2.36-5.11,3.08-11.06,4.41-22.18,8.64-33.24,13.04-1.72.68-3.43,1.68-4.8,2.92-3.53,3.21-6.52,7.11-10.34,9.9-18.53,13.55-38.79,22-62.18,23.79-22.64,1.73-43.81,9.67-64.08,19.97-17.35,8.82-34.86,16.54-54.89,18.36-14.3,1.3-28.6,5.23-42.25,9.9-6.35,2.17-11.55,7.85-18.83,9.36-13.22,2.73-26.3,6.14-39.5,8.96-26.88,5.74-50.6,19.78-76.24,28.78-3.72,1.31-7.05,3.69-10.63,5.43-2.89,1.41-5.87,2.61-8.99,3.98,5.15,4.75,10.7.63,17.47-.73-11.94,12.11-11.71,26.4-11.13,40.5.17,4.02,2.42,8.29,4.71,11.8,3.31,5.06,5.67,9.98,4.02,16.16-.51,1.92-.89,3.93-.89,5.91.01,21.28,25.77,45.26,48.33,44.36-11.77-4.46-21.99-10.26-29.63-19.59-7.46-9.09-13.28-18.83-10.69-31.58,1.37-6.77-.4-13.02-5.4-18.23-1.32-1.37-2.26-3.38-2.7-5.26-4.55-19.23,3.58-37.5,19.45-48.29,26.85-18.26,57.24-26.11,88.28-33.04,12.27-2.74,26.3-2.49,35.37-13.97.29-.36,1.14-.26,1.72-.42,8.43-2.33,16.76-5.19,25.33-6.85,8.72-1.69,18.12-.81,26.41-3.54,15.98-5.27,31.72-11.59,46.95-18.77,20.41-9.63,41.44-16.32,63.94-18.38,27.64-2.54,51.48-13.3,71.07-33.16,1.22-1.24,2.74-2.44,4.36-3,9.14-3.17,18.35-6.14,25.98-8.66-7.48,10.17-15.74,21.54-24.19,32.78-1.53,2.04-3.65,3.72-5.74,5.24-13.6,9.84-29.16,15.61-44.9,20.73-22.51,7.32-45.58,12.89-66.83,23.91-5.84,3.03-12.94,3.99-19.59,5.01-27.42,4.2-54.34,10.13-80.65,19.21-11.16,3.85-23.18,5.52-34.93,7.3-13.98,2.12-28.32,2.23-42.12,5.1-21.17,4.41-40.74,13.26-52.98,32.07-18.28,28.09-19.34,59.39,8.54,82.2,11.46,9.37,24.55,17.22,37.9,23.69,33.12,16.06,68.67,25.46,104.07,34.98,30.75,8.27,61.67,15.91,92.44,24.08,7.13,1.89,14,4.78,20.99,7.22-.2.78-.4,1.56-.6,2.34-20.33-3.56-40.65-7.12-60.98-10.69-.18.7-.36,1.4-.54,2.09,13.84,4.08,27.5,8.99,41.57,11.99,11.55,2.47,23.77,1.79,35.37,4.09,24.15,4.78,47.46,12.25,68.34,25.9,17.87,11.69,35.94,23.1,53.59,35.11,7.22,4.91,13.58,11.08,20.34,16.68-.22.19-.43.38-.65.58-22.15-10.47-44.29-20.93-66.44-31.4-.3.62-.61,1.24-.91,1.86,5.2,2.87,10.38,5.76,15.59,8.6,17.83,9.7,35.73,19.29,53.46,29.18,2.85,1.59,5.4,4.14,7.37,6.78,13.72,18.44,27.24,37.03,40.82,55.57-5.61,0-11.22,0-16.83,0-11.8-17.21-27.99-30.03-43.57-43.44-2.85-2.46-3.99-4.47-2.01-8.05,2.68-4.85.93-9.52-2.23-13.33-5.88-7.09-13.9-10.85-23.09-12.56,3.18,2.19,6.46,4.25,9.5,6.63,2.66,2.08,5.15,4.42,7.54,6.82,3.46,3.47,4.54,7.55,1.89,11.93-2.3,3.81-1.37,6.74,1.68,9.51,4.59,4.17,9.26,8.26,13.64,12.64,9.89,9.87,19.63,19.9,29.43,29.86-99.8,0-199.6,0-299.41,0,.24-1.57.47-3.13.71-4.7.42.05.83.11,1.25.16-1.12-3.62-2.25-7.25-3.37-10.87-.31.02-.63.04-.94.06,0,2.15,0,4.31,0,7.04-2.22-1.8-3.86-3.13-5.5-4.45-.32.19-.65.37-.97.56,1.74,4.07,3.48,8.13,5.22,12.2-11.62,0-23.25,0-34.87,0-.81-3.9-1.73-7.78-2.41-11.7-5.7-33-23.61-56.69-53.21-72.45-32.01-17.04-63.45-35.15-95.22-52.67-16.5-9.1-32.29-19.18-52.27-20.53-19.25-1.3-36.7-10.01-54.22-17.8-10.51-4.68-21.26-9.21-32.35-12.12-18.29-4.8-35.02-12.34-49.5-24.39-12.98-10.8-24.86-22.95-31.08-38.98-8.29-21.38-4.63-42.52,4.23-62.85,15.56-35.69,42.97-59.23,78.49-73.47,38.25-15.33,78.71-23.17,118.65-32.3,29-6.63,57.98-12.43,85.6-23.99,11.69-4.89,24.12-8.71,36.59-10.88,27.1-4.71,51.81-14.33,73.67-31.11,2.53-1.95,5.14-3.79,7.72-5.69-.25-.41-.5-.81-.75-1.22-5.01,2.22-10.02,4.43-13.74,6.08,6.39-9.21,14.33-18.38,19.67-28.87,8.99-17.68,5.6-32.4-8.61-46.15-12.01-11.62-26.81-18.55-42.08-24.65-30.44-12.16-62.41-18.84-94.16-26.34-20.12-4.75-40.78-8.03-59.25-18-43.03-23.23-74.75-58.21-100.86-98.75-2.46-3.82-3.88-8.92-4.06-13.5-.65-16.87,10.94-26.22,22.96-35.13-3.9,8.2-8.16,16.19-12.66,24.04-3.69,6.45-3.75,13.11-.55,19.44,3.03,5.99,7.05,11.47,10.85,17.52-3.85,1.84-1.41,3.75.79,6.11,12.94,13.87,29.24,21.89,47.02,27.46,15.19,4.76,30.53,9.21,44.15,18.65-3.25,4.17-1.3,7.57,1.91,10.3,3.93,3.35,7.81,7.23,12.43,9.23,17.69,7.69,35.65,14.79,53.57,21.95,3.67,1.47,7.62,2.25,11.44,3.34,7.61,2.18,14.67.54,21.12-2.41-8.23-1.37-17.07-1.59-24.99-4.4-20.04-7.12-39.72-15.3-59.43-23.34-3.23-1.32-6.05-3.87-8.73-6.23-1.14-1-1.54-2.93-2.1-4.5-.91-2.53-.9-6.41-2.64-7.46-8.45-5.1-17.07-10.13-26.16-13.91-12.29-5.11-25.42-8.25-37.5-13.75-9.23-4.2-17.39-10.74-26.03-16.24l2.28-2.09c-.19-1.52.12-3.39-.67-4.47-1.74-2.41-4.26-4.25-6.06-6.63-9.78-12.93-9.66-19.49-3.13-30.38,5.74-9.57,13.66-18.43,13.84-30.62,0-.49.57-1.06,1-1.46,13.14-12.27,25.31-26.09,42.54-32.66,10.73-4.1,22.28-6.07,33.33-8.96-18.6-10.09-30.53-27.07-39.89-46.25-9.21-18.89-24.4-30.21-44.59-34.99-21.09-4.99-42.36-9.27-63.33-14.69-11.06-2.86-22.47-6.07-32.31-11.62-16.75-9.44-16.65-27.5-.79-38.25,4.43-3,9.26-5.6,14.24-7.54,30.95-12.12,63.84-15.33,96.3-20.48,28.58-4.53,57.24-8.56,85.74-13.51,8.71-1.51,17.27-4.76,25.45-8.26,7.78-3.33,7.81-5.75,3.92-12.96-4.9-9.08-12.68-14.26-22.15-17.06-19.66-5.8-39.51-10.97-59.07-17.04-7.52-2.34-14.92-5.75-21.58-9.95-6.46-4.07-6.11-9.56.7-12.92,7.07-3.49,14.69-6.53,22.39-7.91,19.42-3.47,38.99-6.21,58.57-8.66,19.23-2.41,38.54-4.08,57.82-6.12,12.09-1.28,24.17-2.63,36.25-3.95-3.76-.99-7.49-1.65-11.25-1.91-29.94-2.08-59.9-3.91-89.82-6.27-5.56-.44-11.95-.45-16.67-6.55,3.26-1.91,5.78-3.98,8.67-4.97,5.82-2,11.77-3.78,17.8-5.01,39.62-8.13,79.3-15.95,118.88-24.26,6.65-1.4,12.96-4.57,19.33-7.15,3.23-1.31,6.1-3.97,9.39-4.57,10.32-1.86,18.68-6.37,24.74-15.83-1.9.21-3.38.43-4.87.53-12.52.82-25.04,1.92-37.57,2.26-5.47.15-11.31-1.6-13.3-7.44-2.15-6.32,1.35-11.67,5.52-16.22,2.28-2.49,4.96-4.63,7.59-6.77,2.59-2.11,5.35-4.01,8.04-6.01,4.41,0,8.82,0,13.23,0ZM337.31,995.38c.46.9.92,1.8,1.38,2.71,4.1-.62,8.2-1.24,12.3-1.85.13-.7.25-1.4.38-2.09-6.72-3.46-13.43-6.91-21.57-11.1,9.95,1.2,18.52,2.24,27.08,3.27.23-.45.45-.9.68-1.35-8.6-5.23-17.17-10.5-25.81-15.65-2.39-1.43-5-2.49-7.5-3.73-4.8-2.38-6.74-5.8-4.68-11.21,1.18-3.1,1.99-6.34-.99-9.38-.72-.73-.15-3.52.69-4.81,1.83-2.81,4.2-5.26,5.92-7.34-.78-3.44-1.49-6.54-2.2-9.65,2,.13,4,.26,6.19.4-.96-6.24-2.22-12.99-2.86-19.8-.15-1.57,1.59-3.56,2.87-4.98,2.07-2.29,4.49-4.28,6.75-6.39-2.62-2.49-5.13-5.12-7.92-7.39-1.09-.89-2.83-.98-5.89-1.94,3.86,3.39,6.41,5.64,10.14,8.92-13.24,3.85-12.39,12.67-10.21,22.35.45,1.98-1.44,4.46-2.13,6.74-.61,2.02-2,4.45-1.39,6.06,1.44,3.8.15,6.14-2.13,8.99-2.7,3.36-5.4,7.04-1.28,11.63.91,1.01.11,3.75-.23,5.64-1.66,9.04-.14,12.6,8.11,16.94,5.23,2.75,10.71,5.04,16.08,8-13.63-2.6-26.54-1.04-38.46,5.35,13.58,2.66,27.22,5.34,40.87,8.01.25.62.49,1.24.74,1.85-1.63.6-3.27,1.21-4.9,1.81ZM588.96,1115.78c-8.28-4.32-16.81-8.18-25.3-12.08-7.23-3.32-14.73-6.11-21.8-9.72-5.75-2.94-10.11-7.36-8.98-15.46-4.73,3.94-5.24,8.5-2.01,11.85,4.17,4.34,9.19,8.33,14.58,10.93,14.29,6.9,28.98,12.97,43.51,19.38-.62.73-1.24,1.46-1.86,2.2,1.84,2.8,3.04,6.7,5.63,8.2,8.59,4.96,17.64,9.14,26.6,13.45,4.84,2.33,9.91,4.18,14.77,6.48,2.93,1.39,5.71,2.28,6.43,6.93.47,3.03,5.14,5.87,8.46,7.92,11.35,7.02,22.94,13.65,34.43,20.43-1.74,5.93,1.01,12.48,7.14,17.04,1.54-7.86-3.13-19.57-9.56-23.46-10.06-6.09-20.23-12-30.28-18.09-2.02-1.22-3.75-2.93-5.87-4.61.98-1.37,1.81-2.52,3.07-4.29-18.63-8.71-36.78-17.2-55.77-26.08,4.55-6.62.42-9.14-3.19-11.02ZM543.17,332.9c4.65-6.61,2.76-11.79-3.73-16.93-7.34-5.82-15.86-8.68-24.97-10.16,5.4,2.68,11.02,4.98,16.16,8.1,11.21,6.81,12.1,12.33,4.19,22.72-1.19,1.56-2.48,3.04-4.24,5.19-.24-2.47-.4-4.1-.57-5.91-4.19,2.9-8.23,5.44-11.98,8.36-8.31,6.46-9.47,15.45-2.94,23.53,4.89,6.05,9.81,12.14,15.31,17.61,5.04,5.01,11.58,7.42,19.04,7.39-16.95-2.91-23.06-17.55-31.64-29.21-4.38-5.96-2.3-12.35,4.81-17.75-.25,3.64-.45,6.54-.65,9.44.49.35.97.7,1.46,1.05,6.65-7.76,13.9-15.1,19.75-23.42ZM711.44,683.58c-1.71-.19-2.79-.31-4.91-.55,3.84,3.7,7.62,6.69,3.09,11.37-.26.27.25,1.51.65,2.15,6.93,11.24,5.42,21.97-2.63,32.73,10.52-5.35,16.11-16.53,12.84-26.8-4.25-13.33-6.69-27.47-15.92-38.84-3.6-4.44-14.48-7.93-21.27-4.66,18.98-1.24,23.11,11.58,28.15,24.6ZM353.35,1012.26c5.32,2.12,11.11,3.03,16.55,4.9,11.22,3.85,22.37,7.93,33.5,12.04,5.36,1.98,10.62,4.23,17.49,6.98-13.24-12.14-32.58-20.72-52.49-25.13-7.76-1.72-15.05-5.48-22.62-8.16-1.25-.44-2.79-.06-4.2-.06-.25.79-.5,1.58-.74,2.37,4.15,2.4,8.1,5.3,12.5,7.06ZM556.79,197.59c1.22,9.92-7.51,12.47-14.6,18.08,10.89-2.39,19.84-5.45,26.39-13.09,3.75-4.38,2.8-9.95-2.61-12.42-8-3.64-16.46-6.27-24.73-9.33,4.29,7.03,14.41,7.44,15.56,16.77ZM467.13,1058.72c5.59-.78,11.65,1.74,17.49,2.83,3.82.71,7.62,1.57,11.55,1.77-10.32-3.7-20.28-8.34-31.76-7.72-12.32.67-17.48-3.69-20.75-15.88-.46-1.71-1.05-3.38-1.57-5.08-.06,16.9,9.48,26.24,25.04,24.07ZM648.64,630.29c-7.43-5.7-14.14-13.52-26.1-8.57,9.35,3.07,17.73,5.82,26.1,8.57ZM493.53,1070.68c3.58,3.04,10.59-.54,12.58,5.96.64-.94,1.49-2.19,2.53-3.72-4.5-1.73-8.71-3.35-13.35-5.14-.11.18-.89,1.48-1.75,2.9ZM519.84,1086.29c1.03-3.2,1.63-5.07,2.62-8.16-4.6,2.15-9.12-3.69-13.35,3.86,6.05-3.22,9.63-2.97,10.73,4.3Z"/>
      <path class="cls-1" d="M0,1008.84c5.64-1.73,11.27-3.46,16.91-5.18l-.09-1c-4.33,0-8.66,0-14.6,0,3.38-2.2,5.31-3.45,8.54-5.55-2.12-1.05-3.55-1.76-4.99-2.47.16-.47.32-.94.49-1.41,3.87-1.03,7.75-2.07,10.83-2.89.68-1.91,1.26-3.73,1.97-5.5.51-1.26,1.24-2.44,1.78-3.69.83-1.91,1.04-4.68,2.48-5.61,4.46-2.91,6.91-7.5,10.47-11.13.41-.42.89-1.04,1.38-1.08,13.67-1.19,13.74-14.36,19.71-22.32.79-1.05,1.37-3.13,2.15-3.18,5.24-.35,7.67-6.51,10.63-7.09,8.35-1.65,14.77-10.06,24.77-6.52,3.32,1.17,7.98-1.46,13.09-2.59-1.7-1.05-2.54-1.62-3.42-2.11-3.36-1.86-6.57-4.15-10.14-5.43-5.39-1.92-10.97-4.02-16.58-4.43-8.85-.65-13.19-4.83-13.74-14.54,4.25-1.39,9.03-2.96,14.51-4.76-3.72-4.09-5.46-8.42-1.16-13.44-1.73-.15-2.8-.56-3.6-.26-7.68,2.85-10.74-5.18-16.38-7.12-.42-.14-.4-4.51.7-5.53,3.7-3.44,7.99-6.25,12.33-9.51-1.24-1.83-2.53-3.74-4.26-6.28,3.64-.79,6.95-1.52,11-2.4-1.8-1.92-3.44-3.66-5.79-6.17,2.58-.68,4.37-1.09,6.13-1.62,3.06-.93,6.98-.59,6.99-5.7,0-.89,2.91-2.34,4.59-2.56,9.45-1.22,18.94-2.14,28.64-3.83-6.46-1.14-12.91-2.29-19.37-3.43-.02-.32-.03-.64-.05-.96,4.27-1.21,8.54-2.43,12.8-3.64-.41-.51-.82-1.02-1.23-1.53.96-1.18,1.74-3.14,2.92-3.42,4.98-1.19,10.07-1.88,16.81-3.05-5.24-1.74-9.01-2.99-12.77-4.24.05-.42.1-.84.15-1.25,2.46,0,5.04.48,7.34-.12,3.04-.8,5.92-2.34,8.76-3.76,2.64-1.32,5-3.36,7.75-4.25,4.07-1.33,8.35-2.15,12.61-2.76,3.7-.52,7.56.07,8.71-5.13.22-.99,3.38-1.69,5.25-1.86,3.3-.3,6.65-.08,11.65-.08-2.7-2.56-4.13-3.93-6.1-5.8,6.41-1.36,12.48-2.43,14.54-11.6,2.78,8.85,8.45,11.22,14.37,10.78,6.18-.46,13.29-1.5,18.01-4.98,5.76-4.25,9.44-11.31,14.18-17.36-1.09-.55-2.45-1.23-3.91-1.96,1.68-.46,3.73-.39,4.59-1.36,6.33-7.17,14.1-7.8,22.92-6.36,3.98.65,8.36-.24,12.39-1.16,2.19-.5,3.95-2.67,6.02-3.88,3.16-1.85,6.32-4.74,9.66-5.01,5.6-.45,11.32.9,17.01,1.34,2.76.22,6.48,1.27,8.16-.07,8.4-6.68,18.47-3.62,27.59-5.65,4.05-.9,7.91-2.66,11.85-4.03-.09-.58-.19-1.16-.28-1.74-4.91-2.84-9.76-5.79-14.74-8.49-7.44-4.04-7.48-3.96-4.33-9.98-3.88-8.39-7.72-15.76-10.71-23.47-2.11-5.46-5.15-7.68-10.91-6.36-3.3.75-6.7,1.47-10.04,1.43-2.88-.04-6.12-.53-8.56-1.95-6.92-4.01-13.52-8.6-20.32-13,6.11-10.39,2.09-21.68-10.48-26.38-8.1-3.03-11.1-7.41-11.07-16.35.03-7.99-1.54-15.06-9.45-19.24-1.29-.68-2.25-2.63-2.69-4.18-3.68-12.75-11.17-17.13-24.6-18.01-14.24-.94-28.48-3.44-42.38-6.7-4.41-1.03-7.74-6.69-11.57-10.22-2.32-2.14-4.55-4.39-7-6.37-4.14-3.35-8.39-6.56-12.66-9.74-1.41-1.05-2.95-2.12-4.6-2.61-3.72-1.12-7.18-1.79-6.79-7.23.1-1.42-3.46-3.05-5.24-4.69-1.69-1.56-3.26-3.26-4.88-4.91,2.27-1.64,4.42-3.5,6.85-4.85,1.49-.83,3.42-.88,5.95-1.47-2.34-1.42-4.05-2.45-7.27-4.4,3.36-2.44,5.91-4.89,8.93-6.34,3.62-1.73,7.65-2.61,12.03-4.03-.96-1.08-1.24-1.63-1.69-1.86-8.8-4.65-8.74-4.6-3.49-12.87.7-1.1.9-3,.48-4.26-2.11-6.37-.67-10.43,5.42-14.07,5.32-3.18,10.43-6.91,16.1-9.24,3.65-1.5,8.16-.9,13.12-1.31-1.21-1.9-1.88-2.93-2.3-3.59,3.92-7.27,9.75-11.59,18.19-11.49-2.37-7.53-1.66-8.23,5.95-9.54,2-.35,3.5-2.99,5.54-3.8,3.33-1.32,6.91-1.99,10.17-2.87-.48-.29-1.55-.95-2.9-1.78,9.03-8.54,19.69-10.71,31.66-10.94,6.81-.13,13.56-3.41,20.34-5.28.38-.1.73-.32,1.12-.38,6.92-1.12,13.85-2.21,20.59-3.29,1.42-8.49,1.36-8.33,8.93-5.54,2.24.82,4.95.76,7.4.57,12.36-.96,24.18-6.19,37.04-4.01,4.12.7,8.7-1.86,13.11-2.09,7.09-.38,14.23.06,21.34-.16,1.62-.05,3.14-1.61,4.81-2.16,1.96-.64,4.02-1.11,6.08-1.35,2.92-.35,5.88-.43,8.84-1.36-7.55-7.89-15.62-13.34-26.49-14.81-3.85-.52-8.29-4.92-10.27-8.7-2.11-4.03-4.68-5.54-8.52-6.19-4.18-.7-8.83-.39-12.46-2.18-8.89-4.4-18.36-7.04-27.59-10.39-9.89-3.6-19.88-6.95-30.4-10.6,1.01-4.88-2.57-8.09-7.05-9.96-8.03-3.35-16.31-6.09-24.5-9.06-1.66-.6-4.14-.58-4.91-1.73-6.23-9.42-16.92-8.39-25.82-11.57-4.37-1.56-9.12-3.34-12.39-6.41-4.77-4.49-10.54-7.98-13.43-14.75-1.45-3.39-6.67-5.45-10.52-7.46-6.9-3.59-14.15-6.51-21.07-10.05-4.61-2.36-9.14-5.01-13.28-8.1-5.44-4.07-5.84-8.33-2.07-14.01.33-.5.65-1.04,1.09-1.43,10.78-9.64,8.58-20.22,2.57-31.33-2-3.7-4.14-6.13-8.67-5.92-4.54.21-7.62-2.06-8.92-6.47-1.52-5.15-3.63-10.25-4.21-15.51-.41-3.71.68-7.92,2.2-11.43,2.29-5.31.88-8.85-3.6-11.73-8.78-5.64-20.46-4.04-28.4,2.87-1.94,1.69-6.7,2.15-9.02.96-4.7-2.42-9.18-5.83-12.75-9.75-13.72-15.07-28.51-28.42-47.54-36.81-5.09-2.24-8.83-7.77-12.87-12.1C3.76,108.24,2.02,105.09,0,102.21c0,302.21,0,604.42,0,906.63Z"/>
      <path class="cls-1" d="M408.83,1231.29c-3.49-1.42-6.98-2.84-10.73-4.36,1.14-1.23,2.16-2.32,2.98-3.2-3.48-1.87-6.76-3.63-10.3-5.53,4.04-7.31,12.09-5.27,17.71-9.39-2.34-.18-4.68-.36-7.34-.57-1.42-9.37-11.26-3.49-15.72-8.86.28-1.24.65-2.91,1.14-5.12-2.61-.16-4.93-.22-7.22-.47-3.67-.41-7.38-.71-6.72-6.16.11-.94-1.51-2.74-2.65-3.07-11.37-3.33-11.39-3.26-19.35-12.2,6.3,0,11.99-.19,17.65.14,1.33.08,2.98,1.61,3.77,2.91,5.54,9.13,17.31,9.33,26.35,6.57,1.56-.48,3.44-3.7,3.2-5.37-.34-2.32-2.12-5.65-4.03-6.27-4.84-1.59-10.07-2.26-15.19-2.62-3.24-.23-4.03-2.12-5.96-4.1-4.3-4.4-9.92-7.77-15.52-10.51-2.53-1.24-6.35-.3-9.48.23-6.01,1.03-8.49,7.05-7.81,16.95-.89-1.1-2.75-2.55-2.5-3.26,1.36-3.86-1.14-5.29-3.76-6.31-10.75-4.17-21.33-9.12-32.46-11.79-5.92-1.42-13.05.41-19.21,2.23-7.74,2.29-14.77,2.39-21.92-1.47-6.51-3.51-13.07-2.68-19.5.48-12.62,6.21-19.13,1.19-25.53-7.71-2.98-4.15-5.24-8.99-6.96-13.82-4.8-13.46-25.39-25.6-39.38-22.98-8.27,1.55-16.14.59-23.86-3.3-3.05-1.53-7.28-1.95-10.68-1.31-9.77,1.86-19.37,5.61-28.8-1.25-.99-.72-3.49-.11-4.92.62-11.92,6.1-24.35,4.07-36.74,2.48-1.63-.21-4.11-1.09-4.52-2.25-1.79-5.05-6.06-4.13-9.76-5.6-5.9-2.35-13.38,0-18-7.19-3.9-6.07-4.98-6.86-.37-13.05,2.17-2.91,1.41-4.42-2.12-4.58-2.2-.1-4.58.49-6.56-.18-2.05-.7-4.94-2.28-5.29-3.94-1.01-4.75-4.24-4.99-7.88-5.64-2.36-.42-6.23-1.43-6.52-2.79-.85-4.05,2.76-4.97,6.03-5.61,1.65-.32,3.26-.81,4.74-2.17-3.88,0-7.76,0-12.95,0,2.85-2.46,4.79-4.13,6.59-5.69C6.94,1042.32,3.47,1040.61,0,1038.9c0,64.13,0,128.26,0,192.39,136.28,0,272.55,0,408.83,0Z"/>
      <path class="cls-1" d="M367.03,741.81c4.99-2.63,10.76-5.43,16.22-8.74,1.34-.81,2.72-3.9,2.18-4.93-.97-1.85-3.4-4.13-5.21-4.12-7.96.05-15.92.76-23.87,1.44-1.5.13-3.02,1.01-4.34,1.84-5.15,3.27-5.08,7.51.43,9.89,4.13,1.79,8.62,2.76,14.59,4.61Z"/>
      <path class="cls-1" d="M350.69,742.91c-1.65-4.5-4.63-5.89-8.97-5.9-6.58-.01-13.17-.8-19.75-.87-2.26-.02-5.55.42-6.58,1.89-1.67,2.38-2.68,5.89-2.33,8.73.17,1.4,3.91,3.08,6.2,3.37,11.35,1.43,21.34-3.28,31.44-7.22Z"/>
      <path class="cls-1" d="M357.63,744.6c4.39,6,15.53,7.59,18.83,3.65.57-.68-1.36-5.03-2.12-5.02-5.26.03-10.52.77-16.71,1.37Z"/>
      <path class="cls-1" d="M371.49,1153.68c4.68,6.69,7.51,7.45,16.58,4.87-3.6-7.06-4.78-7.42-16.58-4.87Z"/>
    </g>
  </g>
</svg>