<?xml version="1.0" encoding="UTF-8"?>
<svg id="Layer_2" xmlns="http://www.w3.org/2000/svg" viewBox="0 0 908.77 1155.59">
  <defs>
    <style>
      .cls-1 {
        fill: #fff3ea;
      }
    </style>
  </defs>
  <g id="Layer_1-2" data-name="Layer_1">
    <g>
      <path class="cls-1" d="M752.94,490.96c-3.83-1.7-7.04-3.12-10.63-4.72,0-2.4.66-5.22-.18-7.47-.85-2.27-3.19-3.98-4.76-5.81,5.1-8.88,4.33-7.52-5.06-18.73q7.41-12.86-4.3-20.65c.72-4.98,1.48-10.26,2.33-16.23-4.26.54-7.15.9-10.29,1.3-1.29-3.28-2.45-6.24-3.85-9.8-8.82.91-16.98,2.21-24.17,8.8-5.7-5.58-15.29-6.33-19.89-14.66-.91-1.64-5.65-3.1-6.98-2.2-3.93,2.65-7.25-.29-10.92.38,2-2.58,5.39-4.08,6.18-6.45,2.18-6.54,11.44-6.16,12.56-13.57.07-.48,4.19-.44,6.43-.47,5.61-.06,11.22-.02,18-.02-1.25-4.46-2.34-8.4-3.41-12.21,11.03-6.33,11.06-6.57,2.18-15.48,1.98-2.85,3.98-5.74,6.8-9.81-5.27-1.61-9.5-2.9-14.02-4.28,4.07-6.52-2.33-9.13-5.64-13.13,1.63-2.59,3.14-4.99,4.65-7.39.5-.74,1-1.48,1.5-2.22-4.82-3.43-9.64-6.87-14.42-10.27,1.68-2.26,2.41-3.37,3.27-4.36,1.08-1.26,2.34-2.38,3.4-3.66,3.97-4.74,3.39-8.33-2.03-11.05-2.89-1.45-6.05-2.34-9.49-3.63,1.13-5.9,2.15-11.27,3.45-18.04-5.26.85-9.31,1.5-13.35,2.15-1.54-3.78-2.97-7.31-4.85-11.95-5.63,5.55-15,1.14-17.05,9.96-4.15.26-7.61.47-11.92.74,1.58,3.78,2.68,6.44,3.47,8.33-3.13,3.22-7.5,5.68-7.87,8.65-.41,3.29,2.83,7.03,4.48,10.59-5.68,8.35-8.88,18.53-20.59,21.27,2.63-3.51.55-8.52,5.61-11.41,7.95-4.54,3.98-13.57,6.23-20.33.16-.48-2.21-2.26-3.62-2.67-1.63-.48-3.5-.11-4.63-.11,0-3.81.81-8.68-.15-9.06-2.9-1.14-6.48-.54-10.31-.63-.68-1.09-1.83-2.94-3.06-4.92-2.96,1.8-5.37,3.27-7.62,4.63-2.32-2.05-4.18-3.69-5.55-4.89-3.95,3.39-7.21,6.18-10.45,8.96q1.76,6.63-1.49,14.74c-.16-1.3-.25-2.62-.49-3.9-1.63-8.8-5.65-10.47-12.96-5.26-2.63,1.87-4.99,4.13-7.59,6.32-5.84-5.17-11.22-9.92-16.75-14.81-3.66,2.83-6.47,5.01-8.89,6.89-4.52-1.76-8.37-3.25-12.56-4.88-2.03,4.28-3.52,7.42-4.73,9.97-4.07-.78-7.5-1.43-11.4-2.18.36,2.6.57,4.14.86,6.18-5.51.85-12.18-.6-15.37,6.32,4.66,5.35,11.77,8.57,11.94,16.85-5.39,2.24-10.48,4.35-16.5,6.86-.33-10.15-9.67-10.23-14.78-15.44-3.22,1.54-6.08,2.91-9.27,4.44-1.23-5.42,2.32-8.56,5.41-11.15,9.42-7.91,18.9-15.84,28.98-22.86,22.95-16,46.27-31.49,69.45-47.15,1.63-1.1,3.42-1.98,4.91-2.83-1.24,4.52-3.78,8.78-3.13,12.49,1.07,6.13,3.85,12.06,6.55,17.77,2.53,5.34,10.43,8.42,13.98,5.28,5-4.42,11.81-6.6,14.95-13.56,2.11-4.67,6.66-7.43,11.97-9.56,5.96-2.4,11.66-6.6,16.1-11.3,4.03-4.26,7.96-8.15,13.34-10.37,5.55-2.29,5.57-2.19,2.57-7.8-.23-.43.06-1.13.25-3.33,1.49-.87,4.08-2.38,5.96-3.48-2.28-5.99-4.02-10.58-6.08-16.01-6.75,1.06-11.14-5.54-15.88-10.12-3.93-3.81-7.3-4.58-12.2-2.75-1.84-5.52-4.38-9.68-10.56-9.33-6.51.36-13.05,1.17-19.52.76-5.43-.34-11.53.86-16.05-3.72,2.05-5.67,2.51-4.4,7.07-6.05,6.27-2.27,11.94-2.97,18.19-.93.9.3,2.3-1,3.5-1.48,2.54-1.01,5.11-1.96,7.19-2.75,2.57-10.21,5.07-20.09,7.4-29.35-6.96-8.13-15.11-11.72-24.11-12.75-.77-3.01-1.39-5.42-2.3-8.96-4.24,2.25-7.56,4.02-10.42,5.54-5.03-7.31-9.84-14.31-14.85-21.6-1.6.69-3.63,1.55-5.59,2.39-4.73-6.77-7.55-7.35-13.39-2.52-2.48,2.05-4.47,4.68-7.41,7.83-5.6-2.85-11.08-5.65-17.35-8.84,5.85-8.75-2.86-12.62-5.12-18.44,1.55-1.96,2.89-3.44,3.98-5.1,1.04-1.58,1.83-3.32,3.18-5.83-3.98-2.43-7.51-4.58-11.53-7.03v-16.72c-3.38.54-6.2.99-8.98,1.43-1.19-3.67-2.19-6.76-3.72-11.46-5.53,5.7-9.95,1.14-14.27-.71-4.89,3.72-7.4,9.65-14.14,9.77-1.01.02-2.17,1.93-2.93,3.17-2.36,3.89-10.46,5.16-10.72,1.88-.52-6.54-6.07-4.85-8.17-6.23-.34-4.59.72-9.29-1.11-11.12-3.7-3.7-8.69-1.49-12.93.66-2.33,1.19-4.51,2.65-6.86,4.05-7.28-5.49-12.25-13.55-21.99-16.31-1.39,3.25-2.62,6.15-3.93,9.23-1.73-.36-3.54-.73-5.6-1.15-1.02,2.8-1.91,5.23-2.79,7.63-4.77-1.42-7.72-7.16-14.06-4.52,1.1,3.54,2.11,6.8,3.25,10.49-3.74-.43-6.54-.75-9.29-1.06-1.02,5.32-1.67,10.09-2.88,14.71-1.73,6.59-3.35,7.57-9.76,6.43-4.17-.74-8.28-1.77-13.09-2.82v6.84c-2.6.43-5.06.84-6.61,1.1-1.31,4.05-1.37,8.55-3.46,9.9-5.56,3.58-.65,6.51-.06,8.38-4.99,4.09-9.12,7.46-13.53,11.07-6.81-7.12-11.58-16.88-23.4-18.77-.61,4.01-1.04,6.85-1.48,9.69-3.48-.84-6.82-1.65-11.42-2.76.97,4.48,1.62,7.49,2.38,11.04-5.91-.6-12.09-6.18-18.38,3.2,3.23,1.69,6.51,3.4,10.44,5.46-7.51,3.85-12.99,6.66-19.61,10.05,4.08,3.68,6.93,6.25,9.96,8.99-1.88,2.97-3.69,5.82-5.94,9.36,4.55,1.05,8.01,1.85,11.32,2.62q1.39,7.7,8.86,8.15c4.18.25,8.36.55,13.99.93-5.54,7.68-9.35,14.9-9.44,23.54,2.15,1.22,4.07,2.31,5.64,3.2-.43,3.01-.79,5.49-1.23,8.53,3.93.21,7.16.38,10.93.59-.84,3.31-1.54,6.09-2.39,9.46,3.68.44,6.85.81,9.98,1.18.14,1.72.27,3.29.42,5.21,2.97.2,5.55.37,8.49.56v7.14c5.96,1.04,11.62,2.02,18.24,3.17,4.21,31.94,15.1,62.47,28.37,92.33h-13.53c3.39-12.26,2.81-12.96-12.67-15.97-3.5-5.76,2.46-13.21-3.31-19.07-3.97,1.94-7.74,3.78-11.85,5.78-1.69-4.32-3.21-8.2-5.01-12.79-5.42,2.37-10.15,4.44-14.69,6.43-4.65-3.43-8.82-6.5-14.21-10.47-3.08,8.13-.07,17.09-6.65,22.11-8.4-1.09-15.01-4.75-20.92-10.03-3.31-2.95-9.15-3.2-12.44-.96-2.11,1.43-4.2,2.88-6.27,4.3-2.57-2.86-4.69-5.22-6.92-7.71-10.75,7.06-20.42,14.9-33.02,17.09-1.61.28-2.91,2.33-4.46,3.65,1.32,2.22,2.31,3.9,3.3,5.57-1.45,2.61-3.78,5.11-4.12,7.85-.48,3.82-3.12,4.4-5.53,5.92-3.71,2.33-10.27,1.88-9.36,9.15.06.51-2.03,1.38-3.2,1.93-2.31,1.09-4.67,2.08-7.45,3.31,4.35,7.89.8,14.88.23,22.53-3.82-1.54-6.83-2.76-9.95-4.02-1.07,1.47-1.96,2.71-2.88,3.97-3.61-.81-7.29-3.94-11.26.72,1.11,2.75,2.3,5.69,3.57,8.83-3.57,1.26-7.14,2.53-11.6,4.1,2.3,4.45,4.1,7.92,5.98,11.54-1.1,1.28-2.33,2.72-3.87,4.51,6.52,6.77-1.04,13.57,1.29,20.72-4.78-.83-8.53-1.49-10.64-1.86-2.34,3.44-3.57,5.71-5.24,7.59-2.2,2.48-4.93,4.48-7.11,6.97-10.27,11.76-20.42,23.63-31.47,36.45,4.21-20.89,9.15-40.58,6.35-61.01-4.15,19.13-7.79,38.34-15.81,57.23-6.49-22.51-12.37-44.23-19.05-65.69-6.68-21.45-13.84-42.77-24.83-62.5,5.56,23.24,11.88,46.25,17.18,69.49,5.37,23.56,9.72,47.35,14.52,71.03-4.06-3.78-7.06-8.14-8.82-12.94-4.35-11.87-8.16-23.93-12.13-35.93-6.69-20.22-13.26-40.47-20.07-60.65-1.02-3.01-1.48-6.88-7.51-8.95,9.55,35.74,16.24,70.44,27.49,104.46-6.93-1.09-8.39-5.71-10.42-10.48-7.03-16.51-14.4-32.88-22.02-49.13-1.73-3.69-4.98-6.67-7.52-9.98-.7.37-1.4.75-2.11,1.12,1.29,3.48,2.49,7,3.85,10.45,1.29.77,2.21,2.13,2.21,4.08v1.24c4.87,11.47,9.86,22.89,14.66,34.39.92,2.21,1.07,4.74,1.76,8.05-6.53-2.79-11.76-6.55-16.42-10.71v356.81c11.61,5.87,23.21,11.75,34.77,17.73,7.27,3.76,14.03,8.5,21.02,12.79-3.63.2-6.49-1.11-9.24-2.61-15.01-8.18-30.35-15.6-46.55-20.93v54.19c1.1,1.17,2.17,2.44,3.17,3.87-1.08.28-2.14.51-3.17.7v10.51c4.87,2.47,9.6,5.54,13.81,10.19-4.97,1.19-9.23,2.2-13.81,3.29v6.67c1.56,1.12,3.03,2.17,4.51,3.21,9.28,6.49,18.78,12.68,27.83,19.47,10.45,7.84,19.62,17.05,26.73,28.12,2.43,3.79,5.16,7.59,4.74,12.63-5.97-.6-5.92-.65-21.26-13.6-6.77-5.72-13.37-11.78-21.54-15.3-.79,6.15-1.82,11.67-2.07,17.22-.1,2.28.79,5.68,2.43,6.77,4.8,3.19,6.67,7.02,4.62,12.69,6.85,4.35,13.71,7.92,19.66,12.63,11.46,9.06,22.63,18.53,33.45,28.34,3.63,3.29,7.07,7.62,6.65,15.14-14.36-4.93-24.06-15.61-37.38-21.86,1.55,3.94,2.62,6.64,3.68,9.35-.45.4-.91.8-1.36,1.2-8.54-5.29-17.07-10.59-26.27-16.3.45,3.4.74,5.64,1.26,9.55-7.87-4.37-14.26-7.92-20.34-11.29-1.25,5.97-2.03,10.85-3.34,15.59-1.01,3.66-1.99,7.24.65,10.44,3.29,4,2.61,7.85.42,11.97-1.08,2.04-2.1,4.11-3.08,6.21v18.49c.65.43,1.34.87,2.13,1.36.45.28.54,1.14.79,1.73l-1.22.04v13.47c-.56.12-1.13.23-1.7.34v119.3c5.4,7.2,12.89,11.55,22.4,13.42,13.45,2.65,26.61.49,39.72-1.63,25.75-4.17,51.49-6.48,77.61-4.29,18.25,1.53,36.59,3.08,54.87,2.8,48.65-.73,97.28-2.33,145.91-3.84,16.98-.53,33.95-1.64,50.9-2.83,36.88-2.6,73.7-6.71,110.77-3.37,4.95.45,10.04.4,14.98-.17,22.81-2.6,45.65-5.06,68.37-8.34,30.4-4.39,60.81-7.41,91.58-5.41,14.71.95,29.35.03,43.41-4.85,4.17-1.44,10.19-2.54,9.34-8.55-.71-5.04-6.22-5.5-10.42-6.05-10.89-1.43-21.81-2.66-32.74-3.65-5.94-.54-11.02-2.64-15.1-6.86-8.5-8.78-18.87-14.64-29.81-19.74-20.47-9.53-38.25-22.78-54.09-38.86-4.18-4.25-5.33-8.07-4.51-14.05,3.47-25.15-.84-49.08-13.18-71.42-7.34-13.29-17.72-23.14-31.96-28.87-8.33-3.35-16.55-7.02-24.7-10.79-18.39-8.5-29.94-22.68-35.17-42.27-6.24-23.35-8.8-47.72-20.28-69.58,24.43-21.3,41.43-47.01,55.18-75.07,16.63-33.94,28.53-69.54,37.08-106.31,1.7-7.3,3.32-14.61,5.04-22.24,4.2,1.85,4.97,3.95,2.83,7.18-2.87,4.33-.32,9.83,1.87,11.42,9.29,6.73,15.42,18.29,29,19.7,1.91-9.23,15.49-11.66,13.58-23.5-.04-.24.35-.54.62-.93,1.82-.19,3.73-.38,5.54-.57.91-3.37,3.57-4.49,13.36-5.62.91-1.48,2.1-3.41,3.06-4.96,3.22,1.76,5.11,2.79,7.1,3.88,2.35-3.53,4.3-6.45,6.59-9.88,6.14,2.73,11.79,5.24,17.98,7.99,1.47-4.35,2.7-8.01,3.87-11.49,10.82-1.66,11.78-3.44,7.76-13.72,1.98-2.47,3.97-4.94,6.9-8.57-5.4-2.24-9.81-4.07-14.28-5.93.38-8.17-1.27-10.02-8.94-11.33-8.36-1.43-16.94-2.39-24.05-7.86-.94-.73-2.44-.73-3.94-1.14-1.57,1.93-2.99,3.67-4.41,5.42-2.72-.76-5.38-1.5-8.72-2.44,1.77,2.97,2.98,5,4.38,7.35-10.42,1.14-21.69-3.38-36.64-14.26,9.61-7.3,14.66-7.5,23.7-1.02,5.65,4.04,11.55,5.12,18.56,3.39,5.53-1.36,4.23-5.98,5.12-7.81,7.47-.92,13.73-1.66,19.98-2.45,6.87-.87,13.73-1.76,20.72.2,0,2.05-.56,4.77.09,5.09,6.48,3.26,5.9,12.63,13.41,15.13,1.34.44,1.65,3.92,2.46,5.99.75,1.91,1.63,3.77,2.27,5.71,2.1,6.31,8.79,7.52,12.12,10.94,1.23,6.59,2.31,12.34,3.33,17.83,13.54,4.24,22.41,1.31,28.11-8.92,2.6-4.66-.19-12.83-6.18-17.63.42-2.06,1.05-4.25,1.26-6.47.22-2.4-.47-4.99.17-7.23,1.05-3.67.15-15.05-2.74-17.28-4.03-3.1-2.73-6-1.38-8.67,7.32-5.26,13.27,5.9,20.7.15-.69-3.56-1.42-7.31-1.97-10.11,3.06-2.77,6.88-4.63,7.36-7.13.48-2.47-2.43-5.59-3.97-8.66,1.5-2.64,3.08-5.43,5.07-8.94ZM620.35,325.28c.29.53.96,1.21.82,1.58q-3.96,10.56,5.31,17.7c1.83,1.42,3.62,2.91,5.32,4.49.41.38.38,1.22.67,2.25-1.77.73-3.56,1.55-5.4,2.21-4.99,1.8-6.92,4.73-4.42,10,.74,1.56.77,3.83.27,5.53-1.41,4.78-.25,7.82,5.98,8.4-3.2,4.37-5.76,7.87-8.6,11.76-2.42-1.33-4.99-2.74-8-4.39,2.93-4.02,5.58-7.66,8.47-11.62-3.17-2.66-5.63-4.72-8.09-6.78q6.67-8.97-3.25-20.18c4.03-12.66,5.98-16.34,10.93-20.93ZM568.54,388.07c5.73,3.27,10.93,6.23,16.73,9.54-2.68,3.69-5.34,6.06-6.23,8.97-.74,2.4.62,5.44,1.21,9.28-7.7,3.66-15.68,7.46-25.49,12.12,3.3-14.96,8.62-27.17,13.78-39.9ZM555.92,370.27c3.35.41,4.21,2.92,3.82,5.79-.58,4.22-1.26,8.44-2.27,12.57-.91,3.75-2.32,7.38-3.5,11.07-.53-.03-1.07-.06-1.6-.09-.79-6.17-1.64-12.33-2.35-18.5-.23-1.94-.35-3.96-.1-5.88.43-3.4,2.42-5.4,6.01-4.96ZM551.9,335.59c2.91,7.01-.02,9.44-3.53,11.6-.67-.44-1.33-.89-2-1.33,1.57-2.91,3.14-5.83,5.53-10.27ZM544.19,392.53c.92,8.9,1.34,17.85,2.54,26.71,1.48,10.93-2.71,18.42-13.27,23.48-5.27-18.29-2.86-33.8,8.76-55.61.85,2.28,1.8,3.81,1.97,5.42ZM538.75,357.45c3.08,6.88,2.04,12.24-.88,17.92-5.41,10.55-10.18,21.42-15.68,33.14-3.28-8.79-6.45-17.3-9.85-26.41,8.69-8.11,17.26-16.12,26.4-24.66ZM497.65,335.38c3.16,1.6,7.63.61,12.26.82-.86,1.94-1.44,3.68-2.35,5.22q-4.63,7.81,1.25,15.61c-.84,1.63-1.63,3.45-2.67,5.1-.86,1.37-2.03,2.54-3.75,4.63-4.57-2.13-8.33-3.88-13.16-6.12,3.61-2.75,6.65-4.29,8.55-6.73,1.84-2.36,4-6.11,3.29-8.39-.73-2.33-4.64-3.91-7.43-5.27-1.57-.77-3.67-.46-7.11-.79,4.16-3.13,5.75-6.8,11.11-4.08ZM506.8,393.55c-3.42-1.02-5.48-1.64-7.63-2.28q4.12-3.89,7.63,2.28ZM467.3,465.83c2.53-6.24-5.01-10.74-1.21-16.71,2.8-4.4,4.54-9.48,6.87-14.53,2.62-1.04,5.62-2.23,8.97-3.56-.93-2.26-1.66-4.04-2.59-6.28,1.01-.6,2.02-1.33,3.14-1.83,5.42-2.43,10.29-4.61,13.13-11.08,2.03-4.62,7.91-7.56,13.21-12.27,3.72,8.89,7.05,16.65,10.17,24.48.58,1.46.79,3.32.46,4.84-7.11,33.07-14.32,66.12-21.9,100.94-20.94-19.53-40.53-37.81-60.21-56.17,1.63-2.7,2.63-4.35,4.04-6.7,9.45,8.01,17.2-2.16,25.89-1.13ZM416,849.67c-1.8-3.8-3.6-7.61-5.4-11.41,3.84,2.84,5.85,6.54,5.4,11.41ZM415.49,767.3c-1.35-2.98-2.19-4.34-2.61-5.82-8.62-30.71-16.95-61.51-25.83-92.14-9.57-32.97-17.89-66.13-19.81-100.6-1.61-28.81.91-57.17,8.86-84.97.35-1.23.95-2.39,1.4-3.47,5.28-.61,10.29-.72,15.06-1.85,6.88-1.64,7.78-3.68,7.19-10.74-.33-4.01-.06-8.08-.06-13.15-2.58-.28-6.65-.72-11.95-1.3,3.1-8.66,5.95-16.63,9.08-25.38,6.6,7.96,3.69,19.57,12.78,24.87-5.25,11.21-.47,16.19,10.05,14.49,2.16,3.02,3.83,6.18,6.25,8.59,19.04,19.07,38.23,37.99,57.33,56.99,2.83,2.81,5.79,5.59,8.08,8.82,1.4,1.96,2.65,4.93,2.24,7.13-9.64,52.64-17.82,105.66-39.03,155.39-7.19,16.87-15.24,33.3-26.26,48.05-3.7,4.95-7.99,9.47-12.78,15.09ZM410.03,837.48c-3.17-2.62-6.34-5.25-9.5-7.87,4.68,1.11,8.31,3.32,9.5,7.87ZM380.22,365.31c2.61,1.38,4.96,1.88,5.17,2.85,2.18,9.94,4.02,19.95,6.04,30.36-4.72,1.73-8.31,3.04-12.47,4.57-1.12-7.32-2.08-13.6-3.13-20.48h8.97c-1.51-5.7-2.83-10.66-4.59-17.29ZM376.67,401.19c-2.82,2.08-4.7,3.47-7.03,5.2-2.39-4.42-1.88-7.02,1.12-8,1.21-.4,3.14,1.41,5.92,2.8ZM391.62,353.88c.59-.34,1.17-.68,1.76-1.02,2.7,3.32,5.41,6.64,8.63,10.6-1.47,3.39-2.96,6.83-5.4,12.47-2.01-8.88-3.5-15.47-4.99-22.06ZM590.76,191.86c1.85,2.88,3.06,4.76,4.85,7.55-6.88,3.59-13.3,6.94-19.71,10.29-.44-.51-.87-1.02-1.31-1.52,5.06-5.1,10.11-10.2,16.17-16.31ZM535.23,118.5q6.76,1.83,4.28,9.42c-5.02-1.65-6.77-4.44-4.28-9.42ZM514.4,135.93c2.62,3.02,4.24,4.9,6.37,7.37-3.08,2.31-5.84,4.39-9.17,6.89.88-4.47,1.71-8.71,2.8-14.25ZM545,131.33c2.42,1.16,5.06,2.42,7.81,3.73.43,2.88.27,6.55,1.67,9.47.88,1.83,4.11,2.52,6.98,4.1-.99,3.94-2.08,8.32-3.33,13.3-4.34-1.34-9.33-5.36-11.07,2.4-.11.51-2.29,1.02-3.34.78-3.15-.71-5.83.32-6.29,3.23-.82,5.14-4.88,5.62-8.48,6.65-2.72,7.83,3.26,10.99,7.54,15.01-.62,2.07-1.17,3.9-1.97,6.53,5.03,1.22,5.27,8.71,12.46,8.43,2.33-.09,4.55.46,7.16-.37,5.39-1.72,11.04-2.65,17.72-4.16.07,1.36,1.02,3.91.13,5.16-2.28,3.2-5.04,6.29-8.21,8.61-13.43,9.8-26.95,19.5-40.68,28.86-15.94,10.87-32.29,21.16-48.19,32.1-8.48,5.83-16.39,12.5-24.57,18.77-1.98,1.52-4.04,2.94-6.86,3.79,11.21-31.06,26.59-59.86,42.16-88.66,15.67-28.98,35.94-54.28,59.37-77.74ZM421.39,160.54c1.83-3.88,4.42-6.42,10.5-5.47-1.36,4.13-2.18,7.92-3.85,11.29-1.83,3.69-1.21,6.23,1.9,8.66,2.07,1.62,4.34,3.26,5.74,5.4,2.98,4.55,7.62,3.83,10.13,1.54,3.95-3.6,6.69-8.66,9.46-13.38,1.5-2.56,2.01-5.69,2.96-8.57,1.12-3.55-3.14-6.02.67-9.62.84-.8-.54-4.09-1.09-6.19-1.33-5.15-3.43-10.32,2.35-14.39.94-.66,2.04-2.69,1.69-3.31-2.27-3.97-.65-7.37,2.31-10.54-3.16-2.15-5.29-3.6-8.01-5.46,6.02-8.08-3.6-9.93-6.31-14.35q2.52-12.1,10.17-13.04v-8.03c3.95,6.47,6.69,10.96,10.04,16.44h9.88c.82,6.38-.69,13.82,9.42,15.01-2.69,4.88-4.84,8.8-7.41,13.47,2.49,1.01,4.75,1.93,7.41,3.01v8.29c3.6.67,7,1.31,11.25,2.1.33,15.46.9,31.03-6.96,45.38-9.11,16.65-18.61,33.08-27.62,49.79-11.84,21.96-23.37,44.09-35.39,66.83-3.59-.63-7.13-7.95-11.95-3.52-3.08,2.84-4.14,7.88-6.35,12.43-3.75-1.99-8.38-4.46-13.01-6.92-.29.46-.59.91-.88,1.37.98,1.17,1.96,2.34,3.38,4.04-2.99,1.17-5.83,2.28-9.34,3.64,1.42,4.97,2.74,9.59,3.99,13.93-4.17-.22-7.87-.42-11.88-.63,0-1.74-.45-4.14.07-6.3,7.23-30.06,5.65-60.2.42-90.25-1.32-7.58-.16-13.03,5.08-18.91,11.97-13.41,23.49-27.29,31.26-43.76ZM410.2,164.18c-1.45,3.29-3.46,6.45-5.74,9.25-6.85,8.43-13.96,16.66-22.15,26.36-4.49-14.73-7.07-27.9-8.04-41.27-1.04-14.35,9.48-24.93,13.94-37.8,1.2,6.58,3.82,13.3,3.22,19.72-.67,7.08,3.94,9.83,7.16,14.65,2.59-1.33,4.83-2.48,7.07-3.64,6.62,4.63,7.38,6.26,4.54,12.72ZM375.79,292.1c-13.33-19.79-13.89-47.6,1.19-68.5,5.04,15.15,4.33,55.8-1.19,68.5ZM381.88,88.95c7.35,0,14.07.15,20.78-.06,3.99-.12,5.61,2.4,5.74,5.42.14,3.49-.89,7.04-1.63,11.98-4.85-2.23-8.28-2.8-11.12.7-2.57,3.17-5.47,3.35-8.73.66.39-1.93,1.81-4.66.99-5.9-1.31-1.98-4.11-2.98-6.68-4.66.21-2.62.45-5.65.65-8.14ZM375.59,72.76c-1.4,5.6-6.74,6.59-10.56,10.06-2.45-1.98-4.65-3.77-6.89-5.58,5.63-6.04,5.89-6.1,17.45-4.49ZM371.76,124.41c-1.51,2.95-2.79,5.44-4.06,7.93-.45-.13-.89-.26-1.34-.39v-9.94c1.97.88,3.52,1.56,5.4,2.4ZM353.78,242.41c-3.61-11.75-7.69-23.58-10.8-35.66-2.06-8.02-2.91-16.37-3.96-24.61-.49-3.82-1.43-8.18,3.55-10.34.52-.23,1.08-.91,1.19-1.47.48-2.35.23-5.05,1.33-7.01,1.05-1.86,3.45-2.97,4.73-3.98-2.49-11.88-6.42-22.75-10.84-33.46-1.42-3.45-2.23-7.36-8.99-5.93,3.53-5.17,6.2-9.09,9.9-14.51,2.49,9.15,8.89,10.77,15.29,11.3.74,1.04,1.35,1.52,1.48,2.11,5.66,26.32,11.1,52.69,17.03,78.96,1.51,6.71.46,11.73-3.67,17.4-6,8.24-10.57,17.52-16.25,27.21ZM360.31,281.16c1.05,3.12,1.73,5.13,2.82,8.37-4.5-1.99-6.14-3.64-2.82-8.37ZM366.66,332.61c.46-.72,2.48-.45,3.78-.64.78-2.81,1.56-5.62,2.38-8.6q7.24,8.75,8.27,21.92c-4.12.42-8.26.85-12.99,1.34.09-1.68.17-3.28.25-4.88-3.3,2.96-6.6,5.92-9.9,8.89-.57-.45-1.14-.9-1.71-1.35,3.27-5.58,6.43-11.23,9.91-16.67ZM352.74,337.74c-4.01,6.35-7.21,11.43-10.42,16.51-.34-11.94,2.55-16.66,10.42-16.51ZM326.57,430.69c-2.87,1.8-5.63,3.53-9.02,5.66,1.39,1.85,2.45,3.27,3.15,4.2-3.44,3.82-6.87,7.62-9.81,10.88,1.69,5.42,8.86,5.81,6.63,11.96-.17.46,3.83,3.3,6.06,3.57,3.84.46,7.82-.23,10.74-.38,2.22,5.07,3.48,9.91,6.21,13.72,3.87,5.41,6.8,4.83,10.32-.97.84-1.39,1.61-2.83,2.27-4,4.32,1.11,8.22,2.12,13.33,3.43-11.8,33.99-14.44,69.84-12.27,106.69-26.65-29.56-52.93-59.12-72.24-94.05-3.1-5.6-3.82-10.64-1.81-16.94,4.24-13.3,8.37-26.75,10.95-40.44,3.36-17.85,14.75-30,26.52-42.92,3.23,2.64,6.01,4.9,9.23,7.53-9.24,12.05,2.93,15.72,9.04,21.84-4.09,1.85-7.59,3.43-11.11,5.01.79,2.28,1.32,3.79,1.81,5.2ZM271.44,464.03c-4.67-10.21-6.34-20.11-8.05-29.9-5.7-32.6-2.58-65.58-5.09-98.33.78-.37,1.56-.74,2.34-1.1,8.73,5.39,17.57,10.61,26.1,16.3,1.82,1.22,3.55,4.2,3.51,6.33-.68,36.1-5.35,71.53-18.82,106.71ZM300.39,340.61c.71-3.86,1.5-7.71,2.4-12.29,3.1-1.04,5.82-1.96,7.63-2.57,3.92,4.02,6.75,8.01,10.54,10.53,4.3,2.86,9.32,1.79,14.23-1.3-.65,10.3-5.28,18.27-9.95,27.06-7.17-4.16-13.59-8.19-20.3-11.68-4.3-2.24-5.35-5.45-4.56-9.75ZM301.33,359.68c6.15,4.26,11.96,8.29,18.75,12.98-7.45,8.6-13.49,15.57-19.77,22.83-2.37-6.5-1.84-24.17,1.03-35.81ZM263.25,288.76c2.17,2.51,4.87,4.44,1.01,6.8-3.86,2.36-3.15,5.33-1.46,8.58.89,1.71,1.98,3.4,2.46,5.24.63,2.39-.11,6.13,1.27,7.1,2.49,1.75,6.08,2.16,9.28,2.58,2.24.29,4.6-.32,7.45-.58.62,2.57.59,5.48,1.98,7.28,1.2,1.55,4.03,1.83,6.67,2.89-.29,3.97-.6,8.11-1.02,13.77-11.49-6.72-21.96-12.84-31.98-18.7-1.45-9.65-2.81-18.7-4.3-28.64,2.13-1.56,5.19-3.79,8.63-6.31ZM250.47,337.22c.3,16.59.41,33.18.53,49.78.02,2.88-.34,5.76-.67,11.06-11.39-13.69-21.47-25.05-27.77-39.36,11.66-2.13,16.72-8.96,15.4-19.97-.16-1.31-.95-3.13-.37-3.84,4.87-5.95-.32-9.67-2.87-14,11.03,1.53,15.57,6.08,15.76,16.33ZM230.31,299c2.6,3.07,4.44,5.24,6.73,7.95-4.31,1.64-6.62-.5-8.34-3.12-.46-.7.79-2.53,1.61-4.84ZM221.94,287.54c1.41,3.56,2.84,7.17,4.69,11.86-3.23-1.37-5.84-2.48-8.42-3.58-.79-3.45-1.98-7.06,3.73-8.28ZM218.15,296c1.32,2.73,2.66,5.51,4.68,9.68-4.16-1.19-6.93-1.98-11.03-3.15,2.69-2.77,4.52-4.66,6.35-6.53ZM200.74,367.61c2.4-3.5,1.89-8.99,2.67-13.67,4.51,2.19,8.57,3.85,12.27,6.11,1.82,1.11,3.46,3.13,4.33,5.11,6.25,14.17,15.49,26.29,25.08,38.26,2.6,3.24,5.44,7.34,5.72,11.22,1.59,21.87,3.55,43.61,12.47,64.91-30.79-12.01-73.49-72.24-75.02-104.31,4.81-2.76,10.12-4.18,12.49-7.62ZM180.24,431.32c-2.1-3.14-2.06-7.72-1.95-12.19,14.51,14.16,34.02,22.1,45.48,41.14-17.72-6.31-33.32-13.7-43.53-28.95ZM191.21,449.19c-8.44,1.15-15.81,2.16-22.68,3.1v-17.81c6.11-3.51,6.07-3.47,10.81,1.84,3.68,4.12,7.48,8.13,11.87,12.88ZM164.7,362.63c.63-.75,1.19-1.57,1.49-1.97,3.94,4.86,7.65,9.35,11.24,13.93,1.19,1.52,2.45,3.16,3.03,4.95,4.89,15.03,9.63,30.1,14.22,44.55-6.08-2.78-14.44-10.04-18.1-16.67-3.96-7.17-10.26-14.08-10.53-21.96-.26-7.62-7.98-14.96-1.36-22.83ZM77.75,442.15c20.15-18.15,33.49-40.71,47.6-63.05,3.13,4.12,5.64,7.44,8.21,10.83-.95,2.48-2.71,5.09-2.72,7.7,0,2.39,1.89,4.78,3.26,7.87-5.5,1.23-10.78,2.4-16.04,3.58q1.54,7.66,8.44,13.06c-3.07,5.22-6.2,10.53-9.66,16.4,3.69,1.57,6.7,2.85,10.76,4.59-3.07,2.63-5.2,4.47-7.58,6.5.89,2.45,1.75,4.83,2.74,7.59-4.84,2.06-9.33,3.96-14.42,6.13,1.19,2.31,2.12,4.11,3.04,5.9-2.98,1.5-18.02-10.72-33.64-27.11ZM174.45,1091.01h-4.37v-.19h4.38c0,.06,0,.13-.01.19ZM184.25,834.24c-25.3-9.06-50.57-18.18-78.07-28.1,18.64,2.58,68,19.81,79.54,27.27-.5.3-1.12.96-1.47.83ZM188.19,1093.19c-.13-.21-.25-.42-.38-.63h6.65c0,.21,0,.42,0,.63h-6.27ZM204.46,1094.23c4.46.21,8.93.43,13.39.64-4.45.32-8.91.65-13.36.97-.01-.54-.02-1.07-.03-1.61ZM217.9,1094.88c5.5,1,11,1.99,16.5,2.99-5.56-.66-11.88,2.09-16.5-2.99ZM365.04,804.25c-1.59-1.46-3.18-2.92-4.77-4.38.23-.25.46-.49.69-.74,1.57,1.48,3.13,2.97,4.7,4.45-.21.22-.41.44-.61.66ZM358.53,732.95c-3.37-3.69-6.6-7.51-9.73-11.4-10.81-13.44-23.01-25.04-40.26-30.12-.14-2-.64-3.7-.3-5.22,2.24-10.1-2.51-16.56-10.71-21.42-10.31-6.12-20.6-12.27-30.82-18.53-14.31-8.76-27.1-19.33-37.76-32.36-1.23-1.5-2.17-3.24-3.66-5.5,26.35-13.89,54.16-15.5,84.32-12.83-16.2-9.09-39.02-8.21-76.06,1.84,2.68-6.4,9.93-15.56,19.82-23.26,7.96-6.2,16.57-11.58,26.37-18.34-22,5.49-36.12,19.47-50.96,35.05-1.93-11.06.94-20.6,1.97-30.1,1.03-9.51,3.37-18.89,3.73-28.82-1.88,5.62-3.99,11.17-5.56,16.87-1.69,6.09-3.01,12.28-4.24,18.48-1.21,6.12-2.11,12.31-4.65,18.76-2.02-6-4.04-11.99-6.06-17.99-.46.09-.93.18-1.39.27,1.25,8.36,2.5,16.72,3.75,25.08-15.37-15.18-29.99-30.14-51.33-36.42-.29-1.94-.87-3.87-.82-5.79.36-14.35-5.27-25.94-16.27-34.87-6.8-5.52-11.26-12.13-11.85-20.81,6.53-.99,13.05-1.98,21.05-3.2,2.06,1.85,5.26,5.75,10.69,2.81.9-.49,2.74.69,4.12,1.18.89.31,2.38,1.24,2.49,1.09,4.31-5.94,10.13-.8,15.12-2.08,6.75-1.73,11.19-7.33,10.06-14.18-.31-1.91-1.09-3.79-1.08-5.69,0-1.5.9-2.99,1.36-4.35-2.19-1.5-3.93-2.7-5.65-3.88,2.01-4.74,5.49-4.44,8.72-3.85,17.09,3.08,33,7.31,46.73,20.06,19.87,18.46,37.93,38.06,53.66,60.15,16.41,23.05,34.18,45.14,51.16,67.79,2.52,3.36,5.06,7.3,5.82,11.3,7.16,37.73,18.97,74.09,31.33,110.33,2.73,8.02,5.73,16.06,6.97,25.67-16.33-5.73-29.33-13.98-40.07-25.73ZM398.98,909.06c1.03-2.17,1.61-4.1,2.71-5.65,11.28-15.82,17.03-33.11,14.55-52.64,4.55,8.91,3.12,18.29.47,27.08-2.94,9.73-7.72,18.9-12,29.04,9.94,4.04,24.04,3.22,27.07,18.19-6.82-13.26-20.96-11.88-32.81-16.02ZM549.94,567.16c-8.46,58.61-23.81,115.21-50.19,168.46-10.39,20.99-23.43,40.19-40.44,56.34-11.13-7.41-21.29-14.19-32.04-21.35,1.16-1.54,2.58-3.57,4.15-5.47,24.3-29.58,39.29-63.96,50.34-100.1,6.3-20.63,10.94-41.79,15.82-62.83,1.64-7.07,4.39-13.15,9.31-18.38,11.82-12.56,26.51-20.77,43.11-28.92,0,4.8.46,8.6-.07,12.25ZM501.91,572.66c-.64-.39-1.28-.78-1.92-1.18,6.54-29.44,12.74-58.96,19.87-88.26,1.65-6.78,6.47-12.79,11.12-18.99,10.54,25.81,18.08,51.85,19.71,80.34-17.38,7.54-35.43,13.74-48.78,28.09ZM558.17,514.31c-2.25-7.29-3.95-14.79-6.66-21.9-2.82-7.42-3.37-14.77-2.2-22.5,1.04-6.89,1.92-13.83,2.4-20.79.39-5.66,3.16-9.28,8.03-11.61,5.36-2.57,10.77-5.06,15.91-7.47,6.77,5.6,9.01,5.51,23.27-1.33-13.93,30.46-29.53,58.64-37.62,92.13-1.69-3.48-2.64-4.94-3.13-6.53ZM611.17,561.41c-3.18,1.84-5.23,3.03-7.71,4.46v7.72c-2.94-1.11-5.34-2.02-7.8-2.95-.52-3.6-1.03-7.1-1.68-11.54-9.51,3.87-18.27,7.43-28.24,11.5.79,5.97,1.78,11.04,1.93,16.14.05,1.63-2.12,3.32-4.89,4.22,1.18-14.81,2.36-29.62,3.57-44.73,17.02-.6,29.86,8.07,44.82,15.19ZM593.67,530.67q3.92-6.89,10.77-3.86c-4.62,1.66-7.23,2.59-10.77,3.86ZM634.57,455.37c-2.27-3.61-4.45-7.09-6.64-10.57-.92.56-1.84,1.12-2.76,1.68-.43,3.75-.87,7.5-1.41,12.15-3.58-1.46-6.71-3.08-10.04-4.02-4.97-1.4-8.27,1.44-6.78,6.32,1.35,4.4,1.23,8-.39,12.3-.84,2.23,1,5.58,1.9,8.34,1.41,4.31,3.04,8.55,4.56,12.76-15.49,6.51-15.68,6.78-13.13,18.79-9.08,6.36-18.47,12.94-29.7,20.81.77-4.58.99-6.75,1.51-8.84,9.49-38.01,25.31-73.5,43.03-108.24,2.12-4.15,5.23-6.4,9.65-7.89,4.77-1.62,9.15-4.4,14.94-7.29,2.72,2.82,6.59,6.83,11.61,12.04-4.63,1.08-7.33,1.72-9.89,2.32-.2.96-.59,1.66-.42,2.19,1.71,5.27,6.84,9.52,4,16.24-.53,1.25,2.76,4.11,4.74,6.86,1.01-1.22,1.97-2.37,2.53-3.05,6.36,1.31,12.42,2.55,18.2,3.74,6.21,17.3,6.26,18.1,1.68,26.21-3.99-4.09-8.04-8.24-12.58-12.9-1.6,3.29-2.73,5.62-4.53,9.33-2.69-2.99-4.91-5.46-7.27-8.09-1.1.56-2.25,1.15-3.58,1.83-1.76-2.42-3.55-4.89-5.61-7.72-1.25,1.61-2,2.59-3.63,4.69ZM647.23,505.85c-2.82-4.99,1.45-11.07-3.41-15.03-.32-.26,1.85-3.59,4.25-8.11,2.12,4.08,3.46,6.65,5.27,10.13-4.52,2.13.55,9.97-6.11,13ZM653.32,522.46c3.57-4.28,7.86-1.36,12.15-1.57-4.27,7.62-4.92,7.68-12.15,1.57ZM690.22,510.11c-.71,2.99-1.7,5.92-2.87,9.91-6.11,3.37-11.9,11.17-23.12,6.82,3.03-1.43,5.17-2.59,7.41-3.48,13.14-5.19,17.48-12.93,15-27.29-.59-3.43-1.73-6.77-3.04-11.77,4.96,2.28,7.35,4.19,6.72,8.84-.38,2.77,1.23,5.76,1.25,8.65.02,2.77-.71,5.58-1.36,8.31ZM677.7,463.37c1.2-10.85,2.17-19.55,3.27-29.41,4.64.3,8.63.56,13.83.9-4.86,9.89-4.56,21.17-17.1,28.51Z"/>
      <path class="cls-1" d="M908.37,1115.96c-2.64.72-5.24,1.73-7.93,2.11-12.5,1.75-24.9,3.23-36.67,8.74-5.44,2.55-12.31,2.57-18.57,2.79-15.95.54-31.92.44-47.88.81-8.09.19-15.02-2.34-20.96-7.72-8.75-7.94-10.91-22.2-4.24-31.85,1.63-2.36,5.24-3.93,8.23-4.64,3.82-.91,7.93-.78,11.92-.76,22.29.11,44.58.37,66.88.49,7.43.04,13.63,1.4,16.79,9.55.99,2.54,4.7,4.41,7.55,5.76,5.39,2.55,11.17,4.29,16.59,6.79,3.09,1.43,5.8,3.69,8.67,5.58-.13.79-.26,1.58-.4,2.36Z"/>
      <path class="cls-1" d="M368.1,342.11c.68-3.47,1.35-6.94,2.03-10.41,4.09,4.4-.8,7.05-2.03,10.41Z"/>
    </g>
  </g>
</svg>