<?xml version="1.0" encoding="UTF-8"?>
<svg id="Layer_2" xmlns="http://www.w3.org/2000/svg" xmlns:xlink="http://www.w3.org/1999/xlink" viewBox="0 0 1423.62 953.76">
  <defs>
    <style>
      .cls-1 {
        fill: url(#linear-gradient);
      }
    </style>
    <linearGradient id="linear-gradient" x1="509.42" y1="857.97" x2="1434.87" y2="-252.09" gradientUnits="userSpaceOnUse">
      <stop offset="0" stop-color="#fee5d1"/>
      <stop offset=".7" stop-color="#fff3e9"/>
    </linearGradient>
  </defs>
  <g id="Layer_1-2" data-name="Layer_1">
    <path class="cls-1" d="M626.29,875.12c-.58-2.24-1.17-4.48-2.05-7.89,11.62,3.5,17.37,10.89,21.5,21.57,2.25-8.58,5.76-15.41-.91-22.92-3.27-3.68-4.35-9.42-6-14.37-.36-1.09.74-3.27,1.82-4.03.81-.57,3.22-.18,3.94.64,2.52,2.86,4.63,6.09,6.54,8.71.41-4.69.89-10.19,1.37-15.69.67.05,1.33.09,2,.14-.41,6.94-.83,13.89-1.26,21.2,5.59-7.83,9.53-17.53,21.76-18.98-2.42,10.46-6.12,18.84-15.11,23.42-3.88,1.98-5.44,4.91-6.6,8.65-2.63,8.51-5.4,16.97-8.24,25.81,7.84-4.74,10.39-17.02,22.64-15.53.24,8.98-4.4,14.81-11.45,19.01-3.68,2.19-7.59,4.3-11.68,5.44-4.08,1.14-5.23,3.23-4.32,8.15,2.31-1.15,4.34-2.15,6.35-3.16,2.02-1.01,4.18-3.08,6.02-2.83,3.79.52,7.33,2.38,7.64,7.13.15,2.25.29,4.5.51,7.84,2.05-3.35,3.69-5.91,5.22-8.53,2.33-3.97,6.14-4.7,8.34-.77,1.9,3.4,1.97,7.82,2.82,11.62,1.71-2.65,3.92-6.07,6.48-10.04,6.56,2.94,6.44,11.97,12.67,15.82-.7-3.71-1.33-7.01-2.13-11.24,4.02,2.24,7.11,3.96,10.84,6.04-1.85-6.02-3.53-11.49-5.21-16.96l.61-.4c4.66,6.07,9.32,12.15,13.97,18.22-1.86-16.79-2.49-33.43-11.26-48.14,9.29,8.3,17.02,17.44,21.11,29.14,1.16,3.32,2.76,6,7.32,6.33.02-11.6-.57-22.99-5.98-33.33-3.66-7-8.51-13.38-12.72-20.11-6.41-10.23-12.86-20.45-19.05-30.82-3.98-6.67-7.54-13.59-11.45-20.69,11.89,6.27,23.12,13.59,30.02,25.41,6.69,11.45,12.06,23.67,17.92,35.39.26-3.29.52-7.14.87-10.99.82-9.1,2.01-18.18,2.45-27.3.51-10.52-3-20.25-7.34-29.64-.74-1.61-2.23-2.86-3.35-4.3-3.93-5.09-8.52-9.81-11.62-15.37-4.67-8.38-8.32-17.34-12.33-26.09-.66-1.44-.89-3.08-1.59-5.61,10.77,5.38,19.29,11.65,25.78,20.88,6.6,9.38,5.83,20.78,9.08,31.05.51,0,1.02,0,1.53,0,1.42-11.79,3.38-23.55,4.07-35.38.53-9.09-.32-18.23,3.63-26.77.31.29.61.58.92.87,1.73-1.06,3.42-2.21,5.2-3.18,4.17-2.25,8.36-4.48,12.65-6.48.31-.14,2.3,1.75,2.18,2.49-1.58,10.1-4.09,20.04-11.41,27.6-7.4,7.65-9.67,17.08-11.41,26.99-2.31,13.16-3.79,26.27-2.33,39.7.55,5.1-.7,10.4-.69,15.71,7.35-18.48,10.58-39.02,26.7-52.83,7.72-6.61,16.16-12.38,23.84-18.2-5.02,9.14-10.43,18.15-15.01,27.56-5.52,11.34-12.7,21.36-21.19,30.61-11.82,12.87-16.95,28.3-16.46,45.63.23,8.31.55,16.63,1.41,24.89.21,1.97,2.78,3.7,4.26,5.53,1.17-1.69,3.11-3.26,3.38-5.08,3.73-24.94,11.92-48.53,21.36-71.75.42-1.02,1.08-1.94,2.1-2.77-5.41,29.44-12.17,58.61-14.13,88.55,9.13-35.43,24.03-67.37,53.83-90.6-.73,1.06-1.41,2.16-2.21,3.18-.92,1.18-2.03,2.21-2.92,3.41-7.65,10.37-13.51,21.57-17.24,34.01-2.17,7.26-5.97,14.02-8.64,21.14-2.61,6.95-4.73,14.08-6.22,21.6,1.98-3.21,4.15-6.33,5.9-9.66,13.21-25.16,34.15-42.14,58.64-55.24,4.42-2.36,9.66-3.21,14.87-3.96-35.62,21.48-58.53,53.18-76.13,89.37.46.39.93.78,1.39,1.18,3.82-4.82,7.58-9.68,11.46-14.45,14.63-18.02,31.51-33.39,52.42-43.87,3.39-1.7,7.2-2.56,11.12-3.14-21.28,15.18-39.79,32.88-55.35,53.8,17.35-13.68,33.98-28.46,56.66-32.86-15.95,10.01-32.34,19.37-45.05,33.9,13.8-9.54,28.98-15.32,45.9-17.09-13.06,7.45-24.99,16.1-33.22,30.35,9.22-4.76,17.29-8.92,25.36-13.08.28.46.56.93.84,1.39-4.15,3.5-8.31,6.99-12.46,10.49.3.59.61,1.19.91,1.78,4.28-1.83,8.78-3.27,12.78-5.58,8.94-5.18,17.62-10.79,26.41-16.23.49.48.98.97,1.48,1.45-4.22,6.14-8.44,12.28-12.73,18.52,10.44-3.61,21.12-7.1,31.64-11.01,4.85-1.81,9.21-1.88,13.69.74,2.98,1.74,6.11,3.24,9.17,4.84,1.43-8.97-2.46-16.63-10.36-20.72-4.69-2.43-9.28-5.07-14.11-7.72,2.2-6.71,7.82-2.73,11.68-4.6-.2-1.44-.45-3.24-.93-6.77,5.07,3.43,8.91,6.03,13.32,9.01.35-.56,1.86-1.82,1.83-3.05-.24-8.46-2.57-15.94-10.48-20.66-5.96-3.55-10.51-8.11-9.48-15.89,9.49-1.42,12.93,5.84,18.11,11.42-1.14-4.98-1.74-10.18-3.66-14.84-.87-2.1-4.24-3.42-6.73-4.53-3.88-1.73-7.98-2.98-12.95-4.78,6.72-5.31,10.94.78,17.32,2.03-2.08-3.99-3.66-7.02-5.56-10.64,1.74.33,3.52.67,5.3,1.01-9.15-5.84-17.51-12.18-19.59-23.8,9.38.21,14.56,4.23,17.16,13.2.23.78.44,1.95.99,2.2,6.29,2.84,6.5,8.59,7.78,14.44.3-1.22.99-2.49.83-3.65-1.01-7.68-.61-8.52,6.4-11.48,1.29-.54,2.65-.9,5.62-1.88-2.67,5.4-4.72,9.44-6.68,13.52-1.64,3.43-3.71,6.69-5.24,10.16-1.48,3.35-1.77,5.55-.58,8.66.23-.99.46-1.98.7-2.96l.62-.05v16.12c.97-6.77,4.08-12.19,8.96-16.63.65-.59,2.31-.08,5.05-.08-8.14,10.26-16.22,19.31-12.14,32.67,2.6-6.26,4.57-13.07,11.91-16.52-.22,6.46-1.8,11.97-5.87,16.28-5.02,5.32-6.84,11.11-4.15,18.11,2.6-2.48,5.32-5.09,8.05-7.7.36.31.73.62,1.09.93-.94,5.57-1.63,11.12-5.79,15.71-3.98,4.39-1.55,9.29-.4,14.71,3.09-1.43,5.84-2.7,9.17-4.24,2.62,2.16,5.51,3.56,9.31-.54,1.41-1.52,5.83-.25,9.88-.25.08-.81.27-2.89.59-6.26,1.96,5.12,2.56,10.75,8.47,9.34.62-1.95,1.16-3.65,1.7-5.35,2.43,1.83,4.86,3.65,7.66,5.75-.78.52-.37.31-.39.25-2.41-7.14-3.17-15.14-11.11-19.23-5.89-3.03-8.22-8.86-10.37-14.87,8.41-1.17,12.46,5.36,17.83,10.77,1.62-7.09,2.09-13.7,8.09-17.41l1.66.51c-1.9,6.83-3.8,13.65-5.61,20.14,3.23-1.74,6.77-3.66,10.5-5.67,1.83,6.25.38,7.48-11.43,10.97.94,3.97,1.87,7.92,2.83,11.98,2.23-1.67,4.52-3.38,6.81-5.09.39.29.78.58,1.16.87-2.14,4.11-4.28,8.23-5.99,11.52,3.2.22,6.88.56,10.56.68.84.03,1.84-.5,2.53-1.07,2.83-2.33,5.78-2.88,9.22-1.37,4.02,1.76,7.95,3.81,12.6,1.1,1.5-.87,4.1-.7,5.89-.09,5.1,1.75,10.03,4.28,15.46-.61-8.5-9.42-17.58-19.47-26.84-29.73,8.64.12,16.03,5.54,33.27,23.02-1.78-4.67-3.12-9.57-5.42-13.97-4.46-8.51-9.52-16.71-14.21-25.1-1-1.8-1.46-3.9-1.4-6.2,11.06,10.15,18.03,22.75,24.25,36.14-5.12-19.27-10.23-38.54-15.58-58.69,11.51,13.66,17.86,28.72,21.85,45.01.99-19.05.32-37.85-6.12-56.72,8.34,4.89,14.23,26.79,13.18,66.41,8.74-24.73,1.46-50.55,5.31-75.67,2.8,13.16,3.67,26.53,3.01,39.83-.66,13.39-2.83,26.7-3.51,40.21,6.84-22.25,7.78-46.12,18.56-67.16.69.16,1.38.33,2.07.49-3.4,15.03-6.8,30.06-10.09,44.62,2.17-4.46,4.16-9.69,7.12-14.31,2.95-4.61,6.88-8.6,11.19-12.29-9.4,15.31-15.37,31.73-19.04,49.19,6.37-10.09,12.66-20.11,25.26-23.35-6.6,7.46-12.85,15.09-18.28,24.65,6.08-4.56,11.11-8.33,16.14-12.11.33.38.67.76,1,1.13-5.75,6.96-13.43,12.76-14.57,23.43,6.42-3.65,15.45-.9,17.01-12,.48.54.97,1.09,1.45,1.63,1.02,1.84,2.03,3.68,3.18,5.76.73-.42,1.47-.84,2.14-1.22.68,2.84,1.34,5.57,2.1,8.76,4.35-4.21,7.96-4.52,11.84-1.09,2.58,2.29,4.92,3.67,8.46,2.09,1.04-.47,2.96.04,4.02.76,3.93,2.66,7,2.27,10.14-1.63,1.52-1.89,3.05-3.77,5.12-6.32.84,2.52,1.37,4.12,1.9,5.72.12-.48.25-.95.37-1.43,11.41,1.25,22.82,2.5,35.14,3.85-21.28-11.97-42.56-22.44-65.16-30.45,20.13-4.37,38.52,1.39,57.07,10.73-16.89-19.17-41.14-26.84-58.68-43.53,27.64,7.03,50.44,22.34,71.28,41.04.41-.39.82-.78,1.22-1.17-9.33-11-18.55-22.1-28.02-32.98-9.74-11.18-19.92-21.97-29.55-33.24-9.58-11.2-21.2-19.84-34.06-27.06.32-.53.63-1.06.95-1.59,2.71.74,5.45,1.39,8.13,2.23,21.4,6.73,38.91,19.37,53.39,36.17,10.08,11.7,19.48,23.99,29.19,36.01.7.86,1.46,1.67,2.2,2.5.37-.24.75-.48,1.12-.72-11.38-18.3-21.98-37.14-34.37-54.73-12.36-17.55-26.51-33.84-39.06-51.53,4.62,4.03,9.09,8.27,13.9,12.07,16.45,12.98,28.57,29.6,39.42,47.17,6.84,11.08,12.68,22.78,19.71,33.83-6.13-12.19-12.24-24.39-18.4-36.57-6.29-12.43-12.36-24.98-19.03-37.21-6.51-11.93-13.66-23.51-20.52-35.24.73-.45,1.45-.9,2.18-1.35,17.96,23.64,39.53,44.75,49.41,74.04.47-.24.95-.47,1.42-.71-2.54-6.18-5.11-12.34-7.62-18.53-2.52-6.22-4.97-12.48-6.81-17.11.4-2.35.9-3.39.67-4.23-4.32-16.31-8.72-32.6-13.09-48.89-.16-.61-.23-1.25.52-2.24,9.99,19.78,21.22,39.05,29.61,59.48,8.42,20.49,14.01,42.14,20.85,63.28.43-.06.86-.11,1.29-.17-.89-8.14-2.1-16.25-2.6-24.41-1.19-19.27-1.8-38.57-3.14-57.83-.87-12.57-2.52-25.08-3.99-37.6-.49-4.23-2.31-7.41-7.27-8.09-2.79-.38-5.43-1.87-8.45-2.04,2.64,1.23,5.28,2.47,8.99,4.21-13.06-1.66-20.95-8.97-27.54-18.14,2.33-1.5,2.3-1.42,13.09,2.41,4.61,1.63,9.37,2.83,14.85,3.46-2.32-2.29-4.44-4.85-7.02-6.81-4.62-3.53-9.57-6.63-14.27-10.05-1.59-1.16-3.43-2.51-4.13-4.19-.74-1.79-.88-4.4-.05-6.03.47-.93,3.57-1.18,5.19-.72,3.88,1.1,7.58,2.81,11.96,3.26-3.15-2.26-6.29-4.51-9.44-6.77-1.48-1.07-3.21-1.94-4.35-3.3-.97-1.16-1.26-2.89-1.85-4.37,1.63-.45,3.23-1.19,4.88-1.3,3.1-.21,6.23-.06,9.62-.06-1.05-9.89-9.57-19.22,1.76-28.8,3.58,6.37,7.1,12.67,10.61,18.92,2.84-3.25,6.11-7,9.6-11,3.16,4.02,3.46,7.51,1.76,11.06-2,4.19-4.33,8.22-6.41,12.37-.71,1.42-1.11,3.01-1.64,4.52.44.23.87.45,1.31.68,4.67-7.02,9.35-14.05,14.02-21.07.72.28,1.43.56,2.15.83-.74,3.65-.99,7.5-2.33,10.91-2.48,6.31-5.58,12.38-8.45,18.54-.42.9-1.22,1.68-1.43,2.6-.29,1.3-.19,2.68-.25,4.03,1.16-.65,2.6-1.05,3.43-1.98,2.98-3.35,5.58-7.05,8.68-10.27,1.62-1.68,4-2.63,6.03-3.91.57.34,1.14.68,1.71,1.02-1.09,3.41-1.5,7.29-3.42,10.14-4.36,6.43-9.46,12.34-14.08,18.78,9.29-5.26,16.12-14.51,27.15-17.83.46,6.71-3.02,11.07-6.76,14.94-4.37,4.53-9.22,8.64-14.11,12.63-4.17,3.4-6.67,7.57-6.45,12.87.6,14.14,1.37,28.27,2.27,42.39,1.11,17.26,2.43,34.51,3.63,51.77.46,6.59.81,13.19,2.3,19.89,3.77-24.28,7.53-48.55,11.3-72.83.36-.09.73-.17,1.09-.26,1.1,3.97,3.05,7.92,3.15,11.92.37,14.98.86,30.01-.11,44.94-.8,12.36-3.61,24.59-5.51,36.88-.15.97-.14,1.96.59,3.16,2.81-8.94,5.86-17.81,8.39-26.82,6.13-21.82,11.85-43.76,18.09-65.55,1.83-6.38-.48-10.91-4.39-15.36-3.72-4.23-7.83-8.26-10.78-12.99-1.89-3.03-1.98-7.18-2.88-10.82.65-.32,1.29-.65,1.94-.97,5.48,4.79,10.97,9.58,16.52,14.44-.74-7.59-11.71-12.45-6.71-21.45.68-.33,1.37-.67,2.05-1,3.76,5.53,7.51,11.05,11.27,16.58-1.65-11.54-9.75-21.07-9.17-33.54,7.18,2.57,9.47,9.06,13.78,14.87-.79-7.91-9.63-14.64-1.26-22.73,2.46,4.01,4.6,7.51,6.76,11.04,6.59-3.43,7.05-13.51,15.46-14.78,5.86,8.93-.76,15.65-3.93,23.98,3.59,0,6.46-.14,9.31.05,1.84.13,3.65.74,5.47,1.14-1.17,1.34-2.12,3.04-3.57,3.96-3.64,2.31-7.58,4.15-11.24,6.43-1.84,1.15-3.32,2.85-4.97,4.3l.82,1.21c1.05-.5,2.1-1.01,3.14-1.51,2.98-1.43,5.84-3.32,8.98-4.1,1.6-.4,4.5.7,5.33,2.04.67,1.08-.3,4.44-1.54,5.24-8.05,5.19-16.37,9.95-24.61,14.85-.96.57-1.9,1.16-2.85,1.75.13.41.25.82.38,1.23,9.87-2.21,19.73-4.42,30.08-6.73-6.71,8.3-14.79,13.34-24.6,15.14-7.34,1.34-11.59,5.51-14.42,12.15-6.95,16.3-9.83,33.64-13.77,50.74-1.37,5.95-3.63,11.68-5.33,17.56-.95,3.3-1.6,6.68-1.94,10.34,18.24-37.65,46.32-64.61,85.68-79.61-15.79,12.27-29.17,26.68-39.75,45.21v-4.19c-5.75,6.9-11.24,13.48-17.4,20.87,1.95-.52,2.89-.77,4.99-1.34-8.05,13.56-20.81,22.35-26.63,36.24,8.1-8.06,15.94-16.4,24.34-24.12,14.3-13.15,31.16-21.19,50.52-23.77,5.09-.68,10.13-1.74,15.24-2.2,1.77-.16,3.66,1,5.59,2.47-31.48,10.54-56.83,30.05-81.59,50.52.22.49.43.97.65,1.46,1.1-.37,2.33-.54,3.27-1.15,11.03-7.15,22.26-13.78,35.08-17.41,14.07-3.99,27.89-3.57,41.6,1.28,1.79.63,3.38,1.86,5.63,3.14-9.72,1.77-18.64,2.28-26.76,5.1-19.27,6.7-38.39,14-55.19,26.05-.87.62-1.62,1.41-2.3,2.42,16.08-5.7,31.96-12.16,50.29-7.63-7.53,4.47-15.2,5.33-22.87,5.83-9.27.61-16.68,5.62-24.54,10.29h35.25l.04,2.07h-14.51c.06.16.12.31.18.47,6.39,1.7,12.77,3.4,19.16,5.09.31.08.74.11.98-.05,4.96-3.29,10.2-3.66,15.8-1.88.4.13,1.49-1.34,2.01-2.21,2.77-4.64,8.65-5.82,12.66-2.01,2.66,2.53,4.98,2.33,8.41,1.95,6.7-.74,13.73-1.17,19.87,3.03.56.38,1.49.23,2.86.4-1.61-10.39-11.38-12.86-16.87-19.45,5.86-2.34,10.42.33,14.36,3.85,3.84,3.43,7.09,7.53,11.45,10.85-4.63-8.59-9.26-17.19-13.89-25.78.27-.19.54-.39.81-.58,5.71,7.65,11.42,15.29,16.81,22.51.56-6.77,1.18-14.28,1.8-21.8.58-.04,1.16-.09,1.74-.13,1.18,6.89,2.36,13.78,3.55,20.68,4.86-11.22,9.48-22.41,21.79-27.77-6.14,12.38-16,22.89-18.46,37.25,7.12-7.7,14.41-14.81,27.06-14.57-6.89,5.26-12.95,9.89-19.73,15.06,10.53,1.06,19.87,1.99,29.22,2.93.05.71.1,1.41.15,2.12-2.01.3-4.02.85-6.03.86-35.5.06-71,.07-106.5.07-431.33,0-862.65,0-1293.98,0H0c.61-3.89.78-7.61,1.82-11.08,2.59-8.69,4.15-9.42,13.27-7.38.13-2.69.05-5.42.46-8.07.92-6.05,3.4-7.15,8.78-4.12.85.48,1.63,1.08,2.35,1.56,4.3-2.99,3.6-6.55,2.02-10.49-3.61-9.04-9.13-16.09-18.7-19.4-2.29-.79-4.38-2.17-6.81-3.41,6.37-1.4,11.64-.71,18.08,3.09,5.24,3.09,10.14,6.76,15.15,10.13,5.49-4.58,3.87-9.4-.05-13.37-9.23-9.32-18.86-18.24-28.34-27.31-.56-.54-1.22-.98-2.05-1.64,9.82-1.53,22.21,7.36,39.34,26.73-1.84-4.71-3.6-9.46-5.53-14.13-2.03-4.9-4.21-9.74-6.35-14.59-2.07-4.7-4.06-9.45-6.31-14.07-2.3-4.74-4.87-9.36-7.74-14.83,2.91,1.72,5.13,3.04,7.36,4.36.33-.52.66-1.03.99-1.55-3.31-4.42-6.62-8.83-9.93-13.25.55-.39,1.1-.79,1.65-1.18,13.66,14.01,23.74,30.73,35.48,46.66-.99-3.97-1.67-8.06-3.06-11.89-1.39-3.83-3.5-7.4-4.56-11.65,2.12,2.74,4.24,5.49,6.36,8.23.6-.37,1.21-.75,1.81-1.12-3.89-6.6-7.77-13.2-11.75-19.96,4.94.8,12.76,10.21,16.04,20.23,2.75,8.39,4.57,17.08,7.44,25.48v-28.78c.22-.15.44-.29.66-.44,3.14,6.75,6.27,13.51,9.51,20.48,3.94-4.05,8.05-5.13,13.17.84-4.93-11.16-5.07-22.32-11.94-30.87-6.77-8.43-13.7-16.72-20.81-25.39.63-.86,1.37-1.87,2.18-2.96.5.32.91.53,1.24.82,3.96,3.49,7.92,6.98,11.84,10.51.59.53,1.54,1.52,1.38,1.88-2.28,5.16,3.52,5.84,5.55,8.85-.53-3.67-.45-7.57-1.73-10.97-2.67-7.1-5.61-14.19-9.29-20.81-3.61-6.49-6.77-6.7-16.36-3.28-1.51.54-4.56.82-4.72.4-.71-1.88-1.22-4.25-.64-6.06.49-1.51,2.46-3.23,4.03-3.52,2.3-.43,4.82.34,7.64.65-1.04-1.79-2.02-3.46-2.53-4.34-5.34,1.31-10.43,3.6-15.45,3.46-3.72-.11-2.49-3.64-1.14-5.04-.8-2.25-1.5-3.95-1.99-5.7-.35-1.25-.16-2.71-.69-3.85-1.32-2.81-2.93-5.49-4.04-8.88,6.5,1.95,14.18-.1,18.94,6.49,1.27-3.77,2.6-7.73,4.08-12.13,4.18,2.32,5.25,4.3,2.71,7.27-.64.75-1.46,1.56-1.65,2.45-.48,2.31-.65,4.68-.94,7.03,1.86-.42,3.71-.85,5.57-1.27.62-.14,1.24-.28,2.13-.48,1.1,3.38,1.77,6.23-3.09,6.91,6.28,10.41,12.43,20.6,19.02,31.51.79-5.62,1.51-10.75,2.24-15.89.56.02,1.12.05,1.67.07.07,1.19.29,2.4.17,3.58-1.27,13.08-3.25,26.28,2.67,38.74,2.11,4.44,5.61,8.22,9.48,12.4.53-9.15,8.49-4.03,12.09-7.93-3.4-7.31-7.41-14.61-10.25-22.33-4.16-11.29-7.38-22.93-11.25-34.33-1.2-3.54-3.08-6.89-4.94-10.16-2.86-5.03-5.92-9.95-9.03-14.83-1.04-1.63-2.53-2.98-3.77-4.5-.68-.84-1.98-2.03-1.76-2.61,1.42-3.92-1.65-5.04-3.96-5.52-1.72-.36-3.81,1.25-5.78,1.8-2.98.84-6.01,1.54-9.2,2.34v-13.05c4.94,1.02,9.36,1.93,13.78,2.84.18-.8.36-1.6.54-2.4-5-1.33-10-2.66-15.43-4.1q-1.6-4.86,4.56-6.8c2.23,1.6,4.11,2.95,6,4.31-1.02-6.64-10.08-8.81-7.63-16.77,7.62-1.79,11.49,1.59,10.94,9.26-.11,1.6.91,3.28,1.88,6.47,1.7-6.57,5.26-9.05,10.2-9.34,1.09-.07,2.27,1.26,3.41,1.94-.74,1.04-1.39,2.16-2.24,3.09-.4.44-1.2.51-1.82.76-8.44,3.29-8.86,4.33-5.43,12.18,1.79-2.71,3.16-6.55,5.88-8.47,4-2.81,6.3,1.38,9.7,5.09-3.02,0-5.14.37-7.07-.09-2.75-.66-3.94.28-3.76,2.84.18,2.62.17,5.51,1.27,7.77,4.8,9.83,9.96,19.47,15.04,29.16.41.78,1.15,1.39,2.06,2.45,4.02-20.21.23-38.97-5.96-57.47-.84-2.52-1.69-5.04-2.69-7.5-2.21-5.44-3.1-5.8-8.58-3.71-5.68,2.16-7.95,1.48-9.75-2.84-1.38-3.29-.58-5.44,3.2-5.19,3.3.22,6.55,1.18,9.84,1.67.66.1,1.42-.46,2.22-.74-2-5.45-5.74-7.52-11.18-7.14-1.6.11-3.36-.11-4.84-.7-3.77-1.49-4.39-3.96-2.14-6.79h9.93c.14-.54.28-1.09.41-1.63-1.87-.66-3.81-1.17-5.59-2.02-1.77-.85-3.37-2.05-5.05-3.09,1.19-1.83,2.02-4.41,3.7-5.25,1.29-.64,3.87.61,5.51,1.61,1.74,1.07,3.05,2.84,3.87,3.65,4.35-3.13,7.87-5.65,11.39-8.19q3.47,5.02-5.78,14.04c.97.35,1.72.62,2.29.82-.72,3.46-1.44,6.93-2.16,10.39.41.23.83.46,1.24.7,2.5-6.31,6.03-11.53,13.99-13.39.72,1.74,2.7,4.21,2.15,5.82-.69,2.05-3.18,4.02-5.35,4.93-3.72,1.57-7.99,2.12-6.63,8.76,1.86-2.11,2.87-4.09,4.46-4.85,2.45-1.16,5.3-1.48,7.97-2.16-.29,2.46-.59,4.93-.9,7.52q-7.2-1.93-8.36,4.3c-1.57,8.47,1.51,13.11,9.87,15.09-1.48,3.7-3.95,7.36-4.18,11.16-.25,4.12,1.58,8.37,2.77,13.76,2.7-6.25,4.95-11.44,7.19-16.64-6.81,27.64-15.34,54.72.84,81.49.76-.04,1.52-.07,2.28-.11-.91-8.08-1.82-16.16-2.73-24.23.52-.11,1.05-.22,1.57-.33,1.02,4.88,2.04,9.76,3.04,14.57,6.91-14.82,1.48-29.06-2.69-43.65,3.79,1.88,3.81,1.88,5.62,9.58.9,3.8,1.71,7.63,2.56,11.45.48.03.96.05,1.44.08,1-5.23,2.67-10.43,2.87-15.69.44-11.55,1.84-23.39-4.29-34.11-2.22-3.88-5.2-7.32-7.45-11.17-1.17-1.99-1.51-4.47-2.22-6.73.57-.24,1.15-.49,1.72-.73,5.63,7.64,11.27,15.27,17.51,23.74.67-6.69,1.62-12.2,1.57-17.69-.02-1.96-2.12-4.28-3.85-5.74-1.56-1.3-4.04-1.45-5.9-2.48-1.2-.66-2.02-2-3.02-3.03,1.4-.61,3.07-2.04,4.14-1.69,3.57,1.19,6.93,3.03,10.33,4.6-.19-2.57-1.35-4.58-5-5.04-2.23-.28-4.74-1.04-6.38-2.44-1.32-1.12-1.53-3.55-2.23-5.4,1.62-.27,3.24-.65,4.87-.75.72-.05,1.48.46,2.7.89-1.46-2.67-3.25-4.74-3.69-7.06-.49-2.63.24-5.49.44-8.26,2.66.51,5.33,1.01,8.81,1.67,2.36-1.34,5.82-3.49,9.47-5.21.59-.28,2.79,1.16,2.98,2.07.37,1.82.19,3.93-.38,5.72-.46,1.45-1.82,2.62-2.77,3.91.33.48.66.96.99,1.45,2.74-1.58,5.57-3.01,8.18-4.78,1.93-1.31,4.07-2.91,5.29-.05.74,1.74.47,5.16-.75,6.23-2.25,1.99-5.67,2.58-8.36,4.17-2.91,1.72-5.53,3.92-8.28,5.91.34.46.69.91,1.03,1.37,2.17-1.61,4.17-3.6,6.57-4.7,1.61-.73,3.83-.4,5.7-.07.47.08,1.19,2.52.79,2.95-1.13,1.22-2.71,2.08-4.23,2.88-2.52,1.34-5.59,2.03-7.58,3.91-2.3,2.17-.6,5.39,2.62,5.76,1.47.17,2.95.28,4.39.59.6.13,1.11.69,1.86,1.19-.73,3.6-2.97,5.3-6.57,5.16-3.27-.13-5.64.99-6.19,4.39-2.36,14.53-4.63,29.08-6.92,43.62.52.27,1.04.54,1.56.8,1.77-1.03,3.68-1.87,5.27-3.11,5.99-4.71,11.71-9.79,17.88-14.25,3.74-2.71,4.04-5.47,2.47-9.38-.93-2.33-1.12-4.96-1.64-7.46,2.23.77,4.45,1.54,8.2,2.83-1.43-2.53-2.2-4.43-3.43-5.97-3.04-3.85-3.12-7.04.49-9.58,3.43-2.41,5.86-.12,7.99,2.43.63.75,1.14,1.59,1.94,2.74,2.83-1.07,5.73-2.17,9-3.41,2.27,1.35,5.21,3.1,8.36,4.97-.9,1.96-1.79,3.9-2.87,6.24,1.1.75,2.23,1.68,3.49,2.36,2.88,1.57,2.99,4.18,1.56,6.32-.88,1.31-3.29,2.21-5.02,2.22-4.7.04-9.41-.64-14.12-.69-1.47-.02-2.94,1.07-4.05,1.51,1.79,3.38,3.37,6.36,4.94,9.33-.43.41-.87.82-1.3,1.23-2.67-1-5.63-1.57-7.92-3.12-2.83-1.91-4.7-1.33-7.03.62-7.12,5.98-14.58,11.56-21.45,17.81-2.97,2.7-5.35,6.39-7.02,10.08-3.28,7.23-6.45,14.61-8.57,22.23-1.48,5.31-2.82,11.67-1.23,16.6,2.73,8.48-.25,18.24,8.2,26.18,2.39,1.31,6.61,3.64,11.11,6.11,3.62-14.46,1.61-28.89-4.21-43.03-.53-1.29-.7-2.73-.6-4.19,12.69,11.69,12.74,27.93,16.31,42.97,2.25-12.05,4.4-23.92,6.73-35.74.77-3.88,1.82-7.75,3.13-11.48,1.64-4.68,2.8-9.24.32-13.96-.15-.29-.38-.64-.32-.92,1.07-5.79,2.17-11.58,3.08-16.43,4.91-.28,9.25-.37,13.56-.81,4.11-.41,5.68,1.86,6.47,5.32.89,3.93-1.74,4.37-4.57,4.75-4.29.58-9.05.48-10.12,6.54,2.63-.96,5.41-1.49,7.64-2.89,2.75-1.73,4.18.36,5.44,1.61.86.85.47,2.96.64,4.5-1.84.07-3.86.66-5.48.1-5.21-1.78-7.84.02-9.14,6.03-1.57,7.21-3.64,14.32-5.37,21.5-.76,3.18-1.2,6.44-.78,10.14.81-.88,1.68-1.7,2.41-2.64,8.88-11.63,17.72-23.29,26.62-34.9,2.77-3.61,3.01-7,.43-10.93-2.3-3.51-3.99-7.43-5.95-11.17.37-.45.74-.9,1.11-1.35,3.58,2.76,7.16,5.52,10.6,8.17.87-5.64-9.13-9.63-2.95-17.6,1.94,2.83,3.47,5.06,4.44,6.47,2.65.21,4.89.39,6.17.49,2.22-2.97,4.11-6.22,6.7-8.77,2.95-2.91,5.38-.63,5.47,2.31.11,3.65-1.2,7.33-1.94,11.23,2.31,0,5.93.1,9.54-.03,4.2-.14,4.56,3.13,4.5,5.75-.03,1.49-2.16,2.93-4.15,5.41.74,2.8-1.61,3.66-5.71,3.85-6.06.28-12.11,1.21-18.1,2.22-1.37.23-2.79,1.69-3.69,2.94-4.35,6.04-8.53,12.2-13.11,18.82,10.6-1.19,20.73-2.33,31.55-3.54-.59-3.62-1.35-6.16-1.31-8.7.03-1.91,1.07-3.8,1.66-5.7,1.8.77,3.6,1.54,5.66,2.42,1.88-.37,4.34-.85,6.81-1.33.41,2.39.83,4.79,1.3,7.52,1.61-.49,3.99-1.22,6.73-2.06,1.21,5.37,2.31,10.22,3.74,16.56-3.76-2.24-6.39-3.81-9.02-5.37-.18.24-.36.48-.54.72,1.9,1.7,3.8,3.41,6.11,5.48-2.08,1.9-3.77,3.44-6,5.48-3.3-4.02-6.43-7.83-9.56-11.65-.3.21-.59.41-.89.62,1.19,2.79,2.38,5.58,3.57,8.37-3.34,3.16-5.14,2.77-6.53-1.44-2.02-6.09-3.19-6.48-9.77-5.53-4.22.61-8.71-.37-12.86.45-8.85,1.76-17.45,4.51-23.14,12.31-2.45,3.35-4.47,7.01-6.88,10.39-3.93,5.52-6.85,11.27-5.05,18.76h6.53c1.15-2.16,2.12-4.55,3.58-6.59,1.85-2.57,4.29-3.32,7.35-1.52,4.13,2.44,7.17,2.21,10.06-2.69,4.05-6.86,8.48-6.3,13.35.29,1.32,1.79,4.04,2.54,6.09,3.75,1.76-2.08,3.27-4.03,4.96-5.81,2.92-3.06,5.73-2.62,8.33.78,1.01,1.32,2.97,1.9,4.12,3.16,1.55,1.69,3.16,3.55,3.96,5.64.65,1.68.13,3.81.13,6.04,4.76-1.93,8.94-3.63,14.24-5.77v14.23c-1.82.39-2.96.63-3.72.79,2.83,2.43,5.45,4.01,7.16,6.28,3.74,4.96,3.55,5.11,11.05,7.33v-34.26c.72-.06,1.43-.12,2.15-.18,1.72,12.69,3.44,25.37,5.2,38.28,2.52-3.61,5.8-7.2,7.71-11.41,1.36-3.01,1.07-6.85,1.19-10.32,1.07-30.63,2.33-61.25,2.99-91.89.44-20.34-4.83-39.5-15.1-57.03-12.38-21.12-21.92-43.46-30.23-66.4-4.31-11.89-9.93-23.08-17-33.66-6.71-10.06-13.26-20.35-18.6-31.17-9.46-19.13-25.52-31.14-42.76-42.08-3.01-1.91-6.66-3.06-10.18-3.86-16.79-3.83-28.31-13.9-35.53-29.27-.33-.69-.73-1.35-1.99-1.85.57,5.99,1.15,11.97,1.73,17.99-1.54-.46-3.77-1.13-5.92-1.78.63,6.53,1.28,13.22,1.96,20.32-8.03-2.15-10.75-8.14-13.96-14.18-.58,6.27-1.16,12.55-1.74,18.84-6.67-1.26-10.13-9.46-12.68-27.41v13.85c-5.1-9.11-6.07-18.82-5.15-28.89-.66-.03-1.33-.05-1.99-.08-1.4,3.05-2.8,6.1-4.19,9.16-.47.04-.94.08-1.41.12-.96-6.7-1.91-13.41-2.93-20.55-1.33,2.85-2.65,5.71-4.02,8.65-4.79-12.15-3.91-23.39,5.17-33.55,1.31-1.47,2.36-3.71,2.45-5.65.39-7.97,3.31-12.61,10.98-15.28,4.15-1.44,7.86-2.68,7.54-8.16-.06-1,.74-2.63,1.57-2.99,4.81-2.12,4.12-5.67,3.15-9.68-.87-3.59.86-6.11,4.29-7.42,4.53-1.73,4.7-4.78,3.07-8.81-2.73-6.76-.82-11.75,5.67-15.39,2.31-1.29,4.9-2.12,7.12-3.54,2.34-1.49,5.36-2.99,6.39-5.25,5.2-11.38,14.43-15.73,26.19-16.78,2.95-.26,5.95-1.7,8.61-3.16,3.26-1.78,5.94-1.87,9.73-.89,4.17,1.08,9.07,0,13.53-.84,8.83-1.64,16.98.77,24.89,3.89,4.75,1.88,5.38,6.77,5.61,11.3,10.8,4.27,13.15,7.86,15.1,22.29,4.65.86,9.12,1.31,13.33,2.6,2.94.9,5.45,3.11,8.29,4.45,3.93,1.86,8.3,2.98,11.88,5.33,2.69,1.76,5.83,4.73,6.3,7.57,1.03,6.17,4.11,9.81,9.2,12.98,12.7,7.91,21.05,18.69,20.64,34.57-.02.83.05,1.69-.12,2.49-.3,1.4-.76,2.76-1.24,4.46-1.19-.89-2.14-1.61-2.98-2.25-.27,5.19-.53,10.2-.79,15.21-.51.09-1.02.19-1.52.28-1.72-2.75-3.45-5.51-5.17-8.26-.32.11-.64.22-.97.34v19.5c-1.21-1.82-1.79-2.69-2.54-3.82-1.1,7.1-2.16,13.93-3.28,21.15-2.97-2.25-5.06-3.84-7.41-5.63-.75,1.81-1.16,2.81-1.57,3.8-.39.03-.77.05-1.16.08-.8-5.2-1.6-10.41-2.4-15.61-.26.02-.52.03-.78.05,0,3.39-.26,6.8.05,10.16,1,10.69-2.67,19.65-8.83,28.26-17.4,24.29-20.33,50.38-8.78,78.1,6.37,15.28,12.09,30.84,18.59,46.06,6.31,14.75,15.4,27.88,25.48,40.31.84,1.03,1.73,2.05,2.75,2.9,2.93,2.46,4.82,1.87,5.59-1.91,4.13-20.29,8.29-40.58,12.23-60.9,3.91-20.18,7.86-40.35,11.3-60.61,4.73-27.89,8.59-55.92,7.55-84.31-.51-14.06-3.75-27.56-11.55-39.67-7.01-10.88-13.66-22-20.61-32.92-11.1-17.42-26.66-30.32-44.33-40.18-18.81-10.5-31.51-26.1-42.2-44.02-1.6-2.68-3.76-5.06-5.88-7.37-4.96-5.39-10.07-10.64-15.09-15.98-6.03-6.42-13.4-9.48-22.12-11.21-7.45-1.47-14.41-5.54-21.5-8.64-2.17-.95-4.08-2.51-6.59-4.1,6.25,16.85,14.04,32.37,18.82,49.11-4.95-3.82-9.74-7.14-11.19-13.84-1.53-7.08-4.49-13.86-6.83-20.77-.48.11-.95.22-1.43.33-.45,4.32-.9,8.63-1.45,13.93-6.09-7.78-7.72-15.76-6.9-24.47-.59,0-1.18.01-1.77.02,0,3.21-.08,6.42.03,9.63.07,1.99.45,3.96.62,5.95.07.82.22,2.24-.13,2.41-6.97,3.32-1.5,8.46-1.94,12.69-.02.16-.09.32-.32,1.04-2.48-3.11-4.77-5.98-7.63-9.56.42,6.25.79,11.69,1.16,17.13-.78.19-1.57.39-2.35.58-2.09-4.14-4.17-8.27-6.29-12.45-1.41,7.09-2.82,14.22-4.23,21.34l-1.51.25c-1.98-3.64-3.96-7.29-6.41-11.78-.48,7.92-.91,15.04-1.35,22.19-4.6-.79-7.2-6.57-9.22-19.37-3.57,7.17-7.51,15.07-12.03,24.14-7.08-14.39-3.29-26.77,1.81-39.11-.41-.08-.83-.17-1.24-.25-2.38,3.7-4.74,7.41-7.16,11.07-.67,1.02-1.56,1.89-2.35,2.84-.98-.99-2.49-1.81-2.86-2.99-1.81-5.82-3.34-11.73-4.9-17.63-.46-1.72-.67-3.51-1.09-5.77-4.31,3.12-2.11,10.49-8.67,11.02-6.06-14.63-1.08-29.56-.66-44.4-.42-.18-.83-.35-1.25-.53-1.62,4.01-3.23,8.03-4.73,11.74-2.23-7.45-2.12-8.34.27-16.68.48-1.66.38-3.86-.33-5.41-2.64-5.82-2.66-11.72,1.31-16.45,4.65-5.54,10.31-10.26,15.7-15.14,2.33-2.11,5.46-3.42,7.5-5.73,1.38-1.55,2.44-4.46,1.98-6.36-1.43-5.97.28-10.26,6.33-12.39,3.89-1.37,7.94-2.45,12.01-3.11,4.12-.67,4.61-3.07,4.09-6.41-.59-3.79-2.83-8.5-1.37-11.2,2.9-5.36,7.75-9.69,12-14.26,1.06-1.14,2.89-1.55,4.34-2.35,4.26-2.34,8.55-3.63,10.24-9.84,2.16-7.96,8.86-10.3,17.3-7.87,3.01.87,4.63.64,6.56-2.09,3.88-5.49,6.66-5.94,12.68-3.13,1.63.76,3.25,1.51,4.87,2.27,4.56-9.55,13.21-12.28,21.81,5.45,5.09-1.82,8.56.64,12.57,3.96,6.2,5.14,13.13,9.65,22.04,8.74,1.14-.12,2.95.74,3.52,1.7,2.87,4.84,7.46,5.62,12.42,5.91,4.46.27,8.94.44,13.34,1.1,3.67.55,6.48,3.2,6,6.82-.79,5.9,2.87,7.56,7.03,9.09,7.7,2.82,14.67,6.92,18.63,14.21,2.36,4.33,3.63,9.51,4.22,14.44.28,2.3-2.22,4.94-4.41,6.99-.05.32-.21.68-.12.96,1.07,3.37,1.31,8.77,3.45,9.68,5.74,2.44,12.31,2.96,19.99,4.54-1-5.49-1.68-9.46-2.46-13.42-2.01-10.24-3.52-20.62-6.27-30.66-2.03-7.43-5.52-14.49-8.75-21.54-.99-2.15-2.97-4.26-5.04-5.41-8.66-4.81-13.71-12.3-16.98-21.31-.22-.61-.52-1.2-.86-1.76-.14-.24-.47-.38-1.58-1.22.65,7.34,1.23,13.95,1.96,22.19-5.42-8.43-10.08-15.69-14.42-22.43v14.22c-.44.17-.89.33-1.33.5-2.39-4.35-4.77-8.7-6.73-12.27-1.22,4.7-2.65,10.23-4.25,16.4-7.02-5.1-7.49-13.14-11.08-19.2-1.63,4.85-3.29,9.78-4.95,14.72-.66,0-1.32,0-1.98,0-1.5-6.73-2.99-13.46-4.58-20.59-2.8,3.16-4.85,5.47-6.89,7.79-.35-.21-.71-.42-1.06-.63v-7.61c-4.86-2.48-8.07-12.24-6.47-21.58-2.88,2.7-5.07,4.49-6.94,6.58-1.87,2.08-3.43,4.44-6.58,6.7,0-5.22-.39-10.48.08-15.66.95-10.57,5.85-19.31,13.77-26.27,4.39-3.86,5.25-8.59,3.31-13.55-4.97-12.73,2.79-22.2,13.25-25.77,3.04-1.04,4.6-2.49,6-5.97,1.39-3.46,6.08-6.5,9.97-7.85,8.17-2.83,15.83-5.46,19.3-14.55,1.96-5.13,4.47-5.87,9.44-3.64,3.83,1.71,6.94,2.81,10.64-.96,3.58-3.65,8.08-1.92,11.03,1.39,3.72,4.17,8.27,3.74,12.86,3.46,1.15-.07,2.48-1.36,3.27-2.42,3.81-5.1,6.18-5.82,11.83-2.77,4.31,2.33,8.38,5.13,12.7,7.43,1.37.73,3.23.53,5.68.87-1.99-6.68-2.68-12.74,2.05-17.16,4.28-4.01,9.34-7.26,14.36-10.35,1.1-.68,3.72.39,5.23,1.31,1.63,1,2.78,2.77,3.87,3.92,4.04-2.03,7.65-5.24,11.41-5.42,7.01-.33,13.7-1.73,20.54-2.8,5.84-.91,11.35,1.73,14.23,7.95.57,1.24,2.52,2.35,3.99,2.59,7.53,1.27,14.15,3.52,17.04,11.64.36,1,2.28,1.63,3.59,2.08,6.71,2.29,12.83,5.45,17.46,11.02,3.71,4.46,4.86,9.23,2.43,14.78-2.91,6.67-2.51,7.23,3.06,11.67,4.1,3.27,7.98,6.84,11.73,10.51.91.9.9,2.74,1.31,4.16,2.4-.25,4.92-.25,7.26-.88,1.14-.31,2.53-1.64,2.85-2.77,1.75-6.21,4.4-10.78,12.13-9.41,1.18.21,2.8-1.36,4.03-2.34,2.33-1.85,4.37-4.09,6.8-5.77,4.14-2.86,8.32-2.28,11.71,1.27,2.75,2.88,5.61,2.59,8.48.93,9.53-5.51,20.38-3.2,26.58,5.89,1.03,1.5,1.65,3.35,2.88,4.63,1.27,1.32,2.94,2.66,4.65,3.09,5.74,1.42,8.23,3.84,7.93,9.61-.26,4.96,1.78,7.38,6.47,8.34,7.82,1.61,15.05,4.78,20.19,10.99,2.49,3.02,4.12,7.08,5.11,10.93,1.15,4.49,4.06,6.94,7.85,8.16,8.27,2.66,13.34,7.69,15.96,16.19,1.52,4.92,5.59,8.99,7.86,13.76,2.26,4.75,4.48,9.76,5.27,14.88.6,3.94-.1,8.71-1.9,12.26-3,5.89.14,10.94.61,16.33.52,5.9,1.57,11.79-1.41,16.88-2.93-5.24-5.84-10.45-8.5-15.21-2.39,9.49-4.72,18.72-7.04,27.96-.61.04-1.23.07-1.85.11-1.65-5.18-3.3-10.35-5.33-16.73-.55,4.38-.85,7.66-1.4,10.9-.54,3.22-.77,6.67-2.17,9.51-1.49,3.02-4.2,5.44-6.43,8.18,2.75.83,5.4,1.69,8.09,2.42.87.24,2.17.56,2.71.13,5.71-4.55,12.57-3.49,19.09-4.34,2.37-.31,5.12-1.46,6.71-3.16,4.9-5.23,10.54-7.66,17.43-5.48,3.04.96,4.59.7,5.64-2.38,1.23-3.62,4.06-5.08,7.64-6.34,4.11-1.44,8.11-3.76,11.55-6.46,6.34-4.98,13.13-6.21,20.58-3.74,1.92.64,3.96,2.02,5.1,3.66,3.61,5.19,8.28,6.6,14.21,5.18,1.42-.34,3.13-.49,4.46-.03,7.75,2.71,15.43,5.63,23.12,8.5.45.17,1,.45,1.22.84,3.94,6.86,10.84,9.31,17.41,12.79,9.01,4.77,9.48,10.44,3.17,18.94,1.09,3.62,3.31,5.82,7.25,7.05,2.1.65,4.19,2.91,5.25,4.97,2.12,4.16,3.38,8.59,9.55,8.23,1.88-.11,4.49,1.12,5.69,2.61,2.8,3.48,5.73,3.67,9.87,2.86,11.61-2.26,20.41,5,20.83,16.86.1,2.89,1.18,4.01,3.87,4.7,15.65,3.99,18.55,22.41,13.08,32.24-.82,1.47-.56,3.74-.28,5.56.87,5.8,3.41,11.55-.14,18.19-3.7-4.08-7.08-7.82-10.36-11.45-.31,2.22-.72,5.1-.93,6.6,6.36,4.62,12.15,8.85,17.98,13.03.74.53,1.9,1.3,2.5,1.06,7.57-3.05,9.74,4.55,14.32,7.27.77.46,1.22,2.61.87,3.64-1.62,4.68.94,7.01,4.38,9.27,8.17,5.35,11.55,13.5,12.28,22.8.42,5.38-1.01,6.94-7.74,10.95,1.77,3.23,4.06,6.33,5.24,9.81,2.03,6.02,3.82,12.21,4.78,18.47.37,2.44-1.84,5.25-2.78,7.93-.46,1.31-.77,2.68-1.01,4.05-.81,4.66-1.56,9.34-3.52,14.06-1.35-2.22-2.69-4.44-4.44-7.31-.03,13.38-.76,15.81-6.69,22.73-1.23-4.45-2.4-8.7-3.58-12.95-1.48,9.56-1.54,19.19-7.67,28.65-1.14-5.93-2.07-10.8-3.13-16.35-4.7,7.97-4.34,17.7-12.72,24.38-1.06-7.73-1.97-14.4-2.91-21.29-6.79,2.75-5.57,8.7-6.98,14.48-4.62-10.98-3.59-21.45-2.43-31.92-.45-.22-.9-.45-1.35-.67-2.31,4.4-4.61,8.8-7.19,13.7-5.72-5.84-1.02-12.64-2.57-18.18-7.09,6.23-14.71,11.75-24.52,12.67-7.3.68-13.59,3.19-19.94,6.85-6.23,3.59-13.3,5.99-20.27,7.96-15.75,4.45-31.79,7.89-47.48,12.52-15.46,4.56-28.47,13.83-41.5,23.08-15.9,11.3-27.73,26.05-38.99,41.68-9.6,13.34-20.07,26.12-30.94,38.44-14.15,16.03-22.48,35.65-34.28,53.1-6.61,9.77-13.04,19.67-20.08,29.12-13.01,17.48-20.72,37.37-26.72,57.97-7.87,26.99-12.98,54.55-14.13,82.7-.64,15.79-.48,31.61-1.07,47.41-.25,6.67,3.14,11.67,6.23,16.87.62,1.04,2.63,1.25,4.5,2.06.57-11.04,1.09-21.25,1.61-31.46.42-.04.83-.09,1.25-.13,1.6,13.08,3.19,26.16,4.79,39.24.32.02.65.03.97.05.67-5.66,1.33-11.33,2.07-17.58,1.55,8.61,2.99,16.61,4.42,24.61.75-.11,1.5-.22,2.25-.33-2.21-17.05-4.41-34.1-6.67-51.59,9.16,15.93,14.11,32.9,17.24,50.56.18-20.41,1.8-40.58,5.61-61.84,5.54,8.95,5.58,17.31,4.87,26.14,2.52-6.51,5.05-13.01,7.81-20.13-.07,18.94-10.36,36.14-5.67,55.37,6.16-13.25,12.52-25.78,25.49-33.32-8,14.06-16.55,27.82-19.05,45.61,7.01-10.03,13.25-18.95,19.48-27.88.37.24.74.48,1.11.71-4.97,9.16-9.94,18.32-14.92,27.47.63.44,1.25.87,1.88,1.31,3.67-4.16,7.33-8.32,11.59-13.15v15.48c.34.05.67.1,1.01.15,2.36-6,4.71-12,7.25-18.46,6.97-.06,6.99,7.27,10.13,10.74,2.19-4.37,4.46-8.9,7.16-14.28,5.03,4.41,9.12,7.98,13.5,11.82,6.06-6.42,8.02,2.85,12.62,3.55,2.11-2.41,4.27-4.9,6.32-7.24-5.93-9.32-14.3-14.59-24.86-17.73-10.67-3.18-17.54-11.31-21.98-21.72,14.83-2.34,23.46,2.2,30.59,14.38,2.77,4.74,7.21,8.51,10.89,12.72.36-.19.72-.39,1.08-.58-1.79-5.9-3.88-11.73-5.29-17.72-2.02-8.6-5.86-15.79-12.02-22.37-5.21-5.56-8.6-12.82-12.19-19.82,10.54,2.77,19.23,7.35,20.67,19.83.56-.29,1.12-.57,1.69-.86-1.39-8.1-2.32-16.31-4.33-24.25-1.35-5.33-4.63-5.74-10.74-4.31-3.84.89-8.2.88-12.01-.04-1.98-.48-4.51-3.75-4.6-5.86-.15-3.52,3.41-4.54,6.5-4.63,2.09-.06,4.26.48,6.3,1.08,3.3.98,6.53,2.22,10.09,3.46.2-4.28-1.97-6.17-5.19-7.71-11.72-5.62-14.53-11.09-12.84-24.76,6.2-.87,10.7,2.74,13.65,7.07,3.16,4.63,5.03,10.28,6.75,15.72,1.93,6.07,3.07,12.4,4.56,18.61.53-.03,1.07-.06,1.6-.09.31-1.29.83-2.57.88-3.87.52-12.47,1-24.95,1.35-37.43.03-1.13-.67-2.5-1.45-3.4-7.17-8.29-10.11-17.66-7.69-28.52,8.72.8,10.81,2.89,12.15,12.21,7.51-3.61,7.97-15.13,18.9-16.47-2.84,13.16-3.42,26.14-16.1,33.77-1.49.9-2.75,3.37-2.86,5.19-.63,10.89-.89,21.8-1.25,32.71-.02.76.14,1.52,1.25,2.59,2.51-4.73,5.31-9.33,7.45-14.22,1.78-4.07,4.1-6.99,8.77-7.24,4.43-.24,8.87-.54,13.3-.39,1.11.04,2.49,1.54,3.08,2.71.24.48-1.14,1.99-2.02,2.79-5.94,5.43-12.51,9.84-20.28,12.22-9.1,2.79-12.67,9.71-13.28,18.43-.43,6.19-.08,12.43-.08,18.65.74.08,1.49.17,2.23.25.52-1.91.72-4,1.63-5.71,2.59-4.91,5.19-9.87,8.35-14.42,1.58-2.27,3.8-2.32,4.89,1.25,1.84,6.03.21,13.18-5.75,16.69-8.51,5.02-8.56,12.2-6.97,20.24.85,4.3,2,8.54,3.12,13.26,2.34-5.58,4.26-10.5,6.44-15.3,2.55-5.63,7.61-7.52,13.26-8.41,2.77-.44,5.51-1.04,8.27-1.57-1.24,3.48-2.48,6.96-3.72,10.45.53-.11,1.07-.21,1.6-.32.81,1.33,2.54,2.87,2.29,3.95-1.44,6.27-1.82,13.38-9.87,15.63-1.03.29-2.25,1.67-2.48,2.75-.88,4.12-1.4,8.32-1.85,11.23,3.47,2.2,5.81,3.68,8.06,5.11v-10.89c6.57-1.37,8.92,2.9,11.16,9.2,4.04-8.83,7.57-16.25,10.83-23.78,2.11-4.87.91-8.79-3.42-12.07-1.7-1.29-3.92-1.97-5.46-3.4-2.58-2.41-4.8-5.21-7.18-7.85ZM436.47,432.94c-.35.23-.7.46-1.05.69,1.75,3.31,3.51,6.62,5.97,11.28-2.97-1.78-4.68-2.81-6.44-3.86-.2.64-.43,1.39-.73,2.35-1.74-1.54-3.39-3.01-4.71-4.18.93,5.15,1.9,10.49,2.86,15.83-.48.08-.97.17-1.45.25-.17-2.16-.33-4.31-.5-6.47-.19.01-.39.03-.58.04-.13,2.45-.27,4.9-.46,8.35-2.58-5.06-4.65-9.11-6.71-13.15-1.02,3.95-.85,7.7-1.09,11.42-.11,1.71-1.04,3.37-1.6,5.06-1.46-1.34-3.44-2.43-4.28-4.08-2.42-4.78-4.39-9.8-6.53-14.72l-.67.17c.8,6.5,1.6,13,2.4,19.49l-1.67.37c-1.32-1.95-2.64-3.91-3.92-5.79-1.09,2.69-2.11,5.22-3.45,8.53-4.3-7.31-8.74-13.27-8.44-21.62.14-3.84-2.3-7.77-3.57-11.67-.67.03-1.34.05-2.01.08-1.22,3.74-2.43,7.47-3.8,11.66-2.86-7.34-3.6-14.37-1.96-21.76,2.46-11.09,7.4-21.75,5.63-33.59-1.08-7.22.83-13.95,4.78-19.94,3.65-5.53,7.75-10.77,11.75-16.06,3.18-4.22,5.94-8.2,3.27-14.03-5.48-11.95-.91-22.78,11.32-27.94q10.84-4.57,10.89-15.91c.04-10.06,3.69-13.62,13.64-14.16,5.02-.27,10.64.04,13.81-5.19,3.24-5.35,7.99-7.09,13.94-6.8,2.25.11,4.84.35,6.73-.58,4.49-2.22,8.96-2.64,13.5-.96,3.55,1.32,5.93.36,7.32-2.89,2.77-6.5,8.32-8.38,14.55-8.47,3.73-.05,7.6.66,11.18,1.78,5.69,1.77,10.72,1.27,15.46-2.42.65-.5,1.77-.4,2.76-.59,1.36-11.88,2.21-18.25,22.49-20.22-.64-6.96-1.27-13.9-1.95-21.23-2.52,5.72-4.26,11.81-11.2,15.82v-15.46c-3.81,6.76-6.75,13.49-14.57,17.81,2.34-8.98,4.44-17.05,6.59-25.33-1.57-.72-3.7-1.71-5.78-2.66-.71-2.46-1.49-5.15-2.27-7.84-.43.04-.86.08-1.3.12-.51,1.37-1.01,2.73-1.62,4.36-.75-1.17-1.34-2.08-1.92-2.98-.72,4.84-1.4,9.4-2.08,13.95-1.83-2.36-2.35-4.81-3.41-7.01-.98-2.02-2.52-3.77-3.82-5.64-1.12,3.1-1.02,5.59-1.15,8.08-.12,2.28-.47,4.56-.72,6.83.26.04.52.09.78.13.72-1.93,1.43-3.85,2.6-6.97.72,9.25-5.05,18.86-13.3,23.61-1.36-3.94-2.71-7.86-4.12-11.97-5.02,6.67-1.72,16.95-9.39,21.92-.79-.14-1.57-.29-2.36-.43-.69-9.73-1.38-19.45-2.06-29.18-1.84,2.05-3.77,4.18-6,6.66-.35-2.1-.59-3.5-.9-5.33-4.37,2.46-8.38,4.78-12.46,6.98-13.08,7.07-25.3,15.16-35.8,25.92-5.99,6.14-12.56,12.28-20,16.32-19.08,10.36-32.32,25.71-40.1,45.37-6.72,16.97-16.05,31.75-28.13,45.33-4.98,5.59-8.29,13.16-10.75,20.37-2.21,6.48-3.18,13.73-3.02,20.6.66,28.29,1.78,56.57,3.08,84.84.96,20.78,2.37,41.53,3.77,62.28.3,4.43,1.11,8.89,2.23,13.19,1.23,4.74,3.17,5.32,6.39,1.64,9.65-10.99,18.97-22.27,28.49-33.39.96-1.12,2.35-1.86,3.55-2.78.09,1.46.63,3.08.2,4.36-4.82,14.14-12.12,26.99-21.77,38.29-10.51,12.31-17.84,25.92-20.27,42-2.38,15.74-4.95,31.46-7.05,47.24-2.79,21.07-5.73,42.14-7.63,63.3-2.27,25.21-2.83,50.48-1.44,75.85,1.53,27.93,4.36,55.65,9.42,83.14,1.49,8.1,2.5,16.94,12.68,19.61-1.29-5.93-2.58-11.84-3.87-17.75.33-.12.67-.23,1-.35,4,5.59,8,11.18,12.01,16.77.56-.37,1.12-.75,1.69-1.12-5.09-8.62-10.18-17.23-15.27-25.85.07-.16.15-.31.22-.47,5.96,5.55,11.93,11.11,17.89,16.66.51-.39,1.03-.78,1.54-1.17-5.88-8.77-11.76-17.54-17.79-26.53,8.53,2.5,13.72,9,18.63,16.85-1.79-14.92-11.74-23.56-20.6-32.98,11.71,2.33,19.67,9.25,25.67,19.02-3.48-16.99-12.48-30.71-25.57-42.15,13.58,4.37,22.3,13.67,28.37,26-1.41-20.61-10.36-38.98-16.07-59.58,13.28,20,21.76,40.48,24.94,63.13.57-.15,1.15-.29,1.72-.44v-59.56c.83,2.9,1.52,4.4,1.65,5.95,1.05,12.08,2.22,24.16,2.86,36.26.29,5.6-.2,11.31-.92,16.89-.9,7.02-2.39,13.96-3.63,20.93.44.14.87.28,1.31.42,9.14-10.84,10.63-27.01,24.99-35.6-10.64,18.41-17.9,37.05-21.87,57.1,6.17-9.12,12.33-18.24,18.5-27.36.39.21.79.43,1.18.64-4.54,11.86-9.07,23.72-13.82,36.15,3.48-1.31,5.97-3.09,8.38-3,8.71.35,10.75-5.93,13.08-12.14.87-2.32,1.91-4.6,2.62-6.97,11.1-37.21,20.54-74.84,25.92-113.3,2.13-15.25,1.74-30.76-4.5-45.65-5.81-13.87-10.67-28.15-15.77-42.32-1.21-3.36-1.7-6.97-2.52-10.47.5-.23,1-.46,1.5-.69,7.86,5.8,8.69,15.88,13.09,23.77,4.68,8.41,9.26,16.91,13.26,25.65,3.86,8.43,6.92,17.22,10.55,26.4,2.09-4.9,3.93-9.29,5.83-13.65,7.46-17.11,16.19-33.42,28.39-47.76,10.67-12.54,21.07-25.32,31.18-38.31,13.28-17.07,18.51-36.9,18.19-58.25-.25-17.08-4.46-33.56-9.49-49.7-4.9-15.72-13.77-28.64-28.36-37.77-12.9-8.07-25.36-17.19-33.46-30.79-.99-1.67-2.61-3.08-4.2-4.25-9.47-6.98-19.01-13.85-28.53-20.76ZM206.56,282.51c-.56-.03-1.11-.07-1.67-.1-.74,3.24-1.82,6.44-2.15,9.72-.55,5.45-.71,10.95-.88,16.43-.39,12.75.62,25.2,7.75,36.39,9.35,14.67,22.04,25.45,37.29,33.71,26.05,14.12,47.76,33.03,62.78,58.97.55.95,1.06,1.93,1.75,3.19.94-1.46,1.23-1.71,1.25-1.98,1.37-19.05,2.31-38.15,4.19-57.16,1.69-17.1,2.7-34.11.95-51.26-2.21-21.65-10.12-41.17-22.33-58.84-3.62-5.24-9.52-9.09-14.86-12.89-3.86-2.75-8.51-4.41-12.84-6.47-8.1-3.85-10.94-3.15-13.09,3.07-.08.23-.35.4-.66.74-1.69-2.31-3.33-4.56-4.97-6.82-.23.11-.46.23-.69.34.87,5.99,1.74,11.99,2.8,19.28-2.55-2.99-4.2-4.92-6.12-7.18q.59,15.49-1.74,18.13c-1.82-4.13-3.69-8.39-5.69-12.94-1.67,13.19-3.26,25.72-4.85,38.25-.53.15-1.06.31-1.59.46-3.36-6.99-6.73-13.98-10.03-20.84-.87,5.02-1.76,10.18-2.65,15.34l-1.39.35c-2.24-3.88-4.47-7.76-6.69-11.61-.7.79-1.43,1.61-2.24,2.51-.59-3.23-1.1-6.03-1.62-8.83ZM587,412.9c-.62-.06-1.25-.12-1.87-.18-.32-3.3-.64-6.59-1.06-10.84-1.9,4.57-3.44,8.26-4.97,11.95-.33-.14-.66-.29-.99-.43.18-1.56.36-3.13.6-5.2-.78.67-1.2.9-1.43,1.25-10.46,15.91-21.93,31.25-27.32,49.96-6.15,21.35-8.59,42.69-3.23,64.74,3.86,15.88,6.35,32.11,9.2,48.22,1.05,5.91,1.37,11.96,2.1,18.65,1.68-1.12,2.45-1.47,3.01-2.04,18.86-19.22,36-39.66,44.33-65.9,3.93-12.39,6.2-25.12,5.14-38.26-.68-8.44-1.52-16.89-1.73-25.35-.3-11.93-.07-23.88-.07-35.82-.48-.04-.95-.09-1.43-.13-.75.8-1.5,1.61-2.3,2.46-4.69-5.11-3.25-10.85-3.01-16.58-3.12,5.66-6.24,11.32-9.37,16.98-.93-10.33,3.18-20.21.26-31.27-2.2,6.66-4.04,12.22-5.87,17.79ZM335.71,342.33c10.49-7.97,20.08-15.28,24.99-26.99,1.92-4.58,3.95-9.12,6.02-13.64,6.37-13.93,13.4-27.4,24.63-38.25,5.71-5.52,11.53-11.1,16.27-17.42,7.79-10.37,13.02-22.17,8.7-35.29-2.45-7.43-7.19-14.14-11.2-21-4.14-7.08-8.1-14.1-7.51-22.73.07-1.07-.79-2.21-1.54-4.11-4.58,9.78-6.62,19.5-13.81,26.56-6.22-7.8-2.22-17.17-4.7-25.25l-1.75-.24c-1.67,4.9-3.34,9.8-5.01,14.7-.35-.06-.7-.11-1.06-.17-.45-4.31-.91-8.62-1.39-13.15-2.28,3.32-4.19,6.81-6.76,9.72-16.29,18.39-21.22,40.8-22.93,64.32-.93,12.77-1.44,25.57-2.18,38.36-.92,15.77-2.13,31.52-2.69,47.3-.2,5.48,1.17,11.02,1.91,17.28ZM702.75,383.45c.74-3.75,1.39-7.09,2.05-10.43-.29-.05-.57-.11-.86-.16-.85,1.07-1.71,2.14-3.32,4.15v-18.66c-2.04,1.91-3.2,4.01-3.99,6.24-1.44,4.05-2.6,8.19-3.99,12.26-3.77,11.05-9.71,20.6-18.81,28.18-5.18,4.32-10.47,8.73-14.71,13.91-11.25,13.77-21.96,27.98-26.12,45.87-1.99,8.54-3.86,17.12-6.18,25.57-2.8,10.2-6.23,20.24-8.89,30.48-.67,2.58.55,5.65.9,8.5,2.49-1.29,5.46-2.08,7.39-3.95,5.98-5.78,11.17-12.43,17.41-17.89,12.16-10.64,19.32-24.21,24.92-38.95,5.52-14.53,11.16-29.03,17.01-43.43,4.37-10.76,10.71-20.28,19.85-27.64,3.98-3.21,8.59-5.68,12.42-9.05,5.07-4.45,9.7-9.4,14.4-14.24,1.03-1.06,1.6-2.57,2.39-3.87-.37-.24-.74-.49-1.12-.73-2.15,1.91-4.29,3.83-7.01,6.26,1.07-6.53,2.01-12.23,2.94-17.93-.63-.44-1.26-.88-1.88-1.33-4.18,12.94-13.82,20.3-24.8,26.85ZM111.28,491.1c1.45,7.85,4.85,14.05,10.58,18.96,18.56,15.91,37.04,31.9,55.57,47.84,1.14.98,2.44,1.76,4.67,3.35-1.05-15.26-1.07-29.19-5.38-42.67-4.52-14.15-8.82-28.38-13.14-42.6-1.05-3.46-1.82-7.01-2.72-10.52-.37.05-.73.1-1.1.15-1.59,10.04-3.19,20.08-4.89,30.8-3.32-5.97-6.44-11.59-10.06-18.11-.2,3.49-.34,6.04-.48,8.58-.26,0-.51.02-.77.02-.82-1.93-1.65-3.86-2.43-5.69-2.39,6.15-4.76,12.29-7.61,19.64-6.15-8.37-11.42-15.54-16.76-22.8-5.67,4.88.11,10.51,1.17,16.64-2.71-1.46-4.68-2.52-6.64-3.58ZM468.87,414.46c-.87,5.66-2.39,11.21-2.42,16.77-.06,8.97,1.94,17.64,9.12,23.91,9.74,8.52,19.74,16.75,29.59,25.15,6.84,5.83,13.59,11.76,20.42,17.59,3.12,2.67,4.94,2.09,5.84-1.87.29-1.25.28-2.69-.01-3.94-5.28-22.43-10.22-45-27.25-62.33-4.77-4.86-9.23-10.02-14.23-15.48-.15,2.41-.26,4.13-.36,5.85-.54.15-1.07.3-1.61.45-2.38-6.66-4.77-13.31-7.15-19.97-.12.02-.23.05-.35.07.76,5.5,1.51,10.99,2.08,15.14-1.87,1.42-2.9,2.2-3.79,2.88-1.34-1.79-2.71-3.6-4.8-6.37.88,6.98,1.58,12.57,2.28,18.17-.59.09-1.18.18-1.77.28-1.85-5.41-3.71-10.83-5.59-16.32ZM616.59,413.96c-5.27,7.32-1.71,46.11,4.36,52.66.38-.28.92-.48,1.11-.86.51-1.02.82-2.15,1.3-3.19,4.64-10.05,8.92-20.3,14.04-30.1,7.87-15.07,13.63-30.7,13.1-47.89-.51-16.76-1.82-33.51-2.84-50.25-.08-1.25-.73-2.47-1.41-4.61-1.48,2.65-2.36,4.22-3.23,5.76-1.67-7.66-3.27-15.03-4.88-22.41l-1.6.16c-1.01,8.4-2.03,16.81-3.04,25.21-.6-.03-1.19-.07-1.79-.1-1.24-4.31-2.49-8.61-3.9-13.49-1.78,6.69-3.95,12.74-4.88,18.98-.73,4.85,1.12,8.82,4.88,13.09,5.65,6.43,9.34,14.69,13.25,22.48,1.41,2.8,1.77,6.65-1.69,9.02-2.37-3.22-4.51-6.12-6.65-9.03l-1,.63c1.07,6.98,2.15,13.95,3.22,20.93-.44.07-.89.15-1.33.22-1.37-1.62-2.74-3.25-4.12-4.87-.45.1-.9.19-1.35.29,3.8,10.22-2.95,17.84-6.5,26.9-1.72-3.23-3.44-6.47-5.06-9.52ZM207.21,595.11c2.94-10.6,5.89-20.53,8.43-30.57,4.63-18.31,2.86-37.02,2.88-55.59,0-3.47-2.1-6.94-3.23-10.4-.43.08-.85.16-1.28.25v12.68c-.39.2-.78.4-1.17.6-2-4.33-4.45-8.52-5.88-13.04-1.5-4.72-2.01-9.76-3.2-15.9-2.1,6.27-1.93,12.53-7.86,16.32v-18.57c-2.14,2.43-3.4,5.06-4.17,7.83-.93,3.33-1.46,6.78-2.13,10.19-1.01,5.13-2.97,10.3-2.79,15.39.39,11.26,1.81,22.49,2.91,33.72,1.65,16.9,5.78,32.93,17.49,47.1ZM521.74,374.46c-6.21-.98-7.79-5.37-8.83-10.66-5.97,14.01,12.71,97.45,25.1,110.43,3.21-9.92,6.8-19.88,9.6-30.05,1.92-6.98,4.32-14.41,3.68-21.38-1.06-11.56-4.4-22.91-6.78-34.35-.2.04-.4.08-.61.12-.53,4.18-1.06,8.37-1.67,13.11-6.15-6.78-5.22-14.88-6.41-22.63-4.96,10.52-11.64,20.32-10.94,32.75-3.03-6.55-5.21-13.37-3.8-20.72,1.31-6.79,2.85-13.57,4.9-20.17,1.28-4.12-.65-6.59-2.76-10.61-.59,5.56-1.03,9.8-1.49,14.16ZM696.03,426.89c-6.83.44-9.44,4.23-11.09,9.38-3.73,11.65-7.55,23.27-11.6,34.81-3.38,9.63-9.85,18.04-11.05,28.59-.6,5.3.26,6.38,5.37,4.6,8.29-2.87,16.79-5.3,24.72-8.98,4.77-2.22,10.24-5.58,12.54-9.93,4.91-9.28,8.04-19.52,11.7-29.44.58-1.57.08-3.55.08-5.27q-6.58-1.25-6.39-10.25c-5.04,5.68-10.05,11.31-15.04,16.92-4.67-10.09-2.21-20.17.76-30.43ZM318.41,285.75c6.28-14.87,5.39-34.99.55-50.51-6.21-19.92-23.65-32.23-32.83-51.75-.93,7.55-1.62,13.87-2.49,20.16-1.37,9.94,2.68,18.84,5.09,28.1,3.42,13.13,10,24.35,18.85,34.55,2.79,3.22,4.04,7.77,6.12,11.64,1.33,2.47,2.88,4.81,4.71,7.82ZM322.32,129.25c-6.49,15.61-9.67,32.71-9.31,50.43.37,18.06,3.96,35.26,13.71,52.44,1.31-3.68,2.31-5.9,2.87-8.22,1.99-8.2,3.46-16.54,5.81-24.63,5.5-18.97,6.41-38.06,2.06-57.8-1.78.6-4.02,1.35-7.29,2.44-2.72-5.07-5.47-10.21-7.85-14.67ZM412.96,251.76c.25.22.5.44.74.66,1.98-1.48,3.98-2.94,5.93-4.45,6.76-5.25,13.06-10.64,13.88-20.17,1.12-12.93,6.73-24.4,12.11-36.02,6.57-14.18,9.21-29.04,3.94-45.13-4.81,8.53-9.4,16.69-13.66,24.26-2.19-4.4-4.78-9.6-7.36-14.8-.3.13-.6.26-.9.39.78,5.2,1.56,10.41,2.45,16.39-2.56-.81-3.73-1.17-5.14-1.62.81,1.41,1.86,2.38,1.87,3.36.03,13.42.03,26.83-.19,40.25-.19,11.53-2.92,22.32-10.27,31.58-1.3,1.64-2.28,3.54-3.4,5.32ZM687.53,349.56c-2.92,3.87-5.94,7.87-9.62,12.75-.19-3.01-.3-4.76-.45-7.11-1.06,1.12-1.7,1.8-2.35,2.48-.24-.14-.48-.29-.72-.43,1.14-3.07,2.28-6.14,3.42-9.21-1.35.44-1.81,1.24-2.25,2.05-3.35,6.23-6.34,12.7-10.12,18.66-8.91,14.06-10.46,29.77-11.34,45.98,26.12-18.47,39.46-44.79,33.42-65.18ZM707.35,495.17c4.46-1.08,10.24-1.88,15.52-3.95,4.79-1.87,10.25-4.15,13.31-7.95,10.34-12.79,17.02-27.29,15.76-43.82-3.36,4.65-7.01,9.7-11.27,15.59-.8-2.58-1.15-3.7-1.5-4.83l-1.22-.25c-2.35,5.46-4.71,10.91-7.13,16.52-5.41-6.23-3.81-14.05-4.23-21.94-6.64,17.45-13.03,34.26-19.26,50.63ZM175.51,248.03c-.45.05-.9.1-1.36.15-.71,6.84-2.48,13.77-1.89,20.5,1.08,12.19,3.62,24.25,5.46,36.38,1.5,9.84,6.49,17.42,13.96,23.05,1.21-4.46,2.42-8.82,3.55-13.2.2-.76.25-1.68.03-2.42-2.87-9.32-1.43-18.29,1.61-27.32,1.94-5.75,3.32-11.76.14-16.65-2.65,5.76-5.44,11.81-8.22,17.86-.59-.19-1.18-.39-1.77-.58v-25.07c-.33-.04-.66-.08-.99-.12-1.21,3.78-2.41,7.57-3.43,10.77-10.78-5.11-5.98-15.11-7.1-23.36ZM353.23,115.88c-.6,3.68-.45,7.03-1.72,9.72-2.65,5.62-3.65,10.57-2.33,17.24,1.7,8.57.12,17.83-.36,26.77-.3,5.6-1.19,11.17-1.96,18.03,1.21-2.1,1.93-3.01,2.31-4.05,6.13-16.54,12.78-32.93,18.08-49.73,2.61-8.26-.59-16.45-6.02-24.1-.84,4.9-1.57,9.19-2.43,14.22-2.07-3.01-3.63-5.29-5.56-8.11ZM438.36,230.75c.51-.06,1.06.02,1.44-.2,12.93-7.73,25.87-15.45,38.73-23.3,1.31-.8,3.01-2.46,2.97-3.69-.13-4.76-.88-9.51-1.43-14.51-3.98,5.55-7.77,10.83-11.51,16.05-2.78-6.02.77-11.83,2.1-18.07-20.67,14.07-27.19,22.92-32.3,43.72ZM137.67,285.02c-.41.28-.82.57-1.23.85-4.74-6.41-9.49-12.82-14.23-19.22-.32.12-.64.24-.97.37.55,5.55,1.1,11.1,1.72,17.43-2.57-2.8-4.37-4.77-6.18-6.73-.45.36-.9.72-1.36,1.08,2.54,3.58,5.08,7.16,7.82,11.03-1.86-1.07-3.52-2.03-5.18-2.99,9.22,10.82,22.22,13.46,35.33,17.21-7.28-16.35-14.26-32.01-21.63-48.55-2.08,11.39,1.02,20.63,5.89,29.51ZM166,461.81c-.39.14-.78.28-1.18.42,5.02,15.71,10.04,31.43,15.07,47.14.52-.11,1.04-.22,1.57-.33,3.05-13.35,6.11-26.7,9.42-41.2-2,2.83-3.29,4.65-5.1,7.21-.47-4.36-.84-7.78-1.17-10.8-1.8-.79-3.32-1.45-5.28-2.31.44,4.16.86,8.11,1.33,12.58-5.38-5.19-3.31-11.65-4.38-18.07-2.07,4.68-3.77,8.51-5.77,13.01-1.64-2.78-3.07-5.22-4.51-7.65ZM423.44,207.66c.01-20,.75-38.91-11-57.01,2.3,7.96,4.23,14.65,6.17,21.35-.81.22-1.62.44-2.44.66l-2.1-11.15c-.42,0-.83,0-1.25,0-1.17,3.01-2.34,6.03-3.62,9.32-.62-7.29-1.19-14.06-1.76-20.84-.72-.04-1.43-.07-2.15-.11-.61,3.62-1.9,7.27-1.69,10.84.75,12.69,5.34,24.13,12.36,34.66,2.36,3.54,4.44,7.25,7.5,12.26ZM237.17,507.06c-.34,3.23-.59,5.56-.84,7.89-.51.05-1.01.1-1.52.15-.87-6.24-1.74-12.47-2.77-19.87-.77,9.44-9.07,14.97-7.61,24.49,1.27,8.29.62,16.87.84,26.29,13.04-14.15,17.67-32.18,11.9-38.96ZM140.83,535c.4-.5.81-1.01,1.21-1.51-13.24-12.19-26.48-24.37-39.71-36.56-.55.21-1.09.43-1.64.64,1.15,4.13,1.55,8.69,3.58,12.33,8.04,14.39,22.38,19.71,36.56,25.1ZM453.65,406.19c-.04,6.77,3.55,13.56-.85,20.34-3.01-5.38-5.87-10.48-8.73-15.57-.91,2.05-.81,3.47-.93,4.88-.71,8.22,1.09,15.31,7.99,20.75,4.41,3.47,8.3,7.6,13.3,12.26-1.41-6.91-3.5-12.2-3.34-17.42.3-9.26-.78-17.75-7.44-25.24ZM296.8,158.44c-3.94,10.48,2.4,34.26,12.09,43.52-3.02-15.96,1.92-32.29-2.23-49.42-1.65,7.32-3,13.3-4.34,19.27-.67.02-1.35.04-2.02.06-1.15-4.39-2.29-8.79-3.5-13.44ZM449.22,197.56c13.78-7.18,19.94-20.11,22.63-36.25-3.94,3.39-7.25,6.25-10.48,9.03.77-6.05,1.63-12.77,2.49-19.49-.28,0-.56,0-.84-.01-4.68,15.84-9.36,31.69-13.8,46.73ZM147.74,260.41c-4.74,15.78,10.73,36.68,23.82,45.78.58-6.33-.73-12-4.97-16.62-7.36-8.03-13.55-16.77-17.46-27-.26-.68-.79-1.25-1.39-2.15ZM150.34,249.47c-.52.21-1.03.42-1.55.63,1.94,14.21,11.46,24.2,20.41,36.07-1.56-14.35-2.98-27.37-4.4-40.4-.59-.06-1.17-.12-1.76-.18-.7,2.32-1.39,4.64-1.96,6.55-4.12-.18-3.65,3.39-3.97,5.38-.4,2.5.37,5.18.63,7.78-.29.07-.59.15-.88.22-2.17-5.35-4.34-10.7-6.52-16.05ZM512.64,430.51c.24-12.43-1.23-23.13-6.36-34.54-.51,2.55-.75,3.75-.98,4.85-1.22-.36-2.19-.65-3.32-.99.25,3.12.47,5.82.78,9.66-3.02-4.56-5.28-7.96-7.8-11.76.59,13.76,8.85,22.65,17.68,32.78ZM776.44,469.5c-2.35,1.41-3.62,2.17-5.85,3.5.31-4.23.56-7.6.89-11.99-4.08,5.43-7.32,10.4-14.58,12.14,2.38-2.56,3.98-4.3,5.59-6.03-8.39,1.97-14.62,6.51-18.81,14.08,12.05,1.45,29.88-4.34,32.76-11.7ZM665.51,341.09c-14.03,19.49-12.65,20.96-10.15,38.71,1.54-4.31,2.74-8.23,4.34-11.99,1.67-3.96,3.36-7.98,5.69-11.57,3.24-4.99,1.86-9.66.13-15.15ZM560.18,425.45c7.27-9.72,7.54-29.45.85-35.42-4.76,15.56-4.9,20.44-.85,35.42ZM280.83,187c6.55-14.04-.9-26.73-4.18-39.57-4.63,13.8-1.55,27.08,4.18,39.57ZM267.31,175.74c.68-.15,1.37-.3,2.05-.44-.37-2.01-.3-4.25-1.2-5.98-3.32-6.34-6.17-12.74-6.54-20.04-.07-1.39-1.11-2.73-1.71-4.1-1.2,1.19-2.65,2.22-3.52,3.62-.64,1.03-.77,2.53-.73,3.82.32,9.56,6.16,16.26,11.64,23.13ZM616.42,891.64c-3.73,3.6-10.67-1.37-12.67,4.86-2.32,7.27-1.9,14.31,5.82,19,.2-8.45-.07-17.02,6.84-23.86ZM767.08,446.23c-.41-.19-.82-.37-1.23-.56-6.26,5.01-13.3,16.4-13.54,21.93,12.97-5.51,18.47-10.32,17.71-16.03-2.34,2.48-4.5,4.76-7.32,7.75,1.69-5.06,3.03-9.07,4.37-13.09ZM336.77,138.75c.64-9.14-4.07-15.82-8.69-22.94-1.38,12.14,1.81,20.7,8.69,22.94ZM652.33,352.48c.73.11,1.45.22,2.18.33,1.96-7.09,3.91-14.18,5.87-21.26-.59-.18-1.18-.37-1.77-.55-1.15,2.85-2.31,5.7-3.81,9.41-.6-3.9-1.08-7.03-1.56-10.15-.64.81-.89,1.59-.89,2.38-.03,6.62-.02,13.23-.02,19.85ZM376,110.98c-.47,2.5-.95,4.82-1.34,7.16-.37,2.23-.65,4.48-1.06,7.41,8.13-6.08,8.43-8.37,2.4-14.57ZM612.92,324.21c-.23.09-.47.18-.7.28.12,2.09.44,4.19.32,6.27-.35,6.17-.41,6.17,6.57,7.33-2.14-4.79-4.16-9.33-6.19-13.87ZM917.7,908.24c-2.35,1.2-4.17,2.13-6.13,3.12,1.85,3.11,3.5,5.88,5.79,9.71.2-2.19.33-2.97.33-3.76.03-2.78,0-5.57,0-9.08ZM753.94,451.65c6.12-5.87,6.18-6.04,2.98-8.97-1.07,3.21-2.02,6.09-2.98,8.97Z"/>
  </g>
</svg>