<?xml version="1.0" encoding="UTF-8"?>
<svg id="Layer_2" xmlns="http://www.w3.org/2000/svg" viewBox="0 0 798.93 965.88">
  <defs>
    <style>
      .cls-1 {
        fill: #f3dac9;
      }
    </style>
  </defs>
  <g id="Layer_1-2" data-name="Layer_1">
    <g>
      <path class="cls-1" d="M528.22,0c-4.22,2.63-8.74,4.9-12.56,8.02-3.17,2.6-5.95,5.95-8.11,9.45-2.12,3.43-.19,6.38,3.5,6.96,4.44.69,9.06.96,13.52.54,9.02-.84,17.98-2.37,27-3.34,1.81-.19,3.75.84,5.63,1.31-.8,2.05-1.47,4.17-2.43,6.14-1.39,2.84-3.92,5.47-4.29,8.4-.55,4.33-2.42,6.98-6.14,8.63-2.42,1.08-4.85,2.31-7.4,2.9-16.71,3.87-33.45,7.6-50.19,11.34-4.18.93-8.41,1.69-12.61,2.53.08.72.16,1.44.25,2.15,12.55,0,25.11-.23,37.66.06,14.42.33,28.87,1.02,42.56,6.27,3.32,1.27,8.45,2.47,7.27,7.07-.67,2.59-4.82,5.42-7.84,6.06-11.61,2.47-23.34,4.48-35.12,5.92-12.3,1.5-24.71,2.04-37.05,3.2-18.11,1.71-36.25,3.2-54.27,5.54-11.42,1.48-22.71,4.11-33.94,6.74-2.54.6-4.59,3.32-6.87,5.06,1.99,2,3.87,4.15,6.03,5.95,1.16.96,2.76,1.5,4.25,1.94,11.82,3.5,23.61,7.15,35.51,10.34,25.03,6.72,50.21,12.9,75.16,19.94,7.26,2.05,14.25,5.69,20.75,9.61,6.08,3.67,5.45,9.83-.75,13.38-2.42,1.39-5.06,2.78-7.76,3.22-14.81,2.38-29.6,5.23-44.52,6.45-18.14,1.48-36.43,1.19-54.61,2.29-9.02.55-18.18,1.64-26.87,3.98-15.62,4.19-31.14,7.67-47.46,8.45-13.75.65-27.07,4.83-39.18,11.91-1.93,1.13-3.62,2.67-4.96,3.68,5.91.72,12.12.37,17.48,2.33,21.99,8.03,44.78,12.56,67.61,17.22,10.61,2.16,21.08,5.69,31.13,9.79,9.89,4.03,15,12.39,15.97,23.14.33,3.68-.36,6.16-4.54,7.4-3.52,1.04-6.86,3.05-9.94,5.13-6.59,4.44-7.68,11.99-1.68,17.05,4.14,3.49,9.57,5.84,14.8,7.54,8.74,2.85,17.87,4.46,26.66,7.18,7.26,2.25,8.03,6.35,1.83,10.83-5.66,4.09-11.91,7.6-18.32,10.38-17.92,7.79-36.28,14.59-54.01,22.77-8.12,3.75-15.81,9.08-22.54,15.01-8.75,7.72-8.76,16.1-1.75,25.41,1.13,1.5,2.38,2.94,3.74,4.22,14.88,14.05,32.6,23.6,51.81,29.64,30.08,9.46,60.47,18,90.95,26.11,46.35,12.33,93.4,21.45,140.8,28.75,11.48,1.77,22.06,5.44,31.66,12.98-43.08-13.3-87.28-18.63-130.87-26.93,18.74,6.74,38.12,10.65,57.67,14.03,25.74,4.45,51.18,10.33,75.57,19.86,25.19,9.84,42.66,27.05,48.8,54.19,1.92,8.47,1.28,16.28-7.01,21.51-1.32.83-2.58,1.85-4.01,2.42-8.67,3.46-17.4,6.78-26.08,10.23-1.35.54-2.69,1.32-3.76,2.29-2.77,2.52-5.12,5.58-8.11,7.77-14.54,10.63-30.43,17.26-48.77,18.66-17.76,1.36-34.37,7.59-50.26,15.66-13.61,6.92-27.34,12.98-43.06,14.4-11.22,1.02-22.44,4.1-33.14,7.77-4.98,1.7-9.06,6.16-14.77,7.34-10.37,2.14-20.63,4.82-30.99,7.03-21.09,4.5-39.7,15.52-59.81,22.58-2.92,1.02-5.53,2.89-8.34,4.26-2.26,1.1-4.61,2.05-7.06,3.12,4.04,3.73,8.4.49,13.7-.57-9.37,9.5-9.19,20.71-8.73,31.77.13,3.15,1.9,6.5,3.7,9.25,2.6,3.97,4.44,7.83,3.15,12.67-.4,1.5-.7,3.09-.7,4.63,0,16.69,20.22,35.51,37.91,34.79-9.23-3.5-17.25-8.05-23.25-15.37-5.85-7.13-10.42-14.77-8.39-24.77,1.08-5.31-.32-10.22-4.24-14.3-1.03-1.07-1.77-2.65-2.12-4.12-3.57-15.08,2.8-29.41,15.26-37.88,21.06-14.32,44.9-20.48,69.25-25.92,9.63-2.15,20.63-1.96,27.74-10.96.23-.29.89-.21,1.35-.33,6.62-1.83,13.15-4.07,19.87-5.37,6.84-1.33,14.22-.63,20.72-2.78,12.54-4.14,24.89-9.09,36.83-14.73,16.01-7.55,32.51-12.8,50.16-14.42,21.68-1.99,40.38-10.43,55.75-26.01.96-.97,2.15-1.92,3.42-2.35,7.17-2.49,14.4-4.81,20.38-6.79-5.87,7.98-12.35,16.9-18.97,25.71-1.2,1.6-2.86,2.92-4.5,4.11-10.67,7.72-22.87,12.25-35.22,16.26-17.66,5.74-35.75,10.11-52.42,18.76-4.58,2.38-10.15,3.13-15.37,3.93-21.51,3.29-42.63,7.95-63.26,15.07-8.76,3.02-18.18,4.33-27.4,5.73-10.97,1.66-22.22,1.75-33.04,4-16.61,3.46-31.96,10.4-41.56,25.16-14.34,22.03-15.17,46.58,6.7,64.48,8.99,7.35,19.26,13.5,29.73,18.58,25.98,12.6,53.87,19.97,81.64,27.44,24.12,6.48,48.37,12.48,72.52,18.89,5.6,1.49,10.98,3.75,16.47,5.66-.16.61-.32,1.23-.47,1.84-15.95-2.79-31.89-5.59-47.84-8.38-.14.55-.28,1.09-.42,1.64,10.86,3.2,21.57,7.05,32.61,9.41,9.06,1.94,18.64,1.4,27.75,3.2,18.94,3.75,37.23,9.61,53.61,20.32,14.02,9.17,28.19,18.12,42.04,27.54,5.66,3.85,10.66,8.7,15.95,13.09-.17.15-.34.3-.51.45-17.37-8.21-34.74-16.42-52.12-24.63-.24.49-.48.97-.71,1.46,4.08,2.25,8.14,4.52,12.23,6.74,13.99,7.61,28.02,15.14,41.93,22.89,2.23,1.24,4.24,3.25,5.78,5.32,10.76,14.47,21.37,29.05,32.02,43.59-4.4,0-8.8,0-13.21,0-9.25-13.5-21.96-23.56-34.18-34.08-2.24-1.93-3.13-3.5-1.58-6.32,2.1-3.81.73-7.47-1.75-10.46-4.62-5.56-10.9-8.51-18.11-9.85,2.49,1.72,5.07,3.34,7.45,5.2,2.09,1.63,4.04,3.47,5.91,5.35,2.71,2.72,3.56,5.92,1.48,9.36-1.8,2.99-1.07,5.29,1.32,7.46,3.6,3.27,7.26,6.48,10.7,9.92,7.76,7.74,15.4,15.61,23.09,23.42-78.29,0-156.58,0-234.87,0,.19-1.23.37-2.46.56-3.69.33.04.65.08.98.12-.88-2.84-1.76-5.68-2.64-8.53-.25.02-.49.03-.74.05v5.53c-1.74-1.41-3.03-2.45-4.31-3.49-.25.15-.51.29-.76.44,1.37,3.19,2.73,6.38,4.1,9.57-9.12,0-18.24,0-27.35,0-.63-3.06-1.36-6.1-1.89-9.18-4.47-25.89-18.52-44.47-41.74-56.83-25.11-13.37-49.78-27.58-74.69-41.32-12.94-7.14-25.33-15.04-41-16.1-15.1-1.02-28.79-7.86-42.53-13.97-8.25-3.67-16.68-7.22-25.38-9.5-14.34-3.76-27.47-9.68-38.83-19.13-10.18-8.48-19.5-18-24.38-30.58-6.51-16.77-3.64-33.35,3.32-49.3,12.21-28,33.71-46.46,61.57-57.63,30-12.03,61.75-18.17,93.08-25.34,22.75-5.2,45.48-9.75,67.15-18.82,9.17-3.84,18.92-6.83,28.7-8.53,21.26-3.7,40.64-11.24,57.79-24.4,1.99-1.53,4.04-2.98,6.05-4.46-.2-.32-.39-.64-.59-.96-3.93,1.74-7.86,3.48-10.78,4.77,5.01-7.22,11.24-14.42,15.43-22.65,7.05-13.87,4.39-25.42-6.76-36.21-9.42-9.11-21.03-14.55-33.01-19.34-23.88-9.54-48.96-14.78-73.86-20.66-15.78-3.73-31.99-6.3-46.48-14.12-33.76-18.22-58.64-45.66-79.12-77.47-1.93-3-3.04-7-3.18-10.59-.51-13.24,8.58-20.57,18.01-27.56-3.06,6.43-6.4,12.7-9.93,18.86-2.9,5.06-2.94,10.28-.43,15.25,2.38,4.7,5.53,9,8.51,13.74-3.02,1.45-1.1,2.94.62,4.79,10.15,10.88,22.93,17.17,36.88,21.54,11.92,3.73,23.95,7.23,34.63,14.63-2.55,3.27-1.02,5.94,1.5,8.08,3.09,2.63,6.13,5.67,9.75,7.24,13.88,6.03,27.96,11.6,42.02,17.22,2.88,1.15,5.98,1.76,8.98,2.62,5.97,1.71,11.51.42,16.57-1.89-6.45-1.07-13.39-1.25-19.6-3.45-15.72-5.59-31.16-12.01-46.62-18.31-2.54-1.03-4.75-3.04-6.85-4.88-.9-.79-1.21-2.3-1.65-3.53-.71-1.99-.7-5.03-2.07-5.85-6.63-4-13.39-7.95-20.52-10.91-9.64-4-19.94-6.47-29.42-10.78-7.24-3.29-13.64-8.43-20.42-12.74l1.79-1.64c-.15-1.19.09-2.66-.53-3.51-1.37-1.89-3.34-3.33-4.76-5.2-7.67-10.14-7.58-15.29-2.45-23.83,4.5-7.51,10.72-14.45,10.86-24.02,0-.39.45-.83.78-1.14,10.3-9.63,19.86-20.46,33.37-25.62,8.42-3.21,17.48-4.76,26.14-7.03-14.59-7.92-23.95-21.24-31.29-36.28-7.22-14.81-19.14-23.7-34.98-27.45-16.54-3.91-33.23-7.27-49.68-11.52-8.68-2.24-17.62-4.76-25.34-9.11-13.14-7.41-13.06-21.58-.62-30,3.47-2.35,7.27-4.39,11.17-5.92,24.28-9.51,50.08-12.03,75.54-16.07,22.42-3.56,44.9-6.72,67.26-10.6,6.83-1.19,13.55-3.73,19.96-6.48,6.1-2.61,6.13-4.51,3.08-10.17-3.85-7.13-9.95-11.19-17.38-13.38-15.42-4.55-30.99-8.6-46.34-13.37-5.9-1.83-11.71-4.51-16.93-7.81-5.07-3.2-4.8-7.5.55-10.14,5.55-2.73,11.52-5.12,17.57-6.21,15.23-2.73,30.58-4.87,45.94-6.8,15.08-1.89,30.24-3.2,45.35-4.8,9.48-1,18.96-2.06,28.44-3.1-2.95-.77-5.88-1.29-8.83-1.5-23.49-1.63-46.99-3.06-70.46-4.91-4.36-.34-9.38-.36-13.08-5.14,2.55-1.5,4.53-3.12,6.8-3.9,4.57-1.57,9.23-2.96,13.96-3.93,31.08-6.38,62.21-12.51,93.25-19.03,5.22-1.1,10.17-3.58,15.17-5.61,2.53-1.03,4.78-3.12,7.37-3.58,8.09-1.46,14.65-5,19.41-12.42-1.49.16-2.65.34-3.82.42-9.82.64-19.64,1.51-29.47,1.78-4.29.12-8.88-1.26-10.43-5.84-1.68-4.96,1.06-9.15,4.33-12.73,1.79-1.95,3.89-3.63,5.95-5.31,2.03-1.65,4.2-3.15,6.3-4.71,3.46,0,6.92,0,10.38,0ZM264.6,780.83c.36.71.72,1.42,1.08,2.12,3.22-.48,6.43-.97,9.65-1.45.1-.55.2-1.1.3-1.64-5.27-2.71-10.54-5.42-16.92-8.71,7.81.94,14.52,1.76,21.24,2.57.18-.35.36-.71.53-1.06-6.75-4.1-13.47-8.24-20.25-12.28-1.88-1.12-3.92-1.95-5.89-2.93-3.77-1.86-5.28-4.55-3.67-8.79.92-2.43,1.56-4.97-.77-7.36-.56-.57-.11-2.76.54-3.77,1.43-2.21,3.3-4.13,4.64-5.76-.61-2.7-1.17-5.13-1.73-7.57,1.57.1,3.14.2,4.86.31-.75-4.89-1.74-10.19-2.24-15.53-.12-1.23,1.25-2.79,2.25-3.91,1.62-1.8,3.52-3.35,5.3-5.01-2.06-1.95-4.02-4.01-6.21-5.8-.86-.7-2.22-.77-4.62-1.52,3.03,2.66,5.03,4.42,7.96,7-10.39,3.02-9.72,9.94-8.01,17.53.35,1.56-1.13,3.5-1.67,5.29-.48,1.58-1.57,3.49-1.09,4.76,1.13,2.98.12,4.82-1.67,7.05-2.12,2.63-4.23,5.52-1,9.12.71.79.09,2.94-.18,4.42-1.3,7.09-.11,9.89,6.36,13.29,4.1,2.16,8.4,3.95,12.61,6.28-10.69-2.04-20.82-.81-30.17,4.19,10.65,2.09,21.35,4.19,32.06,6.28.19.48.38.97.58,1.45-1.28.47-2.56.95-3.84,1.42ZM462.01,875.27c-6.49-3.39-13.18-6.42-19.85-9.47-5.67-2.6-11.55-4.79-17.1-7.63-4.51-2.31-7.93-5.77-7.04-12.13-3.71,3.09-4.11,6.67-1.58,9.3,3.27,3.4,7.21,6.53,11.44,8.57,11.21,5.41,22.73,10.18,34.13,15.2-.49.57-.97,1.15-1.46,1.72,1.44,2.2,2.38,5.26,4.42,6.43,6.74,3.89,13.84,7.17,20.87,10.55,3.8,1.83,7.78,3.28,11.58,5.08,2.3,1.09,4.48,1.79,5.04,5.43.37,2.38,4.03,4.6,6.64,6.22,8.9,5.51,17.99,10.71,27.01,16.03-1.36,4.65.79,9.79,5.6,13.37,1.21-6.17-2.46-15.35-7.5-18.4-7.89-4.77-15.87-9.41-23.76-14.19-1.58-.96-2.94-2.29-4.6-3.62.77-1.07,1.42-1.98,2.41-3.36-14.62-6.83-28.85-13.49-43.75-20.46,3.57-5.19.33-7.17-2.5-8.65ZM426.09,261.14c3.65-5.18,2.16-9.25-2.93-13.28-5.76-4.56-12.44-6.81-19.59-7.97,4.24,2.1,8.65,3.91,12.67,6.35,8.8,5.34,9.49,9.68,3.29,17.83-.93,1.23-1.95,2.39-3.33,4.07-.19-1.94-.31-3.22-.45-4.64-3.28,2.28-6.46,4.27-9.4,6.56-6.51,5.07-7.43,12.12-2.31,18.45,3.83,4.75,7.7,9.52,12.01,13.81,3.95,3.93,9.09,5.82,14.93,5.8-13.3-2.28-18.09-13.76-24.82-22.91-3.44-4.67-1.8-9.69,3.77-13.92-.2,2.86-.35,5.13-.51,7.4.38.27.76.55,1.14.82,5.22-6.09,10.9-11.85,15.5-18.38ZM558.09,536.23c-1.34-.15-2.19-.25-3.85-.43,3.01,2.9,5.98,5.25,2.42,8.92-.2.21.2,1.18.51,1.69,5.43,8.82,4.25,17.23-2.06,25.67,8.25-4.2,12.64-12.97,10.07-21.02-3.34-10.46-5.25-21.55-12.49-30.47-2.83-3.48-11.36-6.22-16.68-3.66,14.89-.98,18.13,9.08,22.09,19.3ZM277.18,794.06c4.17,1.67,8.72,2.38,12.98,3.85,8.8,3.02,17.55,6.22,26.28,9.45,4.21,1.55,8.33,3.32,13.72,5.48-10.39-9.52-25.56-16.25-41.17-19.72-6.09-1.35-11.81-4.3-17.74-6.4-.98-.35-2.19-.05-3.29-.05-.19.62-.39,1.24-.58,1.86,3.25,1.88,6.35,4.16,9.81,5.54ZM436.77,155c.96,7.78-5.9,9.78-11.46,14.18,8.55-1.88,15.57-4.27,20.7-10.27,2.94-3.43,2.2-7.81-2.05-9.74-6.28-2.86-12.91-4.92-19.4-7.32,3.37,5.52,11.31,5.84,12.21,13.15ZM366.44,830.51c4.39-.61,9.14,1.36,13.72,2.22,3,.56,5.98,1.23,9.06,1.39-8.1-2.9-15.91-6.54-24.91-6.05-9.67.53-13.71-2.89-16.27-12.46-.36-1.34-.82-2.66-1.23-3.98-.04,13.25,7.44,20.59,19.64,18.88ZM508.82,494.43c-5.83-4.48-11.09-10.61-20.48-6.73,7.33,2.41,13.9,4.57,20.48,6.73ZM387.15,839.89c2.81,2.38,8.31-.42,9.87,4.68.5-.74,1.17-1.72,1.98-2.92-3.53-1.36-6.83-2.63-10.47-4.03-.09.14-.7,1.16-1.38,2.28ZM407.79,852.13c.81-2.51,1.28-3.98,2.06-6.4-3.61,1.69-7.15-2.89-10.48,3.03,4.75-2.53,7.56-2.33,8.42,3.37Z"/>
      <path class="cls-1" d="M0,791.38c4.42-1.36,8.84-2.71,13.27-4.07l-.07-.79H1.74c2.65-1.72,4.17-2.71,6.7-4.35-1.66-.82-2.79-1.38-3.91-1.94.13-.37.25-.74.38-1.1,3.04-.81,6.08-1.62,8.49-2.27.53-1.5.99-2.93,1.54-4.31.4-.99.97-1.91,1.4-2.9.65-1.5.82-3.67,1.94-4.4,3.5-2.28,5.42-5.88,8.21-8.73.32-.33.7-.82,1.08-.85,10.72-.93,10.78-11.27,15.46-17.51.62-.83,1.08-2.46,1.69-2.5,4.11-.27,6.02-5.1,8.34-5.56,6.55-1.3,11.58-7.89,19.43-5.12,2.6.92,6.26-1.15,10.27-2.03-1.33-.82-1.99-1.27-2.69-1.65-2.63-1.46-5.15-3.26-7.95-4.26-4.23-1.51-8.6-3.15-13.01-3.48-6.94-.51-10.35-3.79-10.78-11.4,3.33-1.09,7.08-2.32,11.38-3.73-2.92-3.21-4.28-6.61-.91-10.54-1.36-.12-2.2-.44-2.83-.2-6.02,2.23-8.42-4.06-12.85-5.59-.33-.11-.32-3.54.55-4.34,2.91-2.7,6.27-4.9,9.67-7.46-.97-1.43-1.99-2.93-3.34-4.93,2.85-.62,5.45-1.19,8.63-1.88-1.41-1.51-2.7-2.87-4.54-4.84,2.02-.53,3.43-.85,4.81-1.27,2.4-.73,5.48-.46,5.49-4.47,0-.7,2.28-1.84,3.6-2.01,7.41-.96,14.86-1.68,22.47-3-5.07-.9-10.13-1.8-15.2-2.69-.01-.25-.02-.5-.04-.75,3.35-.95,6.7-1.9,10.04-2.85-.32-.4-.64-.8-.97-1.2.76-.93,1.37-2.46,2.29-2.68,3.9-.93,7.9-1.48,13.19-2.39-4.11-1.37-7.06-2.34-10.01-3.32.04-.33.08-.66.12-.98,1.93,0,3.95.38,5.76-.09,2.39-.63,4.64-1.84,6.88-2.95,2.07-1.03,3.92-2.63,6.08-3.34,3.2-1.04,6.55-1.69,9.89-2.16,2.9-.41,5.93.06,6.83-4.03.17-.77,2.65-1.33,4.12-1.46,2.59-.23,5.22-.07,9.14-.07-2.12-2.01-3.24-3.08-4.79-4.55,5.03-1.07,9.79-1.91,11.4-9.1,2.18,6.95,6.63,8.8,11.27,8.46,4.85-.36,10.43-1.18,14.13-3.91,4.51-3.33,7.4-8.87,11.12-13.62-.86-.43-1.92-.96-3.07-1.54,1.32-.36,2.93-.3,3.6-1.07,4.96-5.63,11.06-6.12,17.98-4.99,3.12.51,6.56-.19,9.72-.91,1.71-.39,3.1-2.09,4.72-3.05,2.48-1.45,4.96-3.72,7.57-3.93,4.39-.35,8.88.7,13.34,1.05,2.16.17,5.08,1,6.4-.05,6.59-5.24,14.49-2.84,21.64-4.43,3.18-.71,6.2-2.08,9.3-3.16-.07-.45-.15-.91-.22-1.36-3.85-2.23-7.65-4.54-11.56-6.66-5.84-3.17-5.87-3.11-3.4-7.83-3.04-6.58-6.06-12.36-8.4-18.41-1.66-4.28-4.04-6.02-8.56-4.99-2.58.59-5.26,1.16-7.88,1.12-2.26-.03-4.8-.42-6.71-1.53-5.43-3.15-10.6-6.74-15.94-10.2,4.79-8.15,1.64-17.01-8.22-20.69-6.35-2.37-8.71-5.81-8.69-12.82.02-6.27-1.21-11.82-7.42-15.09-1.01-.53-1.76-2.06-2.11-3.28-2.88-10-8.76-13.43-19.29-14.13-11.17-.74-22.34-2.7-33.25-5.26-3.46-.81-6.07-5.24-9.08-8.02-1.82-1.68-3.57-3.44-5.49-5-3.25-2.62-6.58-5.15-9.93-7.64-1.11-.82-2.31-1.66-3.61-2.05-2.92-.88-5.64-1.4-5.32-5.67.08-1.12-2.72-2.39-4.11-3.68-1.33-1.23-2.56-2.56-3.83-3.85,1.78-1.29,3.46-2.74,5.37-3.8,1.17-.65,2.68-.69,4.66-1.15-1.84-1.11-3.17-1.92-5.7-3.45,2.63-1.91,4.63-3.84,7.01-4.98,2.84-1.36,6-2.05,9.44-3.16-.75-.85-.97-1.28-1.32-1.46-6.9-3.65-6.86-3.61-2.74-10.09.55-.86.7-2.36.38-3.34-1.66-4.99-.53-8.18,4.25-11.03,4.18-2.49,8.18-5.42,12.63-7.25,2.86-1.18,6.4-.71,10.29-1.03-.95-1.49-1.47-2.3-1.8-2.82,3.08-5.71,7.65-9.09,14.27-9.01-1.86-5.91-1.31-6.45,4.67-7.49,1.57-.27,2.75-2.35,4.35-2.98,2.61-1.03,5.42-1.56,7.98-2.25-.38-.23-1.21-.75-2.27-1.4,7.08-6.7,15.45-8.4,24.83-8.58,5.34-.1,10.64-2.67,15.96-4.14.3-.08.58-.25.88-.3,5.43-.87,10.86-1.74,16.15-2.58,1.12-6.66,1.07-6.53,7.01-4.35,1.76.65,3.88.6,5.81.45,9.7-.75,18.97-4.86,29.06-3.14,3.23.55,6.82-1.46,10.28-1.64,5.57-.3,11.16.05,16.74-.13,1.27-.04,2.46-1.27,3.77-1.7,1.54-.51,3.16-.87,4.77-1.06,2.29-.28,4.61-.34,6.93-1.07-5.92-6.19-12.25-10.46-20.78-11.62-3.02-.41-6.5-3.86-8.05-6.82-1.66-3.16-3.67-4.34-6.69-4.85-3.28-.55-6.93-.3-9.77-1.71-6.98-3.45-14.4-5.52-21.64-8.15-7.76-2.82-15.6-5.45-23.84-8.32.79-3.83-2.02-6.35-5.53-7.82-6.3-2.63-12.8-4.78-19.22-7.11-1.3-.47-3.25-.46-3.85-1.36-4.89-7.39-13.27-6.58-20.26-9.08-3.43-1.23-7.15-2.62-9.72-5.03-3.74-3.52-8.27-6.26-10.53-11.57-1.14-2.66-5.23-4.27-8.25-5.85-5.41-2.82-11.1-5.1-16.53-7.89-3.61-1.85-7.17-3.93-10.41-6.36-4.27-3.2-4.58-6.54-1.62-10.99.26-.39.51-.81.86-1.12,8.46-7.57,6.73-15.86,2.01-24.58-1.57-2.9-3.24-4.81-6.8-4.65-3.56.17-5.98-1.61-7-5.08-1.19-4.04-2.85-8.04-3.3-12.16-.32-2.91.53-6.21,1.72-8.97,1.8-4.16.69-6.94-2.82-9.2-6.89-4.42-16.05-3.17-22.28,2.25-1.52,1.32-5.26,1.69-7.08.75-3.68-1.89-7.2-4.58-10-7.65-10.76-11.82-22.37-22.29-37.29-28.87-3.99-1.76-6.93-6.1-10.09-9.49C2.95,84.91,1.59,82.44,0,80.18c0,237.07,0,474.14,0,711.21Z"/>
      <path class="cls-1" d="M320.7,965.88c-2.74-1.11-5.48-2.22-8.42-3.42.9-.96,1.69-1.82,2.34-2.51-2.73-1.46-5.3-2.85-8.08-4.34,3.17-5.74,9.49-4.13,13.89-7.36-1.84-.14-3.67-.28-5.76-.44-1.11-7.35-8.83-2.74-12.33-6.95.22-.97.51-2.28.9-4.01-2.05-.13-3.87-.17-5.67-.37-2.88-.32-5.79-.56-5.27-4.84.09-.73-1.18-2.15-2.07-2.41-8.92-2.61-8.93-2.56-15.18-9.57,4.94,0,9.4-.15,13.84.11,1.04.06,2.34,1.26,2.96,2.28,4.35,7.17,13.58,7.32,20.67,5.15,1.23-.38,2.7-2.9,2.51-4.21-.26-1.82-1.66-4.43-3.16-4.92-3.8-1.25-7.9-1.77-11.92-2.06-2.54-.18-3.16-1.66-4.68-3.22-3.37-3.45-7.78-6.1-12.17-8.25-1.99-.97-4.98-.24-7.44.18-4.72.8-6.66,5.53-6.13,13.3-.7-.87-2.16-2-1.96-2.55,1.07-3.03-.9-4.15-2.95-4.95-8.43-3.27-16.74-7.15-25.46-9.25-4.64-1.12-10.24.32-15.07,1.75-6.07,1.79-11.59,1.88-17.19-1.15-5.11-2.76-10.25-2.1-15.3.38-9.9,4.87-15.01.93-20.03-6.05-2.34-3.25-4.11-7.05-5.46-10.84-3.76-10.56-19.92-20.08-30.89-18.03-6.49,1.21-12.66.47-18.72-2.58-2.39-1.2-5.71-1.53-8.38-1.03-7.66,1.46-15.19,4.4-22.59-.98-.78-.57-2.74-.09-3.86.48-9.35,4.78-19.1,3.19-28.82,1.95-1.28-.16-3.23-.85-3.55-1.77-1.4-3.96-4.75-3.24-7.65-4.39-4.63-1.84-10.5,0-14.12-5.64-3.06-4.76-3.91-5.38-.29-10.24,1.7-2.28,1.1-3.46-1.66-3.59-1.72-.08-3.6.39-5.15-.14-1.61-.55-3.87-1.79-4.15-3.09-.8-3.72-3.33-3.91-6.18-4.42-1.85-.33-4.89-1.12-5.11-2.19-.67-3.18,2.17-3.9,4.73-4.4,1.29-.25,2.56-.64,3.72-1.7H3.29c2.24-1.93,3.76-3.24,5.17-4.46C5.45,817.65,2.72,816.31,0,814.96c0,50.31,0,100.61,0,150.92,106.9,0,213.8,0,320.7,0Z"/>
      <path class="cls-1" d="M287.91,581.91c3.91-2.07,8.44-4.26,12.73-6.86,1.05-.64,2.14-3.06,1.71-3.87-.76-1.45-2.67-3.24-4.09-3.23-6.24.04-12.49.6-18.72,1.13-1.17.1-2.37.79-3.41,1.45-4.04,2.56-3.98,5.89.34,7.76,3.24,1.4,6.76,2.17,11.44,3.61Z"/>
      <path class="cls-1" d="M275.1,582.77c-1.29-3.53-3.63-4.62-7.03-4.62-5.17-.01-10.33-.63-15.49-.69-1.78-.02-4.35.33-5.16,1.49-1.31,1.87-2.1,4.62-1.83,6.85.13,1.1,3.07,2.42,4.86,2.64,8.9,1.13,16.74-2.57,24.66-5.67Z"/>
      <path class="cls-1" d="M280.54,584.1c3.44,4.7,12.18,5.95,14.77,2.86.45-.54-1.07-3.94-1.66-3.94-4.13.03-8.26.6-13.11,1.08Z"/>
      <path class="cls-1" d="M291.41,905c3.67,5.25,5.89,5.85,13.01,3.82-2.83-5.54-3.75-5.82-13.01-3.82Z"/>
    </g>
  </g>
</svg>