<?xml version="1.0" encoding="UTF-8"?>
<svg id="Layer_2" xmlns="http://www.w3.org/2000/svg" viewBox="0 0 1018.46 1231.29">
  <defs>
    <style>
      .cls-1 {
        fill: #fee2cc;
      }
    </style>
  </defs>
  <g id="Layer_1-2" data-name="Layer_1">
    <g>
      <path class="cls-1" d="M358.33,0c2.69,1.99,5.44,3.9,8.04,6.01,2.63,2.14,5.31,4.28,7.59,6.77,4.17,4.56,7.67,9.9,5.52,16.22-1.98,5.84-7.83,7.59-13.3,7.44-12.54-.34-25.05-1.45-37.57-2.26-1.49-.1-2.97-.32-4.87-.53,6.06,9.46,14.43,13.97,24.74,15.83,3.29.59,6.16,3.26,9.39,4.57,6.37,2.58,12.68,5.75,19.33,7.15,39.58,8.31,79.26,16.13,118.88,24.26,6.03,1.24,11.98,3.01,17.8,5.01,2.89.99,5.42,3.06,8.67,4.97-4.71,6.09-11.11,6.11-16.67,6.55-29.92,2.36-59.88,4.19-89.82,6.27-3.76.26-7.5.92-11.25,1.91,12.08,1.32,24.16,2.67,36.25,3.95,19.27,2.04,38.59,3.71,57.82,6.12,19.58,2.45,39.15,5.19,58.57,8.66,7.71,1.38,15.33,4.43,22.39,7.91,6.81,3.36,7.16,8.85.7,12.92-6.65,4.2-14.06,7.62-21.58,9.95-19.57,6.08-39.42,11.25-59.07,17.04-9.47,2.79-17.25,7.97-22.15,17.06-3.89,7.21-3.85,9.63,3.92,12.96,8.18,3.5,16.74,6.75,25.45,8.26,28.5,4.95,57.17,8.98,85.74,13.51,32.46,5.15,65.34,8.36,96.3,20.48,4.98,1.95,9.81,4.55,14.24,7.54,15.86,10.74,15.96,28.8-.79,38.25-9.84,5.55-21.25,8.76-32.31,11.62-20.98,5.42-42.24,9.7-63.33,14.69-20.19,4.77-35.38,16.1-44.59,34.99-9.35,19.18-21.28,36.16-39.89,46.25,11.05,2.89,22.6,4.86,33.33,8.96,17.23,6.58,29.4,20.39,42.54,32.66.43.4.99.96,1,1.46.18,12.2,8.1,21.05,13.84,30.62,6.53,10.9,6.65,17.45-3.13,30.38-1.8,2.38-4.32,4.22-6.06,6.63-.78,1.08-.48,2.96-.67,4.47l2.28,2.09c-8.64,5.5-16.8,12.05-26.03,16.24-12.08,5.5-25.21,8.64-37.5,13.75-9.09,3.78-17.71,8.81-26.16,13.91-1.74,1.05-1.73,4.93-2.64,7.46-.56,1.57-.96,3.5-2.1,4.5-2.68,2.36-5.5,4.91-8.73,6.23-19.71,8.04-39.38,16.22-59.43,23.34-7.92,2.81-16.76,3.03-24.99,4.4,6.45,2.95,13.51,4.59,21.12,2.41,3.82-1.1,7.77-1.87,11.44-3.34,17.92-7.16,35.88-14.26,53.57-21.95,4.62-2.01,8.49-5.88,12.43-9.23,3.2-2.73,5.16-6.13,1.91-10.3,13.62-9.44,28.95-13.89,44.15-18.65,17.78-5.57,34.08-13.59,47.02-27.46,2.2-2.36,4.64-4.27.79-6.11,3.8-6.04,7.82-11.53,10.85-17.52,3.21-6.33,3.15-12.99-.55-19.44-4.49-7.85-8.76-15.84-12.66-24.04,12.02,8.91,23.61,18.26,22.96,35.13-.18,4.57-1.6,9.68-4.06,13.5-26.1,40.54-57.82,75.52-100.86,98.75-18.47,9.97-39.13,13.24-59.25,18-31.75,7.5-63.72,14.18-94.16,26.34-15.26,6.1-30.07,13.04-42.08,24.65-14.21,13.75-17.6,28.47-8.61,46.15,5.34,10.49,13.28,19.66,19.67,28.87-3.72-1.65-8.73-3.86-13.74-6.08-.25.41-.5.81-.75,1.22,2.57,1.89,5.18,3.74,7.72,5.69,21.85,16.78,46.57,26.39,73.67,31.11,12.47,2.17,24.9,5.99,36.59,10.88,27.62,11.56,56.6,17.36,85.6,23.99,39.94,9.14,80.41,16.97,118.65,32.3,35.52,14.24,62.93,37.78,78.49,73.47,8.86,20.33,12.52,41.47,4.23,62.85-6.22,16.03-18.09,28.18-31.08,38.98-14.47,12.05-31.21,19.59-49.5,24.39-11.09,2.91-21.84,7.44-32.35,12.12-17.52,7.79-34.97,16.51-54.22,17.8-19.98,1.35-35.78,11.43-52.27,20.53-31.76,17.51-63.2,35.63-95.22,52.67-29.6,15.75-47.51,39.44-53.21,72.45-.68,3.92-1.6,7.8-2.41,11.7-11.62,0-23.25,0-34.87,0,1.74-4.07,3.48-8.13,5.22-12.2-.32-.19-.65-.37-.97-.56-1.64,1.33-3.28,2.66-5.5,4.45v-7.04c-.31-.02-.63-.04-.94-.06-1.12,3.62-2.25,7.25-3.37,10.87.42-.05.83-.11,1.25-.16.24,1.57.47,3.13.71,4.7-99.8,0-199.6,0-299.41,0,9.8-9.96,19.54-19.99,29.43-29.86,4.39-4.38,9.05-8.47,13.64-12.64,3.05-2.77,3.98-5.7,1.68-9.51-2.64-4.38-1.56-8.46,1.89-11.93,2.39-2.4,4.87-4.74,7.54-6.82,3.04-2.37,6.32-4.43,9.5-6.63-9.19,1.71-17.2,5.47-23.09,12.56-3.16,3.81-4.91,8.48-2.23,13.33,1.98,3.59.84,5.6-2.01,8.05-15.57,13.41-31.77,26.23-43.57,43.44-5.61,0-11.22,0-16.83,0,13.59-18.54,27.11-37.12,40.82-55.57,1.97-2.64,4.52-5.2,7.37-6.78,17.73-9.88,35.62-19.47,53.46-29.18,5.21-2.84,10.39-5.73,15.59-8.6-.3-.62-.61-1.24-.91-1.86-22.15,10.47-44.29,20.93-66.44,31.4-.22-.19-.43-.38-.65-.58,6.75-5.6,13.12-11.77,20.34-16.68,17.65-12.01,35.72-23.42,53.59-35.11,20.88-13.65,44.19-21.12,68.34-25.9,11.61-2.3,23.82-1.62,35.37-4.09,14.07-3.01,27.73-7.91,41.57-11.99-.18-.7-.36-1.4-.54-2.09-20.33,3.56-40.65,7.12-60.98,10.69-.2-.78-.4-1.56-.6-2.34,6.99-2.43,13.86-5.32,20.99-7.22,30.78-8.17,61.69-15.82,92.44-24.08,35.4-9.52,70.94-18.91,104.07-34.98,13.35-6.47,26.45-14.32,37.9-23.69,27.88-22.81,26.82-54.11,8.54-82.2-12.25-18.81-31.81-27.67-52.98-32.07-13.79-2.87-28.14-2.99-42.12-5.1-11.76-1.78-23.77-3.45-34.93-7.3-26.31-9.08-53.23-15.01-80.65-19.21-6.66-1.02-13.76-1.98-19.59-5.01-21.25-11.02-44.32-16.59-66.83-23.91-15.74-5.12-31.3-10.89-44.9-20.73-2.09-1.51-4.21-3.2-5.74-5.24-8.44-11.24-16.71-22.61-24.19-32.78,7.63,2.52,16.84,5.49,25.98,8.66,1.61.56,3.13,1.76,4.36,3,19.59,19.86,43.43,30.63,71.07,33.16,22.5,2.06,43.53,8.75,63.94,18.38,15.23,7.18,30.97,13.5,46.95,18.77,8.28,2.73,17.69,1.85,26.41,3.54,8.56,1.66,16.89,4.52,25.33,6.85.58.16,1.43.06,1.72.42,9.07,11.48,23.1,11.23,35.37,13.97,31.04,6.94,61.43,14.79,88.28,33.04,15.88,10.8,24.01,29.07,19.45,48.29-.44,1.88-1.39,3.89-2.7,5.26-5,5.2-6.78,11.45-5.4,18.23,2.59,12.75-3.23,22.48-10.69,31.58-7.64,9.32-17.87,15.13-29.63,19.59,22.55.91,48.32-23.08,48.33-44.36,0-1.97-.38-3.99-.89-5.91-1.64-6.17.71-11.09,4.02-16.16,2.29-3.5,4.55-7.78,4.71-11.8.58-14.11.82-28.4-11.13-40.5,6.76,1.36,12.32,5.48,17.47.73-3.12-1.37-6.11-2.57-8.99-3.98-3.58-1.75-6.91-4.12-10.63-5.43-25.64-9-49.36-23.04-76.24-28.78-13.2-2.82-26.28-6.23-39.5-8.96-7.28-1.5-12.48-7.19-18.83-9.36-13.65-4.67-27.95-8.6-42.25-9.9-20.03-1.82-37.54-9.55-54.89-18.36-20.26-10.3-41.44-18.23-64.08-19.97-23.38-1.79-43.65-10.24-62.18-23.79-3.82-2.79-6.81-6.69-10.34-9.9-1.36-1.24-3.08-2.24-4.8-2.92-11.06-4.4-22.19-8.63-33.24-13.04-1.82-.73-3.43-2.02-5.11-3.08-10.56-6.66-11.38-16.62-8.94-27.42,7.83-34.6,30.1-56.54,62.21-69.08,31.09-12.15,63.53-19.64,96.34-25.31,24.92-4.31,49.63-9.29,73.52-17.89-55.58,10.58-111.92,17.37-166.84,34.33,12.23-9.61,25.72-14.29,40.35-16.54,60.42-9.31,120.4-20.93,179.49-36.65,38.85-10.34,77.59-21.23,115.94-33.29,24.49-7.7,47.09-19.87,66.05-37.79,1.74-1.64,3.34-3.47,4.77-5.38,8.93-11.87,8.92-22.55-2.24-32.39-8.57-7.56-18.38-14.36-28.73-19.13-22.6-10.43-46-19.1-68.84-29.02-8.18-3.55-16.14-8.02-23.36-13.24-7.91-5.72-6.92-10.93,2.33-13.8,11.2-3.47,22.85-5.53,33.98-9.15,6.67-2.17,13.59-5.17,18.86-9.61,7.65-6.46,6.26-16.08-2.14-21.74-3.93-2.65-8.19-5.21-12.68-6.54-5.33-1.58-6.21-4.73-5.79-9.43,1.23-13.71,7.74-24.35,20.35-29.5,12.81-5.23,26.16-9.72,39.69-12.48,29.11-5.94,58.15-11.71,86.19-21.95,6.84-2.5,14.75-2.05,22.29-2.96-1.71-1.29-3.86-3.25-6.32-4.69-15.43-9.02-32.42-14.34-49.95-15.18-20.8-.99-40.58-5.43-60.5-10.77-11.09-2.97-22.76-4.37-34.26-5.07-23.18-1.4-46.49-1.03-69.62-2.92-19.02-1.56-37.88-5.19-56.76-8.23-3.44-.55-6.81-2.33-9.89-4.1-7.9-4.53-8.7-12.38-.95-17.06,8.29-5,17.2-9.64,26.46-12.26,31.8-8.97,63.9-16.86,95.81-25.42,15.18-4.07,30.2-8.72,45.27-13.19,1.9-.56,3.94-1.24,5.42-2.47,2.76-2.3,5.15-5.03,7.69-7.59-2.9-2.22-5.51-5.69-8.75-6.45-14.32-3.35-28.71-6.71-43.27-8.6-22.98-2.98-46.11-4.89-69.19-7.06-15.73-1.48-31.55-2.16-47.23-4.08-15.02-1.84-29.98-4.41-44.77-7.55-3.85-.82-9.14-4.42-9.99-7.73-1.51-5.86,5.03-7.39,9.26-9.01,17.45-6.69,35.87-7.57,54.25-7.99,15.99-.36,32-.08,48.01-.08.1-.92.21-1.83.31-2.75-5.36-1.07-10.74-2.04-16.08-3.23-21.34-4.76-42.68-9.52-63.98-14.45-3.26-.75-6.35-2.33-9.44-3.7-4.74-2.1-7.13-5.48-7.83-11-.47-3.73-3.7-7.08-5.47-10.7-1.23-2.51-2.08-5.21-3.1-7.83,2.4-.6,4.87-1.92,7.18-1.67,11.49,1.24,22.91,3.19,34.42,4.26,5.69.53,11.58.19,17.24-.69,4.71-.74,7.17-4.5,4.47-8.87-2.76-4.47-6.29-8.73-10.34-12.05C356.24,6.24,350.47,3.36,345.1,0c4.41,0,8.82,0,13.23,0ZM676.26,993.57c.25-.62.49-1.24.74-1.85,13.65-2.68,27.29-5.35,40.87-8.01-11.92-6.38-24.83-7.95-38.46-5.35,5.37-2.96,10.85-5.25,16.08-8,8.25-4.34,9.76-7.9,8.11-16.94-.35-1.88-1.14-4.63-.23-5.64,4.12-4.59,1.42-8.27-1.28-11.63-2.29-2.84-3.58-5.19-2.13-8.99.61-1.62-.78-4.04-1.39-6.06-.69-2.28-2.58-4.76-2.13-6.74,2.18-9.68,3.03-18.5-10.21-22.35,3.74-3.29,6.28-5.53,10.14-8.92-3.06.96-4.8,1.05-5.89,1.94-2.79,2.28-5.3,4.9-7.92,7.39,2.27,2.11,4.68,4.1,6.75,6.39,1.28,1.42,3.02,3.41,2.87,4.98-.64,6.81-1.91,13.56-2.86,19.8,2.19-.14,4.19-.27,6.19-.4-.71,3.11-1.42,6.22-2.2,9.65,1.72,2.07,4.09,4.53,5.92,7.34.84,1.29,1.41,4.08.69,4.81-2.98,3.04-2.16,6.28-.99,9.38,2.05,5.4.12,8.83-4.68,11.21-2.5,1.24-5.11,2.3-7.5,3.73-8.64,5.15-17.22,10.43-25.81,15.65.23.45.45.9.68,1.35,8.56-1.03,17.12-2.07,27.08-3.27-8.14,4.19-14.85,7.64-21.57,11.1.13.7.25,1.4.38,2.09,4.1.62,8.2,1.24,12.3,1.85.46-.9.92-1.8,1.38-2.71-1.63-.6-3.27-1.21-4.9-1.81ZM426.31,1126.81c-18.99,8.88-37.14,17.37-55.77,26.08,1.26,1.76,2.09,2.92,3.07,4.29-2.12,1.69-3.85,3.39-5.87,4.61-10.06,6.09-20.22,12-30.28,18.09-6.42,3.88-11.1,15.59-9.56,23.46,6.13-4.56,8.88-11.11,7.14-17.04,11.5-6.78,23.08-13.42,34.43-20.43,3.32-2.06,8-4.89,8.46-7.92.71-4.64,3.49-5.54,6.43-6.93,4.85-2.3,9.93-4.15,14.77-6.48,8.96-4.31,18.01-8.49,26.6-13.45,2.59-1.5,3.79-5.4,5.63-8.2-.62-.73-1.24-1.46-1.86-2.2,14.53-6.4,29.22-12.48,43.51-19.38,5.39-2.6,10.41-6.59,14.58-10.93,3.22-3.35,2.72-7.91-2.01-11.85,1.13,8.1-3.23,12.52-8.98,15.46-7.07,3.62-14.57,6.41-21.8,9.72-8.5,3.9-17.02,7.76-25.3,12.08-3.61,1.88-7.74,4.41-3.19,11.02ZM495.05,356.32c.49-.35.97-.7,1.46-1.05-.2-2.9-.4-5.79-.65-9.44,7.1,5.39,9.19,11.79,4.81,17.75-8.58,11.66-14.69,26.3-31.64,29.21,7.46.02,14-2.38,19.04-7.39,5.5-5.47,10.43-11.56,15.31-17.61,6.53-8.08,5.36-17.07-2.94-23.53-3.75-2.92-7.8-5.46-11.98-8.36-.17,1.8-.33,3.44-.57,5.91-1.76-2.14-3.06-3.62-4.24-5.19-7.9-10.39-7.02-15.92,4.19-22.72,5.13-3.12,10.76-5.43,16.16-8.1-9.11,1.49-17.63,4.35-24.97,10.16-6.49,5.14-8.38,10.33-3.73,16.93,5.86,8.32,13.11,15.66,19.75,23.42ZM335.17,658.98c-6.78-3.27-17.66.22-21.27,4.66-9.23,11.37-11.66,25.51-15.92,38.84-3.28,10.27,2.32,21.45,12.84,26.8-8.05-10.76-9.55-21.48-2.63-32.73.39-.64.91-1.88.65-2.15-4.53-4.68-.75-7.67,3.09-11.37-2.12.24-3.2.36-4.91.55,5.05-13.02,9.17-25.84,28.15-24.6ZM677.61,1005.2c-.25-.79-.5-1.58-.74-2.37-1.41,0-2.95-.38-4.2.06-7.56,2.67-14.86,6.44-22.62,8.16-19.9,4.42-39.24,12.99-52.49,25.13,6.87-2.76,12.13-5.01,17.49-6.98,11.13-4.11,22.28-8.19,33.5-12.04,5.44-1.87,11.23-2.78,16.55-4.9,4.4-1.76,8.35-4.66,12.5-7.06ZM477.23,180.82c-8.27,3.06-16.73,5.69-24.73,9.33-5.42,2.47-6.36,8.04-2.61,12.42,6.54,7.64,15.49,10.7,26.39,13.09-7.09-5.6-15.83-8.15-14.6-18.08,1.15-9.33,11.27-9.74,15.56-16.77ZM576.37,1034.65c-.53,1.69-1.12,3.37-1.57,5.08-3.26,12.19-8.42,16.55-20.75,15.88-11.48-.62-21.44,4.02-31.76,7.72,3.93-.2,7.73-1.05,11.55-1.77,5.83-1.09,11.9-3.61,17.49-2.83,15.56,2.17,25.1-7.18,25.04-24.07ZM395.93,621.71c-11.96-4.95-18.67,2.87-26.1,8.57,8.38-2.75,16.75-5.5,26.1-8.57ZM523.17,1067.77c-4.64,1.79-8.85,3.41-13.35,5.14,1.04,1.53,1.89,2.79,2.53,3.72,1.98-6.5,9-2.92,12.58-5.96-.86-1.42-1.65-2.72-1.75-2.9ZM509.35,1081.99c-4.24-7.55-8.75-1.71-13.35-3.86.99,3.08,1.59,4.96,2.62,8.16,1.1-7.27,4.68-7.52,10.73-4.3Z"/>
      <path class="cls-1" d="M1018.46,1008.84c-5.64-1.73-11.27-3.46-16.91-5.18l.09-1c4.33,0,8.66,0,14.6,0-3.38-2.2-5.31-3.45-8.54-5.55,2.12-1.05,3.55-1.76,4.99-2.47-.16-.47-.32-.94-.49-1.41-3.87-1.03-7.75-2.07-10.83-2.89-.68-1.91-1.26-3.73-1.97-5.5-.51-1.26-1.24-2.44-1.78-3.69-.83-1.91-1.04-4.68-2.48-5.61-4.46-2.91-6.91-7.5-10.47-11.13-.41-.42-.89-1.04-1.38-1.08-13.67-1.19-13.74-14.36-19.71-22.32-.79-1.05-1.37-3.13-2.15-3.18-5.24-.35-7.67-6.51-10.63-7.09-8.35-1.65-14.77-10.06-24.77-6.52-3.32,1.17-7.98-1.46-13.09-2.59,1.7-1.05,2.54-1.62,3.42-2.11,3.36-1.86,6.57-4.15,10.14-5.43,5.39-1.92,10.97-4.02,16.58-4.43,8.85-.65,13.19-4.83,13.74-14.54-4.25-1.39-9.03-2.96-14.51-4.76,3.72-4.09,5.46-8.42,1.16-13.44,1.73-.15,2.8-.56,3.6-.26,7.68,2.85,10.74-5.18,16.38-7.12.42-.14.4-4.51-.7-5.53-3.7-3.44-7.99-6.25-12.33-9.51,1.24-1.83,2.53-3.74,4.26-6.28-3.64-.79-6.95-1.52-11-2.4,1.8-1.92,3.44-3.66,5.79-6.17-2.58-.68-4.37-1.09-6.13-1.62-3.06-.93-6.98-.59-6.99-5.7,0-.89-2.91-2.34-4.59-2.56-9.45-1.22-18.94-2.14-28.64-3.83,6.46-1.14,12.91-2.29,19.37-3.43.02-.32.03-.64.05-.96-4.27-1.21-8.54-2.43-12.8-3.64.41-.51.82-1.02,1.23-1.53-.96-1.18-1.74-3.14-2.92-3.42-4.98-1.19-10.07-1.88-16.81-3.05,5.24-1.74,9.01-2.99,12.77-4.24-.05-.42-.1-.84-.15-1.25-2.46,0-5.04.48-7.34-.12-3.04-.8-5.92-2.34-8.76-3.76-2.64-1.32-5-3.36-7.75-4.25-4.07-1.33-8.35-2.15-12.61-2.76-3.7-.52-7.56.07-8.71-5.13-.22-.99-3.38-1.69-5.25-1.86-3.3-.3-6.65-.08-11.65-.08,2.7-2.56,4.13-3.93,6.1-5.8-6.41-1.36-12.48-2.43-14.54-11.6-2.78,8.85-8.45,11.22-14.37,10.78-6.18-.46-13.29-1.5-18.01-4.98-5.76-4.25-9.44-11.31-14.18-17.36,1.09-.55,2.45-1.23,3.91-1.96-1.68-.46-3.73-.39-4.59-1.36-6.33-7.17-14.1-7.8-22.92-6.36-3.98.65-8.36-.24-12.39-1.16-2.19-.5-3.95-2.67-6.02-3.88-3.16-1.85-6.32-4.74-9.66-5.01-5.6-.45-11.32.9-17.01,1.34-2.76.22-6.48,1.27-8.16-.07-8.4-6.68-18.47-3.62-27.59-5.65-4.05-.9-7.91-2.66-11.85-4.03.09-.58.19-1.16.28-1.74,4.91-2.84,9.76-5.79,14.74-8.49,7.44-4.04,7.48-3.96,4.33-9.98,3.88-8.39,7.72-15.76,10.71-23.47,2.11-5.46,5.15-7.68,10.91-6.36,3.3.75,6.7,1.47,10.04,1.43,2.88-.04,6.12-.53,8.56-1.95,6.92-4.01,13.52-8.6,20.32-13-6.11-10.39-2.09-21.68,10.48-26.38,8.1-3.03,11.1-7.41,11.07-16.35-.03-7.99,1.54-15.06,9.45-19.24,1.29-.68,2.25-2.63,2.69-4.18,3.68-12.75,11.17-17.13,24.6-18.01,14.24-.94,28.48-3.44,42.38-6.7,4.41-1.03,7.74-6.69,11.57-10.22,2.32-2.14,4.55-4.39,7-6.37,4.14-3.35,8.39-6.56,12.66-9.74,1.41-1.05,2.95-2.12,4.6-2.61,3.72-1.12,7.18-1.79,6.79-7.23-.1-1.42,3.46-3.05,5.24-4.69,1.69-1.56,3.26-3.26,4.88-4.91-2.27-1.64-4.42-3.5-6.85-4.85-1.49-.83-3.42-.88-5.95-1.47,2.34-1.42,4.05-2.45,7.27-4.4-3.36-2.44-5.91-4.89-8.93-6.34-3.62-1.73-7.65-2.61-12.03-4.03.96-1.08,1.24-1.63,1.69-1.86,8.8-4.65,8.74-4.6,3.49-12.87-.7-1.1-.9-3-.48-4.26,2.11-6.37.67-10.43-5.42-14.07-5.32-3.18-10.43-6.91-16.1-9.24-3.65-1.5-8.16-.9-13.12-1.31,1.21-1.9,1.88-2.93,2.3-3.59-3.92-7.27-9.75-11.59-18.19-11.49,2.37-7.53,1.66-8.23-5.95-9.54-2-.35-3.5-2.99-5.54-3.8-3.33-1.32-6.91-1.99-10.17-2.87.48-.29,1.55-.95,2.9-1.78-9.03-8.54-19.69-10.71-31.66-10.94-6.81-.13-13.56-3.41-20.34-5.28-.38-.1-.73-.32-1.12-.38-6.92-1.12-13.85-2.21-20.59-3.29-1.42-8.49-1.36-8.33-8.93-5.54-2.24.82-4.95.76-7.4.57-12.36-.96-24.18-6.19-37.04-4.01-4.12.7-8.7-1.86-13.11-2.09-7.09-.38-14.23.06-21.34-.16-1.62-.05-3.14-1.61-4.81-2.16-1.96-.64-4.02-1.11-6.08-1.35-2.92-.35-5.88-.43-8.84-1.36,7.55-7.89,15.62-13.34,26.49-14.81,3.85-.52,8.29-4.92,10.27-8.7,2.11-4.03,4.68-5.54,8.52-6.19,4.18-.7,8.83-.39,12.46-2.18,8.89-4.4,18.36-7.04,27.59-10.39,9.89-3.6,19.88-6.95,30.4-10.6-1.01-4.88,2.57-8.09,7.05-9.96,8.03-3.35,16.31-6.09,24.5-9.06,1.66-.6,4.14-.58,4.91-1.73,6.23-9.42,16.92-8.39,25.82-11.57,4.37-1.56,9.12-3.34,12.39-6.41,4.77-4.49,10.54-7.98,13.43-14.75,1.45-3.39,6.67-5.45,10.52-7.46,6.9-3.59,14.15-6.51,21.07-10.05,4.61-2.36,9.14-5.01,13.28-8.1,5.44-4.07,5.84-8.33,2.07-14.01-.33-.5-.65-1.04-1.09-1.43-10.78-9.64-8.58-20.22-2.57-31.33,2-3.7,4.14-6.13,8.67-5.92,4.54.21,7.62-2.06,8.92-6.47,1.52-5.15,3.63-10.25,4.21-15.51.41-3.71-.68-7.92-2.2-11.43-2.29-5.31-.88-8.85,3.6-11.73,8.78-5.64,20.46-4.04,28.4,2.87,1.94,1.69,6.7,2.15,9.02.96,4.7-2.42,9.18-5.83,12.75-9.75,13.72-15.07,28.51-28.42,47.54-36.81,5.09-2.24,8.83-7.77,12.87-12.1,2.38-2.55,4.11-5.7,6.13-8.58,0,302.21,0,604.42,0,906.63Z"/>
      <path class="cls-1" d="M609.63,1231.29c3.49-1.42,6.98-2.84,10.73-4.36-1.14-1.23-2.16-2.32-2.98-3.2,3.48-1.87,6.76-3.63,10.3-5.53-4.04-7.31-12.09-5.27-17.71-9.39,2.34-.18,4.68-.36,7.34-.57,1.42-9.37,11.26-3.49,15.72-8.86-.28-1.24-.65-2.91-1.14-5.12,2.61-.16,4.93-.22,7.22-.47,3.67-.41,7.38-.71,6.72-6.16-.11-.94,1.51-2.74,2.65-3.07,11.37-3.33,11.39-3.26,19.35-12.2-6.3,0-11.99-.19-17.65.14-1.33.08-2.98,1.61-3.77,2.91-5.54,9.13-17.31,9.33-26.35,6.57-1.56-.48-3.44-3.7-3.2-5.37.34-2.32,2.12-5.65,4.03-6.27,4.84-1.59,10.07-2.26,15.19-2.62,3.24-.23,4.03-2.12,5.96-4.1,4.3-4.4,9.92-7.77,15.52-10.51,2.53-1.24,6.35-.3,9.48.23,6.01,1.03,8.49,7.05,7.81,16.95.89-1.1,2.75-2.55,2.5-3.26-1.36-3.86,1.14-5.29,3.76-6.31,10.75-4.17,21.33-9.12,32.46-11.79,5.92-1.42,13.05.41,19.21,2.23,7.74,2.29,14.77,2.39,21.92-1.47,6.51-3.51,13.07-2.68,19.5.48,12.62,6.21,19.13,1.19,25.53-7.71,2.98-4.15,5.24-8.99,6.96-13.82,4.8-13.46,25.39-25.6,39.38-22.98,8.27,1.55,16.14.59,23.86-3.3,3.05-1.53,7.28-1.95,10.68-1.31,9.77,1.86,19.37,5.61,28.8-1.25.99-.72,3.49-.11,4.92.62,11.92,6.1,24.35,4.07,36.74,2.48,1.63-.21,4.11-1.09,4.52-2.25,1.79-5.05,6.06-4.13,9.76-5.6,5.9-2.35,13.38,0,18-7.19,3.9-6.07,4.98-6.86.37-13.05-2.17-2.91-1.41-4.42,2.12-4.58,2.2-.1,4.58.49,6.56-.18,2.05-.7,4.94-2.28,5.29-3.94,1.01-4.75,4.24-4.99,7.88-5.64,2.36-.42,6.23-1.43,6.52-2.79.85-4.05-2.76-4.97-6.03-5.61-1.65-.32-3.26-.81-4.74-2.17,3.88,0,7.76,0,12.95,0-2.85-2.46-4.79-4.13-6.59-5.69,3.84-1.89,7.31-3.6,10.78-5.31,0,64.13,0,128.26,0,192.39-136.28,0-272.55,0-408.83,0Z"/>
      <path class="cls-1" d="M651.43,741.81c-4.99-2.63-10.76-5.43-16.22-8.74-1.34-.81-2.72-3.9-2.18-4.93.97-1.85,3.4-4.13,5.21-4.12,7.96.05,15.92.76,23.87,1.44,1.5.13,3.02,1.01,4.34,1.84,5.15,3.27,5.08,7.51-.43,9.89-4.13,1.79-8.62,2.76-14.59,4.61Z"/>
      <path class="cls-1" d="M667.77,742.91c1.65-4.5,4.63-5.89,8.97-5.9,6.58-.01,13.17-.8,19.75-.87,2.26-.02,5.55.42,6.58,1.89,1.67,2.38,2.68,5.89,2.33,8.73-.17,1.4-3.91,3.08-6.2,3.37-11.35,1.43-21.34-3.28-31.44-7.22Z"/>
      <path class="cls-1" d="M660.83,744.6c-4.39,6-15.53,7.59-18.83,3.65-.57-.68,1.36-5.03,2.12-5.02,5.26.03,10.52.77,16.71,1.37Z"/>
      <path class="cls-1" d="M646.97,1153.68c-4.68,6.69-7.51,7.45-16.58,4.87,3.6-7.06,4.78-7.42,16.58-4.87Z"/>
    </g>
  </g>
</svg>