<?xml version="1.0" encoding="UTF-8"?>
<svg id="Layer_2" data-name="Layer 2" xmlns="http://www.w3.org/2000/svg" viewBox="0 0 900.11 1151.77">
  <defs>
    <style>
      .cls-1 {
        fill: #fee5d1;
      }
    </style>
  </defs>
  <g id="Layer_1-2" data-name="Layer 1">
    <path class="cls-1" d="M310.13,1031.39c-.32-3.36.41-7.25,0-10.52-.18-1.38-.59-2.96-1.99-1.48l-2.02,11c-3.38,1.02-1.56-3.72-3.98-4-.03,7,1.75,13.89,5.01,20,2.11-1.52,3.96-3.35,5.98-5l6.99-19-9.98,9Z"/>
    <path class="cls-1" d="M123.12,1138.38c11.73-.76,18.06-14.08,30-6.98.49,2.3-.27,1.6-1.28,2.24-3.54,2.24-9.63,3.29-13.71,5.3-1.43.7-2.51-.23-2,2.44,8.12,1.28,15.09-3.39,22.99-4l.96,14.38h10.21l-2.16-18.37c8.67,1.42,17.12,5.17,26,3l-5.65,15.37h5.49l9.15-21.89c13.93-2.19,27.85-6.87,37.99-16.99-1.25-1.94-1.6-1.08-2.98-1.03-4.56.17-11.4,1.79-15.79,3.24-6.13,2.04-11.21,6.09-17.21,8.28l4.96-13.59c13.15,1.99,24.85-5.88,35.55-12.42l30.33,26.67-.36,2.36c-1.36.31-10.69-6.64-9.48-2.53,1.22,4.13,8.94,8.29,10.72,12.29,1.71,3.83,2.1,9.69,2.42,15.61h8.78c0-.97,0-1.95.02-2.93.04-5.13,2.85-9.63-.95-14.44,2.21-.25,2.65-.23,3.81,1.68,2.52,4.17,3.07,10.89,6.59,15.68h35.15c1.3-.73,2.19-1.38,2.44-1.89.9-1.84-1.42-1.49-2.21-1.75-6.14-2.01-13.62-2.75-19.77-.74-.64-.77,2.75-6.96,3.93-7.48.9-.4,16.24.72,19.6.53,4.96-.28,10.43-1.77,15.46-2.05-8.23-6.65-20.68-7.36-30.99-7,1.55-7.7,2.97-3.36,6.54-3.05,13.26,1.17,23.76-5.89,36.45-6.95.32-2.46-.02-1.59-1.4-2.1-11.83-4.36-23.56-2.27-35.6-.91,2.32-7.3,6.88-3.68,13.22-4.27,8.72-.81,18.78-5.37,27.29-7.7,2.85,13.75,2.48,28,2.49,41.98,9.1-7.16,19.38-10.14,30.99-8.99-.4,3.72-2.43,6.39,1.5,8.98l6.21-8.03,14.28,3.05-2.89-35.32c.41-1.35,10.44-5.47,12.84-7.24,7.64-5.65,13.55-14.61,13.06-24.43-10.51,4.8-16.19,14.53-24.49,21.99-.75.16-.64-.96-.48-1.48.51-1.64,11.63-22.5,12.53-23.47,2.49-2.68,12-6.69,15.93-10.07,4.77-4.12,8.5-10.29,9.46-16.55.24-1.59.69-2.71-1.43-2.43-8.11,1.06-15.73,12.89-20.01,19-.3-3.98,3.18-16.43,5.44-19.29.88-1.11,6.54-3.98,8.53-5.73,8.99-7.88,13.21-14.83,11.53-27.49-.18-1.39.55-1.73-1.48-1.47l-5.93,5.07-7.58,13.91,5.52-22.97c11.55-4.97,19.83-14.52,23.46-26.54-5.33-.84-9.59,4.14-13.63,6.87l-9.34,14.64c-.24-15.08,13.91-25.57,12.98-40.99-1.36-1.58-5.27,5.71-6.5,5.99-.92-.22-.52-2.16-.5-3-3.52.15-5.94-13.82-13-11.99,2.05,6.05,4.33,12.37,5.95,18.55.76,2.89-2.69.32-3.94.44-1.32,1.57,2.83,17.86,3.02,21.46.3,5.48-1.2,10.17-1.04,15.53-2.56.41-1.56-.22-2.09-1.41-3.22-7.21-4.03-15.03-12.89-18.59,1.25,6.62,1.51,13.52,3.49,20,1.44,4.72,5.06,8.74,6.07,11.96,2,6.42-6.58,21.56-6.58,29.03-1.69-.4-2.27-4.47-2.55-5.94-1.14-5.97-.33-17.54-8.43-18.06-2.1,11.48-5.7,27.47,6.81,34.18,1,1.71-2.42,10.72-4.81,11.82.19-2.38-1.47-19.45-4.99-16.99-2.83,6.1-6.5,13.46-5.94,20.36.42,5.21,5.39,11.35.42,15.62-8.92-36.61,5.78-72.24,12.21-107.79,5.44-30.03,10.93-67.34,12.33-97.67,1.76-38.01-9.4-79.04-11.08-118-1.53-35.48,3.53-70.61,2.09-106.09-.59-14.53-2.73-26.12-1.96-40.95.13-2.43-1.14-4.76-.89-6.78.65-5.23,10.35-13.82,15.11-15.91,9.32-4.09,13.05-1.02,22.29,1.09,2.57,1.99-.46,10.29,7.79,10.06,8.02-.22,6.2-6.53,4.61-11.95,1.23-1.12,10.7,6.33,14.87-1.63,1.54-2.94.05-5.58,4.11-6.37.7.95.78,20.42,1.02,23.49,2.12,27.74,5.18,53.95,4.03,82.05-1.06,25.94-6.92,51.23-9.03,76.97-2.13,25.98,2.03,68.23-16.52,88.48-1.58,1.73-5.22,2.44-5.5,5.53l6.79,56.78-8.78,14.7c-.02-4.69-.2-11.7-4-15-3.93,9.16-2.97,17.4-2.02,26.99-2.4,2.84-6.28-12.71-9.99-10.99.07,3.11-.21,6.26.12,9.37.76,7.13,3.13,9.72,2.88,17.62,2.32-.86,1.42-5.28,3.98-6.52,3.78-1.83,8.67,1.42,12.48-4.52,1.02-1.59,3.31-7.43.05-6.97-4.85.69-8.65,5.88-12.01,9-.76.16-.64-.96-.48-1.48,1.86-6.02,16.67-16.2,20.98-21.52.8,13.26,3.53,26.33,5,39.51,3.22,28.89,3.74,57.13,3.97,85.95.23,29.2-.11,57.65,5.05,86.54,6.21-1.75,6.48-6.4,13.44-7.05,10.03-.94,14.79,2.95,23.3,4.79,2.58.56,19.18,2.98,20.15,2.15,2.39-11.12,5.62-22.17,6.97-33.52,1.84-15.43,1.14-31.16,3.4-46.6,2.5-17.08,7.77-41.82,12.7-58.32.34-1.12-.67-1.78,1.51-1.45,5.52,4.3,11.97,6,17.53,10.48,17.57,14.15,14.26,28.94,17.15,48.85,4.59,31.57,16.61,68.86,42.17,90.04h19.35c1.88-20.09,4.35-40.15,4.33-60.37l2.03,19.45-.03,26.03,1.98,13.5c8.14-18.07,21.31-33.25,31.18-50.32,15.19-26.28,22.52-48.18,20.81-79.16-.6-10.88-6.08-12.77,4.69-21.34,12.7-10.11,30-17.01,43.8-28.2,34.03-27.6,32.33-38.3,46.75-76.25,1.81-4.77,4.97-8.98,6.77-13.72-21.47,10.31-43.91,18.78-65.35,29.14-25.45,12.29-41.21,20.72-56.45,45.55-14.69,23.94-22.84,53.15-41.7,74.3-1.05-6.34-.09-13.08.51-19.49,3.15-33.48,9.98-66.51,19.98-98.5-1.5.53-2.49,3.83-3.16,5.33-8.87,19.89-14.09,43.07-18.67,64.33l-3.15,28.34c-4.68-34.8-34.27-56.5-59.56-77l.32-16.26-8.77-14.73v23.5c0,3.02-8.11-1.99-9.01-3.03-2.08-2.41,1.17-8.74,1.88-12.1,5.68-26.87,7.3-55.07,18.62-80.37,12.5,29.93,23.6,62.27,48.98,84.02,7.61,6.52,16.44,10.45,22.52,18.97-5.07-17.47,3.11-36.92,5.72-54.79,4.18-28.63,5.43-65.93-13.73-89.69-4.74-5.88-11-9.95-15.2-16.8-1.67-2.72-3.77-3.99-1.85-7.26,1.81-3.08,12.23-11.67,15.59-14.44,9.71-8,34.9-26.34,46.99-26.09,8.49.17,12.37,9.81,22.42,5.08,1.9,5.93,4.71,11.48,7.55,17,2.53,4.93,9.52,13.93,9.52,19.48v16c0,.57-2.65,4.3-.01,4.49,5.27-11.56,6.31-26.14,10.98-37.52,5.54-13.52,24.24-24.29,35.04-33.95,20.15-18.02,37.58-40.4,47-66,9.13-24.81,9.59-52.3,9.98-78.51-.96-1.14-5.75,4.13-6.51,4.98-20.15,22.57-23.92,63.79-36.63,91.37-5.83,12.65-12.64,18.58-19.68,29.32-5.92,9.03-8.96,19.92-15.68,28.32-.93-.09-.54-1.68-.52-2.51.24-13.21,7.37-39.49,10.52-53.49,7.39-32.89,16.32-64.74,29.04-95.96,8.88-21.78,20.16-42.46,29.46-64.03-15.34,17.51-33.94,30.32-45.8,50.69-19.98,34.32-28.57,80.1-32.2,119.3l-2.79-10.69c-2.18-4.56-9.18-8.9-9.22-13.77,3.37-21.76,13.04-43.46,15.9-65.15,1.5-11.38-1.03-18.65-.92-28.83.05-4.52,2.02-10.78,2.03-15.55-14.76,10.85-18.91,32.99-29.16,46.33-7.58,9.86-7.41,3.33-14.55,1.9-2.79-.56-7.35.47-9.29-.71-.85-.51-4.38-9.85-6.46-12.54-2.07-2.7-17.01-15.08-19.78-16.21-7.24-2.96-11.39,4.24-12.74,3.23.47-4.8-5.54-14.52-5.8-17.66-.16-1.86,2.31-3.77,1.79-5.8-1.16-4.52-7.21,4.93-10.55.51-2.3-3.84,2.65-2.97,3.43-5.75,1.75-6.26-4.52-5.38-5.64-6.55-.57-.6-.24-2.63-1.16-3.3-1.35-.99-4.16.05-4.94-.59-.67-.56-.04-5-5.08-5.43-2.61-.22-7.27,7.86-9.07,10.07-1.13,1.38-3.14,1.9-4.46,3.54-3.98,4.94-2.79,12.89-12.05,12.05-7.19-.65-4.24-6.49-4.39-10.58-.08-2.13-1.05-4.05-1.1-6-.07-2.68,3.17-11.6-3.43-9.56-2.26.7-.92,14.42-2.58,17.05-4.92.98-4.96-5.64-8.98-5.99-1.54,8.42,1.04,16.58-1.01,25-2.28.41-1.59-.13-2.23-1.28-.66-1.19-3.77-11.86-6.76-9.72-.95,3.38-1.07,9.11-4.44,11.06-2.62,1.52-13.41,1.95-15.08,3.92-.5.58-3.9,8.59-3.48,9.01.37.38,2.95-1.2,3.44,1.87,1.71,10.65-12.35,14.06-20.31,12-1.7-2.68,7.99-20.63,10.07-24.18,15.43-26.36,48.69-54.79,72.33-74.67,6.91-5.81,14.15-11.26,21.19-16.91,3.99.74,6.78,3.93,11.02,4.65,15.83,2.67,18.7-4.77,30.39-11.14,11.38-6.2,26.98-7.59,25.03-24.97l1.43-1.57c19.65-4.84,60.8-35.62,78.95-17.13,5.12,5.22-1.51,10.09,4.02,15.99,4.85,5.17,11.18.22,14.92.14,2.23-.04,7.02,2.43,10.13,2.8,12.37,1.48,35.27-1.76,42.25-13.54,4.11-6.94,4.81-21.96,0-28.71-2.84-3.99-6.37-2.47-5.91-9.13.49-7.15,9.81-7.02,9.12-17-.76-10.9-13.98-12.52-15-19.08-.98-6.3,2.04-10.57-4.55-15.45-9.87-7.3-18.41.88-25.56-1.43-2.87-.93-14.34-9.28-11.95-13.56h17.5c8.43,0,8.01-25.25,7.49-30.49-1.11-11.25-5.74-11.69-9.2-18.8-2.81-5.78-1.4-12.42-5.96-19.04-3.97-5.77-11.03-7.35-15.24-11.76-5.97-6.26-5.31-16.8-14.91-21.09-9.34-4.18-12.11,2.09-19.93.97-11.74-1.68-19.12-12.26-31.1-4.62-6.25,3.98-5.66,10.09-15.49,7.16-6.44-1.92-30.32-16.86-35.2-21.79-8.66-8.75-8.87-23.19-21.66-30.34-8.64-4.84-12.95-2.3-21.7-3.3-5.37-.62-10.8-3.52-15.95-5.05-3.07-.91-9.58.08-8.48-4.14,1.49-5.71,8.86-8.28,7.76-18.1-1.36-12.08-15.23-13.4-20.95-20.09-4.5-5.26-6-19.76-10.68-22.32-1.84-1.01-5.88-.79-6.85-2.15-2.45-3.45.09-12.33-7.75-16.25-7.65-3.82-10.27,2.51-15.14,2.2-4.46-.28-7.35-7.44-15.63-6.54-7.08.77-7.72,7.03-11.55,9.44-11.07,6.97-26.05-16.2-39.21-12.25-6.68,2-4.47,9.83-8.61,12.43-2.98,1.87-7.7-.03-10.02,3.98-3.59,6.21,2.24,14.08-2.55,21.45-2.01,3.08-15.56,15.78-17.02,7.98-.92-4.94,3.48-10.2,1.86-14.82-1-2.86-8.59-3.76-9.92-5.34-3.08-3.69-3.44-15.27-5.2-20.55-8.3-24.87-48.61-22.84-60.55-43.45-5.15-8.88-5.45-16.17-14.85-23.15-17.67-13.12-61.65-13.71-76.3,4.35-6.4,7.88-9.45,26.39-19.76,28.24-13.27,2.39-20.82.4-33.2,8.8-14.02,9.52-19.51,25.3-29.65,37.35-8.64,10.26-18.19,5.8-28.12,11.88-4.86,2.97-5.87,7.84-9.32,11.68-8.48,9.46-26.95,6.2-38.95,20.05-13.45,15.51-4.56,26.18-8.49,41.51-1.99,7.75-12.11,17.49-16.35,24.65-13.89,23.4-.66,30.84,11.24,49.4,9.43,14.7,10.47,28.1,33.07,25.91,21.38-2.07,22.31-20.46,19.67-37.83,8.13-3.08,15.78-7.45,23.87-10.62,16.26-6.37,18.97-7.56,35.64-.71,19.16,7.87,46.57,21.17,64.34,31.66,15.31,9.03,9.72,11.26,17.99,22.01,2.77,3.6,6.85,5.09,9.64,7.86,12.26,12.2,18.36,40.49,21.21,57.29,3.62,21.3,5.32,43.07,9.14,64.35-4.63-1.93-9.56-3.37-10.76-8.79-.89-4.03,1.36-4.32,1.6-5.91.18-1.21-2.86-3.54-.82-6.3-6.45.5-10.68-6.69-17-4.01v-4.99c-3.38.83-6.86.78-10.27,1.22-4.47.58-4.11,3.18-9.2-1.23-2.1,2.22-3.9,4.8-3.54,8-4.24.45-7.4-2.86-11.53-3.06-2.38-.11-4.5,1.06-6.03.97-1.4-.08-2.39-1.66-2.96-1.68-.29-.01-2.77,2.53-4.63,3.1-3.14.97-6.33.25-9.4,1.42-2.04-5.44-2.51-2.76-5.67-4.01-2.12-.84-3.54-3.07-6.26-2.81-3.29.31-3.12,4.75-3.55,5.05-.44.31-5.03-2.38-6.53.95l-1.43.05-2.61-5.92c-2.33-.52-7.18,4.61-7.9,4.62-.53,0-1.34-1.34-1.98-1.33-.81.02-1.69,1.63-2.84,1.48-1.16-.15-2.53-2.5-4.17-2.52-1.44-.02-3.76,2.44-6.81,1.7-1.2-.29-1.4-4.09-4.2-4.09-2.64,0-4.21,5.35-6.52,3.56-1.22-.95-6.03-29.39-4.97-30.52,21.15,8,19.64-10.99,27.16-22.34,6.66-10.07,19.43-1.78,27.68,1.49.69,16.28,9.8,65.31,33.68,39.87,8.09-8.62,11.66-22.84,8.2-34.24-4.48-14.75-21.02-22.78-30.76-33.24-3.66-3.93-4.99-9.22-9.46-12.54-10.72-7.95-18.36.13-26.06-2.94-3.49-1.39-8.04-9.02-11.96-12.05-15.12-11.67-15.39,2.78-24.19,4.76-10.8,2.44-19.76-2.93-32.57,2.43-4.72,1.97-12.39,10.63-14.27,10.82-3.39.34-4.86-5.75-11.19-6.81-19.24-3.21-46.53.94-57.29,19.23-2.99,5.09-3.68,11.01-5.79,16.21-8.19,20.08-36.35,29.7-39.92,56.08-2.04,15.13,6.5,38.36,25.19,35.19,10-1.7,8.01-12.97,13.01-16.98,4.09-3.28,14.17-3.09,18.91-6.09,4.16-2.64,4.88-11.07,11.15-12.62l31.99,35.76c1.04,1.42.45,3.33-1.02,3.99-2.04.91-.79-3.1-3.47-1.98-1.04,5.91-5.42-1.3-11.04,2.5v6.46s-11.01,2.49-11.01,2.49l-1.01,2.03,1.04,5.5c-3.97-1.3-13.15,2.49-13.85,6.75-.38,2.3,1.37,3.86-.03,5.79-2.76,3.79-7.6,1.02-8.11,1.47l3,10.98-4.88,2.7c2.19,4.59-1.19,4.02-1.22,5.74-.11,7.25,7.32,6.41,6.21,13.44l8.89,1.63c-.04,2.52-4.89,3.11-6.67,4.83-.83.8-4.1,6.43-4.18,7.35-.16,1.92,2.51,2.7,2.74,3.95.13.71-2.49,4.53-2.82,6.96-1.75,13.04,8.27,9.05,10.46,12.36,1.41,2.13-.73,6.11,1.44,8.56,2.44,2.75,18.5,8.26,22.51,7.49,6.16-1.18,2.14-20.37,7.55-25.46,9.21-8.68,36.48-7.6,47.28-1.37,5.66,3.27,24.35,21.27,24.7,27.41.2,3.63-4.07,4.43-4.06,6.92,0,2.01,2.98,2.86,3.03,4.96.05,1.95-2.36,4.2-2.78,6.27-1.35,6.6,2.66,9.67,8.8,10.27.39,3.37-3.13,5.5-3.78,8.73-1.38,6.85,3.22,6.92,6.22,11.33,2.43,3.57,3.82,8.87,7.03,11.97,3.21,3.1,7.41,2.63,9.26,6.74,2.07,4.58,1.53,16.96,2.59,23.41,1.17,7.18,5.41,16.08,5.72,22.3.11,2.25-.06,2.64-1.27.27-6.55-12.78-16.11-20.14-31.25-18.74-.88.08-7.59.86-5.5,2.97.49.49,9.5,2.23,11.54,2.98,10.78,3.96,11.98,9.71,19.45,16.55,6.64,6.07,15.62,11.26,22.54,17.46,30.28,27.15,39.81,61.94,38.46,102.02l-26-53c-1.38-1.44-1.83.07-1.99,1.48-.32,2.71,1.03,7.98-1.98,9.51-2.75-6.69-10.48-10.2-15.54-14.97-26.59-25.07-41.63-65.22-59.68-96.32-8.27-14.25-18.59-20.17-19.84-38.16-1.32-18.9,1.48-37.8,3.03-56.54l-10.98,47.99c-1.58-7.88-7.77-15.62-14.1-20.41-11.62-8.78-34.05-13.8-43.45-22.55-1.47-1.37-13.03-15.74-13.31-16.77-1.2-4.37,8.54-12.95-2.06-16.41l.9-7.85c-4.54-.66-6.45,3.95-11.29,3-.48-.09-2.1-3.39-4.44-3.79-2.1-.36-4.04,1.56-6.28.34-1.56-.85-1.8-4.29-4.49-4.27-4.43,2.08-2.85,8.23-8.5,6.71v4.02s-6-.02-6-.02v4.01s-5.44-2-5.44-2c-3.2,5.61-2.96,7.5-10.56,7-.71,3.4,1.33,4.6,3.01,6.99l-8-1.98,1,2.98c-7.12-1.32-8.79,2.75-7.01,9.01h-4.99s.88,5.85.88,5.85l-7.88,3.17c-.95,4.05,4.53.12,4.02,3.5-.5,3.25-5.05,3.03-5.02,6.98l5,.51-2.96,5.39,4.94,4.1-3.98,6.5c14.6-3.3,3.96,3.75,3.97,6.49,0,1.72,4.15,8.46,7.02,7.53l-2.01,5.46c2,4.08,10.85-3.62,12-2.47l-3.99,9.99c6.25-1.86,5.96,3.95,11,3.01.76,3.9-4.46,1.32-6.52,1.48-2.02.17-4.64,2.57-8.49.51l-.93,8.39,3.94,2.13c-.35,7.56-8.62,7.22-8.02,13.48h5s-2.97,6.51-2.97,6.51l5.98,1.5c-1.79,4.4,1.9,6.55,5.53,8.04,1.94,0,5.8-5.93,5.48-8.04l3.47,1.99,3.5-5.98c1.96,3.84,2.61,8.35,4.24,12.27.5,1.2,1.88,2.03,2.52,3.48.97,2.19.26,7.02,3.95,8.09,5.07,1.48,3.83-3.22,5.22-5.25.66-.97,4.65-.23,4.1-4.6l4.41,3.95c3.43-3.33,7.82-4.09,6.59-9.95,8.75,3.63,12.56-8.9,21-7.01l-1-10h-4.01c-.74-2.89,1.98-1.6,2.81-3.65,2.95-7.26-2.01-12.92,7.24-18.79,10.07-6.39,22.01-.88,30.43,5.48,4.9,3.7,10.28,10.56,15.19,13.81,9.02,5.99,29.45,9.62,35.17,17.83,3.91,5.62,6.04,14.63,8.99,21.01,12.95,27.92,27.57,54.97,47.2,78.8,3.09,3.75,17.15,17.31,17.96,20.05,1,3.38-4.11-.67-6.24-.35-3.34.5-6.32,3.65-7.27,6.83-.56,1.87-.16,4.03-.47,5,6.98,4.06,10.57,5.39,7.52,14.05-1.22,3.47-5.31,2.07-7.27,4.19-2.32,2.52-1.52,13.39-8.25,13.74,2.81-5.8,1.32-12.32,2.24-18.25.74-4.75,4.22-8.99,5.76-13.74l-6.49,12-3.56-14.47c.47-3.15,7.07-4.03,7.14-9,.12-8.9-16.26-12.72-17.93-5.84-.37,1.53,1.89,10.19,2.97,11.7,1.99,2.8,5.4,1.81,6.69,4.31,2.17,10.83,5.08,17.43,3.09,28.71-.19,1.07-.35,3.73-1.88,3.6-5.82-22.92-14.47-45.01-23.82-66.69-.04-3.86,13.41-6.25,5.16-14.15-3.26-3.12-7.12-3.74-11.43-2.72-3.72.88-7.03,5.37-10.89,2.05l-13.03-25.48c-1.6,5.95,4.47,14.24,1.45,18.93-7.25,11.27-22.69,12.66-32.78,20.24-8.67,6.5-16.27,16.85-22.09,25.91-6.35,9.88-13.94,28.75-20.57,36.43-2.7,3.13-6.91,4.94-11.02,4.49-.16-16.05,5.35-32.31,13.48-46.02,6.84-11.54,17.66-19.71,25.33-30.67,17.41-24.85,23.04-58.83,32.17-87.31-15.89,11.29-30.16,23.31-40.16,40.33-6.92,11.77-17.63,38.85-18.81,52.19-.3,3.39,1.3,22.44-2.52,22.46-5.15-5.62-1.31-13.74-1.6-20.33-.46-10.55-7.1-29.92-9.42-41.63-1.5-7.56-3-15.31-3.48-23.02-1.87-.44-1.94.64-2.83,1.66-15.71,18.09-19.73,64.8-14.68,87.34,5.18,23.08,18.11,26.47,16.55,53.53-.24,4.19-4.35,28.85-6.68,30.55-9.59,7-13.61-15.54-15.9-21.05-13.31-32.07-40.6-56-65.45-79.03,1.6,32.49,12.38,77.36,42.07,95.42,12.09,7.35,26.47,8.49,37.43,17.57,2.15,22.28,4.12,44.59,3.49,67-1.61.37-2.04-.56-3.02-1.47-4.24-3.89-7.98-19.52-11.11-25.89-7.81-15.9-39.03-48.95-55.18-55.82-6.69-2.84-13.76-2.7-19.73-5.27-6.46-2.79-13.96-11.87-19.46-16.54-.74-.16-.67,1.03-.48,1.48,1.08,2.59,4.63,6.57,6.18,9.83,7.41,15.64,11.33,32.86,19.64,48.36,10.89,20.31,37.61,51.75,62.71,51.39,4.43-.06,19.47-3.73,22.02-.12-.62,16.95,6.31,32.32,8.32,48.68.51,4.2,2.26,20.72-.12,23.13-4.4,4.48-17.16-7.69-21.74-10.27-11.29-6.37-28.65-11.95-41.53-13.47-15.12-1.78-32.28,2.63-43.99-9.01-.74-.16-.67,1.02-.48,1.48,1.47,3.56,11.92,16.57,15.02,19.99,19.11,21.06,44.55,31.82,72.96,24.02,7.96-2.19,15.1-7.37,23.92-6.39,1.01,5.05,1.97,10.15,3.37,15.12,1.34,4.72,6.64,18.19,5.19,21.74-.75,1.84-4.27,5.29-5.67,8.35-4.34,9.47-5.53,21.99-1.82,31.69l-7.89-6.64c7.43-12.82,4.55-32.33-3.6-44.35-1.77,4.49-2.86,9.84-3.37,14.62-.97,9.15-1.99,19.89,3.87,27.36l-18.61-14.71-28.38,4.73c-2.08,2.89,9.69,5.96,11.17,6.31,8.91,2.15,18.04,2.36,27.12.84l2.69,2.35-17.32,10.66-3.67,3.82c10.35,1.33,18.99-3.62,27.49-8.67l8.51,7.18c-10.3,2.45-21.44,8.04-31.99,5.5-.37,1.76.84,2.59,2.25,3.24,7.42,3.42,26.44-1.21,34.24-4.17,12.95,6.03,7.26,9.53-3.27,11.66-9.93,2-20.24.77-30.22,2.28.56,3.18,3.81,3.82,5.83,6.66,2.26,3.18,3.91,8.39,5.99,12.01.86,1.49,7.77,10.78,7.17,11.32-6.25.64-4.98-4.69-7.28-9.21-1.9-3.73-5.41-8.75-8.77-11.23-.99-.73-8.65-5.51-7.88-2.14,1.38,6.02,9.13,20.77,15.93,21.58.34,1.31-3.13,1.76-3.73,1.74-3.77-.09-9.16-12.31-11.85-15.67-3.27-4.08-10.99-10.6-15.94-12.07-3.83-1.13,1.19,7.48,1.7,8.31,3.56,5.78,8.93,8.28,12.82,13.67-11.01-3.54-19.44-12.63-30.99-14.99,4.75,15.85,22.46,16.88,35.95,20.54,1.67.45,3.34.54,5.05.46-.35,1.91-2.08,1.66-3.45,2.04-5.41,1.5-10.76,1.28-16.09,1.91-1.5.18-3.08.19-3.46,2.03,7.6,3.47,14.29,1.54,21.99.02l-1.99,1.98c9.57,1.92,21.07-7.96,28.98-1.49l-4.66,3.32-14.31,4.67c5.4,3.41,16.04.22,21.33-2.64,1.57-.85,3.05-3.4,4.29-3.65.82-.16,9.6,1.85,7.39,4.32-3.65,4.06-10.67,4.85-14.02,9.47ZM676.1,1034.09l14.01-6.7-6.26,28.23c-.76,2.21-2.42,3.1-4.72,2.77-2.02-7.96-3.68-15.99-3.03-24.3ZM765.14,718.91c.53-2.74,4.21-4.72,5.85-7.14,1.04-1.54.38-4.28,2.11-4.37l-5,30c-1.41,1.54-1.81-.12-1.98-1.49-.54-4.35-1.73-13.09-.98-16.99ZM98.85,586.66c-3.64.63-3.86-2.55-1.01-4.04,2.63-1.38,13.46-2.72,15.27.76-4.9-.36-9.89,2.52-14.26,3.28ZM122.21,541.3c-1.02-3.77,2.08-5.57,4.4-7.89,8.24,8.52,21.73,9.83,32.5,14l-.48,1.97c-12.26-2.19-24.75-3.51-36.42-8.07ZM144.11,550.4c-1.85,2.92-4.22,5.69-7.99,4.99v-6.01s7.99,1.01,7.99,1.01ZM128.12,577.38c1.31-1.91,3.62-2.66,4.01-5.59.41-3.08-2.9-5.55-1.89-7.28,8.42-6.43,15.06-10.93,26.26-10,35.25,2.92,26.01,30.98,35.61,55.87-21.25-12.29-35.32-41.03-63.99-33.01ZM142.12,1112.38l3.88.13,1.11,7.87c-5.12.43-5.41-3.91-4.99-8ZM141.2,1106.31l-2.09-6.91,14.48-6.01c2.04.44,3.37,9.9,1.38,11.85-4.98-.01-9.02-.72-13.77,1.07ZM149.11,1079.38c-6.05-.63-10.32-4.05-4.5-8.98,2.97,2.63,5.37,4.54,4.5,8.98ZM155.62,1120.38c-2.97-2.15-2.96-5.99-4.5-8.99l5-.02-.5,9ZM161.14,1048.93c-.42,1.45.57,1.74-2.01,1.45l-14.02-21.98c1.55-1.23,14.96,8.35,17.8,9.18.85,1.43-1.17,9.27-1.77,11.35ZM168.75,1052.53l22.2.03,6.15,12.83c-9.52-4.35-20.56-6.35-30.99-4-.16-2.2.29-8.07,2.63-8.86ZM168.12,1046.38l2.65-8.04c6.02-.63,11.51,2.13,17.34,3.06l-13.94,4.54-6.05.44ZM175.12,1091.39c1.72-1.52,11.47,4.33,12.53,5.98,1.18,1.84-.61,4.69-2.17,4.95-1.39.23-11.51-9.92-10.37-10.93ZM185.99,1068.5l4.12,9.88c-6.58-.06-7.67,3.35-13.74-.75-10.14-6.84,3.25-8.19,9.62-9.12ZM187.13,1084.89l4.67-3.37,8.29,8.37-4.82,2.32-8.14-7.32ZM166.12,1078.39c2.26-.31,5.11.68,6.65,2.32.38.4,1.47,2.53,1.34,2.66l-6.95.97-1.04-5.95ZM169.47,1100.52c.85.27,1.66.6,2.35,1.19.68.59,4.81,5.94,4.3,6.66l-7.98,4.01-.85-10.34,2.19-1.52ZM193.74,1126.28c-8.63-.85-15.31-.81-23.96.15l-1.73-7.44,13.59-4.27c4.28,4.2,8.13,9.45,14.47,10.68.27,1.64-1.31.98-2.37.88ZM200.62,1117.38c-.97-2.2-9.87-7.02-8.5-8.97,5.26-3.79,5.76.76,10.99.99l-2.49,7.98ZM201.14,1096.88l6.97-2.49c-.07,9.32-1.94,10.71-6.97,2.49ZM209.13,1086.39c-1.29-6.22-6.25-10.35-10.01-14.99,2.71-2.61,10.27,6.47,13.93,6.08.78,1.44-2.68,9.83-3.92,8.91ZM216.62,1070.37l-16.48-17.48c-.05-2.05,6.02-.79,6.75-.27.38.27,2.94,6.41,4.38,8.12,2.22,2.63,9.8,5.6,5.35,9.63ZM213.13,1041.39l5.97,10.51,4.94,4.08-2.93,7.4c-1.78,1.36-9.76-19.25-7.98-21.99ZM213.12,1102.38c1.69-11.02,7.72-16.03,17.68-19.83l10.32,10.83c-9.99.9-18.9,5.26-27.99,9.01ZM276.11,1108.38c-4.36.42-7.71-6.29-11.48-7.01-4.04-.77,1.45,4.86.48,6.02-10.07-4.6-11.91-14.13-16.49-22.99l.49,7.99c-.92,1.2-4.63-7.59-5.13-8.4-.87-1.4-3.16-1.23-2.96-3.07-.18-5.72,7.32-7.19,7.1-12.52-9.06-.44-16.8,5.13-24.99,7.98-2.62-2.18,20.34-17.94,20.99-19.5.9-2.16-1.07-1.27-2.09-1.1-4.91.8-10.29,3.69-14.89,5.61v-5s18.99-2,18.99-2c-1.34,7.72,3.72,15.69,10.5,8.02l18.48,29.49c-1.84,2.98-4.23-1.8-6.48-2.5-2.86,3.54,8.97,17.61,7.5,18.99ZM284.13,1148.38l-3.01-8.99,4.88,1.1c.44.51.01,7.59-1.87,7.89ZM276.13,1069.39l14.41,21.08,1.57,3.92c-6.68-6.82-17.66-14.42-15.98-24.99ZM323.62,1112.37c-2.61-2.89-10.11-17.65-3.99-18.98,1.68-.36,2.01,1.3,2.55,2.43.66,1.37,4.71,10.63,4.74,11.24.09,1.57-2.32,4.01-3.31,5.31ZM300.12,1079.38c-3.05-2.81,16.08-9.85,17.69-10.8,1.59-.94,10.92-7.83,11.3-8.71.85-1.98-.9-1.48-2.1-1.1-8.09,2.51-15.78,6.19-23.89,8.61,3.96-4.33,10.77-5.5,15.5-8.99,4.11-3.04,7.74-8.24,10.5-12.5l-13.99,4.5c5.1-5.85,11.31-10.91,12.99-18.99-1.65-1.64-13.1,8.45-14.99,9.99l-4.93,8.38-2.05.61-14.01-18.99c.01,4.28,1.65,10.12,3.49,13.99,2.56,5.38,9.27,9.31,8,15l-12.49-12.99c.47,4.12,1.92,9.02,3.82,12.67,2.06,3.97,7.27,7.1,5.68,11.32l-16.49-17.99c1.42,5.73,4.8,12.5,7.82,17.66,1.49,2.55,6.3,7.42,6.68,8.31.67,1.59-.74,3.91-2.94,2.95-3.07-1.35-16.87-22.69-20.36-26.64.28-21.1-4.07-40.06,13.32-55.26,16.54-14.46,39.21-15.67,51.46-35.02,4.45,32.73,18.22,63.29,22,96l-8.99-1c.75-4.9-2.73-10.91-8-11,.37,3.93,2.88,8.06,6.99,9.01l-.02,1.45c-2.98.62-4.41,10.52-6.46,9.53-1.45-.7-4.51-8.67-6.04-11.01-.77-1.18.24-2.58-2.47-1.98-.36,3.71.16,6.87,1.06,10.43,1.73,6.84,6.72,9.07,2.93,16.57-2.29.42-1.59-.15-2.22-1.28-3.31-5.95-3.91-13.74-7.28-19.72l-1.54,8.95c-10.61-.48-20.3,4.6-29.95,8.04ZM345.12,1077.38c1.34-8.62,11.52-10.28,17.99-14l.95,9.95-18.94,4.04ZM365.1,1077.39l2.01,17c-10.09-2.09-19.89-2.82-29.99-2.5,3.12-2.34,4.06-5.82,5.13-9.37,7.86-.39,16.28-.3,22.86-5.13ZM331.16,1095.84c-.74-2.02-3.91-12.47-1.54-13.45,2.29,5.64,7.38,9.92,3.48,15.99-1.49-.14-1.55-1.48-1.94-2.54ZM334.12,1104.38l2.59-5.07c10.81,5.6,20.51-1.98,31.41-1.93v6.01s-34,.98-34,.98ZM393.3,1011.07c-2.5,5.73-6.61,16.2-14.29,12.72-3.24-12.45-8.65-24.28-12.15-36.64-4.8-16.96-7.01-34.66-12.49-51.46,12.2-20.25,18.32-43.72,19.75-67.3-4.19,4.26-15.66,20.9-22.1,19.51-2.53-.55-3.62-2.59-3.94-4.96-2.16-15.72,3.99-16.21,10.57-27.53,10.91-18.8,13.91-40.88,17.48-62.01l-30.9,21.52-2.4-.44c-4.37-3-2.27-29.39-1.57-35.46,3.43-29.35,13.87-56.94,30.02-81.44h2.7c8.88,18.35,21.49,37.67,29.01,56.46,8.47,21.19,12.91,75.96,13.18,99.82.49,42.04-6.18,119.05-22.86,157.22ZM350.91,596.09c2.39,5.19,5.87,10.15,3.71,16.29-5.12-7.82-15-12.83-18.51-20.99l5.53-1.95.98-5.04,6.48,6.98c.88-5.38,8.87-.74,10.15-7.86l2.9.34c9.63,11.72,18.09,24.96,22.9,39.4-5.36.77-5.4,6.26-9.41,8.12-5.12-6.46-7.18-14.5-11.7-21.31-3.86-5.81-9.43-10.01-12.8-16.2-2.22-1.05-.55,1.47-.21,2.21ZM353.06,506.45c-1.64-.18-4-.22-3.82-2.4.2-2.38,5.75-11.32,9.35-10.67,3.86,1.07-1.77,9.11-2.53,11.45-3.38,10.32-2.88,14.23-11.42,22.58-.81.8-7.86,6.7-8.52,5.97l.99-7.99c-6.03-.17-11.05,5.03-14.98,8.99l.99-5.99-5.99,2.99c-.05-2.64-.34-5.21.74-7.75,2.75-6.44,28.26-11.53,35.2-14.31v-2.87ZM363.95,529.54l1.15,3.84c-4.03-2.72-7.07,1.33-9.47,1.06-.47-.05-.34-3.14-3-2.02-1.54,3.78-4.58,2.62-7.51,4.97-.81-6.61,15.63-9.8,18.83-7.84ZM324.85,597.62c4.62,4.69-4.84,6.64-5.7,3.19-.63-2.53,3.38-5.54,5.7-3.19ZM326.11,589.87c1.79-.8,2.05-.73,3.49.54.87.77,8.08,13.43,7.51,13.98-4.85,1.08-16.36-12.13-11-14.52ZM390.09,630.87c-.54-23.49-.08-46.55,9.03-68.48,4.51.48,1.26,3.97,3.41,8.62,2.09,4.52,8.67,16.2,9.54,20.93.95,5.14-2.79,29.59-4.78,35.14-1.03,2.88-18.65,30.89-20.18,29.31l-4.88-16.29,7.85-9.23ZM388.09,575.92l-3.94-10.05,2.04-1.09,9.93,1.61c-.73,3.49-3.1,12.56-8.02,9.53ZM411.1,745.39c-15.19-19.97-13.77-49.01-19.95-72.65l14.47-20.34c1.14,11.03,1.77,22.25,3.81,33.18,1.51,8.06,6.48,19.25,6.71,26.37.21,6.21-3.07,13.01-3.92,19.05-.67,4.74.76,9.72-1.12,14.39ZM383.62,681.41c1.45.95,1.39,1.91,1.55,3.43.8,7.48.66,15.12,1.94,22.55-4.1-4.89-7.34-11.62-9.97-17.53l6.48-8.45ZM427.95,587.72c-.89,1.04-.97,2.1-2.83,1.66l-2.04-18.29c3.45-3.24,12.41-7.61,12.03-13.14-.49-7.15-15.07-14.3-13.86-18.86.57-2.16,6.36-5.51,5.9-10.17.74-2.94-9.03-5.51-7.02-7.53l3.99,1c-.36-6.08,2.14-1.52,4.27-.76,2.76.98,6.58.32,7.74,3.75-4.77.2-6.03,4.05-3.99,8h-3.01c2.2,3.47-.22,8.51.43,11.05.79,3.08,4.24,3.48,5.35,5.68,2,3.95-.38,10.22,4.62,12.37,1.63.7,6.51.27,5.59,2.39-6.93,6.39-11.22,15.91-17.16,22.85ZM439.12,526.38l11.99-7.99c-1.15,5.55-6.26,10.32-11.99,7.99ZM435.12,595.38c-.08-8.74,6.11-14.04,10.91-20.36l2.06-.63,5,7.49c-2.17,1.29-16.49,15.11-17.98,13.5ZM457.1,589.88c-2.2,1-4.69.42-6.98.51-2.9-2.47,17.12-16.96,20.99-14.98-3.04,1.84-12.44,13.77-14.01,14.48ZM515.04,437.9c-.04-5.15,1.9-10.05,2.12-14.98.59-13.31.03-27.67-.08-41.08-.28-32.37-16.39-64.91-5.23-97.23,5.46-15.81,16.64-30.57,18.26-47.22l-6.82,17.67-19.17,33.84c-1.79,1.49-1-3.46-.92-3.92,3-17.05,17.36-36.36,27.94-49.34,2.17-2.66,6.1-10.43,9.01-11.72,1.94-.86,12.18-2.21,13.76-1.3,1.1.63,13.24,18.22,14.73,20.76,3.93,6.67,14.35,28.58,14.51,35.56.11,4.59-3.22,12.49-5.17,16.81-4.37,9.69-11.85,23.47-17.33,32.66-.65,1.09-1.01,2.75-2.51,2.98-1.93-21.64,13.34-54.31-1.6-72.91-.74-.92-4.22-5.19-5.41-4.08,13.87,13.29,10.01,42.58,5.03,59.53-.43,1.45.58,1.74-2.02,1.46l-13-51c-1.59,28.48,12.89,54.23,16,81.99l11.47-28.01c3.65-5.31,6.51-12.46,10.69-17.31.89-1.03.96-2.1,2.83-1.66l7.94,60.44c-11.24,24.82-18.66,52.88-35.45,74.55-2.26.42-1.38-.99-1.49-2.48-1.27-17.46-2.31-43.87-1.04-61.05.59-8.03,3.47-15.65,5.03-23.46l-8.86,13.63c-9.17,35.93-.21,73.44-10.64,109.36-3.5,12.07-9.38,25.4-17.49,35-.03-11.12-.14-22.41-1.02-33.49-.86-10.79-4-23.53-4.07-33.99ZM608.96,375.73c-1.15,2.67-16.37,20.47-18.84,17.65.21-8.22,3.18-16.79,5.98-24.51,2.09-5.77,9.17-23.38,12.53-27.47,2.02-2.46,3.18,3.29,4.43,4.54,1.6,1.6,4.28,1.22,5.05,3.44-14.31,1.82-5.48,17.8-9.16,26.35ZM616.11,366.38c4.54.17,8.93.32,12.99-1.99-1.58,13.41-3.08,30.69-12.48,41.01-10.46,11.48-30.6,17.58-44.51,23.98,2.09-4.32,2.79-9.35,4.81-13.68,8.24-17.68,39.87-25.25,39.19-49.31ZM643.87,388.6c1.22,2.01,2.15,5.5.27,7.32l-17.02,7.46c-.57-8.16,8.85-17.31,16.75-14.78ZM631.12,387.39v-18.5c18.81-9.87,5.76,12.22,0,18.5ZM557.82,878.59c-5.59,19.45-14.82-1.33-24.71-5.2,1.57,11.41,2.59,22.96,5.29,34.2,3.1,12.85,11.8,28.3,12.74,40.26,2.32,29.58-6.04,64.42-8.03,94.05-.87,12.94-.14,26.82-1.02,39.98-1.26,18.82-3.59,37.76-5.48,56.51-3.18-2.87-.57-6.94-.46-10.45.52-17.12-3.27-33.12-4.08-50-1.39-28.88,1.66-58.33.03-88.03-3.18-57.89-14.64-115.01-14.03-173.05l12.25-102.75,1.28-1.65,9.43,3.52c.23,1.97,3.01,8.65,3.04,9.92.06,2.05-3.1,4.73-1.78,7.33,5.69,1.56,7.66,6.84,11.28,10.22,6.45,6.02,10.12,3.16,11.44,14.56,1.49,12.88-3.04,27.67-1.88,41.88.65,7.95,5.63,17.8,5.79,24,.2,7.84-8.47,45.58-11.1,54.72ZM540.19,608.85l-6.06,20.54-3-32.99h5.99c-2.15,6.28,1.37,7.45,3.08,12.46ZM576.81,791.58c-.44,2.29-.35,5.15-2.19,6.79-4.3-.05-3.35-40-4.35-44.82l3.27-1.09,2.1,2.98,3-1.02c.53-5.22.97-10.49,3.98-15.02.76,1.37,1.51,4.04,1.54,5.55.17,10.76-5.11,34.98-7.35,46.64ZM602.6,837.38c-3.1,9.71-4.96,20.83-5.5,31.01l-2.98-10.99-10.01,58.99c-6.05-.69-4.34-16.24-4.04-21.54,1.29-22.21,7.12-54.71,12.53-76.47,1.2-4.84,5-24.29,11.92-13.89,1,1.5,5.67,13.95,5.59,15.33-.15,2.34-6.19,13.46-7.5,17.57ZM615.1,734.38c-2.46.42-2.21-.47-2.01-2.51.74-7.51,8.71-18.21,14.02-23.48l-12.01,26ZM664.59,753.36c-10.18,8.31-15.32,3.79-20.45-6.4,3.35-2.24,21.27-17.46,23.95-15.56,2.52,9.05,4.58,15.36-3.5,21.96ZM728.08,713.34l-16.95,10.05c1.28-6.99,8.89-17.14,16.55-13.05l.41,3ZM726.11,684.91c.3,2.7-5.35,4.94-5.77,5.69-.64,1.13-.32,3.32-.08,4.65.7,1.1,5.9.23,4.85,2.62-11.98,12.09-25.05,37.79-44.49,37.59-7.03-.07-8.76-4.49-6.74-10.83,8.38-9.9,16.74-19.96,26.77-28.22,4.94-4.07,15.97-12.76,22.11-12.99,1.64-.06,2.36.07,3.36,1.47ZM715.84,673.54c3.1-.84,6.25,1.45,7.03,4.37l-11.26,7.45c-3.4-.32.54-10.83,4.24-11.82ZM681.04,661.06c1.5-2.24,8.68-2.61,11.1-1.2,6.26,4.74-12.1,25.92-16.01,29.52.22-7.68.62-21.94,4.91-28.33ZM706.62,662.41c5.35.28-3.47,14.51-4.68,16.31-7.85,11.65-19.74,21.93-29.82,31.67,2.68-19.43,18.31-37.77,34.5-47.98ZM659.6,670.37c.44-.38,9.87-2.61,11.27-2.8,2.05-.28,4.16-.39,4.19,2.22.05,3.87-2.22,14.55-3.24,18.8-4.79,20.01-18.45,38.92-34.21,51.77-1.93-1.25-1.08-1.59-1.02-2.97.21-4.96-.68-23.95-.04-26.03,1.24-4,9.97-15.44,12.74-20.3,1.96-3.43,9.12-19.65,10.31-20.69ZM647.84,660.55c1.43-.3,2.8-.49,3.83.78,2.45,3.57-4.39,14.99-6.38,18.73-3.38,6.33-7.59,12.41-11.67,18.31-.96.05-2.98-8.71-3.07-9.94-.41-5.52,11.62-26.7,17.29-27.88ZM626.62,656.41c1.44.01,3.9,8.3,3.98,9.86.06,1.11-2.16,8.79-2.49,9.12-1.68,1.65-1.68-.51-2.08-1.4-2.59-5.73-6.19-14,.6-17.58ZM607.12,652.39c4.75-.68,5.25,4.46,4.99,7.99-3.03.99-5.35-7.65-4.99-7.99ZM604.94,680.72c1.9-3.23,6.13-11.34,10.51-10.39,6.83,10.34,11.46,19.49,5.84,31.74-2.71,5.91-9.46,11.43-12.68,17.32l-.62-10.37-2.87-13.63v28h-3c2.32-6.54-5.76-20.45-5.6-24.51.07-1.82,6.94-15.63,8.42-18.16ZM584.11,645.4l-.99,2.99c2.58-1.92,2.56.59,2.99,3l-6.99,2-.89-5.88,5.88-2.11ZM567.09,648.88l-1.94,4.02.95,1.02c4.57.06,3.51,1.28,5.54,4.46,1.52.4,2.38-1.89,3.49-2.5,4.2-2.29,6.83,5.55,2.14,8.16l.83,2.87c3.57,2.39,9.8-2.6,11.02-1.53l1.99,5.52,9.01.49-8.5,17.99-.5-3.99c-3.08-.91-2.47,3.77-3.59,4.08-16.46,1.03-10.83-12.95-20.91-20.08l-.99,7.99c-2.83-5.22-4.24-8.81-10.94-6.1l-2.5-4.48c-2.95.52-5.24.99-7.57-1.41l-1.4,10.38c-5.64.52-2.35,6.57-7.08,8.61l15-58.01c2.94,1.12,4.42.73,6.98-.99.54,2.99-3.6,3.07-4.51,4.98-.94,1.98.03,4.5-.69,5.82-.24.43-2.87,1.25-3.86,2.63-2.11,2.94,1.71,6.16,3.71,6.47.98.15,1.96-1.23,3.08-1.53.71-.19,1.81.61,2.12.42.77-.46.65-3.6,3.15-2.79l.18,2.82,2.68.26.14,3.92,2.96.48ZM660.71,457.88c.25,6.13-8.34,13.18-12.58,17.03-22.2,20.15-54.63,40.34-69.81,66.19-3.87,6.59-6.45,13.92-10.71,20.29-10.71-19.54,3.6-33.56,8.01-50.99,2.62-10.35,2.08-20.93,3.61-31.39,2.13-14.51,7.88-28.57,16.87-40.13-.99-1.62-2.21.32-3.01.99-8.79,7.44-22.35,19.15-23.9,31.09-1.57,12.04,2.44,25.57.83,37.83-2.21,16.79-17.27,28.73-14.81,49.98.36,3.14,2.99,8.13,2.46,10.62-.51,2.4-3.81,6-4.08,9.03l-3.4-.04-1.09,3.99-6.28-1.9c-2.7,1.76-3.04,4.58-6.7,2.91l.04,3.53-5.04.47c-.24-35.6,7.09-73.97,17.5-108,7.02-22.94,14.27-32.82,35.83-44.17,22.07-11.62,45.34-9.85,66.68,2.69l-2.01,4.47c3.02-.7,10.24,1.93,10.01-1.98l1.96,1.49c-7.98,6.28-.57,11.48-.39,15.99ZM665.13,416.9c-3.75,1.64-8.62.84-12.2,1.56-.69.14-.75.92-.81.93,2.84-.52,11.21,2.73,9.55,6-2.69,5.31-12.72,4.93-17.55,2.99-1.68-2.46,6.5-8.71,8-8.99-11.85,2.4-26.1,5.2-37.75.25-1.41-.6-1.53-.2-1.25-2.23l23.5-12.99c4.45,13.01,20.26,4.54,30.49,4.98l-1.98,7.51ZM744.12,422.38c4.52-20.94,18.17-43.6,39.01-51.48,11.73-4.43,18.96-2.49,30.98-1.51,1.86,1.62-11.69,11.17-13.03,12.46-3.97,3.84-7.63,9.53-11.45,13.55-12.33,12.94-27.8,23.46-45.51,26.98ZM794.08,408.97c-12.74-2.38-1.36-12.05,3.68-16.47l12.36,6.91c-3,6.24-8.82,10.91-16.04,9.56ZM829.11,401.9c1.15,2.97-6.4.12-8.29.64-1.78.49-2.17,2.51-2.7,2.84,2.09-.78,7.24.06,7.9,2.69.45,6.03-10.5,7.05-9.93.87.07-.73,1.72-3.44,2.04-3.56-11.79,7.34-8.35-3.06.18-5.31,3.06-.81,9.39-1.84,10.81,1.83ZM820.02,380.49c.37.58-.02,2,.1,2.88-7.37.47-13.51,5.82-21,5,3.55-4.43,7.48-12.18,14.25-10.81.58.12,6.45,2.62,6.65,2.92ZM817.99,357.04l.04,2.73c-1.14,3.35-10.31,2.26-13.18,2.85-3.19.66-21.65,7.83-22.73,6.76-1.12-1.11,7.82-9.55,9.06-10.43,2.7-1.92,14.4-7.72,17.2-7.36,1.65.21,9.09,3.89,9.62,5.45ZM792.12,354.38c2.01-7.72,6.88-13.06,14.99-13.98,1.7,8.89-7.3,13.69-14.99,13.98ZM796.5,333.48c4.85,1.58-2.48,10.57-3.38,9.91l-.86-8.35,4.24-1.56ZM759.51,301.47c4,1.34-.18,14.5-5.39,12.91-.19-3.69-.77-14.97,5.39-12.91ZM766.1,299.87c2.29-2.43,9.41-3.64,10.92-1.39,2.59,3.84-4.81,6.75-5.98,8.34-3.88,5.27,3.69,9.37,4.04,13.11.92,9.78-12.11,28.17-20.97,32.47-2.21-3,7.64-47.93,11.97-52.52ZM764.09,349.86c6.49-8.34,12.55-16.98,18.07-26l11.95-1.46c-3.51,11.65-2.99,24.34-9.58,34.91-2.2,3.53-6.08,7.91-8.9,11.1-8.43,9.53-18.74,20.03-28.5,27.99-1.08-1.49,3.86-30.88,5.57-33.92,1.76-3.14,8.69-9.13,11.4-12.6ZM751.11,302.39c.37,11.01.19,21.15-2.69,31.81-.28,1.03.18,2.47-1.29,2.18-1.01-3.79-5.02-8.03-5.78-11.71-1.56-7.48,1.78-19.69,9.77-22.27ZM740.63,295.39c3.74-.75,5.16,8.26.98,9.97-2.64-1.31-3.72-9.43-.98-9.97ZM726.12,301.39c8.6,2.84,12.33,9.15,9.98,17.99-2.67-1.47-11.34-16.59-9.98-17.99ZM717.03,290.97l3.02-.53c1.8,3.98.95,7.83-3.92,7.94l.91-7.41ZM708.63,282.39c3.36-.65,5.06,6.39.97,7.99-3.32.7-3.3-7.54-.97-7.99ZM721.75,302.46c1.35-.24,2.13,1.11,2.81,1.99,2.52,3.25,7.39,12.99,9.72,17.27,2.43,4.46,12.18,22.68,12.53,26.3.78,8.21-4.23,28.54-5.57,38-.3,2.12-.11,4.25-.13,6.37-15.18-4.32-7.66-13.58-8.97-24.52-1.56-13.06-23.19-8.42-24.93-21.07-.88-6.4,1.24-9.63-3.23-15.77-1.17-1.61-3.63-1.87-3.92-4.16l6.08-19.49c6.66,2.56,11.19.05,15.61-4.92ZM701.19,300.83c-.19,2.66-8.29,22.1-9.68,22.43-4.06-.42-6.77-3.68-10.07-5.69-1.95-1.18-4.5-1.36-6.31-2.69-1.92-1.42-2.53-4.12-4.49-5.51-2.04-1.46-5.18-1.38-6.51-2.49-1.5-1.25-1.7-4.83-5.07-6.93-3.85-2.39-12.04-2.29-15.88.02-4.96,2.98-5.28,10.85-7.48,12.52-1.65,1.25-4.31.77-6.33,1.67-2.39,1.06-4.05,4.49-7.26,4.23,14.06-16.89,32.34-30.03,52.33-39.16,5.74-2.62,12.35-5.78,18.67-5.83v16.5c0,3.91,8.29,7.95,8.08,10.94ZM695.11,255.39c.34,6.86-4.07,12.5-10.99,12.99,1.19-5.51,4.33-13.64,10.99-12.99ZM662.12,245.38c.7-1.27,1.22-2.78,2-3.99l-4.91.93c-.58-2.81-3.84-5.62-.57-7.93,3.76,0,6.07,3.52,5.48,7,1.53-2.4,4.5-4.84,6.5-6.98,1.58-.01,5.61,10.12,5.31,12.26-1.2,8.78-13.6,18.47-20.8,22.73-1.28-1.7,2.98-14.64,4.93-16.56,3.09-3.04,11.11-.47,14.04-4.94-3.07-3.54-7.8-2.37-11.98-2.51ZM672.64,262.42c2.76-1.69,6.18-5.36,8.47-6.54,1.35-.7,1.54-.68,2.54.48,1.45,4.66-1.15,9.34-4.51,12.55-2.26,2.16-24.69,15.96-26.01,14.48-.93-13.03,10.81-15.64,19.52-20.97ZM628.13,238.4c1.94.19,1,5.1.75,6.25-.58,2.66-2.57,7.11-3.76,9.74,2.26-2.63,3.39-5.48,6.45-7.05,8.41-4.31,5.75.16,8.53,1.57,6.32,3.19,11.78-5.93,13.02-4.51.39,6.03-3.35,11-4.7,16.79-3.61,15.55.49,33.95-20.29,38.2-2.98-10.44.35-20.58,1.72-30.78.15-1.08,1.11-3.45-.72-3.22-1.38,5.9-4.93,11.7-5.75,17.75-.88,6.41-.11,14.2-1.34,20.66-2.86,14.96-18.17,31.3-26.91,43.58-2.09-13.01-6.17-27.23-5-40.48,2.03-22.86,25.97-32.58,34.98-52.52-10.8,12.57-22.24,24.54-35.99,34-.95-1.07,4.03-7.24,5.02-8.47,11.15-13.8,26.03-25.04,33.98-41.52ZM601.11,215.39l-1.98,11.99-3.89-8.52,5.88-3.47ZM597.82,251.59c1.67-6.45.41-16.17,8.29-18.2-1.3,9.88,3.48,12.26,12,8,1.44,1.92-10.24,16.64-12.02,19.47l-15.96,18.52c1.76-9.46,5.27-18.48,7.69-27.79ZM588.97,208.53c.26,2.52,1.06,6.74-1.84,7.86.28-4.27-4.31-5.68-6.01-8.99l7.86,1.13ZM578.22,227.5c7.32-3.84,5.74,4.32,8.66,8.63,1.65,2.43,4.6,2.65,4.31,5.75-.9,9.71-15.48-10.81-12.97-14.38ZM591.68,258.38c2.15,3.97-4.65,11.78-8.1,9.1-4.55-3.53-11.84-23.58-15.28-29.77-3-5.4-11.48-14.49-13.17-18.83-.58-1.49.22-1.58,1.5-1.48,4,.31,7.36.17,11.34.16l23.72,40.82ZM550.06,175.1c4.94-6.27,4.88,7.36,1.94,9.17-3.87,2.39-4.4-6.05-1.94-9.17ZM548.12,191.89c0-3.04,7.12-4.12,9.53-5.47,3.9-2.17,5.67-6.76,10.46-6.03-1.88,4.86-4.73,7.98-7,12.99,3.05-1.67,6.66-.87,10-1-.34,7.14-5.8,16.11-14,14.99-1.4-1.39,3.01-11.81,4-14-5.09,2.8-4.75,17.19-13,17v-18.5ZM540.61,164.41c4.56,1.35,7.4,9.25,4.27,12.72-.32.36-2.19,1.36-2.78.82-2.06-1.26-4.8-11.63-1.48-13.54ZM528.13,145.39c3.02,1.51,4.42,6.71,1.49,8.98-3.61-2.47-2.58-5.4-1.49-8.98ZM519.31,177.08c3.33-3.43,5.46-9.15,10.8-9.69.09,2.82-.11,5.68,0,8.51.05,1.21-.76,3.72.99,3.48l.13-6.37,2.36-8.61c18.24,27.91,5.04,56.23-16.48,76.99-1.67-5.65.71-11.26.98-16.99l-4.1,9.87-2.82.07c-3.22-9.54,1.86-19.21,3.95-28.43l-4.01,2.48c-1.07-5.48-1.6-11.68-.75-17.25.13-.88.44-3.01,1.73-2.74l4,15.99,3.21-27.3ZM473.1,196.87c1.54-1.29,6.87-1.51,9.29-2.71,11.76-5.84.78-25.88,8.99-30.01,3.57-1.8,12.8-1.69,12.6-7.24-.13-3.78-5.17-8.72,1.85-10.3,14.7-3.3,8.93,21.7,6.77,29.77-5.42,20.32-9.48,25.44-6.37,48.38,1.4,10.34,10.34,30.79-1.56,37.67-10.98,6.35-5.74-16.62-4.57-22.04-1.5.2-2.29,3.5-2.71,4.78-6.8,20.75-3.89,43.16-8.29,64.22-5.86-3.93-8.58-13.32-10.49-20-4.27-14.97-3.34-27.43-4.51-42.49-.75-9.65-1.92-14.8-1.95-24.97-.01-4.1-.87-23.54.94-25.06ZM464.84,151.13c-.34.35-5.89,3.03-6.24,3-9.17-10.67,13.39-10.23,6.24-3ZM454.38,166.16c3.66-8.96,13.97-5.59,13.57-1.46-.76,7.91-17.74,23.65-8.9,32.26,2.36,2.29,10.06,3.42,10.06,6.93,0,4.35.84,14.63,0,18-.07.27-1.47,1.95-2.01,1.02-6.95-9.39-17.03-17.27-17.05-30.02,0-4.27,2.87-23.16,4.33-26.73ZM446.77,174.51c4.23-.37,2.86,14.72-1.12,13.86-4.31-.93-5.28-13.29,1.12-13.86ZM428.63,168.39c2.34-.7,5.34,3.95,6.3,5.69,3.28,5.96-7.36,2.18-7.84-2.25-.14-1.26.34-3.09,1.54-3.45ZM426.59,185.4c3.22.92,4.04,4.46,5.52,6.98-.42-2.62-.77-5.35-1-8,1.76.13,3.82-.33,5.51-.01,5.4,1.02,10.17,20.73,11.48,26.01-8.23-4.08-11.65-10.6-15.99-18,2.25,14.2,9,13.3,17.52,21.98,3.62,3.69,9.55,11.94,11.25,16.75,4.33,12.21.76,25.65,3.22,38.27-2.34.65-1.69-.6-2.28-1.27-14.3-16.22-27.25-24.28-31.42-47.52-1.05-5.87-.68-11.18-1.42-16.58-.79-5.75-3.19-12.06-3.87-17.14-.19-1.39-.03-1.9,1.48-1.47ZM424.11,146.39c.71,4.09-1.34,8.22-5.99,7.99-1.28-1.31,3.12-8.67,5.99-7.99ZM417.12,109.39c4.59-.99,5.38,4.64,2.48,6.99-3,.63-2.67-5.19-2.48-6.99ZM417.56,163.33c2.23-3.15,9.02,1.07,5.3,4.79-3.25,3.24-7.49-1.7-5.3-4.79ZM400.16,197.84l6.94,10.54c-3.06-7.96-.53-5.7,2.05-9.71,1.92-2.99,3.49-16.69,9.26-15.17,5.36,1.05,9.81,20.29,8.41,22.66-.17.29-1.75.24-1.76.76,3.69,7.71,3,16.44,4.32,24.71.16,1,3.36,9.09.24,7.76-1.23-.52-8.64-7.53-9.93-9.08-4.06-4.87-7.35-11.98-9.6-17.91l-1.48,2.99c-7.15-5.45-13.63-11.45-14.49-20.99l6.04,3.45ZM388.6,196.38l-3.48-6.99c3.94-1.63,6.73,6.29,3.48,6.99ZM383.6,202.37c1.02-1.74,1.21-.44,2.04-.02,7.17,3.65,15.64,8.05,21.49,13.52,3.78,3.54,7.52,6.7,6.98,12.51l-32.01-12.48c-1.92-1.59.36-11.59,1.49-13.53ZM388.1,227.89c-1.77,2.09-4.31,2.73-6.98,2.5v-5.01c2.95-.3,5.23-.06,6.98,2.5ZM356.1,79.39l1.86,14.3-6.34,6.68c-3.27.07-1.68-20.12,4.49-20.98ZM343.52,98.46c1.33.31,5.3,8.38,4.46,9.77-.24.41-2.93.88-3.33,2.16l-4.51,9.98-7.93-15.36,11.32-6.55ZM281.66,129.44c.98-1.52,3.57-3.84,5.12-4.88,2.45-1.64,11.02-6.46,11.33-1.66,1.53,23.52-1.14,46.9-2.01,70.5-1.5-.23-1.86-1.89-2.51-2.98-2.98-4.99-18.68-37.95-18.45-41.46.09-1.34,5.64-18.14,6.52-19.51ZM253.15,214.85c-6.12-2.93-7.42-3.04-13.71-.63-14.43,5.51-28.31,18.82-44.88,17.22-14.32-1.38-10.69-13.39-12.91-24.08-1.61-7.76-11.77-23.12-2.28-27.2,6.86-2.95,8.31,2.93,12.39,6.09,6.53,5.06,14.54,6.28,22.61,4.91,4.31-.73,8.63-4.56,13.34-4.67,3.16-.08,9.96,2.42,13.08,3.73,16.77,7.04,30.22,22.72,37.32,39.17-1.27,1.17-22.03-13.13-24.96-14.53ZM285.19,228.82c-2.32-2.38-3.36-6.85-5.27-9.73-10.5-15.88-20.97-24.88-36.89-35.11-4.55-2.92-14.67-7.23-17.89-10.11-1.13-1.01-1.35-1-.56-2.5.61-1.16,11.36-11.63,13.06-12.95,4.58-3.58,16.33-9.15,22-9.05,9.3.16,19.09,18.84,22.65,26.35,9.65,20.37,16.61,43.61,24.82,64.67-.96.8-20.04-9.62-21.93-11.56ZM368.12,286.39c-3.17-1.58-6.45-3.04-9.33-5.17-9.22-6.83-14.08-23.32-23.16-32.84-11.09-11.62-23.54-12.89-29.79-31.21-8.53-24.97-1.94-61.75-1.66-88.25.07-6.8-3.85-15.71,2.63-20.34,5.08,1.04,16.46-2.42,20.3-.67,2.46,1.12,10.03,16.42,9.02,17.47-20.5-.71-9.44,17.47-13.5,26.01-1.95,4.09-12.27,2.35-14.08,7.95-1.03,3.2,1.1,10.85.58,15.55-.76,7.01-6.01,12.73-3.55,20.55,1.58,5.03,9.99,5.63,12.44,9.55,3.49,5.58-1.52,13.17.84,18.16.86,1.82,4.95,4.1,6.77,6.22,6.03,7,7.87,13.46,18.96,14.06,7.66.42,15.3-3.61,21.47-3.66,1.19,0,1.31.11,2.06,1.1v45.5ZM368.96,94.22l-5.85.17-1-16.01,16,2.01c-4.64,3.95-7.16,8.03-9.16,13.83ZM379.13,261.88c-.26-5.53-.92-20.15.24-24.74,1.81-7.18,13.89-8.55,20.02-7.51,16.29,2.77,53.58,36.55,62.27,50.73,18.04,29.42,38.59,94.36,35.45,128.52-.71,7.74-5.05,14.29-5.87,21.13-2.2,18.33,5.11,35.83,6.88,53.89,1.61,16.4.68,33.11,2,49.49-2.85.97-1.92-2.55-3.55-2.89-1.11-.23-4.44,1.71-5.38.83-.31-.29.13-2.68-1.02-3.48-1.96-1.36-5.88,1.29-4.05-5.44l-13-.02c3.08-10.13-10.43-9.85-15.51-4.01l-7.46-9.53,4.43-3.46c1.41,2.47,3.42,4.31,6.44,4.53,1.47.1,11.2-2.57,11.16-5.03l-2.06-5.48,4.5,2.03,2.34-1.7c.64-4.14-.33-8.37-1.32-12.36-.37-1.47-2.08-2.54-2.48-4.52-.83-4.15,1.52-6.39-4.02-8.96l3.03-4.02-.22-1.34c-3.91-.87-3.88-11.43.18-12.78.16-7.58-6.52-4.4-8.54.67h-1.98s-.99-2.06-.99-2.06l-2,.03-2.49,2.99c-.47-1.76-1.31-4.75-2.56-5.98-.91-.9-2.52-.79-3.11-1.34-1.63-1.52-3.67-6.97-7.42-4.24-1.26.91-.1,4.45-2.4,3.57-1.59-.61-4.8-5.93-4.52-7.99-1.49-1.4-3.52,4.46-6.41,4.08-.78-.1-.66-2.18-2.25-2.88-2.84-1.24-7.39-1.15-10.33-.21,1.98-5.1.65-11.01,1.01-16.48.61-9.28,2.39-18.73,2.98-28.02,2.79-44.35,2.9-88.98,3-133.48l-3.98,25.5c-2.86,17.12-.73,38.13-4.28,54.72-1.29,6.04-4.51,9.73-6.04,14.96-5.43,18.55,5.37,41.09-2.76,60.24l-2.91,8.57c-1.24-10.1-2.31-20.03-4.5-30-3.6-16.4-9.91-30.59-12.37-47.63-3.91-27.14-6.85-61.43-8.13-88.87ZM379.06,553.43c5.96,18.54,11.34,37.53,6.05,56.96-15.64-14.34-11.47-34.66-14.81-53.41l8.77-3.55ZM368.19,570.83c2.38,3.13-1.49,7.65-4.58,8.59-1.61,0-9.58-8.15-10.09-9.96-.5-1.8-.37-1.88,1.09-3.05,1.7,1.53,3.86,4.48,6.23,4.83,3.02.45,4.98-3.52,7.35-.41ZM365.68,526.45c-4.14,1.79-9,2.12-13.56,1.93,4.27-5.6,6.79-9.15,13.94-4.92l-.38,2.99ZM326.77,429.5l7.33.9c-1.09,6.76,2.58,9.56,5.97,14.38l-12.95,7.6c-.87-3.09,2.26-5.79,2.01-8.43-.5-5.37-11.08-7.71-2.36-14.46ZM346.39,445.15c5.78-1.96,12.88,5.68,18.72,7.26-.5,4.73-7.23,2.87-8.51,8.02-3.36.6-3.05-2.63-4.48-3.54-7.99-5.08-31.78,20.02-32.99,18.5,1.01-10.31,18.18-27.16,27.26-30.24ZM349.12,466.39c-1.63,9.76-13.24,21.11,1.03,27.54-.17,8.85-22.84,19.84-30.03,23.46.59-6.13-.8-13.56,0-19.5.59-4.36,4.44-9.92,4.51-14.49-5.96,6.37-10.57,17.81-10.59,26.5-.01,7.46,3.93,11.38-5.43,16.5l-1-2.06c-2.8-.2-6.05,4.42-6.51,7.05-1.76.24-.99-2.27-.87-3.37,1.02-9.16,5.93-25.58,10.37-33.64,6.71-12.19,23.41-29.22,38.52-27.98ZM310.61,467.33c7.11.69-2.67,16.25-2.51,20.06l-1.97-.48c2.4-3.78-2.53-20.26,4.48-19.58ZM286.13,451.4l5.22,17.75c2.51,2.51,11.4-.37,11.83,3.7.72,6.75-.27,15.03-1.39,21.72-.63,3.74-8.36,34.81-10.18,34.8l-3-2.96-4.53,6.98-5.97-1,1,7.99c-4.22.01-8.88.59-12.54-1.96-1.03-16.72,1.38-35.48,6.52-51.56,3.84-12.01,10.73-22.93,13.03-35.47ZM280.11,576.39l-7.98-10.51,5.99-3.48,2,13.99ZM269.06,457.05l15.05-2.65-10.49,23.99c-5.83-6.69-7.58-12.81-4.56-21.34ZM257.79,466.54c3.52-.29,11.74,14.18,12.14,17.62.59,5.09-3.31,10.32-3.83,15.23l-1.89-2.59-5.08-17.4c3.57,17.03,5.52,33.6,2.98,50.99-4.26-2.92-6.23-10.12-7.5-14.99-2.2-8.4-5.21-29.21-4.5-37.5.3-3.57,3.77-11.03,7.69-11.36ZM246.21,466.49l4.85.48c.11,7.36-5.63,6.07-4.85-.48ZM245.63,452.34l6.48-.95c.88.81-6.52,14.1-8.98,15l2.5-14.05ZM240.63,464.4c1.48,3.12,9.4,18.74,7.48,20.99-2.06.44-2.27-1.05-3.22-2.27-2.95-3.78-11.59-16.68-4.26-18.72ZM204.62,344.39h21.5l6.5,40-4-3.97-1.5,4.99c-2.78.83-1.91-1.99-3.39-3.09-1.83-1.36-4.89-.91-6.83.11-1.46.77-1.54,4.19-3.29,1.99-2.55-10.25-6.9-20.7-8.99-31.01-.35-1.72-2.6-9.01,0-9.01ZM163.56,352.38c2.02-3.26,26.49-2.94,31.56-3.54l12.99,37.54-4.9-.91-2.1,6.9-2.54-4.03-8.45,3.62c-6.28-11.13-17.18-20.85-23.62-31.45-1.21-1.99-4.33-5.88-2.93-8.14ZM145.6,381.41c-5.21-6.59-11.09-10.3-.03-14.07,17.19-5.86,19.68-.03,28.96,12.14,4.56,5.98,8.7,12.47,12.59,18.9l-5.92,1.1c-.32.76-.11,1.53-.03,2.31.79,7.23,7.27,3.09,7.94,3.61l-2.03,3.49c1.45.98,2.55-.12,2.02,2.49-2.09.16-10.97-.8-10.98,1.51l1.98,2.01c.3,1.37-.06,1.89-1.47,1.47-3.8-1.11-29-29.87-33.04-34.97ZM150.12,502.39l13.97,3.49c-5.68,6.19-14.21,6.78-13.97-3.49ZM172.65,502.43c-2.94.2-17.59.72-18.53-1.54,3.36-1.31,7.42-1.96,10.23-4.48,2.25-2.01,3.63-6.7,5.82-8.47,3.68-2.98,13.08-.68,17.96-1.06l6.99,12.51c-7.48-.16-15.15,2.54-22.46,3.04ZM195.68,489.32c-2.07-3.01-3.84-5.54-.03-7.92,1.89-.42,3.34,4.24,5.52,5.42,2,1.08,6.21.87,7.43,2.57l4.5,15.99c-1.06,1.3-16.38-14.54-17.42-16.06ZM224.59,513.39c-5.77,1.13-13.66-18.32-13.4-23.36l4.46-2.28c3.36.44,10.79,18.61,10.56,22.15-.1,1.54-.2,2.59-1.61,3.49ZM239.56,525.45c-1.07-3.47-.8-9.2-1.72-13.28-3.14-14.01-4.83-19.69-4.72-34.78-.7.41-.85-.49-1.05,1.45-.59,5.5-.48,12.24-.96,18.05-.12,1.48.82,2.91-1.47,2.49-4.68-5.07-12.28-18.5-11.49-25.39.45-3.89,3.72-8.63,7.97-6.6-.46-4.4-.64-14.11,6.37-11.92,1.67.52,1.52,2,1.68,3.37.57,4.71-1.01,12.89-1.05,18.55,7.69-4.49,13.51,14.04,14.73,19.77,2.69,12.61,2.01,26.08,7.26,38.23l-4.62-3.92c-3.15,4.38-9.95-2.87-10.93-6.02ZM304.11,675.39c-19.76-8.93-31.94-25.42-35.72-46.77-1.51-8.52-.37-20.73-5.26-27.74-1.38-1.97-4.02-3.41-5.42-5.58-1.12-1.74-9.21-17.54-9.29-18.57-.1-1.16.66-2.2.72-3.33,4.98,1.35,7.7,2.42,12.98,1,.35,2.62.09,2.54-1.99,3.49,20.32,14.13,27.98,41.05,35.26,63.74,1.37,4.28,10.08,31.96,8.72,33.77ZM317.13,660.87c-5.14-14.65-12.62-28.56-16.93-43.37,9.83-5.16,21.94,3.45,21.49-13.12,23.92-.07,40.05,12.07,49.6,33.34,3.13,6.97,10.77,27.8,8.06,34.42-.5,1.21-6.18,8.27-7.25,8.81-2.74,1.39-4.9-3.83-6.34-5.21-6.12-5.86-14.37-12.25-21.34-17.17-4.09-2.89-8.71-6.23-13.31-8.18,9.04,8.75,19.72,15.95,28.03,25.46,1.89,2.17,7.03,7.72,7.06,10,.03,2.94-12.17,20.83-14.61,25.5-2.91,5.57-5.13,11.43-7.96,17.04l-10.5,35.98c1.11-5.73-1.15-13.3-.94-18.42.1-2.6,4.55-9.82,3.92-10.57l-3.99,2.99c-.09-26.36-6.31-52.79-14.99-77.51ZM276.14,845.92c6.74-14.19,16.69-27.79,22.84-42.17,1.72-4.02,6.14-15.09,6.14-18.86v-14.5l14.02,31.48,8.01,28.97c-8.25,10.96-16.82,21.76-22.91,34.17-6.73,13.72-5.55,18.98-8.81,32.19-1.34,5.43-5.84,9.82-7.31,15.18,11.29-14.59,26.57-21.84,42.6-29.92l2.39,1.42v19c0,4.21-24.38,24.45-25.02,32.49l-6.41-3.02c-5.94,1.49-11.37,11.13-6.33,15.77,1.43,1.31,5.69.51,4.74,2.74l-12.99,13.02c2.94,1.87,4.52-5.76,6.96-2.02l-16.98,48.51-1.98-8.5c.66-10.66-1.14-25.66,7.99-32.99l-1.91-.91c4.82-12.79.12-23.04-12.09-28.58,3.5,5.22,12.62,10.7,12.93,17.56.13,2.8-1.67,14.35-4.45,15.42l-5.47-7.99c.09,5.68-2.13,13.01-2.05,18.45.12,7.25,3.39,16.59,4.05,24.04l-1.75-.26c-2.18-17.05-8.07-34.63-9.26-51.74-1.07-15.48-.03-41.19.95-57.03.16-2.62.61-7.53,1.05-9.95.82-4.46,8.57-1.5,11.99-3.5l-1,25-4.98-6.99c-.27,5.69,3,10.87,3.07,16.5.05,4.38-1.44,10.56-2.01,15.08-.25,1.97.23,1.44,1.92,1.41,1.9-16.43,11.5-30.78,16.76-45.76.68-1.94,4.57-10.03.27-9.24l-12.03,32-1.5-.98,1.51-46.02c12.46,3.21,13.79-16.17,3.45-17.94-1.85-.32-7.19,1.04-6.42-1.53ZM277.11,868.38l-9.99-2,4.01-10.99c2.01.58,1.68,4.07,2.58,5.9,1.05,2.14,4.2,3.74,3.4,7.08ZM273.11,847.8c-.36,3.83-7.1,17.17-9.98,20.59-.29-13.89,1.38-27.63,1.03-41.54-.09-3.84-1.91-9.04-1.69-12.81.33-5.8,4.8-15.99,9.64-19.65-.15,12.2-1.46,24.3-1.03,36.54.16,4.63,2.42,12.78,2.04,16.87ZM268.62,781.41l4.06,8.01c-1.13,1.3-9.68,6.94-10.56,5.97-1.33-7.14,1.65-9.69,6.49-13.98ZM121.05,921.95c-5.14-5.23-6.06-40.06-5.46-48.58,18.8-9.04,49.11-17.74,62.5-34.5,9.05-11.33,18.21-50.13,19.06-64.96.13-2.24-.06-2.63-1.27-.27-10.88,21.22-32.89,26.71-47.73,44.28-11.96,14.17-15.13,29.83-24.23,43.77-1.97,3.02-4.37,7.38-8.79,5.23-5.17-2.51-4.5-28.31-4.04-34.07.42-5.34,6.67-30.68,8.82-35.18,4.12-8.61,31.16-18.63,40.24-23.76,15.62-8.83,30.23-23.03,37.16-39.84,4.55-11.05,5.21-25.34,9.73-35.27.53-1.17-.48-1.82,2.09-1.41,5.32,45.66,34.08,83.94,43.99,128.51-3.4.06-5.8-3.24-9.61-3.48-1.67-.11-12.51,1.35-13.63,1.96-4.23,2.31.33,16.7,3.94,18.82,3.99,2.33,10.7.57,15.17,1.32l4.15,24.86c1.78.17,1.06-3.37.97-4.47-.76-9.73-6.2-19.58-.97-28.52.33-.25,1.29.57,1.5.98,1.99,3.99,2.85,19.26,3.95,25.05.71,3.75,3.15,6.24,1.55,9.97l1.99-1.02,1.85,13.48-3.83,25.53c.62-3.94-1.1-7.64-1.1-11.49,0-3.57,1.57-6.76,1.11-11.03-.58-5.35-5.57-7.28-3.02-12.47h-1.98c.22,3.73-5.3,1.09-8.78,2.72-1.85.87-2.35,2.96-3.73,4.25l-3.52-4.47c2.34,8.07,6.36,16.1,9.04,23.96,3.43,10.08,11.57,31.83,12.72,41.28.66,5.45-.92,10.97-.78,16.79.1,4.21,1.23,10.21,2.04,14.45l-4.5-3.99c-.63,3.01,2.81,6.71,3.98,10.02.54,1.51,2.9,10.54,2.52,10.97-2.69.42-2.25-2.35-4.25-3.31-2.32-1.11-7.34-.57-8.21-1.65l-8.04-21.03c-1.65.52,3.58,10.49.02,8.99-1.13-.48-11.4-13.18-13.54-15.51-.7-.76-2.13-5.45-2.92-1.04,6.8,9.49,12.35,20.47,19.12,29.89,1.52,2.11,9.39,8.01,3.44,7.57-2.66-.2-5.61-1.59-8.62-.9-1.41,6.37,3.18,10.14,4.06,15.95l10.52-3.92-1.56-7.02,3.35,1.93,6-3.79c2.61.51,7.59,13.55,7.54,16.25-.08,4.43-3.14,9.92-2.92,14.62-2.26.4-1.59-.11-2.23-1.28-1.54-2.82-2.28-7.61-3.78-10.72-1.86-.23-.78,2.03-.54,3.04.64,2.69,2.36,5.14,2.54,7.95l-3.5-2.99c-.2,3.68,3.38,8.11,4.99,12.01,5.2,12.59,9.67,26.29,7.51,39.98-2.38.67-2.43-1.56-3.15-3.3-3.87-9.38-5.65-19.75-10.86-28.68-1.74-.25-1.02,2.31-.89,3.38.61,4.79,3.33,9.56,2.89,14.61-5.26-3.81-1.4-13.71-10.99-12.01,4.43-6.2,8.35-11.88,6.99-19.99-6.49,4.58-13.87,13.15-20.67,16.82-3.68,1.98-7.03,1.71-9.83,4.17-3.5-2.64-7.6-21.09-8.51-21.99-2.67-2.65-2.78,8.64-4.63,9.07-13.78-2.35-27.21-9.33-41.34-4.07l3.62-10.93c11.24,1.78,22.36,4.6,33.86,3.92,1.69-.1,11.51-1.19,11.49-2.49l-43.85-11.63c-.33-1.91-.77-6.07,1.51-6.79,1.93-.61,15.03,3.5,18.98,3.79,7.5.55,17.35-.03,22.37-6.38.44-2.26-.97-1.27-2.34-1.62-12.26-3.13-24.26-3.56-36.65-.87l3.01-11c15.51,4.06,31.31.99,46.98,0l-1.39-2.1-43.57-8.93,1.92-10.56c12.45,1.27,27.58,2.02,36.04-8.91-11.87-2.97-24.05-.99-35.99.5l1.96-8.53,28.39-7.32c7.98,9.14,19.54,3.16,29.58,1.89l3.05,7.96c.45-2.5-1.35-5.02-1.02-7.44.46-3.45,5.88-4.93,4.63-11.58-1.62-8.67-7.58-6.71-11.06-11.01-2.64-3.28-3.76-10.14-6.65-13.85-3.27,1.96-5.23-1.02-8.41-1.19-6.72-.36-11.88,6.7-11.52,13.04l-28.96,3.04c-.04-1.53.09-4.79,1.24-5.76.65-.55,12.43-4.14,15.11-5.38,5.67-2.62,15.11-10.04,19.6-11.41,6.2-1.88,8.43,2.38,9.56,2.36.35,0,5.03-3.85,5.39-4.42,4.59-7.29-1.23-16.44-10.31-15.31-9.74,1.21-7.11,6.37-10.29,8.98-2.31,1.9-11.43,5.64-15,7.74-2.14,1.26-4.73,4.86-7.3,3.7,4.88-4.23,9.94-8.46,14.64-12.85,1.1-1.03,1.84-2.84,3.31-4.19,2.15-1.97,5.19-2.46,7.06-4.94,1.24-1.63,4.03-9.04,2.97-10.52l-4.99,1.99,1-6c7.57,4.48,13.12-2.42,17.98,6l-1.87-6.31c.57-2.18,4.67-2.67,5.99-6.17,2.98-7.9-9.82-15.04-13.61-6.55-3.2-7.24-8.83-3.73-13.8-5.18-3.5-1.02-2.63-7.78-4.85-10.64-11.7-1.79-9.34,13.23-16.36,18.83l-5.98-5.99c-8.12-5.38-16.52,3.54-12.98,11.98,2.51,5.98,7.38,2.94,10.91,3.07,2.29.09,4.42,2.08,7,1.92,5.81-.37,16.05-9.33,19.55-13.97-.37,1.95.68,6.51-.15,7.84-1.85,2.96-25.72,7.41-21.83,18.16.72.73,9.8-1.49,11.79-1.71,1.1-.12,3.41-1.16,3.2.7l-22.94,6-4.06-6.97,7.99,1.5c-2.33-6.59-5.47-10.06-11.07-13.93-1.27-.88-13.39-8.17-13.92-7.57.1,4.88-.3,11.6,1.27,16.22.99,2.92,10.97,15.2,9.72,16.77l-17.99-10.99c.29,2.99,7.02,15.4,5.92,16.91-1.14,1.57-4.67.56-5.91-.92-.08,1.14-.49,2.43-1.14,3.36-1.53,2.17-18.04,18.03-20.37,19.64-3.1,2.14-8.66,3.52-11.56.56ZM253.99,903.76c-.12,1.15-.44,5.49-1.86,5.62l-1.94-8.37,3.92-1.62c.1,1.46.03,2.9-.12,4.36ZM180.24,921.08l6.87-4.68-1.98,27.43-2.51.59-9.5-13.02,9.99,1.99-2.86-12.31ZM187.11,936.38c9.65.37,19.56-1.98,28.79-4.71,3.53-1.04,7.28-3.93,10.84-4.24,2.85-.25,5.94,1.38,7.69,1.03.86-.17,3.75-6.94,6.67-6.06l2.02,4.98c-7.46,1.67-14.35,5.71-20.94,9.56l-35.06,4.45v-5.01ZM130.19,976.81c-2.45-9.49-8.9-31.43-8.73-40.11.06-3.01,1.99-6.69,5.18-7.28,2.82-.52,30.86-.61,32.26.19,5.98,9.46,13.52,18.52,24.26,22.44l-.05,6.34-44.99-20.99c7.93,15.57,23.09,29.7,40.96,32.03.13,1.33.43,8.35-2.26,7.8-5.92-2.24-11.84-4.56-17.37-7.67-1.98-1.11-16.61-11.91-17.32-11.17,4.55,15.25,19.06,23.61,33.08,28.63-.37,2.27-.71,4.58-1.12,6.85-.25,1.4.96,2.95-1.45,2.51-7.94-9.76-20.16-17.87-32.51-20.98,5.92,13.2,18.27,25.06,31.87,30.11.46,1.81.6,5.9-2.17,5.73l-29.7-14.84c6.01,10.67,14,22.13,25.57,26.95l-2.09,9.04c-1.39.31-21.11-15.62-22.25-17.73-3.83-7.08-8.85-28.91-11.16-37.84ZM139.13,1042.87l-2.02,9.52-3.06-1.68,2.08-17.32,3,9.48ZM126.13,1064.89c2.69-1.88,3.87-4.89,5.69-7.24.64-.82-.02-1.83,2.27-1.26,1.14,1.05.28,9.45,0,11.51-.51,3.88-6.19-2.01-7.97-3.01ZM140.59,1082.4c2.01-.29,8.66,5.39,7.52,6.97l-10.51,6.96-5.4-7.44,8.39-6.48ZM116.54,1115.43c1.05-8.77-4.93-17.83-11.42-23.55l11.81.69c1.4,8.6,3.63,17.33,8.19,24.8l-8.57-1.95ZM130.11,1120.38c2.08-5.5,2.05-6.82-.22-12.27-2.17-5.2-8.23-11.35-9.77-15.24-1.13-2.86,8.5-.96,9.99-1.49-.31,10.85,3.26,21.42,7.99,31l-8-2Z"/>
    <path class="cls-1" d="M900.11,746.4c-9.83,7.45-19.15,14.57-27.51,23.98-36.4,40.91-61.58,103.8-121.46,115.54-17.95,3.52-34.86,2.88-50.01,15.48-1.75-2.33,21.65-46.83,24.82-52.67,8.99-16.58,18.65-33,29.68-48.32,1.6.92-.37,2.25-.9,3.1-13.75,21.95-26.43,44.75-38.12,67.88-3.42,6.76-7.67,14.55-10.67,21.33-.42.96-1.63,3.04-.31,3.69,23.26-31.44,34.55-71.14,62.51-99.49,12.13-12.3,23.37-16.99,37.3-25.7,13.07-8.18,26.42-18.94,41.15-23.85,17.65-5.88,35.63-4.8,53.54-.95Z"/>
    <path class="cls-1" d="M733.75,1151.77c4.61-2.27,8.73-4.46,10.67-5.57,49.77-28.6,81.34-78.7,122.69-116.81h-42.5c-28.49,0-63.18,28.9-79.9,50.1-18.11,22.96-31.41,50.1-50.59,72.28h39.63Z"/>
    <path class="cls-1" d="M96.12,1014.39c.7.7,7.75-1.73,9.56,5.94.79,3.32,1.02,23.41-2.08,24.06-7.46-3.64-9.82-12.43-10.49-19.99l-7.99,2c-.64-4.92-2.5-21.02,4.55-22.04,7.78-1.13,5.96,9.54,6.45,10.03Z"/>
    <path class="cls-1" d="M91.11,1038.38c-7.38.46-14.89-.86-21.69-3.8-2.2-.95-16.7-9.28-14.3-12.19,7.15,1.47,12.76.8,19.98,3.51,1.74.65,18.83,10.08,16.01,12.48Z"/>
    <path class="cls-1" d="M83.11,1025.39c-7.41-3.77-12.2-11.65-11.98-19.99,8.7,2.97,13.83,10.66,11.98,19.99Z"/>
    <path class="cls-1" d="M239.8,801.71c2.7,2.27,6.35,10.35,4.84,13.65-.95,2.09-6.91,5.37-9.26,5.79-23.08,4.19-9.39-31.05,4.41-19.44Z"/>
    <path class="cls-1" d="M291.88,926.63c2.58,2.58.9,10.03-1.79,12.23-1.56,1.28-4.62,1.35-4.86,1.63-.86.98,1.12,4.93-1.1,4.89l-.14-4.86c-9.01-.67-7.69-6.27-4.86-13.12l2.47,1.98c2.91-3.65,5.73-5.5,10.27-2.75Z"/>
    <path class="cls-1" d="M233.12,1027.39l1.49,9c4.68-7.8,11.76-13.2,18.49-18.99,6.1,9.54-15.78,30.97-22.81,26.82-3.89-2.3-9.15-22.81-7.18-27.82,3.64-.16,3.94,4.88,6.99,5.99-2.06-5.97-2.25-10.03.02-16,3.33-2.29,7.55,7.94,7.89,10.58.5,3.84.28,12.02-4.9,10.41Z"/>
    <path class="cls-1" d="M524.1,209.38l-.76-3.26,5.76-18.73c.04,7.62-3.73,14.6-5,21.99Z"/>
  </g>
</svg>